<svg id="patreon-button" aria-labelledby="patreon-button-desc" role="img" version="1.1" viewBox="0 0 230 50.001" xmlns="http://www.w3.org/2000/svg">
  <title id="patreon-button-title">Become a Patron</title>
  <desc id="patreon-button-desc">A button with the Patreon Icon next to "Become a patron"</desc>
  <rect x="-5.9897e-10" y="-1.2091e-9" width="230" height="50.001" fill="#f96854"/>
  <path d="m36.027 13.013c-4.9634 0-9.0016 4.0376-9.0016 9.0008 0 4.9481 4.0382 8.9738 9.0016 8.9738 4.9481 0 8.9737-4.0257 8.9737-8.9738 0-4.9632-4.0256-9.0008-8.9737-9.0008" fill="#fff"/>
  <path d="m200.25 19.32h2.992l3.648 6.4801q0.51201 0.96001 0.68801 1.472h0.0321l-0.0159-1.456v-6.4961h2.48v11.36h-2.88l-3.776-6.5441q-0.208-0.36802-0.40001-0.73601-0.17602-0.38401-0.27202-0.65601h-0.0321l0.0159 1.504v6.4321h-2.48zm-7.2451 11.632q-1.696 0-2.96-0.72001-1.264-0.73601-1.952-2.08-0.68801-1.344-0.68801-3.152 0-1.808 0.68801-3.152 0.68801-1.344 1.952-2.064 1.264-0.73601 2.96-0.73601t2.96 0.73601q1.264 0.72001 1.952 2.064 0.68801 1.344 0.68801 3.152 0 1.808-0.68801 3.152-0.68801 1.344-1.952 2.08-1.264 0.72001-2.96 0.72001zm0-2.112q1.328 0 2.064-1.008 0.75201-1.024 0.75201-2.832 0-1.808-0.75201-2.816-0.73601-1.024-2.064-1.024t-2.08 1.024q-0.75201 1.008-0.75201 2.816 0 1.792 0.75201 2.816 0.75201 1.024 2.08 1.024zm-11.357-2.512h-1.632v4.3521h-2.704v-11.36h4.9921q2.096 0 3.12 0.92802 1.04 0.92801 1.04 2.56 0 1.088-0.57601 1.92-0.57601 0.83201-1.648 1.2l2.512 4.7521h-2.928zm-1.632-1.856h1.744q0.96001 0 1.424-0.43201 0.464-0.43201 0.464-1.232 0-1.584-1.888-1.584h-1.744zm-3.98-3.008h-3.312v9.2161h-2.688v-9.2161h-3.296v-2.144h9.2961zm-11.737 6.5601h-4.192l-0.86401 2.656h-2.704l4.128-11.36h3.088l4.1281 11.36h-2.72zm-0.624-1.904-1.04-3.168q-0.12801-0.36802-0.24-0.75201-0.096-0.4-0.17602-0.84801h-0.0321q-0.08 0.448-0.192 0.84801-0.096 0.384-0.22402 0.75201l-1.04 3.168zm-10.324-6.8001q1.216 0 2.144 0.44801 0.92802 0.43201 1.424 1.248 0.51201 0.80001 0.51201 1.872 0 1.696-1.12 2.688-1.104 0.97601-3.024 0.97601h-2.272v4.1281h-2.704v-11.36zm-0.65601 5.3441q0.89602 0 1.392-0.44801 0.51201-0.448 0.51201-1.248 0-0.80001-0.49601-1.248-0.496-0.448-1.408-0.448h-1.68v3.392zm-13.303 3.36h-4.1921l-0.86401 2.656h-2.704l4.1281-11.36h3.088l4.1281 11.36h-2.72zm-0.62401-1.904-1.04-3.168q-0.12802-0.36802-0.24001-0.75201-0.096-0.4-0.17601-0.84801h-0.0321q-0.08 0.448-0.192 0.84801-0.096 0.384-0.22402 0.75201l-1.04 3.168zm-12.069 2.56v2h-7.8881v-11.36h7.7761v2h-5.0721v2.56h4.8001v1.984h-4.8001v2.816zm-22.42-9.3601h3.712l2.096 6.9601q0.17602 0.60801 0.27202 1.376h0.0321q0.08-0.68801 0.288-1.408l2-6.9281h3.76v11.36h-2.464v-7.7441q0-0.70401 0.064-1.28h-0.048q-0.048 0.496-0.24001 1.104l-2.288 7.9201h-2.272l-2.384-7.9201q-0.17602-0.48001-0.24001-1.088h-0.048q0.064 0.76801 0.064 1.264v7.7441h-2.304zm-7.2451 11.632q-1.696 0-2.96-0.72001-1.264-0.73601-1.952-2.08-0.68801-1.344-0.68801-3.152 0-1.808 0.68801-3.152 0.68801-1.344 1.952-2.064 1.264-0.73601 2.96-0.73601t2.96 0.73601q1.264 0.72001 1.952 2.064 0.68801 1.344 0.68801 3.152 0 1.808-0.68801 3.152-0.68801 1.344-1.952 2.08-1.264 0.72001-2.96 0.72001zm0-2.112q1.328 0 2.064-1.008 0.75201-1.024 0.75201-2.832 0-1.808-0.75201-2.816-0.73601-1.024-2.064-1.024t-2.08 1.024q-0.75201 1.008-0.75201 2.816 0 1.792 0.75201 2.816 0.75201 1.024 2.08 1.024zm-11.627 2.112q-1.776 0-3.024-0.72001-1.232-0.73601-1.872-2.064-0.64-1.344-0.64-3.152 0-1.792 0.672-3.136 0.67201-1.344 1.92-2.08 1.264-0.75201 2.976-0.75201 2.144 0 3.472 1.104 1.328 1.088 1.552 2.976l-2.736 0.48001q-0.12801-1.136-0.73601-1.76-0.60801-0.62401-1.616-0.62401-1.28 0-2.016 1.024-0.72001 1.008-0.72001 2.752 0 1.712 0.73601 2.736 0.75201 1.024 2.08 1.024 0.94401 0 1.552-0.60801 0.60801-0.62401 0.78401-1.728l2.736 0.59201q-0.416 1.84-1.744 2.896-1.312 1.04-3.376 1.04zm-6.6156-2.272v2h-7.8881v-11.36h7.7761v2h-5.0721v2.56h4.8001v1.984h-4.8001v2.816zm-11.946-3.9201q1.104 0.17602 1.712 0.89601 0.62401 0.70401 0.62401 1.824 0 0.91201-0.43201 1.648-0.43201 0.72001-1.312 1.136-0.86401 0.41601-2.112 0.41601h-5.3281v-11.36h5.1201q1.872 0 2.816 0.81601 0.96001 0.80001 0.96001 2.112 0 0.91201-0.544 1.584-0.52801 0.67201-1.504 0.92802zm-4.144-3.536v2.768h1.696q0.86401 0 1.264-0.384 0.416-0.384 0.416-1.008t-0.416-0.99202q-0.41601-0.384-1.264-0.384zm1.872 7.5521q0.88001 0 1.328-0.416 0.46401-0.41601 0.46401-1.104 0-0.67201-0.44801-1.072-0.448-0.4-1.28-0.4h-1.936v2.992z" fill="#fff"/>
  <rect x="20" y="13.013" width="4.3951" height="23.975" fill="#052d49"/>
</svg>
