<?xml version="1.0" encoding="UTF-8" standalone="no"?>
<!-- Created with Inkscape (http://www.inkscape.org/) -->

<svg
   xmlns:dc="http://purl.org/dc/elements/1.1/"
   xmlns:cc="http://creativecommons.org/ns#"
   xmlns:rdf="http://www.w3.org/1999/02/22-rdf-syntax-ns#"
   xmlns:svg="http://www.w3.org/2000/svg"
   xmlns="http://www.w3.org/2000/svg"
   xmlns:sodipodi="http://sodipodi.sourceforge.net/DTD/sodipodi-0.dtd"
   xmlns:inkscape="http://www.inkscape.org/namespaces/inkscape"
   width="316.73145"
   height="208.53891"
   viewBox="0 0 316.73145 208.5389"
   version="1.1"
   id="patreon-button-annotation"
   inkscape:version="0.92.2 5c3e80d, 2017-08-06"
   sodipodi:docname="introduction.svg"
   aria-labelledby="patreon-button-annotation-title">
  <title
     id="patreon-button-annotation-title">You help by pledging $1 for my next video. On top, you get as a thank-you: Early Access + Bonus Videos.</title>
  <defs
     id="defs5510" />
  <sodipodi:namedview
     id="base"
     pagecolor="#8c3f3f"
     bordercolor="#666666"
     borderopacity="1.0"
     inkscape:pageopacity="1"
     inkscape:pageshadow="2"
     inkscape:zoom="2.0000001"
     inkscape:cx="73.330988"
     inkscape:cy="124.52467"
     inkscape:document-units="px"
     inkscape:current-layer="patreon-button-annotation"
     showgrid="true"
     fit-margin-top="1"
     fit-margin-left="0"
     fit-margin-right="0"
     fit-margin-bottom="0"
     units="px"
     inkscape:snap-bbox="true"
     inkscape:bbox-paths="false"
     inkscape:bbox-nodes="true"
     inkscape:snap-nodes="false"
     inkscape:snap-others="false"
     inkscape:window-width="1920"
     inkscape:window-height="1016"
     inkscape:window-x="0"
     inkscape:window-y="27"
     inkscape:window-maximized="1"
     inkscape:snap-page="true"
     inkscape:snap-grids="false"
     inkscape:snap-to-guides="false"
     inkscape:snap-bbox-edge-midpoints="false"
     inkscape:snap-global="false">
    <inkscape:grid
       type="xygrid"
       id="grid6364"
       empspacing="1"
       originx="259.75015"
       originy="-81.101985"
       spacingx="26.458331"
       spacingy="26.458331"
       enabled="false" />
  </sodipodi:namedview>
  <metadata
     id="metadata5513">
    <rdf:RDF>
      <cc:Work
         rdf:about="">
        <dc:format>image/svg+xml</dc:format>
        <dc:type
           rdf:resource="http://purl.org/dc/dcmitype/StillImage" />
        <dc:title>You help by pledging $1 for my next video. On top, you get as a thank-you: Early Access + Bonus Videos.</dc:title>
      </cc:Work>
    </rdf:RDF>
  </metadata>
  <path
     inkscape:connector-curvature="0"
     id="path5794"
     style="fill:none;stroke-width:1.5;stroke-linecap:round;stroke-linejoin:round"
     d="m 206.76401,118.65689 c -0.0594,-2.28113 -3.85104,-3.0689 -5.5815,-2.13902 -3.72946,1.80343 -2.67125,7.68121 2.16615,7.26159 5.41642,-0.46985 3.18853,-13.09153 3.21929,-17.41753 -0.012,4.42169 0.0221,14.65447 1.98376,17.27893 m -21.02194,-6.74089 c 0.0704,2.51133 0.37267,5.17568 0.34481,7.80785 0.20471,-3.47541 0.87325,-7.80643 4.33013,-7.94019 4.05869,-0.15707 3.69963,4.9965 3.6358,7.45324 m -19.0204,-5.75245 c 1.57211,-0.91106 3.39511,-1.35828 5.03265,-0.77871 5.06683,1.79328 3.22017,8.33865 -2.65428,7.16599 -1.73914,-0.34717 -3.31819,-2.29992 -1.08543,-3.304 1.68021,-0.75558 4.2093,-0.38095 5.55247,0.50627 M 84.268576,61.032053 c 1.14739,0.45139 4.50304,0.81972 5.93694,-0.70805 3.35287,-3.5723 -3.63258,-5.30085 -6.00638,-1.87694 -3.88248,5.59987 4.23905,8.04025 8.00541,4.81227 m -14.30359,-1.66277 c 1.22507,1.26754 2.24049,2.55055 3.21922,3.53996 m -7.62062,-17.00293 c 0.60419,6.18954 0.44101,11.88047 1.06648,17.44017 2.23635,-3.20942 3.87355,-5.7164 5.8323,-8.6485 m -10.94565,-2.74755 -0.22286,0.68223 m 0.18317,2.99481 c -0.35769,2.12099 0.22299,5.56243 0.34225,7.76121 m -6.68692,-16.86764 c 0.14161,5.09506 0.62253,10.88271 0.93386,15.9728 0.0724,1.18309 1.48961,1.48463 2.35019,0.87656 m -15.960563,-6.03934 c -1.57926,-1.71379 -5.78491,0.22759 -4.34719,2.5796 1.10878,1.81379 5.04031,0.0499 5.97982,1.84769 1.62155,3.10292 -5.81123,3.91928 -7.39248,1.77301 m -4.29201,-5.18475 c -2.56109,-3.12949 -7.19371,3.34091 -4.22307,6.0517 0.42724,0.38986 0.87699,0.6831 1.46242,0.80321 3.42284,0.70226 4.87638,-3.3983 4.30442,-6.16597 -0.0886,0.80811 0.0388,2.30327 -0.011,2.60748 -0.47397,2.89313 -0.47528,5.88314 -0.0464,8.72917 0.13676,0.90764 0.81994,3.46101 0.30996,4.34538 -0.88757,1.53917 -6.93626,-0.75937 -7.0795,-3.10139 m -10.18173,-13.44981 c 0.0404,2.67464 0.25544,5.59334 0.41298,8.07725 -0.13901,-3.75679 0.7247,-7.75523 3.78057,-7.97507 2.70843,-0.19481 3.37053,3.57803 3.5915,7.55143 m -11.33733,-11.48419 0.008,0.85569 m 0.13331,3.32126 c 0.17125,2.78363 -0.10344,5.26447 0.22304,7.86005 m -11.27162,-16.34346 c 0.0152,5.79843 0.34538,11.72623 0.65216,16.85973 -0.1272,-2.30574 -0.30133,-5.13626 1.17247,-6.64287 1.97518,-2.0192 4.42835,-1.33148 5.15739,0.55909 0.69257,1.79601 0.67026,3.9752 0.7791,5.75477 M 2.7997143,62.050123 c 1.49368,0.22613 3.23653,-0.5436 4.66965,-0.19444 m -2.70929,-9.63578 c 0.12687,5.55953 0.61412,13.11 0.82454,17.32979 M 285.97096,11.701991 c 1.39229,-0.10309 3.74962,-0.24758 5.1052,-0.33049 m -3.19525,-9.6108196 c 0.0402,4.46626 0.51477,8.4162796 0.78738,12.8734296 0.0488,0.79809 0.23771,3.04957 0.2758,4.50217 m -12.18284,-6.10555 c 1.43088,-0.7974 3.6916,-1.70157 5.32402,-1.04923 2.01135,0.80377 2.5849,4.74119 1.36296,6.398 -0.79969,1.08427 -2.45407,1.26737 -3.63411,1.23921 -0.93859,-0.0224 -1.91333,-0.186 -2.77571,-0.61249 -1.14859,-0.56802 -0.8914,-2.22988 0.18993,-2.67132 2.77592,-1.13321 4.09469,-0.59154 6.64003,0.25771 M 263.9622,3.2497714 c 0.0331,6.16375 0.60596,11.3766896 0.974,17.3646896 -0.20166,-3.21535 0.44502,-7.90816 4.08891,-8.05395 3.52583,-0.14111 3.89727,4.29724 4.08536,7.40249 m -27.68059,-6.24092 c 1.42217,3.31864 2.90852,4.83987 4.15944,7.83463 1.47374,-1.79922 2.65647,-3.13626 4.0989,-4.82752 1.49497,1.6361 2.6022,3.07657 3.7749,4.37158 1.75364,-2.87527 2.94165,-5.83491 3.63086,-8.29343 m -32.86317,2.76881 c -3.30612,-3.87047 -7.76679,4.74446 -3.66841,6.45501 2.27721,0.95046 4.66094,-0.6597 5.07624,-2.9339 0.0438,-0.24002 0.28849,-3.40853 -0.15691,-3.2879 -0.37116,0.10055 -0.37675,3.22741 -0.35221,3.62875 0.0496,0.81072 0.0992,1.62143 0.14876,2.43215 0.0791,1.29288 0.11359,2.61569 0.28269,3.89963 0.22371,1.69915 1.24115,4.54958 0.46881,6.22019 -0.82164,1.77719 -8.70603,-1.6629 -7.58722,-4.1816 m -10.03474,-11.92566 c 0.32454,3.06935 0.41162,5.16728 0.57641,7.8616 0.0167,-1.21062 -0.14214,-2.14714 -0.10078,-3.30307 0.0329,-0.917 0.1143,-2.34681 0.60219,-3.15215 0.87797,-1.18563 1.96526,-1.62135 3.27403,-1.66708 3.63663,-0.12705 3.80621,3.40327 4.00547,7.64546 m -11.94576,-11.50461 c -0.0592,0.35162 -0.22249,0.69481 -0.20073,1.05072 m 0.28564,3.22538 c -0.002,2.35866 0.0516,6.08459 0.57205,7.90817 m -11.85073,-7.45518 c -0.11963,1.06964 -0.1669,2.14081 -0.15663,3.21599 0.017,1.78357 0.1971,3.22262 0.30619,5.00614 -0.0405,-1.62411 -0.12123,-3.0468 0.0769,-4.51946 0.43732,-3.14303 2.50772,-4.46643 5.43118,-3.62968 2.1359,0.61134 2.253,3.61975 2.36262,5.41206 l 0.13655,2.2325 m -12.72755,-11.68283 c -0.0127,0.50031 0.0296,0.99996 0.003,1.49371 m 0.51896,3.42972 c -0.0101,0.78311 -0.10765,1.55754 -0.12191,2.33939 -0.004,1.92432 0.0767,3.58486 0.36807,5.29722 m -11.1839,-5.94227 c 2.84231,-2.31969 6.13272,-1.88431 7.72203,1.33112 0.33142,0.6705 0.66435,1.49177 0.62378,2.25553 -0.1512,2.84625 -6.03884,3.43398 -7.79613,1.79001 -0.44584,-0.41709 -0.65081,-1.10101 -0.3643,-1.62357 1.06702,-1.94604 5.76514,-1.37414 7.2044,-0.63324 M 176.90258,8.6691714 c -0.004,3.6918496 0.12421,7.1655796 0.23942,10.8611196 0.0357,1.14357 0.18107,2.94398 0.29532,4.10601 0.19228,1.96431 1.47206,2.61855 2.70706,1.65625 m -13.32599,8.86077 c -0.12717,-0.53622 -0.21166,-2.61537 -0.30895,-3.60653 -0.39448,-4.02061 -0.45468,-7.68958 -0.52763,-11.72538 1.3879,6.7e-4 2.1878,-0.10706 3.3045,-0.12928 2.55223,-0.0507 4.77655,1.04161 4.9377,3.67646 0.22772,3.72306 -4.9183,4.67098 -7.66078,4.00289 m -4.12831,-7.5631 c -1.68454,2.30111 -3.86841,4.18568 -5.75311,6.30925 -0.4502,0.50725 -1.50899,2.10265 -1.63348,2.17678 m 0.034,-8.1092 c 0.58214,0.42199 1.03647,0.97405 1.50572,1.51112 1.30236,1.49056 2.69976,2.93456 4.05731,4.32746 0.50552,0.51867 1.06987,1.13122 1.69322,1.83432 m -17.68806,-2.94763 c 1.77293,0.4135 4.03541,0.47953 5.61657,-0.59858 2.96887,-2.02431 -2.59924,-4.88044 -5.29796,-2.13543 -5.19409,5.28319 2.84917,7.45022 7.05962,4.9426 m -23.85837,-4.32869 c -0.46559,-0.58239 -1.22591,-0.80748 -1.95758,-0.85933 -1.46265,-0.10363 -5.10413,0.98854 -3.68692,3.03384 0.45092,0.65076 1.15325,1.12573 1.89642,1.39123 0.90452,0.32316 5.59309,0.36017 5.31945,2.21245 -0.29687,2.00943 -7.57223,1.83042 -8.55616,0.52332 m -5.9759,-6.3075 c -2.03725,-0.62321 -3.89537,0.86377 -4.93645,2.51767 -2.58255,4.1027 3.14368,8.22923 6.80853,4.09236 1.04138,-1.17551 2.00526,-3.32059 1.3251,-4.88613 -0.39948,-0.91945 -2.27633,-1.71122 -3.19718,-1.7239 -0.89554,-0.0123 -1.92911,0.66073 -2.54758,1.23792 m -12.870544,4.02064 c 1.900644,0.40325 4.627184,0.4539 6.258184,-0.82076 0.78327,-0.61214 0.36501,-1.62424 -0.22834,-2.20178 -1.80939,-1.76118 -4.39658,-1.25873 -6.098984,0.3601 -2.35742,2.24175 -1.53596,5.45886 1.720144,6.16845 1.83463,0.39981 4.13797,-0.14173 5.77816,-1.01041 m -76.342927,-1.55995 c 1.26694,-1.10582 3.73841,-1.74575 5.40054,-1.05701 2.20995,0.91576 4.36461,5.45726 2.15261,7.11185 -0.99035,0.7408 -2.79927,0.62827 -3.99289,0.58412 -2.35356,-0.087 -4.56871,-1.92047 -3.18186,-3.00519 1.37998,-1.07936 5.14864,-0.72268 6.78555,-0.36814 m 55.487063,-7.30654 c -1.04071,-0.53818 -3.5896,-0.42954 -4.66573,0.38672 -2.70642,2.05283 -1.62424,7.03792 2.13221,6.8824 5.36672,-0.22221 3.53581,-7.04434 3.40431,-9.9419 -0.0456,-1.00397 -0.21323,-4.75735 -0.3178,-7.42534 -0.006,3.06624 0.40256,8.56618 0.83466,11.96752 0.2605,2.05062 0.28077,3.74049 1.32402,5.26325 m -12.60857,-11.70131 c 0.053,0.27117 0.11828,0.53983 0.18196,0.80869 m 0.0482,3.67713 c 0.20058,2.40803 0.0933,6.2595 0.63044,8.14144 m -12.74422,-7.52047 c 1.32569,1.92791 1.86133,3.05484 2.96796,5.14913 0.25261,0.47806 0.81057,1.61632 1.38637,2.7369 0.6215,-1.33127 1.48496,-3.21505 2.19481,-4.45909 0.22016,-0.38583 1.34937,-3.0123 2.09137,-4.08488 m -28.697053,5.91468 c 2.18806,0.0435 4.618063,0.13481 6.631553,-0.8436 0.90319,-0.43888 0.58715,-1.79424 0.0454,-2.32158 -2.60482,-2.53541 -7.160623,-0.32015 -6.676933,3.16518 0.48182,3.47198 5.737553,4.48438 7.580793,2.42196 m -13.177903,-2.31151 c 0.93012,1.00966 2.32487,3.45257 2.87099,4.04978 m -6.65383,-16.88101 c -0.006,5.36031 0.44592,10.95371 0.59314,16.33168 0.0613,2.23886 0.90329,-0.96027 1.65733,-2.01349 0.38909,-0.54345 3.06941,-4.535 3.63748,-5.37015 m -35.11999,2.29544 c 0.0871,2.56935 0.4103,6.22996 0.66552,7.81747 0.0162,-1.64468 0.20625,-2.14752 0.23205,-2.333 0.26002,-1.8687 0.79518,-5.62026 3.22073,-5.73897 2.91246,-0.14247 3.41332,3.28195 3.60666,7.58703 -0.211,-4.18045 0.79355,-7.89813 3.53801,-8.0152 3.27915,-0.13985 3.18643,4.88439 3.33743,7.56729 M 0.75014434,19.486171 c 0.0362,5.53707 -9.8e-4,12.33844 1.05572996,17.26098 M 159.10672,192.56155 l -0.0321,0.49157 m -10.95119,-3.24359 c 1.795,0.23678 5.19863,0.33969 6.57212,-1.16513 1.63847,-1.79512 -3.20507,-4.51269 -5.78562,-2.00061 -0.84883,0.82643 -1.52382,2.06757 -1.666,3.3156 -0.72982,4.80984 5.82791,3.68297 8.38491,2.51717 m -25.30133,-5.61104 c -0.0734,2.87924 0.16235,4.87558 0.42698,7.83298 -0.11343,-2.60814 0.002,-7.58091 2.71693,-7.67981 2.84078,-0.10352 3.5248,3.71223 3.80366,7.26084 -0.0423,-2.8643 -0.33723,-7.53663 2.80274,-7.61827 3.13447,-0.0815 3.28697,4.407 3.49108,7.23793 m -24.74411,-5.08375 c 0.99708,-0.6074 2.05997,-1.15764 3.23339,-1.29141 6.10421,-0.69588 6.00782,8.23128 0.42599,7.68551 -1.02836,-0.10055 -2.37544,-0.52754 -3.08577,-1.34988 -0.62967,-0.72893 -0.40909,-1.32899 0.37895,-1.74714 1.87447,-0.99471 4.73627,-0.51865 6.52346,0.50932 m -13.68134,-2.86036 c -2.11615,-3.78065 -7.10454,-0.47326 -5.92131,3.23083 0.64099,2.00649 2.72628,3.294 5.00157,2.95238 2.24412,-0.33689 3.4553,-2.62163 3.33457,-4.59557 -0.018,-0.29494 -0.59169,-3.37733 -0.66254,-3.25322 -0.23716,0.41581 -0.0674,1.29297 -0.079,1.74028 -0.0864,3.32696 1.40418,15.51648 0.5732,17.53578 -0.23461,0.57039 -2.53178,0.40361 -2.89286,0.35918 -3.71434,-0.4571 -5.40472,-3.15865 -5.61173,-6.54332 M 89.574476,189.80874 c -3.31702,-1.66478 -8.09177,3.37467 -5.26317,6.32843 2.65864,2.77628 6.97851,0.48811 7.60368,-2.8404 0.18439,-0.98206 -0.0734,-3.34658 -1.61872,-3.64131 -1.4437,-0.27538 -2.55687,-0.36698 -3.02312,0.56709 m -13.42442,3.87101 c 1.62152,-0.0591 4.49664,0.47755 5.82631,-0.73324 2.77092,-2.52326 -3.87551,-4.44034 -5.82186,-2.25723 -0.54397,0.61018 -0.79028,1.33491 -0.99609,2.09627 -1.24378,4.60181 4.209,6.16637 7.59542,3.68157 m -13.13836,-4.9806 c -1.35172,-1.22039 -4.33407,-1.22512 -5.61027,0.19971 -1.78376,1.99137 -1.6023,4.93363 0.29934,6.10638 1.90622,1.17545 5.56688,0.87137 5.886,-1.98984 0.62834,-5.63388 -0.48619,-10.01311 -0.48107,-15.02367 0.53211,7.99549 0.48207,11.29204 2.37326,17.35874 m -13.08992,-11.79057 -0.0293,0.51996 m -0.038,3.45487 c 0.42288,2.14418 -0.0385,6.63653 0.22647,8.82168 m -12.331333,-7.59181 c 0.99596,2.80929 2.39756,5.22022 4.16667,7.86255 2.24279,-3.10059 3.00831,-5.69221 4.35212,-8.48667 m -30.92594,2.15435 c 0.0901,2.61916 0.29619,5.23566 0.41149,7.85149 -0.005,-2.53658 -0.42107,-6.80264 0.12371,-7.56858 0.97074,0.0925 2.18915,0.26334 3.03886,0.21735 1.36571,-0.0735 2.66587,-0.47818 3.46756,-0.81968 m -13.43361,0.97442 c -1.45948,-0.75696 -3.30727,-0.033 -3.99159,1.50762 -0.44401,0.99959 -0.98227,2.25495 -0.81356,3.39076 0.39811,2.68037 4.55268,3.6772 6.45172,1.99187 3.00921,-2.67053 1.58287,-9.66837 -3.24149,-6.25916 M 308.67793,146.59589 c 1.41108,0.10783 5.91069,0.1366 6.75999,-1.42768 1.41126,-2.5993 -6.28645,-4.58504 -7.46844,-0.0733 -1.61569,6.16709 6.45488,6.22217 8.00615,3.81011 m -11.74254,-10.01471 -0.10097,0.51555 m 0.13429,3.63548 c 0.22692,1.82796 0.24992,5.93891 0.35066,7.89589 m -11.8493,-7.43934 c 1.1111,3.14223 2.57062,5.40509 4.22725,7.95575 1.14262,-2.15932 3.32378,-7.05196 3.70396,-8.26678 m -12.98994,1.39572 c -1.94737,-1.10969 -3.49555,0.003 -4.58683,1.51935 -3.62361,5.03471 3.41113,8.00178 6.6162,4.14993 2.66112,-3.19812 -1.86989,-8.33319 -5.38559,-4.66241 m -19.46725,-0.14183 c 0.29522,2.83783 0.40233,5.14481 0.65684,7.88481 -0.17991,-2.82687 0.5491,-7.86889 3.09056,-8.01807 3.43204,-0.2019 3.34797,4.01254 3.58012,7.64167 -0.11224,-3.63585 1.01932,-7.79205 3.7722,-7.98986 3.28542,-0.23611 3.10648,5.19116 3.3358,7.57058 m -35.71751,-4.94279 c 1.38466,-1.03609 3.48709,-1.41881 4.92749,-0.89929 4.81723,1.82295 3.52268,8.45492 -2.74516,7.69765 -1.01644,-0.12279 -2.09277,-0.57235 -2.4976,-1.58485 -1.32612,-3.31674 6.22473,-3.04812 7.69461,-1.57303 m -26.05455,-3.1758 c 1.67155,-0.30783 4.04416,0.0437 5.27513,-0.55447 m -0.33219,-8.8829 c -0.3298,-0.27193 -0.85916,-0.45772 -1.44178,-0.38252 -0.45716,0.059 -1.0136,0.46881 -1.03357,2.16825 -0.0598,5.08869 0.49987,10.0294 0.54822,15.09028 -0.0169,1.68643 0.34498,8.13428 0.27878,9.66671 m -7.89867,-16.04615 c -1.01131,-0.0273 -2.07699,-0.33762 -3.047,0.0758 -0.83559,0.35615 -1.3531,1.20165 -1.71893,2.04004 -2.21074,5.0667 7.34667,7.15802 7.61815,0.8608 0.13777,-3.19581 -4.65555,-5.96641 -5.07347,-1.87329 m -15.95729,-1.0519 c -3.10043,5.99092 -5.61705,10.88484 -8.88963,16.82042 m -1.17433,-16.18883 c 1.70263,2.40333 4.46233,6.91801 5.41721,7.94784 m -15.29212,-7.31323 c -0.11754,2.71266 -0.13174,5.79861 0.28701,7.94955 -0.0627,-1.02438 -1.2036,-7.72666 -0.2871,-7.94955 0.56967,-0.13811 1.72488,0.35662 2.75733,0.32841 1.4956,-0.0408 2.33972,-0.21393 3.72954,-0.61561 m -14.61677,1.21726 c -0.78183,-0.17736 -1.71186,-0.46698 -2.50926,-0.1779 -5.23925,1.89888 -0.76308,10.45705 4.59656,6.73259 0.92595,-0.64333 1.90913,-1.74835 2.00294,-2.99429 0.29096,-3.86435 -5.3135,-5.05673 -6.76427,-2.34758 m -10.79913,-0.66699 c 1.88886,-0.23906 3.8261,-0.37808 5.72795,-0.29924 m -3.39073,-9.46856 c 0.002,6.17464 0.85012,12.15317 0.9743,17.44 m -6.49493,-6.59727 c -0.49465,-0.41445 -1.66114,-0.82911 -2.2221,-0.8986 -1.26501,-0.1567 -4.72223,-0.17908 -3.46861,2.13029 0.76827,1.41534 8.36615,2.57296 7.01877,4.46605 -1.70163,2.39077 -6.92567,1.23036 -7.53426,0.23361 m -22.21596,-1.91713 c 1.94008,0.68961 4.45116,0.78018 6.11905,-0.64236 2.82096,-2.40599 -3.05008,-4.49786 -5.87612,-1.67877 -1.98809,1.9832 -0.48951,5.93113 2.06856,6.55098 2.26607,0.5491 3.56665,0.11624 5.3511,-1.1424 M 116.3158,145.05609 c -0.11495,6.52793 0.73526,13.07314 0.72882,17.32974 -0.17661,-4.18647 0.78271,-8.08372 4.43738,-8.21214 3.16777,-0.11129 3.75982,4.75836 3.80921,7.63897 m -17.41818,-6.72033 c 1.49696,-0.0455 3.87642,-0.60669 5.04664,-0.20558 m -3.20962,-9.58627 c 0.18093,6.26559 0.78892,12.32709 1.03683,17.6368 m -20.589524,-6.98211 c 0.40644,2.72543 0.30704,5.56067 0.44782,8.10809 -0.16592,-2.71939 -0.11322,-5.57765 -0.44782,-8.10809 0.17513,1.1e-4 0.72917,0.36058 0.97408,0.40074 1.46865,0.24104 4.30333,0.0279 5.60143,-0.79312 m -12.58955,1.41904 c -1.8897,-0.83331 -4.58319,-0.15135 -5.62661,1.95725 -2.5101,5.07268 5.50309,7.11777 7.97889,3.82338 2.6068,-3.4688 -3.08124,-8.36704 -6.34341,-4.65663 m -9.63287,-0.74697 c 0.38692,-0.10982 0.78802,-0.0582 1.18071,-0.0983 0.61599,-0.0697 4.14022,-0.19812 3.67762,-0.12184 m -0.69121,-9.2585 c -4.09278,-1.52901 -1.62313,10.26386 -1.45261,11.99207 0.1836,1.85526 0.35292,3.72761 0.46671,5.58804 0.0996,1.62785 0.32333,3.24381 0.42276,4.86947 0.0435,0.71147 0.14851,1.41247 0.19219,2.12663 0.007,0.12158 0.0913,0.47722 0.0839,0.35565 -0.0153,-0.25044 -0.0173,-0.10324 0.0352,-0.44017 M 47.703313,158.89576 c 0.0339,2.79463 -0.0994,4.13058 0.13055,7.77374 -0.12141,-3.51339 1.40412,-8.16009 4.32118,-8.29053 4.484723,-0.20056 3.617983,5.13421 3.818213,7.73314 m -19.600583,-5.39654 c 0.80098,-0.75559 1.76954,-1.19209 2.8316,-1.4347 4.58997,-1.04872 8.47284,6.56425 1.44355,7.69133 -1.27014,0.20371 -2.79941,0.0129 -3.72168,-0.99563 -2.60791,-2.852 5.40138,-3.58238 6.77742,-2.07759 m -17.66318,0.54318 c 1.53027,0.10762 4.70788,0.38979 5.77388,-0.88117 2.66749,-3.18012 -4.03396,-5.40153 -6.42585,-1.68124 -3.43218,5.33843 4.79157,7.53223 8.04202,4.49874 m -24.7293787,-5.2584 c 0.11932,2.62088 0.30368,4.99789 0.39129,7.83089 -0.24071,-2.90034 0.19913,-7.6418 3.1117687,-7.83237 2.89027,-0.1891 3.13993,4.26693 3.31128,7.40635 -0.12098,-3.39494 0.7399,-7.72503 3.47804,-7.94105 2.85321,-0.22511 2.66893,5.07423 2.85869,7.58704" />
  <path
     inkscape:connector-curvature="0"
     id="path6498"
     style="fill:none;stroke-width:3;stroke-linecap:round;stroke-linejoin:round"
     d="m 220.68241,48.630543 c 0.10236,2.49088 0.20432,5.60142 0.41421,8.06628 -0.0155,-3.63103 0.33761,-7.80455 4.37151,-7.95713 3.65756,-0.13835 3.76654,4.90951 3.91536,7.34277 m -16.45825,-6.0155 c -1.22888,-0.89969 -3.03544,-0.99183 -4.16517,0.19694 -3.90356,4.10598 1.1004,9.3776 5.44872,5.84893 2.55968,-2.07713 2.32344,-6.09909 -1.28352,-6.04539 -1.03976,0.016 -1.62298,-0.16416 -2.37397,0.67009 m -8.63644,-6.19453 -0.0236,0.63062 m 0.0122,4.79334 c 0.0853,2.19549 0.39858,5.80585 0.38998,7.91586 m -10.03506,-7.3588 c 1.70251,-0.18107 3.32389,-0.15661 4.75663,-0.32218 m -2.68874,-9.23964 c 0.15278,5.12683 0.39284,13.0468 0.83771,17.27192 m -7.91526,-12.53582 -0.023,0.64491 m 0.44411,4.19822 c 0.11647,3.0606 0.29108,5.2685 0.47568,8.28666 m -5.82162,-7.25912 c -2.15674,-1.16757 -7.26753,-0.0845 -6.1428,2.0641 1.1035,2.10802 6.92274,0.85341 7.11031,3.92017 0.1615,2.64049 -6.1573,1.84822 -7.15981,1.39747 m -7.15429,-6.74352 c -2.86964,-1.14448 -7.62694,2.14911 -6.21636,5.58974 1.36323,3.32502 7.19051,2.68785 8.60537,-0.22939 1.47123,-3.03351 -3.24034,-6.15246 -4.82906,-4.40666 m -16.56275,15.1817 c -0.47428,-5.18028 0.19286,-10.95088 -0.32128,-15.46483 2.05534,-0.15547 3.85,-0.40783 5.69245,0.14129 2.31726,0.69064 3.52196,3.79308 1.79267,5.80934 -0.94502,1.10187 -2.5071,1.56259 -6.69142,1.91501 m -20.24978,-6.30026 c 0.29035,2.65359 0.33651,5.08252 0.56005,7.81034 -0.14234,-2.82026 0.14137,-7.6729 2.99779,-7.84761 3.31734,-0.2029 3.63809,3.84627 3.88804,7.40014 -0.14425,-3.90144 0.74627,-7.96176 3.6271,-8.05485 2.87182,-0.0928 3.27924,3.1613 3.47066,7.6576 m -22.03912,-5.96966 c -1.81364,-0.73346 -3.38418,0.0436 -4.72217,1.33975 -3.99246,3.86726 2.70128,7.52661 6.06193,5.09392 2.47239,-1.78979 2.92718,-8.50706 -1.33976,-6.43367 z m -10.42941,0.66337 c -7.43452,-3.39494 -13.474864,10.69068 0.3301,6.53231 m 199.19763,47.446337 c -0.70142,-0.45164 -1.9462,-0.70623 -2.7949,-0.86202 -1.35511,-0.24872 -4.72232,0.324 -3.43637,2.88521 1.12075,2.23194 7.93314,0.82583 7.37463,3.59339 -0.47711,2.36418 -6.26394,2.28069 -7.98894,0.98598 m -9.48173,-15.80376 c 0.19023,4.33883 -0.40124,12.02013 0.76389,15.51987 0.6657,1.99946 2.88708,2.04264 4.19088,0.50063 m -11.91832,-4.98092 c -1.53144,-1.15293 -3.68803,-0.57093 -4.81774,1.01628 -3.28783,4.61935 3.84395,8.1178 6.78128,3.99087 3.26587,-4.58857 -3.30559,-9.04072 -6.1577,-4.3329 m -15.05862,-10.21967 c 0.12709,1.73397 0.13185,3.4663 0.14152,5.20176 0.0235,4.0866 0.15324,7.86021 0.45296,11.99071 -0.17033,-3.58749 -0.81107,-6.62196 3.06956,-7.84397 1.67797,-0.52839 3.27458,0.41721 4.3424,1.68707 3.79066,4.50778 -3.62103,7.77789 -6.9648,5.281 m -20.43609,-5.76619 c 0.26283,2.43818 0.31275,6.70239 0.66307,7.98609 -0.17313,-2.83071 0.18961,-8.06481 3.60519,-8.22362 2.34891,-0.1092 3.26587,3.54121 3.30386,7.7807 -0.0958,-3.55562 0.88663,-8.07593 4.18226,-8.14499 3.2469,-0.068 3.45389,5.14265 3.39033,7.72344 m -20.1328,-6.94423 c -2.47914,4.16521 -5.9169,14.7003 -8.30677,17.29974 m -1.15938,-16.82462 c 1.82445,2.82959 4.63182,6.4274 5.13742,8.19904 m -9.81596,-6.6635 c -0.72826,-0.53156 -1.94763,-0.69733 -3.08225,-0.74816 -1.80801,-0.081 -3.74365,2.15508 -2.22882,3.72114 0.52159,0.53923 8.53041,0.55624 6.37833,2.83045 -1.63048,1.73742 -5.93456,2.32934 -8.04771,0.87466 m -68.5796,0.92905 c 2.10529,0.71534 4.67394,0.41806 6.58444,-0.77054 3.19973,-1.99087 -7.26636,-6.92567 -7.03989,0.66086 0.0378,1.27387 0.16681,1.62973 0.65,2.47486 1.55244,2.71487 6.01662,2.20165 7.93774,0.34804 m -14.99428,-4.5052 c -0.75963,-1.04528 -1.76078,-1.25475 -3.03514,-1.23642 -4.81156,0.0692 -4.4844,6.3274 -0.51006,7.41527 7.95639,2.17785 4.14206,-14.80562 4.65211,-4.96113 0.16023,3.09478 0.64718,6.18156 0.83099,9.0836 0.12471,2.03901 0.67748,4.52125 0.0554,6.53288 -1.23287,3.98736 -9.62759,-1.26328 -7.99007,-3.47686 m -13.37095,-13.00221 c 1.41176,-0.71532 3.28639,-1.20127 4.83321,-0.63064 4.9944,1.84254 3.93296,7.79218 -1.22873,7.9141 -1.22722,0.029 -4.446,-1.51849 -2.66877,-3.04163 1.14788,-0.98381 3.52131,-1.07202 4.78986,-0.49578 0.55091,0.25033 0.96417,0.36491 1.48764,0.83654 m -19.8388,-4.37333 c 0.27373,2.9521 -0.17764,7.86237 3.77279,7.58663 3.18048,-0.22198 3.72387,-5.50501 3.55721,-8.23002 -0.039,2.54485 0.2362,5.65727 1.3026,7.98828 m -14.69579,-6.31383 c -6.31735,-2.73168 -8.97297,5.90469 -3.92296,6.78902 4.16267,0.72897 5.53281,-1.27453 5.07261,-7.12467 0.47233,4.64138 0.67432,10.30423 0.89565,14.64369 0.0663,1.26368 0.4408,3.20046 -0.68986,4.30524 -1.14645,1.12028 -8.61872,-1.64701 -7.96844,-4.94165 m -25.028724,-11.9946 c 1.34563,-0.84657 3.06083,-1.22652 4.52582,-1.06999 3.89638,0.41633 5.64411,7.13963 0.64897,8.02369 -1.06171,0.1879 -5.59718,0.0174 -4.41023,-2.23911 1.35201,-2.5704 5.07331,-1.8732 7.3353,0.0248 m -16.09811,-14.15839 c 0.42993,5.39129 0.60943,10.75046 1.19464,15.7206 0.45533,1.33469 2.09569,1.37893 2.9585,0.0766 m -17.62357,-5.7479 c -3.216943,5.40339 -6.215043,12.74153 -8.985853,17.85817 m -1.41222,-17.32529 c 1.79595,2.54058 5.28194,7.60032 5.77923,8.07629 m -11.07864,-5.59008 c -0.51895,-0.67121 -2.04898,-1.47837 -2.95356,-1.61914 -5.92605,-0.92219 -5.98482,4.13009 -3.94173,6.61795 1.33871,1.63004 3.69922,1.82523 5.48413,-0.30467 0.95154,-1.26176 1.37103,-2.60809 1.59567,-4.15577 0.088,-4.24565 -0.44754,-9.00104 -0.67984,-12.58947 0.40074,2.10473 0.25344,16.17339 2.22045,17.95966 m -18.39241,-6.57216 c -1.51684,-0.40475 -2.52993,-0.39488 -3.49821,1.01265 -2.47065,3.59143 1.35322,8.06884 5.29742,5.93678 2.4729,-1.33676 3.14508,-7.21366 -0.44587,-7.28988 M 6.9512643,118.75372 c 0.0308,2.32222 0.28295,6.10054 0.42832,8.01861 0.22945,3.03066 0.60786,6.15291 0.67053,8.92044 0.0625,-0.60036 -0.0242,-1.41201 -0.0655,-2.08698 -0.16129,-2.63703 0.57906,-6.01034 4.5535487,-5.7978 2.09786,0.11219 3.36049,1.80546 3.5315,3.96101 0.19868,2.51123 -2.16268,3.444 -4.08275,3.72112 -1.89384,0.27335 -3.8587987,-0.10649 -4.1927287,-0.91256 M 287.18847,84.642333 c -0.35146,1.80517 -0.83845,3.62698 -1.2922,5.42373 m -31.54026,-6.72848 c 1.15157,1.00764 5.6269,0.16224 6.54703,-0.91055 1.31028,-1.52769 -1.49234,-3.02471 -2.74575,-3.01115 -0.89358,0.01 -1.73849,0.42504 -2.46139,0.91571 -2.60761,1.76991 -3.9722,5.72346 -0.13894,6.97663 1.99156,0.65109 4.4086,-0.26564 6.31635,-0.93252 m 16.28617,-7.99137 c 1.47705,-0.0231 3.75287,-0.18405 5.9304,-0.0535 m -3.53879,-9.47425 c 0.6299,4.38215 0.80661,13.59751 1.0036,17.09681 m -15.03619,-6.94562 c 0.63329,2.62427 0.1642,5.37107 0.6716,7.87489 -0.22625,-2.92939 0.16413,-8.08832 3.7793,-8.19765 3.69587,-0.11178 3.41494,4.71223 3.59134,7.69134 m -39.1968,-5.22739 c 0.17059,2.62538 0.0788,5.0768 0.21514,7.60282 1.04448,-4.93661 -0.24947,-7.80868 3.1577,-8.03613 2.67439,-0.1785 3.19111,4.14354 3.30669,7.52225 -0.24114,-3.56582 0.24447,-7.72792 3.32712,-7.89505 3.3202,-0.18003 2.9167,6.08144 2.95056,7.63744 m -24.89631,-2.40475 c 1.67211,0.2408 4.57078,0.1909 5.85561,-1.07955 2.5507,-2.52191 -3.07154,-3.89714 -4.87486,-2.76782 -1.12711,0.70589 -1.87523,1.9341 -2.19338,3.1486 -1.10814,5.13351 4.47556,5.19704 7.92942,3.94651 m -20.84161,-6.62925 c 1.95824,2.84332 3.30765,5.27413 4.68151,8.12091 0.97747,-2.94925 3.90816,-7.9121 4.46629,-8.67239 m -16.18038,1.94767 c -1.53474,-0.58282 -3.10901,-0.23767 -3.97615,1.3688 -2.56455,4.75089 3.92012,8.2771 6.68882,4.17777 0.76866,-1.13811 1.03025,-3.99973 0.42605,-5.28829 -0.78116,-1.66602 -4.23025,-1.39166 -5.13343,-0.19256 m -20.47008,0.4533 c 0.10843,2.54284 0.61497,6.03002 0.53415,7.94703 -0.0906,-0.84236 -0.33167,-8.05829 3.52445,-8.13982 2.95519,-0.0625 2.89383,5.07353 3.20225,7.8573 0.0732,-3.41736 0.24299,-7.916 3.38952,-8.10655 3.26792,-0.19788 2.79911,5.03175 3.03778,7.74642 m -29.28621,0.5473 c -0.13056,0.53045 -0.28975,1.04824 -0.47878,1.55962 -0.32039,0.86678 -0.53877,1.76149 -0.81046,2.63656 -0.0964,0.31079 -0.17283,0.65349 -0.20507,0.978109 -0.0107,0.1036 0.0788,0.30489 -0.025,0.31124 -0.0848,0.005 -0.0104,-0.1694 -0.0155,-0.25411 m -3.47741,-10.838909 c -0.69201,-0.58838 -1.47786,-0.65845 -2.40153,-0.61828 -1.42817,0.0621 -5.201,1.65596 -3.19181,3.36519 0.83714,0.71221 8.07436,0.76173 6.1068,3.23371 -1.42617,1.79185 -5.92013,2.19682 -7.27405,0.22628 m -11.71135,-2.06266 c 1.67835,0.41309 5.23554,0.66621 6.03513,-1.36824 0.30474,-0.77522 0.21706,-1.91229 -0.84867,-2.36017 -2.76725,-1.16289 -4.63547,0.10923 -5.69238,1.9563 -0.42658,0.74558 -0.56638,1.56561 -0.55827,2.42555 -0.13274,5.05186 6.46412,3.86932 8.64535,2.15365 m -20.62678,10.940417 c -0.2167,-5.241668 -0.59607,-11.970037 -0.70269,-16.990957 1.79004,-0.0721 3.14499,-0.2732 4.23533,-0.14865 5.28977,0.60446 5.64743,6.93877 0.6433,7.94132 -0.88383,0.17708 -2.25921,0.40454 -4.28916,-0.22051 m -12.80969,-5.15783 c 1.19951,-0.95544 2.3307,-1.31772 3.75775,-1.35725 4.50139,-0.12468 6.55006,6.75426 0.93845,7.69228 -1.39258,0.23278 -2.99852,-0.13978 -4.03394,-1.06499 -2.76413,-2.46982 4.72084,-3.33939 6.72075,-2.05069 m -20.05669,-13.0564 c 0.43085,5.86486 0.92958,11.27536 1.37489,17.196519 0.0635,-3.156529 -0.70578,-8.093009 3.98676,-8.376579 3.36933,-0.20407 3.311,5.42226 3.4872,7.74457 m -13.525494,-6.35872 c -0.58121,-0.53449 -1.94301,-0.84506 -2.77285,-0.76626 -1.77951,0.16895 -3.85716,1.86143 -2.39571,3.40802 1.12572,1.19123 6.42619,1.0846 6.538,2.91258 0.14959,2.445849 -6.2288,2.884169 -7.65487,0.89036 m -17.01664,0.10904 c -0.39052,2.301479 -1.44033,4.426827 -1.79822,6.704987 m -4.40134,-10.997597 c -1.15635,-1.41356 -4.96053,-1.44783 -5.38855,0.74181 -0.75462,3.8607 7.56376,1.79467 6.72644,4.793019 -0.42013,1.50463 -5.60937,2.903878 -7.52358,0.87083 m -9.748853,-6.639509 c 0.18365,2.72404 0.38644,5.056859 0.541,7.764079 -0.10856,-2.70866 -0.11309,-6.900669 -0.10579,-7.287479 1.94881,0.41709 4.111073,0.17512 5.748743,-0.46837 m -12.380403,1.53984 c -1.23974,-1.33877 -3.17069,-1.58691 -4.63915,-0.267 -4.41336,3.966849 0.68408,9.266407 4.93085,6.132039 2.30217,-1.69913 3.19978,-5.149829 -0.2916,-5.865049 -1.75948,-0.36042 -2.1854,-0.51151 -3.59368,0.39504 m -10.72539,-10.10705 c 0.0144,2.78535 -0.13252,14.269359 1.06694,16.412287 0.64235,1.14746 2.57914,1.26832 3.50993,0.17993 m -12.26827,-6.507727 c -1.91354,-0.3697 -3.69582,0.51392 -4.69226,2.23256 -2.29122,3.951847 3.35788,8.087317 7.04817,3.946407 3.11962,-3.500467 -0.71326,-8.295527 -4.9346,-5.534857 m -9.10487,0.31314 c -6.4416487,-2.48878 -9.4501187,9.212427 -1.79556,7.405397 1.40288,-0.32817 2.6924,-0.74063 3.82926,-1.72778 M 299.69867,50.600643 c 0.11738,1.68991 -0.46967,4.07719 -0.67135,5.36143 m -4.91953,-11.50382 c -0.7969,-0.55224 -1.93333,-0.54742 -2.92218,-0.48694 -2.21856,0.13569 -5.66843,2.94641 -2.01725,4.21867 1.87887,0.6547 4.30591,-0.41805 6.01586,0.32334 0.46116,0.19995 0.31629,1.07787 0.21172,1.419 -0.83442,2.72135 -5.3655,3.68506 -7.63211,2.00585 m -9.9736,-6.3986 c 2.09642,-0.0982 3.15776,-0.25114 5.24865,-0.37903 m -2.6706,-9.589382 c -0.0845,5.633182 0.58252,12.611822 0.68404,17.569052 m -15.30473,-7.01065 c 0.10809,3.93115 0.21984,7.83202 3.47083,7.67526 3.85355,-0.1858 3.73815,-5.46813 3.61526,-8.23749 -0.0553,2.33248 0.0109,6.6107 1.62419,8.04377 m -13.29507,-6.58277 c -0.7723,-0.17468 -1.83179,-0.47636 -2.77723,-0.47425 -1.44219,0.003 -3.73269,0.28941 -4.71452,1.55081 -1.45435,1.86829 -0.2073,5.29717 1.86441,5.97441 1.92664,0.6298 4.33224,0.1501 5.832,-0.64011 m -27.43162,1.06382 c -0.60151,1.63494 -0.1442,3.63106 -0.87382,5.2092 M 91.428086,122.68333 c 0.0667,2.17098 0.14884,5.23456 0.16818,7.9472 -0.0678,-3.72469 0.97026,-7.97973 3.95466,-8.14463 4.05339,-0.22398 3.53497,5.39865 3.69529,7.67427" />
</svg>
