<?xml version="1.0" encoding="UTF-8" standalone="no"?>
<!-- Created with Inkscape (http://www.inkscape.org/) -->

<svg
   xmlns:dc="http://purl.org/dc/elements/1.1/"
   xmlns:cc="http://creativecommons.org/ns#"
   xmlns:rdf="http://www.w3.org/1999/02/22-rdf-syntax-ns#"
   xmlns:svg="http://www.w3.org/2000/svg"
   xmlns="http://www.w3.org/2000/svg"
   xmlns:sodipodi="http://sodipodi.sourceforge.net/DTD/sodipodi-0.dtd"
   xmlns:inkscape="http://www.inkscape.org/namespaces/inkscape"
   width="342.05807"
   height="85.019409"
   viewBox="0 0 342.05811 85.019409"
   version="1.1"
   sodipodi:docname="SlashCollateral.svg"
   inkscape:version="0.92.2 2405546, 2018-03-11"
   role="img"
   aria-labelledby="SlashCollateral-title"
   id="svg4827">
  <title
     id="SlashCollateral-title">/collateral</title>
  <desc
     id="SlashCollateral-desc">The text &quot;/collateral&quot; written by hand</desc>
  <defs
     id="defs852" />
  <sodipodi:namedview
     id="base"
     pagecolor="#ffffff"
     bordercolor="#666666"
     borderopacity="1.0"
     inkscape:pageopacity="0"
     inkscape:pageshadow="2"
     inkscape:zoom="2.0000002"
     inkscape:cx="121.217"
     inkscape:cy="9.0662954"
     inkscape:document-units="px"
     showgrid="true"
     fit-margin-top="0"
     fit-margin-left="0"
     fit-margin-right="0"
     fit-margin-bottom="0.5"
     inkscape:window-width="1920"
     inkscape:window-height="1016"
     inkscape:window-x="0"
     inkscape:window-y="27"
     inkscape:window-maximized="1"
     units="px"
     viewbox-y="0.37"
     viewbox-height="3"
     inkscape:snap-others="false"
     inkscape:snap-nodes="false"
     inkscape:snap-bbox="true"
     inkscape:bbox-paths="false"
     inkscape:bbox-nodes="true"
     inkscape:snap-bbox-edge-midpoints="false"
     inkscape:snap-global="true"
     inkscape:snap-page="true"
     inkscape:object-nodes="false"
     inkscape:current-layer="svg4827">
    <inkscape:grid
       type="xygrid"
       id="grid10679"
       spacingx="50.000003"
       spacingy="50.000003"
       empspacing="2"
       originx="2.6224519e-08"
       originy="-14.980597" />
  </sodipodi:namedview>
  <metadata
     id="metadata855">
    <rdf:RDF>
      <cc:Work
         rdf:about="">
        <dc:format>image/svg+xml</dc:format>
        <dc:type
           rdf:resource="http://purl.org/dc/dcmitype/StillImage" />
        <dc:title>/collateral</dc:title>
      </cc:Work>
    </rdf:RDF>
  </metadata>
  <g
     mask="none"
     class="SlashCollateral"
     id="g4825">
    <path
       inkscape:connector-curvature="0"
       d="m 331.29948,4.6298314 c 0.168,16.7727006 0.0281,33.8037006 -0.0281,50.7708006 -0.0211,4.9146 4.98948,4.7334 7.96434,2.58"
       style="fill:none;stroke-width:5.58019924;stroke-linecap:round;stroke-linejoin:round"
       class="SlashCollateral-Char"
       id="path4803" />
    <path
       inkscape:connector-curvature="0"
       d="m 291.88692,37.571632 c 2.3904,-2.157 6.33417,-4.8579 10.38216,-4.7472 4.11882,0.12 9.7683,0.369 12.12903,2.865 5.5434,5.8308 5.27883,18.8544 1.2261,21.6243 -5.87022,4.0119 -24.25383,3.9129 -24.35451,-3.8805 -0.057,-4.3395 3.27888,-5.5713 7.30128,-5.7015 4.02267,-0.15 10.38045,-0.15 14.10279,-0.3"
       style="fill:none;stroke-width:5.58019924;stroke-linecap:round;stroke-linejoin:round"
       class="SlashCollateral-Char"
       id="path4805" />
    <path
       inkscape:connector-curvature="0"
       d="m 258.89349,59.657032 c 0.027,-9.3288 0.4809,-19.9212 0.225,-27.5772 3.62193,2.79 7.80627,3.6639 12.58176,3.7083 5.26026,0.06 8.14176,-2.022 9.43869,-2.919"
       style="fill:none;stroke-width:5.58019924;stroke-linecap:round;stroke-linejoin:round"
       class="SlashCollateral-Char"
       id="path4807" />
    <path
       inkscape:connector-curvature="0"
       d="m 225.00243,45.795232 c 6.71295,1.044 15.58983,2.067 18.80148,-1.878 1.3443,-1.653 -0.025,-5.811 -1.0293,-7.1364 -3.59499,-4.7454 -9.13164,-5.2479 -15.01227,-3.8229 -7.56135,1.833 -11.98782,15.72 -5.06595,23.9772 3.48585,4.158 16.73268,3.2805 21.93387,0.615"
       style="fill:none;stroke-width:5.58019924;stroke-linecap:round;stroke-linejoin:round"
       class="SlashCollateral-Char"
       id="path4809" />
    <path
       inkscape:connector-curvature="0"
       d="m 200.31078,3.2315314 c 0.114,20.6373006 -0.294,36.4230006 -0.3036,55.7439006 m -10.96683,-26.1804 c 7.7256,-0.21 15.29793,-0.06 21.70158,0.06"
       style="fill:none;stroke-width:5.58019924;stroke-linecap:round;stroke-linejoin:round"
       class="SlashCollateral-Char"
       id="path4811" />
    <path
       inkscape:connector-curvature="0"
       d="m 152.09757,35.329432 c 4.85646,-3.1206 14.35533,-2.931 20.04471,-2.337 2.1201,0.24 6.13143,3.1557 6.53019,5.346 1.0179,5.595 0.3459,8.7096 -0.6441,15.612 -0.3207,2.226 -1.7601,4.7658 -5.55807,5.3865 -4.19391,0.684 -7.93764,0.741 -13.39164,0.27 -5.64834,-0.489 -10.39479,-9.0993 -5.64495,-10.8735 4.01004,-1.5 17.13255,-1.554 19.92324,0.522"
       style="fill:none;stroke-width:5.58019924;stroke-linecap:round;stroke-linejoin:round"
       class="SlashCollateral-Char"
       id="path4813" />
    <path
       inkscape:connector-curvature="0"
       d="m 132.88104,3.0860314 c -0.084,16.7763006 -0.7113,35.8218006 -0.6918,51.2151006 0.006,4.9947 4.90227,6.2925 8.27058,3.5916"
       style="fill:none;stroke-width:5.58019924;stroke-linecap:round;stroke-linejoin:round"
       class="SlashCollateral-Char"
       id="path4815" />
    <path
       inkscape:connector-curvature="0"
       d="m 113.68527,2.8298314 c -0.297,14.9298006 -0.72,36.2559006 -0.7056,51.7422006 0.006,5.7882 4.86234,5.6721 8.1384,3.8181"
       style="fill:none;stroke-width:5.58019924;stroke-linecap:round;stroke-linejoin:round"
       class="SlashCollateral-Char"
       id="path4817" />
    <path
       inkscape:connector-curvature="0"
       d="m 85.847014,33.028132 c -6.1407,0.69 -11.64252,2.454 -13.09101,12.1761 -1.0149,6.8211 -0.168,11.9574 5.45289,13.4088 5.92305,1.53 15.49677,0.879 18.53181,-4.335 2.7504,-4.7271 4.193366,-13.8624 -0.8043,-18.615 -2.3931,-2.274 -6.62214,-3.0255 -10.08888,-2.637 z"
       style="fill:none;stroke-width:5.58019924;stroke-linecap:round;stroke-linejoin:round"
       class="SlashCollateral-Char"
       id="path4819" />
    <path
       inkscape:connector-curvature="0"
       d="m 59.942164,36.489232 c -2.3172,-2.043 -5.55189,-3.0414 -8.60973,-3.3219 -1.2708,-0.12 -2.5842,-0.3 -3.86577,-0.21 -4.14609,0.306 -9.0045,2.427 -11.56743,5.7984 -2.0106,2.643 -2.3424,6.0606 -2.3424,9.2649 0,2.61 0.285,5.7285 1.9908,7.8402 2.4072,2.982 6.6303,3.4635 10.16169,3.6966 4.77519,0.315 8.86617,-0.24 12.76821,-3.0927 0.4134,-0.303 1.0374,-0.702 1.3191,-1.089"
       style="fill:none;stroke-width:5.58019924;stroke-linecap:round;stroke-linejoin:round"
       class="SlashCollateral-Char"
       id="path4821" />
    <path
       inkscape:connector-curvature="0"
       d="m 27.171724,2.9189314 c -2.3115,5.5323 -4.78194,11.0517006 -6.44388,16.8219006 -4.40091,15.2796 -8.47812,30.6381 -13.2358504,45.9936 -1.3893,4.4823 -2.7699,12.1899 -4.68546,16.4586"
       style="fill:none;stroke-width:5.58019924;stroke-linecap:round;stroke-linejoin:round"
       class="SlashCollateral-Char"
       id="path4823" />
  </g>
</svg>
