<svg version="1" xmlns="http://www.w3.org/2000/svg" width="346.667" height="346.667" viewBox="0 0 260.000000 260.000000"><path d="M114.5 4.1C54.8 12.5 10.2 55.3 1.9 112.1c-1.5 10.1-.6 34.7 1.5 44.2 10.9 47.9 50.6 86.5 99.5 96.9 15.3 3.2 39.3 3.2 54.1-.1 37.4-8.2 67.6-30.1 86.3-62.6 18.6-32.1 21.2-72.9 7-107.5-14.1-34.5-43.2-61.4-79.4-73.4-16.2-5.4-40.5-7.8-56.4-5.5zm41.8 7.4c23.8 4.9 44.7 16.3 62.3 33.9 16.7 16.7 27 35 32.2 57.1 2.2 9.4 2.6 13.3 2.6 27s-.4 17.6-2.6 27c-7.4 31.5-27.9 59.3-56 76.2-22 13.2-51.4 19.9-75.6 17.3-31.5-3.3-56.5-15.1-77.7-36.4-17.1-17.2-27.1-35.1-32.7-58.9-3.1-13.2-3.1-37.2 0-50.4C20.7 54.2 59.5 18.5 112 9.7c1.4-.2 9.3-.5 17.5-.6 12.4-.1 17 .3 26.8 2.4z"/><path d="M116.8 13c-32.6 4.1-60.1 18.7-79.7 42.4-25 30.2-33.2 69.1-22.4 106.5 11.6 40.5 47.2 73.2 89.3 82.2 14.8 3.2 37.2 3.2 52 0 44.5-9.5 81.1-45 91.2-88.3 3-12.6 3.2-38.2.5-50.8-5.6-25.6-21-49.9-42.2-66.4-21.4-16.7-43.8-24.9-71.2-26-5.9-.3-13.8-.1-17.5.4zm29.5 4.1c14.1 2.4 37.1 12.5 43.1 18.8 1.9 2 2.5 3.8 2.7 7.8.2 2.9.3 5.3.4 5.3.1 0 1.1-1.4 2.4-3.1 1.9-2.6 2-3.3.9-4.7-.8-1 0-.7 2 .7 1.7 1.2 3.2 2.7 3.2 3.2 0 1.5-7.9 12.9-8.9 12.9-1.8 0-3.3-3.2-4-8.2l-.6-5.3-2.3 3.7c-2 3.2-2.6 3.6-4.3 2.8-1-.6-1.9-1.4-1.9-1.8 0-.5 1.9-3.7 4.3-7.4l4.3-6.5-4.2-2.7c-3.1-1.9-5-2.5-6.8-2-2.1.5-2.6.2-2.7-1.2 0-1.4-.2-1.5-.6-.4-.2.8-1.4 3.7-2.5 6.4-1.4 3.5-1.7 5.1-.9 5.9 1.9 1.9 4.4-.5 6-5.6 1.5-4.9 2.6-5.6 5.5-3.4 1.7 1.2 1.6 1.6-1.1 7.2-3.5 7.4-4.9 8.2-10.3 6.6-6-1.8-7-4.6-4.3-12.5 1.4-3.8 1.6-5.4.7-4.2-1.2 1.7-1.4 1.7-1.4.4 0-.9-.4-1.9-.9-2.2-.5-.4-.7.3-.4 1.3.6 2.4-1.3 6.1-3.2 6.1-1.2 0-1.2.5.1 3.5C162 42 162 42 159.5 42c-2 0-2.9-.8-3.9-3.1-1.2-2.8-1.4-2.9-1.9-1-.3 1.5-1.3 2.1-3.1 2.1-3 0-3 .3-1.1-7.5 1.4-5.7 1.4-8.9 0-4.6-.3 1.2-1.1 2.1-1.6 2.1s-.9.8-.9 1.7c0 1.5-.2 1.4-1.6-.3-1.1-1.3-1.7-1.5-2-.7-.6 1.4-2.5 1.8-2.3.5.5-3.1-.4-3-1.6.3-2 5.5-3.9 6.7-10.8 6.3-3.1-.2-5.8 0-6 .3-.1.4-2.5 1-5.3 1.4l-5.2.7-1.1-5.2c-.6-2.8-1.1-6.1-1.2-7.3 0-1.2-.3-1.6-.6-.9-.4 1-1 .9-2.7-.5-2.1-1.8-2.1-1.8-.3.3 1.9 2.3 2.3 5.9.6 7-.7.4-.1 1.6 1.5 3.3 1.5 1.5 2.3 3 1.9 3.4-1.2 1.3-4.6.7-6.6-1.1-1.8-1.6-1.9-1.6-1.6.7.3 1.7-.2 2.6-1.9 3.2-1.6.6-2.4.5-2.7-.4-.2-.6-1.1-3.7-1.9-6.7-.9-3-2.1-6.2-2.7-7-.8-1.2-.9-1-.4.7s.2 2.3-1 2.3c-.9 0-1.4-.3-1.2-.8.3-.4-2.6-.6-6.4-.6-3.8.1-6.7-.1-6.4-.5.6-1.1-7.4 2.9-11.5 5.7l-3.5 2.4 3-2.7c8.2-7.1 29.3-16.1 43.5-18.4 12.2-2 25.7-2 37.3 0zM90.8 34c5 4.7 3.7 11-3 14.3-3.3 1.6-4 1.6-7.1.4-2.1-.9-3.8-2.6-4.7-4.6-1.1-2.8-1.1-3.7.5-6.9 1-2 1.8-3.9 1.8-4.2-.1-.3 2.2-.6 5-.8 4.2-.2 5.7.1 7.5 1.8zM73.4 46.6c2.5 6.8 2.6 7.8 1.3 9.1-1.4 1.4-1.9 1.3-5.2-.7l-3.6-2.2 1.5 3.5c1.3 3.3 1.3 3.7-.4 5.2-1.7 1.5-2.2 1.3-8.9-3.6-6.5-4.7-7-5.3-5.4-6.5 2.4-1.8 2.7-1.8 6.2 1.2 3.6 3 3.7 2.8 1.4-2.2-1.7-3.5-1.7-3.6.2-5 1.6-1.2 2.1-1.2 3.9.5 4 3.5 4.6 3.4 3-.5-1.2-2.7-1.2-3.9-.3-5 2.2-2.6 3.4-1.4 6.3 6.2zm74.4 5c32.2 6.6 57.1 31.5 63.1 63.1.8 4.6 1.8 8.3 2.2 8.3.4 0 2.1-1.3 3.8-2.9 4.4-4.1 4.1-7.1-1.1-11.5-2.3-2-3.9-3.9-3.5-4.2 1-1 11.1 4.3 16.7 8.7 8.5 6.7 9 14.2 1.3 20.9-1.9 1.7-7 4.8-11.3 7-7.5 3.8-8 4.2-9 8.2-5.7 22.8-23.1 42.8-45.7 52.7-11.9 5.2-18.4 6.5-32.8 6.5-15.6 0-23.1-1.7-36-7.8-11.9-5.7-21.9-13.7-29.4-23.7-3.4-4.4-6.1-8.4-6.1-8.8 0-.4-4.6-1.2-10.2-1.8-17.5-2-26.8-6-29.1-12.6-1.7-4.7 7.2-16 18.5-23.4 5.1-3.5 6-2.2 1.6 2.5-1.9 2-3.8 4.4-4.1 5.3-.9 2.8 2.1 5.8 7.5 7.4 7.5 2.2 7.7 2.2 6.7-2.8-1.2-6.1-1.1-20.4.2-27.3 5.7-31 31.3-57.1 62.7-63.8 9-1.9 24.6-2 34 0zm59.9 11.8c5.8 6.3 10.9 13.7 15.1 22.1 3.4 6.8 8.8 23.3 7.9 24.2-.7.6-1.4-1-5.3-12-1.5-4.3-4.6-11.1-7-15.3C214 74.6 203.5 61 201.9 61c-.5 0-.9-.7-.9-1.5 0-2.6 1.7-1.7 6.7 3.9zM53.3 68.3c-.4.7-2.3 3.4-4.4 6.2C39 88 31 111.8 31 128.1c0 3-.4 4.9-1.1 4.9-1.8 0-.3-15.9 2.6-27.9 2.7-11.2 9-24.8 15.6-33.7 2.2-3 4.4-5.2 5-4.9.5.4.6 1.2.2 1.8zM229 155.5c3.3 1.7 4.5 5 3.6 9.8-1.2 6.2-1.5 6.3-10.5 3.7-4.5-1.2-8.1-2.6-8.1-3 0-2 2.5-7.8 4.3-9.8 2.4-2.6 6.5-2.9 10.7-.7zm-8.6 17.9c4.2 2.4 7.4 4.6 6.9 4.9-.4.2-4.3 1.5-8.6 2.7l-7.8 2.3 4.8 3c6 3.7 5.9 3.6 4.7 4.6-.5.6-3.4-.6-7.2-2.9-3.5-2.2-6.9-4.1-7.5-4.3-1.9-.7-.7-1.2 7.8-3.8l7.9-2.4-4.7-3c-2.6-1.7-4.7-3.6-4.7-4.3 0-1.6-.3-1.8 8.4 3.2zM53 174c0 .5-1.1 1.7-2.5 2.6l-2.5 1.6 2.2 3.2c1.2 1.7 2.3 3.3 2.5 3.5.2.2 1.4-.2 2.8-.9 1.7-.9 2.9-1 3.6-.3.6.6-1.5 2.5-6.5 5.6-5 3-7.8 4.2-8.2 3.5-.7-1.1.2-2 4.3-4.4 1.7-1.1 1.7-1.2-.2-4.8-2.3-4.2-2.7-4.3-6.7-1.5-2.2 1.6-3.3 1.8-4.1 1-1.3-1.3-1.7-.9 6.2-6 6.3-4.1 9.1-5 9.1-3.1zm158.4 18.9c2.8 3.1 2.4 7-1.3 10.3-1.7 1.5-3.7 2.8-4.5 2.8-1.6 0-12.6-8.8-12.6-10.1 0-2.2 2.1-1.4 6.9 2.8 5.7 5 6.9 5 9.9.4 1.4-2.1 1.3-2.4-3.8-7.1-6-5.5-6.1-8.9-.2-4.1 2 1.6 4.5 3.8 5.6 5zm-146 1.8c-.8 2.1-2.5 6.2-3.6 9-2.2 5.9-4.4 7.2-3.4 2.1.9-4.6-2.5-8.1-7.1-7.2-6.5 1.2-3.2-1.5 5.5-4.4 4.8-1.7 9-3.1 9.5-3.1.4-.1 0 1.6-.9 3.6zM79 205.5c0 2.8-1.8 4.5-4.8 4.5-2.2 0-2.4.3-2 4.5.2 2.7-.1 4.4-.7 4.2-.5-.2-1.1-2.7-1.3-5.5-.3-5.7-1.2-6.5-3.2-2.7-1.3 2.4-4 3.5-4 1.6 0-.4 2.3-3.8 5.1-7.5l5.1-6.8 2.9 2.8c1.6 1.5 2.9 3.7 2.9 4.9zm116.2-1.5c2.6 2.6 3 3.6 2.5 6.6-.7 4.4-2.3 6.3-6.4 8.1-6.1 2.5-12.3-1.8-12.3-8.4 0-8.4 10.2-12.3 16.2-6.3zM88 208c5.1 2.6 7.4 6.1 6.5 9.7-1 4.1-4.4 7.3-7.7 7.3-2.5 0-10.8-2.7-10.8-3.6 0-.7 7.4-15.4 7.8-15.4.1 0 2.1.9 4.2 2zm87.2 5.5c.8 1.9.8 2.8-.2 4-1.5 1.8-1.6 1.7 3.4 4.4 2.9 1.5 3.5 2.2 2.4 2.6-.9.4-3.4-.3-5.7-1.4-5.2-2.7-5.4-2.7-3.5 1 1.1 2.2 1.3 3.4.5 4.2-.6.6-1.2.9-1.4.6-.2-.3-4.1-9.2-6.5-15.1-.5-1.1 3.6-2.7 7.1-2.7 2-.1 3.1.6 3.9 2.4zm-66.9 8.3c.5 2.9 1.2 5.2 1.5 5.2.4 0 1.8-2 3.1-4.5 2.5-4.7 4.1-5.8 4.1-2.8 0 1 .5 3.5 1.1 5.7l1.1 3.9 2.9-5.2c1.6-2.8 3.6-5.1 4.4-5.1.8 0 1.5.2 1.5.3 0 .2-2.2 4.1-4.9 8.6l-4.9 8.2-1.2-5.3c-.7-2.9-1.5-5.7-1.7-6.1-.3-.4-2 1.6-3.8 4.5-3.1 4.9-3.4 5.1-3.9 2.8-3-13-3.3-16.4-1.3-15.8.6.3 1.6 2.8 2 5.6zm45.3-.4c-1.3 3-2.3 5.6-2.2 5.8.2.2.6 1.8.9 3.5.5 2.5.3 3.3-.8 3.3-.8 0-1.7-1.4-2-3.3-.4-1.8-2.4-5.2-4.5-7.5-4.6-4.9-3.4-6.9 1.5-2.2l3.2 3.1 1.7-4c.9-2.3 2.3-4.1 3.1-4.1 1.2 0 1 1-.9 5.4zm-14.1 5.3c5.1 9.8 4.9 9.3 3.1 9.3-.9 0-2.2-1.1-2.8-2.5-.6-1.4-1.8-2.5-2.7-2.5-3.2 0-6.1 1.3-6.1 2.6 0 .7-.9 1.8-2.1 2.5-1.9 1-2 .9-1.4-1.3 1.3-4.1 6.7-15.8 7.4-15.8.3 0 2.4 3.5 4.6 7.7z"/><path d="M122 27.2c0 3.1-.3 3.9-1.1 3.1-.6-.6-1.7-.9-2.4-.6-.7.2-1.5-.4-1.8-1.4-.3-1.1-.5-.6-.6 1.2-.1 3.9.8 5 4.2 5 2.6.1 2.7-.1 2.7-5.7 0-3.2-.2-5.8-.5-5.8s-.5 1.9-.5 4.2zM155.8 23.7c.7.3 1.6.2 1.9-.1.4-.3-.2-.6-1.3-.5-1.1 0-1.4.3-.6.6zM101.8 24.7c.7.3 1.6.2 1.9-.1.4-.3-.2-.6-1.3-.5-1.1 0-1.4.3-.6.6zM95.5 26c-1.3.5-1.4.9-.5.9.8 0 2.4-.4 3.5-.9 1.3-.5 1.4-.9.5-.9-.8 0-2.4.4-3.5.9zM129 30c0 3.3.3 4.1 1.6 3.8 2.6-.5 4.1-3.5 2.8-5.6-.6-.9-1.9-1.8-2.8-2-1.3-.3-1.6.5-1.6 3.8zm4-.3c0 1.3-.3 1.3-1.5.3-.8-.7-1.2-1.6-.9-2.1.8-1.3 2.4-.1 2.4 1.8zM155.6 30.5c-.3.9 0 1.5.9 1.5.8 0 1.5-.7 1.5-1.5s-.4-1.5-.9-1.5-1.1.7-1.5 1.5zM100 31.5c0 .9.5 1.5 1.1 1.3.6-.2 1.1-.8 1.1-1.3s-.5-1.1-1.1-1.3c-.6-.2-1.1.4-1.1 1.3zM81.1 38.8C79.8 41.2 82.3 45 85 45s4.4-3.4 3-6c-1.4-2.5-5.6-2.6-6.9-.2zM119 54.6c-5.5 1-15.1 3.7-15.5 4.4-.3.4 2.8-.1 6.8-1.1 12.5-3.4 30.3-3.5 41.4-.4 1 .3.2-.2-1.7-1.1-3.5-1.6-25-2.9-31-1.8zM91 64.7c-8.7 5.1-21.7 18.1-26.8 26.8-2.2 3.8-5.3 10.6-6.8 15-2.6 7.3-2.9 9.2-2.9 22 0 7.7.3 15.2.8 16.7.7 2.8.9 2.8 8.6 2.8h7.8l1.4-4.3c1.5-4.5 1.4-6.8-.4-7.9-.9-.6-.9-.8 0-.8.6 0 1.5.5 1.8 1 .4.7 1.2.7 2.5 0 2.3-1.2 3.3-1.3 2.6-.1-.3.5.4.9 1.7.8 1.2 0 2.8.2 3.6.4 1.8.5 2.5-2.2 1.7-6.6-.5-2.6-1-3.2-2.5-2.8-1.3.3-3.3-.9-6.5-4.1-2.4-2.5-4-4.6-3.5-4.6.6 0 2.2 1.3 3.7 2.9 2.6 2.8 9.8 5.7 10.6 4.3.2-.4.7-2.5 1.1-4.7.4-2.2 1.7-6.5 3-9.6l2.2-5.6-3.3-1.2c-3.2-1.2-3.6-1-8 2.6-2.6 2.2-4.8 4.9-5.1 6.5-.7 3.4-2.3 3.7-2.3.5 0-2.6-1.3-4.9-2.6-4.6-.5.1-1.7-.1-2.8-.6-1.1-.5-2.6-.3-3.8.4-1.7 1-1.8 1-1-.6.5-1 1.7-5.6 2.7-10.3.9-4.7 3-11 4.6-14.1 3.7-6.8 12.4-15.6 20.3-20.3 3.3-2 5.5-3.6 5-3.6s-3.9 1.7-7.4 3.7zm2 43.2c0 .3-.4 1.2-.9 1.9-.6 1-1 .7-1.3-1.1-.4-1.8-.1-2.4.9-2 .7.3 1.3.8 1.3 1.2zm-21 5.6c0 .5-.5.3-1-.5s-1-2-1-2.5c0-.6.5-.3 1 .5s1 1.9 1 2.5zm2 2c-.6 1.5-1.3 2.5-1.7 2.1-.3-.3 0-1.7.7-3.1 1.7-3.2 2.4-2.6 1 1zm-5 7.6c-1 1.8-.9 2.3.4 3.1 1.6.9 2.3 4.8.8 4.8-.9 0-5.4-7.1-5.3-8.5 0-.9 4.1-2.5 4.9-1.9.2.1-.2 1.2-.8 2.5zM166 62.4c0 .2 2 1.6 4.5 3.1 12.5 7.3 19.2 16.5 24.5 34 1.2 3.8 2.4 7.6 2.6 8.4.3.9-.2 1.2-1.6.8-2.6-.7-2.7 1.7-.1 3.5 2.5 1.8 3.5 14.3 1.1 14.3-1.2 0-3.5-3.5-5.3-7.9-.2-.5-.8-.6-1.5-.2-1.3.8.4 4.2 4.6 8.7l2.4 2.7 5.1-1.9c2.8-1 5.4-2.2 5.7-2.6.4-.5.1-4.6-.7-9.3-3.1-18.4-14.3-35.7-31.3-48.1-3.8-2.8-10-6.2-10-5.5zM149.8 74.1c-.3.8.1 2 .8 2.7 1.5 1.4 1.7.7.5-2.2-.6-1.5-.9-1.6-1.3-.5zM114.6 76.2c-1.4 4.4-1.2 6 .6 8.3 1.1 1.4 2.5 2.5 3.1 2.4.7 0 .2-.7-1-1.6-2.6-1.7-3.2-7-1.1-9.1.9-.9.9-1.2 0-1.2-.7 0-1.4.6-1.6 1.2zM156.6 79c.6 2.4 3 5 4.6 5 .4 0 0-.8-.9-1.8-1-1-2.4-2.7-3.1-3.8-1.1-1.7-1.2-1.7-.6.6zM103.3 80.8c.1 2 .5 2.7 1.3 2.1.6-.5 1.5-.5 2-.1s0-.4-1.1-1.8-2.1-2.7-2.2-2.9c-.1-.2-.1 1 0 2.7z"/><path d="M97.9 80.7c-1.3 1.6-1.2 1.7.4.4.9-.7 1.7-1.5 1.7-1.7 0-.8-.8-.3-2.1 1.3zM131.5 82c1 1.1 2 2 2.3 2 .3 0-.3-.9-1.3-2s-2-2-2.3-2c-.3 0 .3.9 1.3 2zM93.6 85.2c-2.4 3.4-1.9 4.4.9 1.8 1.4-1.3 2.5-2.7 2.5-3.2 0-1.6-1.9-.8-3.4 1.4zM152.1 87.5c.9 1.1 2.1 2.9 2.7 4 .6 1.1 1.2 1.4 1.2.8 0-.7-1.2-2.5-2.7-4.1-1.6-1.5-2.1-1.9-1.2-.7zM155 86.9c0 .6.4 1.3 1 1.6.6.3.7-.1.4-.9-.7-1.8-1.4-2.1-1.4-.7zM105.5 87.9c-.3.5-.2 1.2.3 1.5.5.3.9-.1.9-.9 0-1.7-.3-1.9-1.2-.6zM160.1 88.7c0 1.1.3 1.3.6.5.2-.6.9-1 1.4-.6.5.3.9 0 .9-.5 0-.6-.7-1.1-1.5-1.1s-1.5.8-1.4 1.7zM143 89.9c0 .6.4 1.3 1 1.6.6.3.7-.1.4-.9-.7-1.8-1.4-2.1-1.4-.7zM145.6 93.7c-.6 1.4-.5 1.5.5.6.7-.7 1-1.5.7-1.8-.3-.3-.9.2-1.2 1.2zM128 96.7c-.8 1.6-1.5 3.1-1.7 3.4-.1.4.9 2.4 2.3 4.4l2.6 3.8-3.1 2.4c-2.8 2.2-11.2 12.8-15.7 19.7-1.8 2.8-1.8 2.9.5 4.7 2.2 1.8 11 4.9 13.8 4.9 1 0 1.2.7.8 2-1.9 6.1.8 12.9 6.4 16.2 2.9 1.6 6.6 10.6 5.1 12.1-.4.5-2.6 1.1-5 1.4-4.7.7-6.9 3.8-5 7.3.5 1 1 2.6 1 3.5 0 .9.7 3.2 1.6 5.1 1.5 3.2 1.5 3.6-.5 7.4-2.6 5-2.7 8.7-.3 9.4.9.2 4.4.4 7.7.3 4.7-.2 6-.5 6.3-1.9.2-1.2-.8-2.2-3.2-3.2-4.9-2-5.2-3.6-2.1-8.7 1.5-2.3 4-7 5.5-10.5 2.2-4.7 3.7-6.7 6.2-8 4.4-2.2 7.8-5.4 7.8-7.3 0-.9-2.4-3.7-5.4-6.3-4.8-4.2-5.5-5.3-6.9-11.5-2.2-8.9-2.2-9.2 1.3-12.2 2-1.7 3.6-4.6 4.8-8.7 1.8-5.9 1.8-6.1 0-8.3-3-3.7-5.2-2-4.5 3.4.4 2.5.2 4.7-.3 5-.6.3-1 .1-1-.5 0-.7-.7-3.7-1.6-6.7-1.3-4.5-2.2-5.7-4.7-6.9-3-1.3-3.1-1.4-1-2 2-.6 2.2-1.1 1.7-4.8-1.2-8.8-3.4-11.6-9.2-11.6-2.1 0-3.2.7-4.2 2.7zm-3.4 33c.3 1 1 2.6 1.5 3.5 1.2 2.3-.2 2.3-4.2.2-3-1.5-3-1.6-1.3-3.5 2.1-2.4 3.3-2.4 4-.2zM98.7 95.7c-.4.3-.7 1.1-.7 1.7 0 .6.5.5 1.2-.2.6-.6.9-1.4.7-1.7-.3-.3-.9-.2-1.2.2zM101.8 95.7c.7.3 1.6.2 1.9-.1.4-.3-.2-.6-1.3-.5-1.1 0-1.4.3-.6.6zM178.6 96.5c.4.8.1 1.5-.5 1.5s-1.1-.5-1.1-1.1c0-.5-.4-.8-.9-.5-1 .6-.2 5.6.9 5.6.4 0 1.3-.6 2-1.4.6-.8 2.1-1.6 3.3-1.8 2-.3 1.9-.5-1-2.1-2.7-1.4-3.2-1.5-2.7-.2zM104.8 99.7c.7.3 1.6.2 1.9-.1.4-.3-.2-.6-1.3-.5-1.1 0-1.4.3-.6.6zM147 100.3c0 .3 1.2 1.2 2.6 2.2 1.5.9 2.3 1.2 2 .6-.7-1.1-4.6-3.5-4.6-2.8zM91.2 101.9c-1.1.7-1.1.9.2 1.4 2 .8 4.8-.2 4-1.4-.7-1.1-2.5-1.1-4.2 0zM164.4 102.2c3.6 2.4 7.6 6.5 6.9 7.1-.3.4-.1 1.3.5 2 1.5 1.7.6 2.7-2.5 2.7-2.4 0-3.2-1.5-1.1-2.2.8-.3.5-.9-.8-1.6-1.9-1-2.1-.9-1.6 1.4.5 2.8.7 2.9 5 3.9 2.5.5 3.2.3 3.2-.9 0-.8 1-1.6 2.3-1.8 2.1-.3 2-.6-1.5-3.9-2.1-1.9-5.7-4.5-8-5.7-2.4-1.3-3.4-1.7-2.4-1zm9.6 7.8c0 .5-.2 1-.4 1-.3 0-.8-.5-1.1-1-.3-.6-.1-1 .4-1 .6 0 1.1.4 1.1 1z"/><path d="M163.3 105.6c2.1 1.4 4.1 2.4 4.3 2.1.6-.5-5.9-4.7-7.2-4.7-.5 0 .9 1.2 2.9 2.6zM174.5 105.1c-.5.7-.4 1 .3.5.6-.3 1.8 1.1 2.8 3.4 1 2.2 2.3 4 3 4 2.7 0 4.4-1.3 4.4-3.4 0-3.1-.9-3.7-3.2-2.5-1.6.9-2.5.6-4.3-1.1-1.7-1.6-2.5-1.8-3-.9zM95.6 108.5c-.9 2.6-.7 3.2.5 1.2.6-1 .9-2.1.6-2.3-.2-.3-.7.2-1.1 1.1zM93.6 113.5c-.3.9-.6 2.2-.5 2.8 0 .7.5.1 1-1.2s.8-2.6.5-2.8c-.2-.2-.6.3-1 1.2zM91.3 122.2c-1.3 4.8-.6 5.8 3.7 5.7 1.7-.1 1.9-.3.8-.6-1.1-.3-1.8-1.5-1.9-3.1 0-1.5-.4-3.5-.8-4.5-.5-1.4-.9-.8-1.8 2.5zM88.4 133.5c-1 4.2-.9 4.7 1.5 7.4 1.4 1.6 3.7 3.2 5.1 3.6 1.4.4 3.1 1.2 3.7 1.7.8.6 3.2.7 5.8.4l4.5-.7-.1-4.7c-.1-4.1-.2-4.3-.8-1.7-.6 2.8-.7 2.9-1.8 1-.6-1.2-2.3-2.7-3.7-3.4-1.4-.8-2.4-1.9-2.3-2.5.1-.6-.9-1-2.3-.9-1.4.1-1.9-.1-1.2-.3 2.2-1 1.3-2.1-2.7-3.2-2.1-.7-4-1.2-4.2-1.2-.3 0-.9 2-1.5 4.5zM193 138.9c0 1.1.9 2.1 2.1 2.4 1.2.3 1.8 1 1.4 1.6-.3.6-1.2.8-1.8.5-.9-.5-.9-.3 0 .6 1 1 1.5 1.1 2.7.1 1.9-1.6 1.1-3.7-1.7-4.6-2.2-.6-2.2-.6-.2-1.5 1.9-.8 1.9-.9-.2-.9-1.6-.1-2.3.5-2.3 1.8zM187.5 139c-.3.5-.2 1 .4 1 .5 0 1.2 1.3 1.6 3 .9 4.3 2.1 3.7 2-1 0-3.1-.4-4-1.7-4-.9 0-2 .4-2.3 1zM111.1 142.2l-.1 3.7 5.8-.6c7.5-.8 7.9-1.3.9-1.3-5.3 0-5.6-.1-6-2.8-.3-2.2-.4-2-.6 1zM184.7 142.2c.3 1.8 1 3.7 1.6 4.3.6.7.8-.1.3-2.4-.3-1.8-.6-3.7-.6-4.2s-.4-.9-1-.9c-.5 0-.7 1.4-.3 3.2zM179.5 142.7l-.7 2.8-1.8-2.5c-2.5-3.3-3.4-2.1-2 2.9 1.2 4.5 2.6 5.7 1.6 1.3l-.6-2.7 2 2.4c1.4 1.6 2.1 1.9 2.4 1 1.3-4.1 1.4-4.3 1.5-2.2.1 1.3.6 2.3 1.2 2.3 1 0 .4-5.2-.8-7.3-.9-1.5-2.1-.6-2.8 2zM120.8 141.7c.7.3 1.6.2 1.9-.1.4-.3-.2-.6-1.3-.5-1.1 0-1.4.3-.6.6z"/><path d="M124.1 143.6c0 1.1.3 1.4.6.6.3-.7.2-1.6-.1-1.9-.3-.4-.6.2-.5 1.3zM171 143.5c0 3.2 1.2 6.5 2.2 6.5.6 0 .7-1.4.3-3.3-.8-3.8-2.5-6-2.5-3.2zM165.4 145.6c.3.9.9 2.7 1.2 4.1.4 1.6 1.1 2.2 2.1 1.9.8-.3 1.7-.6 1.9-.6.2 0 .4-.4.4-1 0-.5-.6-.7-1.4-.4-.9.3-1.5-.5-1.9-2.5-.4-1.7-1.2-3.1-1.8-3.1-.6 0-.8.7-.5 1.6zM195.8 149.8c-6.6 2.3-7.8 3.1-8.3 5.3-.3 1.5-4 6.1-8.1 10.4-6 6.2-7.5 7.3-8.1 5.9-.3-.9-.1-3.7.5-6.1 1.7-6.1 1.6-9.7-.3-9-.8.4-4.1 1.2-7.5 1.9-5.8 1.2-7.1 2-5 3.3.6.3 1 2 1 3.6 0 3.3-3.2 6.9-7.9 8.9-2 .8-3.6 2.7-4.9 5.8-1.2 2.6-3.5 7.3-5.3 10.5-3.1 5.6-3.2 5.8-1.3 7.2 1 .8 2.6 1.5 3.5 1.5 2 0 4.2 2.4 3.1 3.5-1.5 1.6 6.8-.4 14.1-3.5 20.2-8.4 36.6-25.8 43.7-46.5 2.3-6.6 2.3-6.6-9.2-2.7zM107 156c0 3.5.3 4 2.3 4 2.5 0 4.7-1.7 4.7-3.6 0-1.9-2.9-4.4-5.1-4.4-1.6 0-1.9.7-1.9 4zm4.8.4c-.4 3.1-3.8 3.4-3.8.3 0-2.9.7-3.7 2.7-3 .8.3 1.3 1.5 1.1 2.7zM85.6 154.6c-.5 1.4-.9 1.4-2.3.3-1.5-1.2-1.6-1.2-.9.6.5 1.1 1.1 2.8 1.3 3.7.7 2.5 2 2.2 2.6-.5.2-1.2.8-3 1.2-4 .4-.9.3-1.7-.3-1.7-.5 0-1.3.7-1.6 1.6zM89 154.9c-1.6 3.1.4 6.3 3.7 5.9 5.5-.7 5.5-6.9 0-7.6-1.8-.2-2.9.3-3.7 1.7zm5.8 2.5c-.2 1.3-1 2.1-2.3 2.1-2.3 0-3.3-3.4-1.4-4.5 2-1.3 4 .1 3.7 2.4z"/><path d="M98 156.4c0 1.9.5 3.8 1.1 4.2.8.5 1-.1.7-2l-.5-2.7 2.1 2c3 2.9 3.6 2.6 3.6-1.4 0-1.9-.4-3.5-1-3.5-.5 0-1 1-1 2.2v2.2l-1.6-2.2c-2.2-3.2-3.4-2.7-3.4 1.2zM69.2 158.1c.3 4.6 1.7 5.8 4.1 3.5 2.2-2.2.8-7-2.2-7.4-2-.3-2.2 0-1.9 3.9zM73 160c0 .5-.4 1-1 1-.5 0-1-.5-1-1 0-.6.5-1 1-1 .6 0 1 .4 1 1zM76 158c0 3.7.2 4 2.8 3.9 1.6-.1 2-.3 1-.6-1-.2-1.8-.7-1.8-1 0-.3.8-1.2 1.8-1.9 1.6-1.3 1.6-1.3 0-1.4-2.1 0-2.4-1.6-.5-2.3.6-.3.2-.6-1-.6-2-.1-2.3.4-2.3 3.9zM121.6 165.1c-3.8.5-7.5 1.4-8.1 1.9-.7.6-1.5 2.8-1.9 5-.6 3.8-.8 4-4.2 4-2.8 0-3.7.5-4.1 2.1-.3 1.1-.9 1.7-1.2 1.2-.3-.5-2.6-2.1-5.1-3.5-2.5-1.4-5.8-3.8-7.5-5.4-2.9-2.6-3.4-2.8-13.7-2.8-6-.1-10.8.2-10.8.6 0 .4 2.2 3.5 4.8 7 12.2 15.9 31.8 26.9 52.4 29.3l5.8.7-.6-3c-.4-2.2.1-4.2 2-7.4 2.3-3.9 2.4-4.6 1-5.9-.8-.9-2-4.6-2.6-8.2-1-6-.9-6.9.7-8.7 1.2-1.3 3.1-2 5.7-2 4.3 0 4.2.1 2.8-3.4-1.1-2.9-2.8-3.1-15.4-1.5zm-30.3 22.3c.4-.4 1.1.6 1.7 2.2.6 1.6 2.1 3.7 3.3 4.7 2.2 1.8 2.2 1.8-.8.4-3.2-1.6-5.1-3.6-7.4-7.7-1.4-2.4-1.3-2.5.6-.7 1.1.9 2.3 1.4 2.6 1.1zM219.8 158.7c-.9 1-1.9 2.8-2.2 3.9-.6 1.9-.1 2.3 4.6 3.5 7 1.8 7 1.8 7.9-1.3 1.5-5.8-6.4-10.5-10.3-6.1zM59.1 196.1c-1.9.8-2.1 1.2-1.1 2.4 1.7 2.1 2.5 1.9 3.8-1 1.3-2.7.9-2.9-2.7-1.4zM72.3 203.9c-1.4 2.2-.8 3.1 1.9 3.1 1.4 0 1.9-.6 1.6-2.2-.4-2.8-2-3.3-3.5-.9zM183.7 205.8c-2.4 2.6-2.1 6.7.5 9.2 2.9 2.7 5.4 2.5 8.3-.5 2.9-2.8 3.1-5.1.9-8.3-1.9-2.8-7.4-3-9.7-.4zM82.7 214.6c-1.5 3-2.7 5.6-2.7 5.8 0 .2 1.3.9 3 1.6 2.5 1 3.4 1 5.4-.3 3.3-2.2 4.2-6.4 1.9-8.9-3.8-4.3-4.8-4-7.6 1.8zM168.6 213.9c-.4.5-.3 1.9.2 3 .7 1.9 1 2 2.7.7 1.6-1.2 1.7-1.6.6-3-1.5-1.8-2.7-2-3.5-.7zM134 224.9c0 .5-.3 1.6-.6 2.5-.4 1.2 0 1.6 1.6 1.6s2-.4 1.6-1.6c-.3-.9-.6-2-.6-2.5s-.4-.9-1-.9c-.5 0-1 .4-1 .9z"/></svg>