<svg version="1.1" viewBox="0 0 256 256" xmlns="http://www.w3.org/2000/svg">
  <path d="m0 128v128h256v-128h-64v64h-128v-64zm100.25 0c-8e-5 0.0408-2e-3 -0.0409-2e-3 0 0 11.07 2.836 19.605 8.5 25.621 5.664 6.0166 13.934 9 24.75 9 5.0565 0 9.4104-0.4754 13.25-1.5 3.8395-1.025 6.8886-2.2206 9-3.5l-4.25-12c-0.8321 0.38327-1.7271 0.8058-2.75 1.252-1.0235 0.44828-2.1551 0.89327-3.5 1.248-1.3449 0.3526-2.7724 0.74198-4.5 1-1.7277 0.25407-3.824 0.24855-6 0.24805-3.4575 1e-3 -6.3188-0.37835-8.75-1.498-2.4313-1.1208-4.4965-2.8318-6-4.752-1.5034-1.9202-2.5786-4.093-3.25-6.75-0.66229-2.618-0.98687-5.3496-0.99609-8.3691z" fill="#8c3f3f" style="paint-order:markers fill stroke"/>
  <path d="m0 0v128h64v-64h128v64h64v-128zm134.25 93.371c-4.8635 5e-4 -9.34 0.7142-13.5 2.25-4.16 1.5365-7.742 3.7742-10.75 6.75-3.0078 2.9765-5.5213 6.6809-7.25 11-1.7153 4.2879-2.4866 9.1729-2.498 14.629h15.502c-1.4e-4 -0.0439-4e-3 0.044-4e-3 0 0-3.84 0.4766-7.4432 1.5-10.131 1.023-2.6878 2.5536-4.803 4.25-6.5 1.6959-1.6959 3.5418-2.9814 5.75-3.75 2.2078-0.76329 4.445-1 6.75-1 3.455 0 6.5301 0.2313 9.25 1 2.7196 0.7681 5.2014 1.912 7.25 3l4.248-12.25c-0.5133-0.31987-1.3466-0.6743-2.498-1.25-1.1508-0.5751-2.5213-1.2022-4.25-1.75-1.7288-0.5445-3.6962-1.0807-6-1.5-2.304-0.40853-4.9338-0.49364-7.75-0.49414z" fill="#3f668c" style="paint-order:markers fill stroke"/>
</svg>
