<svg version="1" xmlns="http://www.w3.org/2000/svg" width="933.333" height="933.333" viewBox="0 0 700.000000 700.000000"><path d="M0 350v350h700V0H0v350zm406-188.6c17.7.7 41 5.6 59.9 12.6 6 2.2 27.9 12.2 30 13.7.3.2-6.5 21-10.6 32.3-3.5 9.6-8.5 23.8-8.8 25-1.1 4.3-3.4 9.5-4.1 9.3-.5-.1-5.6-2.4-11.4-5.1-25.2-11.9-43.2-15.6-75-15.7-17.6 0-22 .4-32.7 3.1-23.3 5.8-44.9 23.9-57.4 48.2-4 7.7-8.2 19.7-9.3 26.2-.3 1.9-.8 4.6-1.1 6-2 9.7-2.8 43-1.2 55.5 4.5 36.6 18.1 62.5 41.2 78.2 18.9 12.8 34.1 16.3 68.5 15.8 11.3-.2 22.1-.6 24-.9 1.9-.3 5-.8 6.7-1.1 12.2-1.9 27.3-6.5 41.4-12.6 6.6-2.8 12.1-5 12.4-4.8.4.4 6.8 18.4 15.9 44.4 3.1 8.8 6.1 17 6.6 18.2.9 2.1.4 2.6-4.3 5-17.3 9-47.2 18.5-65.8 20.8-3 .4-5.6.8-5.9 1-.3.2-4.5.6-9.5 1-4.9.4-10.1.8-11.5 1.1-3 .5-40.2.5-44.5 0-1.6-.2-6.4-.7-10.5-1.1-9.6-1-9.8-1.1-14-1.9-1.9-.4-4.2-.8-5-1-19.8-3.5-41.5-11.8-58.5-22.4-25.5-15.9-46.5-42.4-58.8-74.2-3.4-8.8-7.9-24.3-9.2-31.5-.2-1.7-.9-5.5-1.5-8.6-.6-3.1-1.2-7.8-1.5-10.5-.3-2.7-.8-8.1-1.2-11.9-.8-8.7-.8-42.2.1-49.3.3-2.8.9-7.6 1.2-10.5 4.1-38.9 22.7-77.2 51-105.3 11.8-11.7 24.7-21.1 39.6-28.7 8.7-4.5 23.7-10.7 29.8-12.3 20.3-5.4 30.9-7.1 48.5-8.1 6.1-.3 11.1-.6 11.2-.7.2-.1 8.4.1 25.3.8z"/></svg>