<svg id="patreon-button-annotation" aria-labelledby="patreon-button-annotation-title" version="1.1" viewBox="0 0 316.73 208.54" xmlns="http://www.w3.org/2000/svg">
  <title id="patreon-button-annotation-title">You help by pledging $1 for my next video. On top, you get as a thank-you: Early Access + Bonus Videos.</title>
  <path d="m206.76 118.66c-0.0594-2.2811-3.851-3.0689-5.5815-2.139-3.7295 1.8034-2.6712 7.6812 2.1662 7.2616 5.4164-0.46985 3.1885-13.092 3.2193-17.418-0.012 4.4217 0.0221 14.654 1.9838 17.279m-21.022-6.7409c0.0704 2.5113 0.37267 5.1757 0.34481 7.8078 0.20471-3.4754 0.87325-7.8064 4.3301-7.9402 4.0587-0.15707 3.6996 4.9965 3.6358 7.4532m-19.02-5.7524c1.5721-0.91106 3.3951-1.3583 5.0326-0.77871 5.0668 1.7933 3.2202 8.3386-2.6543 7.166-1.7391-0.34717-3.3182-2.2999-1.0854-3.304 1.6802-0.75558 4.2093-0.38095 5.5525 0.50627m-99.397-61.026c1.1474 0.45139 4.503 0.81972 5.9369-0.70805 3.3529-3.5723-3.6326-5.3008-6.0064-1.8769-3.8825 5.5999 4.239 8.0402 8.0054 4.8123m-14.304-1.6628c1.2251 1.2675 2.2405 2.5506 3.2192 3.54m-7.6206-17.003c0.60419 6.1895 0.44101 11.88 1.0665 17.44 2.2364-3.2094 3.8736-5.7164 5.8323-8.6485m-10.946-2.7476-0.22286 0.68223m0.18317 2.9948c-0.35769 2.121 0.22299 5.5624 0.34225 7.7612m-6.6869-16.868c0.14161 5.0951 0.62253 10.883 0.93386 15.973 0.0724 1.1831 1.4896 1.4846 2.3502 0.87656m-15.961-6.0393c-1.5793-1.7138-5.7849 0.22759-4.3472 2.5796 1.1088 1.8138 5.0403 0.0499 5.9798 1.8477 1.6216 3.1029-5.8112 3.9193-7.3925 1.773m-4.292-5.1848c-2.5611-3.1295-7.1937 3.3409-4.2231 6.0517 0.42724 0.38986 0.87699 0.6831 1.4624 0.80321 3.4228 0.70226 4.8764-3.3983 4.3044-6.166-0.0886 0.80811 0.0388 2.3033-0.011 2.6075-0.47397 2.8931-0.47528 5.8831-0.0464 8.7292 0.13676 0.90764 0.81994 3.461 0.30996 4.3454-0.88757 1.5392-6.9363-0.75937-7.0795-3.1014m-10.182-13.45c0.0404 2.6746 0.25544 5.5933 0.41298 8.0772-0.13901-3.7568 0.7247-7.7552 3.7806-7.9751 2.7084-0.19481 3.3705 3.578 3.5915 7.5514m-11.337-11.484 8e-3 0.85569m0.13331 3.3213c0.17125 2.7836-0.10344 5.2645 0.22304 7.86m-11.272-16.343c0.0152 5.7984 0.34538 11.726 0.65216 16.86-0.1272-2.3057-0.30133-5.1363 1.1725-6.6429 1.9752-2.0192 4.4284-1.3315 5.1574 0.55909 0.69257 1.796 0.67026 3.9752 0.7791 5.7548m-15.377-6.7372c1.4937 0.22613 3.2365-0.5436 4.6696-0.19444m-2.7093-9.6358c0.12687 5.5595 0.61412 13.11 0.82454 17.33m280.39-57.848c1.3923-0.10309 3.7496-0.24758 5.1052-0.33049m-3.1952-9.6108c0.0402 4.4663 0.51477 8.4163 0.78738 12.873 0.0488 0.79809 0.23771 3.0496 0.2758 4.5022m-12.183-6.1056c1.4309-0.7974 3.6916-1.7016 5.324-1.0492 2.0114 0.80377 2.5849 4.7412 1.363 6.398-0.79969 1.0843-2.4541 1.2674-3.6341 1.2392-0.93859-0.0224-1.9133-0.186-2.7757-0.61249-1.1486-0.56802-0.8914-2.2299 0.18993-2.6713 2.7759-1.1332 4.0947-0.59154 6.64 0.25771m-19.906-13.343c0.0331 6.1638 0.60596 11.377 0.974 17.365-0.20166-3.2154 0.44502-7.9082 4.0889-8.054 3.5258-0.14111 3.8973 4.2972 4.0854 7.4025m-27.681-6.2409c1.4222 3.3186 2.9085 4.8399 4.1594 7.8346 1.4737-1.7992 2.6565-3.1363 4.0989-4.8275 1.495 1.6361 2.6022 3.0766 3.7749 4.3716 1.7536-2.8753 2.9416-5.8349 3.6309-8.2934m-32.863 2.7688c-3.3061-3.8705-7.7668 4.7445-3.6684 6.455 2.2772 0.95046 4.6609-0.6597 5.0762-2.9339 0.0438-0.24002 0.28849-3.4085-0.15691-3.2879-0.37116 0.10055-0.37675 3.2274-0.35221 3.6288 0.0496 0.81072 0.0992 1.6214 0.14876 2.4322 0.0791 1.2929 0.11359 2.6157 0.28269 3.8996 0.22371 1.6992 1.2412 4.5496 0.46881 6.2202-0.82164 1.7772-8.706-1.6629-7.5872-4.1816m-10.035-11.926c0.32454 3.0694 0.41162 5.1673 0.57641 7.8616 0.0167-1.2106-0.14214-2.1471-0.10078-3.3031 0.0329-0.917 0.1143-2.3468 0.60219-3.1522 0.87797-1.1856 1.9653-1.6214 3.274-1.6671 3.6366-0.12705 3.8062 3.4033 4.0055 7.6455m-11.946-11.505c-0.0592 0.35162-0.22249 0.69481-0.20073 1.0507m0.28564 3.2254c-2e-3 2.3587 0.0516 6.0846 0.57205 7.9082m-11.851-7.4552c-0.11963 1.0696-0.1669 2.1408-0.15663 3.216 0.017 1.7836 0.1971 3.2226 0.30619 5.0061-0.0405-1.6241-0.12123-3.0468 0.0769-4.5195 0.43732-3.143 2.5077-4.4664 5.4312-3.6297 2.1359 0.61134 2.253 3.6198 2.3626 5.4121l0.13655 2.2325m-12.728-11.683c-0.0127 0.50031 0.0296 0.99996 3e-3 1.4937m0.51896 3.4297c-0.0101 0.78311-0.10765 1.5575-0.12191 2.3394-4e-3 1.9243 0.0767 3.5849 0.36807 5.2972m-11.184-5.9423c2.8423-2.3197 6.1327-1.8843 7.722 1.3311 0.33142 0.6705 0.66435 1.4918 0.62378 2.2555-0.1512 2.8462-6.0388 3.434-7.7961 1.79-0.44584-0.41709-0.65081-1.101-0.3643-1.6236 1.067-1.946 5.7651-1.3741 7.2044-0.63324m-13.126-13.595c-4e-3 3.6918 0.12421 7.1656 0.23942 10.861 0.0357 1.1436 0.18107 2.944 0.29532 4.106 0.19228 1.9643 1.4721 2.6186 2.7071 1.6562m-13.326 8.8608c-0.12717-0.53622-0.21166-2.6154-0.30895-3.6065-0.39448-4.0206-0.45468-7.6896-0.52763-11.725 1.3879 6.7e-4 2.1878-0.10706 3.3045-0.12928 2.5522-0.0507 4.7766 1.0416 4.9377 3.6765 0.22772 3.7231-4.9183 4.671-7.6608 4.0029m-4.1283-7.5631c-1.6845 2.3011-3.8684 4.1857-5.7531 6.3092-0.4502 0.50725-1.509 2.1026-1.6335 2.1768m0.034-8.1092c0.58214 0.42199 1.0365 0.97405 1.5057 1.5111 1.3024 1.4906 2.6998 2.9346 4.0573 4.3275 0.50552 0.51867 1.0699 1.1312 1.6932 1.8343m-17.688-2.9476c1.7729 0.4135 4.0354 0.47953 5.6166-0.59858 2.9689-2.0243-2.5992-4.8804-5.298-2.1354-5.1941 5.2832 2.8492 7.4502 7.0596 4.9426m-23.858-4.3287c-0.46559-0.58239-1.2259-0.80748-1.9576-0.85933-1.4626-0.10363-5.1041 0.98854-3.6869 3.0338 0.45092 0.65076 1.1532 1.1257 1.8964 1.3912 0.90452 0.32316 5.5931 0.36017 5.3194 2.2124-0.29687 2.0094-7.5722 1.8304-8.5562 0.52332m-5.9759-6.3075c-2.0372-0.62321-3.8954 0.86377-4.9364 2.5177-2.5826 4.1027 3.1437 8.2292 6.8085 4.0924 1.0414-1.1755 2.0053-3.3206 1.3251-4.8861-0.39948-0.91945-2.2763-1.7112-3.1972-1.7239-0.89554-0.0123-1.9291 0.66073-2.5476 1.2379m-12.871 4.0206c1.9006 0.40325 4.6272 0.4539 6.2582-0.82076 0.78327-0.61214 0.36501-1.6242-0.22834-2.2018-1.8094-1.7612-4.3966-1.2587-6.099 0.3601-2.3574 2.2418-1.536 5.4589 1.7201 6.1684 1.8346 0.39981 4.138-0.14173 5.7782-1.0104m-76.343-1.56c1.2669-1.1058 3.7384-1.7458 5.4005-1.057 2.21 0.91576 4.3646 5.4573 2.1526 7.1118-0.99035 0.7408-2.7993 0.62827-3.9929 0.58412-2.3536-0.087-4.5687-1.9205-3.1819-3.0052 1.38-1.0794 5.1486-0.72268 6.7856-0.36814m55.487-7.3065c-1.0407-0.53818-3.5896-0.42954-4.6657 0.38672-2.7064 2.0528-1.6242 7.0379 2.1322 6.8824 5.3667-0.22221 3.5358-7.0443 3.4043-9.9419-0.0456-1.004-0.21323-4.7574-0.3178-7.4253-6e-3 3.0662 0.40256 8.5662 0.83466 11.968 0.2605 2.0506 0.28077 3.7405 1.324 5.2632m-12.609-11.701c0.053 0.27117 0.11828 0.53983 0.18196 0.80869m0.0482 3.6771c0.20058 2.408 0.0933 6.2595 0.63044 8.1414m-12.744-7.5205c1.3257 1.9279 1.8613 3.0548 2.968 5.1491 0.25261 0.47806 0.81057 1.6163 1.3864 2.7369 0.6215-1.3313 1.485-3.215 2.1948-4.4591 0.22016-0.38583 1.3494-3.0123 2.0914-4.0849m-28.697 5.9147c2.1881 0.0435 4.6181 0.13481 6.6316-0.8436 0.90319-0.43888 0.58715-1.7942 0.0454-2.3216-2.6048-2.5354-7.1606-0.32015-6.6769 3.1652 0.48182 3.472 5.7376 4.4844 7.5808 2.422m-13.178-2.3115c0.93012 1.0097 2.3249 3.4526 2.871 4.0498m-6.6538-16.881c-6e-3 5.3603 0.44592 10.954 0.59314 16.332 0.0613 2.2389 0.90329-0.96027 1.6573-2.0135 0.38909-0.54345 3.0694-4.535 3.6375-5.3702m-35.12 2.2954c0.0871 2.5694 0.4103 6.23 0.66552 7.8175 0.0162-1.6447 0.20625-2.1475 0.23205-2.333 0.26002-1.8687 0.79518-5.6203 3.2207-5.739 2.9125-0.14247 3.4133 3.282 3.6067 7.587-0.211-4.1804 0.79355-7.8981 3.538-8.0152 3.2792-0.13985 3.1864 4.8844 3.3374 7.5673m-26.93-15.654c0.0362 5.5371-9.8e-4 12.338 1.0557 17.261m157.3 155.81-0.0321 0.49157m-10.951-3.2436c1.795 0.23678 5.1986 0.33969 6.5721-1.1651 1.6385-1.7951-3.2051-4.5127-5.7856-2.0006-0.84883 0.82643-1.5238 2.0676-1.666 3.3156-0.72982 4.8098 5.8279 3.683 8.3849 2.5172m-25.301-5.611c-0.0734 2.8792 0.16235 4.8756 0.42698 7.833-0.11343-2.6081 2e-3 -7.5809 2.7169-7.6798 2.8408-0.10352 3.5248 3.7122 3.8037 7.2608-0.0423-2.8643-0.33723-7.5366 2.8027-7.6183 3.1345-0.0815 3.287 4.407 3.4911 7.2379m-24.744-5.0838c0.99708-0.6074 2.06-1.1576 3.2334-1.2914 6.1042-0.69588 6.0078 8.2313 0.42599 7.6855-1.0284-0.10055-2.3754-0.52754-3.0858-1.3499-0.62967-0.72893-0.40909-1.329 0.37895-1.7471 1.8745-0.99471 4.7363-0.51865 6.5235 0.50932m-13.681-2.8604c-2.1162-3.7806-7.1045-0.47326-5.9213 3.2308 0.64099 2.0065 2.7263 3.294 5.0016 2.9524 2.2441-0.33689 3.4553-2.6216 3.3346-4.5956-0.018-0.29494-0.59169-3.3773-0.66254-3.2532-0.23716 0.41581-0.0674 1.293-0.079 1.7403-0.0864 3.327 1.4042 15.516 0.5732 17.536-0.23461 0.57039-2.5318 0.40361-2.8929 0.35918-3.7143-0.4571-5.4047-3.1586-5.6117-6.5433m-16.787-11.379c-3.317-1.6648-8.0918 3.3747-5.2632 6.3284 2.6586 2.7763 6.9785 0.48811 7.6037-2.8404 0.18439-0.98206-0.0734-3.3466-1.6187-3.6413-1.4437-0.27538-2.5569-0.36698-3.0231 0.56709m-13.424 3.871c1.6215-0.0591 4.4966 0.47755 5.8263-0.73324 2.7709-2.5233-3.8755-4.4403-5.8219-2.2572-0.54397 0.61018-0.79028 1.3349-0.99609 2.0963-1.2438 4.6018 4.209 6.1664 7.5954 3.6816m-13.138-4.9806c-1.3517-1.2204-4.3341-1.2251-5.6103 0.19971-1.7838 1.9914-1.6023 4.9336 0.29934 6.1064 1.9062 1.1754 5.5669 0.87137 5.886-1.9898 0.62834-5.6339-0.48619-10.013-0.48107-15.024 0.53211 7.9955 0.48207 11.292 2.3733 17.359m-13.09-11.791-0.0293 0.51996m-0.038 3.4549c0.42288 2.1442-0.0385 6.6365 0.22647 8.8217m-12.331-7.5918c0.99596 2.8093 2.3976 5.2202 4.1667 7.8626 2.2428-3.1006 3.0083-5.6922 4.3521-8.4867m-30.926 2.1544c0.0901 2.6192 0.29619 5.2357 0.41149 7.8515-5e-3 -2.5366-0.42107-6.8026 0.12371-7.5686 0.97074 0.0925 2.1892 0.26334 3.0389 0.21735 1.3657-0.0735 2.6659-0.47818 3.4676-0.81968m-13.434 0.97442c-1.4595-0.75696-3.3073-0.033-3.9916 1.5076-0.44401 0.99959-0.98227 2.255-0.81356 3.3908 0.39811 2.6804 4.5527 3.6772 6.4517 1.9919 3.0092-2.6705 1.5829-9.6684-3.2415-6.2592m294.55-48.186c1.4111 0.10783 5.9107 0.1366 6.76-1.4277 1.4113-2.5993-6.2864-4.585-7.4684-0.0733-1.6157 6.1671 6.4549 6.2222 8.0062 3.8101m-11.743-10.015-0.10097 0.51555m0.13429 3.6355c0.22692 1.828 0.24992 5.9389 0.35066 7.8959m-11.849-7.4393c1.1111 3.1422 2.5706 5.4051 4.2272 7.9558 1.1426-2.1593 3.3238-7.052 3.704-8.2668m-12.99 1.3957c-1.9474-1.1097-3.4956 3e-3 -4.5868 1.5194-3.6236 5.0347 3.4111 8.0018 6.6162 4.1499 2.6611-3.1981-1.8699-8.3332-5.3856-4.6624m-19.467-0.14183c0.29522 2.8378 0.40233 5.1448 0.65684 7.8848-0.17991-2.8269 0.5491-7.8689 3.0906-8.0181 3.432-0.2019 3.348 4.0125 3.5801 7.6417-0.11224-3.6358 1.0193-7.792 3.7722-7.9899 3.2854-0.23611 3.1065 5.1912 3.3358 7.5706m-35.718-4.9428c1.3847-1.0361 3.4871-1.4188 4.9275-0.89929 4.8172 1.823 3.5227 8.4549-2.7452 7.6976-1.0164-0.12279-2.0928-0.57235-2.4976-1.5848-1.3261-3.3167 6.2247-3.0481 7.6946-1.573m-26.055-3.1758c1.6716-0.30783 4.0442 0.0437 5.2751-0.55447m-0.33219-8.8829c-0.3298-0.27193-0.85916-0.45772-1.4418-0.38252-0.45716 0.059-1.0136 0.46881-1.0336 2.1682-0.0598 5.0887 0.49987 10.029 0.54822 15.09-0.0169 1.6864 0.34498 8.1343 0.27878 9.6667m-7.8987-16.046c-1.0113-0.0273-2.077-0.33762-3.047 0.0758-0.83559 0.35615-1.3531 1.2016-1.7189 2.04-2.2107 5.0667 7.3467 7.158 7.6182 0.8608 0.13777-3.1958-4.6556-5.9664-5.0735-1.8733m-15.957-1.0519c-3.1004 5.9909-5.617 10.885-8.8896 16.82m-1.1743-16.189c1.7026 2.4033 4.4623 6.918 5.4172 7.9478m-15.292-7.3132c-0.11754 2.7127-0.13174 5.7986 0.28701 7.9496-0.0627-1.0244-1.2036-7.7267-0.2871-7.9496 0.56967-0.13811 1.7249 0.35662 2.7573 0.32841 1.4956-0.0408 2.3397-0.21393 3.7295-0.61561m-14.617 1.2173c-0.78183-0.17736-1.7119-0.46698-2.5093-0.1779-5.2392 1.8989-0.76308 10.457 4.5966 6.7326 0.92595-0.64333 1.9091-1.7484 2.0029-2.9943 0.29096-3.8644-5.3135-5.0567-6.7643-2.3476m-10.799-0.66699c1.8889-0.23906 3.8261-0.37808 5.728-0.29924m-3.3907-9.4686c2e-3 6.1746 0.85012 12.153 0.9743 17.44m-6.4949-6.5973c-0.49465-0.41445-1.6611-0.82911-2.2221-0.8986-1.265-0.1567-4.7222-0.17908-3.4686 2.1303 0.76827 1.4153 8.3662 2.573 7.0188 4.466-1.7016 2.3908-6.9257 1.2304-7.5343 0.23361m-22.216-1.9171c1.9401 0.68961 4.4512 0.78018 6.119-0.64236 2.821-2.406-3.0501-4.4979-5.8761-1.6788-1.9881 1.9832-0.48951 5.9311 2.0686 6.551 2.2661 0.5491 3.5666 0.11624 5.3511-1.1424m-20.345-15.032c-0.11495 6.5279 0.73526 13.073 0.72882 17.33-0.17661-4.1865 0.78271-8.0837 4.4374-8.2121 3.1678-0.11129 3.7598 4.7584 3.8092 7.639m-17.418-6.7203c1.497-0.0455 3.8764-0.60669 5.0466-0.20558m-3.2096-9.5863c0.18093 6.2656 0.78892 12.327 1.0368 17.637m-20.59-6.9821c0.40644 2.7254 0.30704 5.5607 0.44782 8.1081-0.16592-2.7194-0.11322-5.5776-0.44782-8.1081 0.17513 1.1e-4 0.72917 0.36058 0.97408 0.40074 1.4686 0.24104 4.3033 0.0279 5.6014-0.79312m-12.59 1.419c-1.8897-0.83331-4.5832-0.15135-5.6266 1.9572-2.5101 5.0727 5.5031 7.1178 7.9789 3.8234 2.6068-3.4688-3.0812-8.367-6.3434-4.6566m-9.6329-0.74697c0.38692-0.10982 0.78802-0.0582 1.1807-0.0983 0.61599-0.0697 4.1402-0.19812 3.6776-0.12184m-0.69121-9.2585c-4.0928-1.529-1.6231 10.264-1.4526 11.992 0.1836 1.8553 0.35292 3.7276 0.46671 5.588 0.0996 1.6278 0.32333 3.2438 0.42276 4.8695 0.0435 0.71147 0.14851 1.4125 0.19219 2.1266 7e-3 0.12158 0.0913 0.47722 0.0839 0.35565-0.0153-0.25044-0.0173-0.10324 0.0352-0.44017m-26.731-13.476c0.0339 2.7946-0.0994 4.1306 0.13055 7.7737-0.12141-3.5134 1.4041-8.1601 4.3212-8.2905 4.4847-0.20056 3.618 5.1342 3.8182 7.7331m-19.601-5.3965c0.80098-0.75559 1.7695-1.1921 2.8316-1.4347 4.59-1.0487 8.4728 6.5642 1.4436 7.6913-1.2701 0.20371-2.7994 0.0129-3.7217-0.99563-2.6079-2.852 5.4014-3.5824 6.7774-2.0776m-17.663 0.54318c1.5303 0.10762 4.7079 0.38979 5.7739-0.88117 2.6675-3.1801-4.034-5.4015-6.4258-1.6812-3.4322 5.3384 4.7916 7.5322 8.042 4.4987m-24.729-5.2584c0.11932 2.6209 0.30368 4.9979 0.39129 7.8309-0.24071-2.9003 0.19913-7.6418 3.1118-7.8324 2.8903-0.1891 3.1399 4.2669 3.3113 7.4064-0.12098-3.3949 0.7399-7.725 3.478-7.941 2.8532-0.22511 2.6689 5.0742 2.8587 7.587" fill="none" stroke-linecap="round" stroke-linejoin="round" stroke-width="1.5"/>
  <path d="m220.68 48.631c0.10236 2.4909 0.20432 5.6014 0.41421 8.0663-0.0155-3.631 0.33761-7.8046 4.3715-7.9571 3.6576-0.13835 3.7665 4.9095 3.9154 7.3428m-16.458-6.0155c-1.2289-0.89969-3.0354-0.99183-4.1652 0.19694-3.9036 4.106 1.1004 9.3776 5.4487 5.8489 2.5597-2.0771 2.3234-6.0991-1.2835-6.0454-1.0398 0.016-1.623-0.16416-2.374 0.67009m-8.6364-6.1945-0.0236 0.63062m0.0122 4.7933c0.0853 2.1955 0.39858 5.8058 0.38998 7.9159m-10.035-7.3588c1.7025-0.18107 3.3239-0.15661 4.7566-0.32218m-2.6887-9.2396c0.15278 5.1268 0.39284 13.047 0.83771 17.272m-7.9153-12.536-0.023 0.64491m0.44411 4.1982c0.11647 3.0606 0.29108 5.2685 0.47568 8.2867m-5.8216-7.2591c-2.1567-1.1676-7.2675-0.0845-6.1428 2.0641 1.1035 2.108 6.9227 0.85341 7.1103 3.9202 0.1615 2.6405-6.1573 1.8482-7.1598 1.3975m-7.1543-6.7435c-2.8696-1.1445-7.6269 2.1491-6.2164 5.5897 1.3632 3.325 7.1905 2.6878 8.6054-0.22939 1.4712-3.0335-3.2403-6.1525-4.8291-4.4067m-16.563 15.182c-0.47428-5.1803 0.19286-10.951-0.32128-15.465 2.0553-0.15547 3.85-0.40783 5.6924 0.14129 2.3173 0.69064 3.522 3.7931 1.7927 5.8093-0.94502 1.1019-2.5071 1.5626-6.6914 1.915m-20.25-6.3003c0.29035 2.6536 0.33651 5.0825 0.56005 7.8103-0.14234-2.8203 0.14137-7.6729 2.9978-7.8476 3.3173-0.2029 3.6381 3.8463 3.888 7.4001-0.14425-3.9014 0.74627-7.9618 3.6271-8.0548 2.8718-0.0928 3.2792 3.1613 3.4707 7.6576m-22.039-5.9697c-1.8136-0.73346-3.3842 0.0436-4.7222 1.3398-3.9925 3.8673 2.7013 7.5266 6.0619 5.0939 2.4724-1.7898 2.9272-8.5071-1.3398-6.4337zm-10.429 0.66337c-7.4345-3.3949-13.475 10.691 0.3301 6.5323m199.2 47.446c-0.70142-0.45164-1.9462-0.70623-2.7949-0.86202-1.3551-0.24872-4.7223 0.324-3.4364 2.8852 1.1208 2.2319 7.9331 0.82583 7.3746 3.5934-0.47711 2.3642-6.2639 2.2807-7.9889 0.98598m-9.4817-15.804c0.19023 4.3388-0.40124 12.02 0.76389 15.52 0.6657 1.9995 2.8871 2.0426 4.1909 0.50063m-11.918-4.9809c-1.5314-1.1529-3.688-0.57093-4.8177 1.0163-3.2878 4.6194 3.844 8.1178 6.7813 3.9909 3.2659-4.5886-3.3056-9.0407-6.1577-4.3329m-15.059-10.22c0.12709 1.734 0.13185 3.4663 0.14152 5.2018 0.0235 4.0866 0.15324 7.8602 0.45296 11.991-0.17033-3.5875-0.81107-6.622 3.0696-7.844 1.678-0.52839 3.2746 0.41721 4.3424 1.6871 3.7907 4.5078-3.621 7.7779-6.9648 5.281m-20.436-5.7662c0.26283 2.4382 0.31275 6.7024 0.66307 7.9861-0.17313-2.8307 0.18961-8.0648 3.6052-8.2236 2.3489-0.1092 3.2659 3.5412 3.3039 7.7807-0.0958-3.5556 0.88663-8.0759 4.1823-8.145 3.2469-0.068 3.4539 5.1426 3.3903 7.7234m-20.133-6.9442c-2.4791 4.1652-5.9169 14.7-8.3068 17.3m-1.1594-16.825c1.8244 2.8296 4.6318 6.4274 5.1374 8.199m-9.816-6.6635c-0.72826-0.53156-1.9476-0.69733-3.0822-0.74816-1.808-0.081-3.7436 2.1551-2.2288 3.7211 0.52159 0.53923 8.5304 0.55624 6.3783 2.8304-1.6305 1.7374-5.9346 2.3293-8.0477 0.87466m-68.58 0.92905c2.1053 0.71534 4.6739 0.41806 6.5844-0.77054 3.1997-1.9909-7.2664-6.9257-7.0399 0.66086 0.0378 1.2739 0.16681 1.6297 0.65 2.4749 1.5524 2.7149 6.0166 2.2016 7.9377 0.34804m-14.994-4.5052c-0.75963-1.0453-1.7608-1.2548-3.0351-1.2364-4.8116 0.0692-4.4844 6.3274-0.51006 7.4153 7.9564 2.1778 4.1421-14.806 4.6521-4.9611 0.16023 3.0948 0.64718 6.1816 0.83099 9.0836 0.12471 2.039 0.67748 4.5212 0.0554 6.5329-1.2329 3.9874-9.6276-1.2633-7.9901-3.4769m-13.371-13.002c1.4118-0.71532 3.2864-1.2013 4.8332-0.63064 4.9944 1.8425 3.933 7.7922-1.2287 7.9141-1.2272 0.029-4.446-1.5185-2.6688-3.0416 1.1479-0.98381 3.5213-1.072 4.7899-0.49578 0.55091 0.25033 0.96417 0.36491 1.4876 0.83654m-19.839-4.3733c0.27373 2.9521-0.17764 7.8624 3.7728 7.5866 3.1805-0.22198 3.7239-5.505 3.5572-8.23-0.039 2.5448 0.2362 5.6573 1.3026 7.9883m-14.696-6.3138c-6.3174-2.7317-8.973 5.9047-3.923 6.789 4.1627 0.72897 5.5328-1.2745 5.0726-7.1247 0.47233 4.6414 0.67432 10.304 0.89565 14.644 0.0663 1.2637 0.4408 3.2005-0.68986 4.3052-1.1464 1.1203-8.6187-1.647-7.9684-4.9416m-25.029-11.995c1.3456-0.84657 3.0608-1.2265 4.5258-1.07 3.8964 0.41633 5.6441 7.1396 0.64897 8.0237-1.0617 0.1879-5.5972 0.0174-4.4102-2.2391 1.352-2.5704 5.0733-1.8732 7.3353 0.0248m-16.098-14.158c0.42993 5.3913 0.60943 10.75 1.1946 15.721 0.45533 1.3347 2.0957 1.3789 2.9585 0.0766m-17.624-5.7479c-3.2169 5.4034-6.215 12.742-8.9859 17.858m-1.4122-17.325c1.796 2.5406 5.2819 7.6003 5.7792 8.0763m-11.079-5.5901c-0.51895-0.67121-2.049-1.4784-2.9536-1.6191-5.926-0.92219-5.9848 4.1301-3.9417 6.618 1.3387 1.63 3.6992 1.8252 5.4841-0.30467 0.95154-1.2618 1.371-2.6081 1.5957-4.1558 0.088-4.2456-0.44754-9.001-0.67984-12.589 0.40074 2.1047 0.25344 16.173 2.2204 17.96m-18.392-6.5722c-1.5168-0.40475-2.5299-0.39488-3.4982 1.0126-2.4706 3.5914 1.3532 8.0688 5.2974 5.9368 2.4729-1.3368 3.1451-7.2137-0.44587-7.2899m-19.177-8.0918c0.0308 2.3222 0.28295 6.1005 0.42832 8.0186 0.22945 3.0307 0.60786 6.1529 0.67053 8.9204 0.0625-0.60036-0.0242-1.412-0.0655-2.087-0.16129-2.637 0.57906-6.0103 4.5535-5.7978 2.0979 0.11219 3.3605 1.8055 3.5315 3.961 0.19868 2.5112-2.1627 3.444-4.0828 3.7211-1.8938 0.27335-3.8588-0.10649-4.1927-0.91256m279.39-49.935c-0.35146 1.8052-0.83845 3.627-1.2922 5.4237m-31.54-6.7285c1.1516 1.0076 5.6269 0.16224 6.547-0.91055 1.3103-1.5277-1.4923-3.0247-2.7458-3.0112-0.89358 0.01-1.7385 0.42504-2.4614 0.91571-2.6076 1.7699-3.9722 5.7235-0.13894 6.9766 1.9916 0.65109 4.4086-0.26564 6.3164-0.93252m16.286-7.9914c1.477-0.0231 3.7529-0.18405 5.9304-0.0535m-3.5388-9.4742c0.6299 4.3822 0.80661 13.598 1.0036 17.097m-15.036-6.9456c0.63329 2.6243 0.1642 5.3711 0.6716 7.8749-0.22625-2.9294 0.16413-8.0883 3.7793-8.1976 3.6959-0.11178 3.4149 4.7122 3.5913 7.6913m-39.197-5.2274c0.17059 2.6254 0.0788 5.0768 0.21514 7.6028 1.0445-4.9366-0.24947-7.8087 3.1577-8.0361 2.6744-0.1785 3.1911 4.1435 3.3067 7.5222-0.24114-3.5658 0.24447-7.7279 3.3271-7.895 3.3202-0.18003 2.9167 6.0814 2.9506 7.6374m-24.896-2.4048c1.6721 0.2408 4.5708 0.1909 5.8556-1.0796 2.5507-2.5219-3.0715-3.8971-4.8749-2.7678-1.1271 0.70589-1.8752 1.9341-2.1934 3.1486-1.1081 5.1335 4.4756 5.197 7.9294 3.9465m-20.842-6.6292c1.9582 2.8433 3.3076 5.2741 4.6815 8.1209 0.97747-2.9492 3.9082-7.9121 4.4663-8.6724m-16.18 1.9477c-1.5347-0.58282-3.109-0.23767-3.9762 1.3688-2.5646 4.7509 3.9201 8.2771 6.6888 4.1778 0.76866-1.1381 1.0302-3.9997 0.42605-5.2883-0.78116-1.666-4.2302-1.3917-5.1334-0.19256m-20.47 0.4533c0.10843 2.5428 0.61497 6.03 0.53415 7.947-0.0906-0.84236-0.33167-8.0583 3.5244-8.1398 2.9552-0.0625 2.8938 5.0735 3.2022 7.8573 0.0732-3.4174 0.24299-7.916 3.3895-8.1066 3.2679-0.19788 2.7991 5.0318 3.0378 7.7464m-29.286 0.5473c-0.13056 0.53045-0.28975 1.0482-0.47878 1.5596-0.32039 0.86678-0.53877 1.7615-0.81046 2.6366-0.0964 0.31079-0.17283 0.65349-0.20507 0.97811-0.0107 0.1036 0.0788 0.30489-0.025 0.31124-0.0848 5e-3 -0.0104-0.1694-0.0155-0.25411m-3.4774-10.839c-0.69201-0.58838-1.4779-0.65845-2.4015-0.61828-1.4282 0.0621-5.201 1.656-3.1918 3.3652 0.83714 0.71221 8.0744 0.76173 6.1068 3.2337-1.4262 1.7918-5.9201 2.1968-7.274 0.22628m-11.711-2.0627c1.6784 0.41309 5.2355 0.66621 6.0351-1.3682 0.30474-0.77522 0.21706-1.9123-0.84867-2.3602-2.7672-1.1629-4.6355 0.10923-5.6924 1.9563-0.42658 0.74558-0.56638 1.5656-0.55827 2.4256-0.13274 5.0519 6.4641 3.8693 8.6454 2.1536m-20.627 10.94c-0.2167-5.2417-0.59607-11.97-0.70269-16.991 1.79-0.0721 3.145-0.2732 4.2353-0.14865 5.2898 0.60446 5.6474 6.9388 0.6433 7.9413-0.88383 0.17708-2.2592 0.40454-4.2892-0.22051m-12.81-5.1578c1.1995-0.95544 2.3307-1.3177 3.7578-1.3572 4.5014-0.12468 6.5501 6.7543 0.93845 7.6923-1.3926 0.23278-2.9985-0.13978-4.0339-1.065-2.7641-2.4698 4.7208-3.3394 6.7208-2.0507m-20.057-13.056c0.43085 5.8649 0.92958 11.275 1.3749 17.197 0.0635-3.1565-0.70578-8.093 3.9868-8.3766 3.3693-0.20407 3.311 5.4223 3.4872 7.7446m-13.525-6.3587c-0.58121-0.53449-1.943-0.84506-2.7728-0.76626-1.7795 0.16895-3.8572 1.8614-2.3957 3.408 1.1257 1.1912 6.4262 1.0846 6.538 2.9126 0.14959 2.4458-6.2288 2.8842-7.6549 0.89036m-17.017 0.10904c-0.39052 2.3015-1.4403 4.4268-1.7982 6.705m-4.4013-10.998c-1.1564-1.4136-4.9605-1.4478-5.3886 0.74181-0.75462 3.8607 7.5638 1.7947 6.7264 4.793-0.42013 1.5046-5.6094 2.9039-7.5236 0.87083m-9.7489-6.6395c0.18365 2.724 0.38644 5.0569 0.541 7.7641-0.10856-2.7087-0.11309-6.9007-0.10579-7.2875 1.9488 0.41709 4.1111 0.17512 5.7487-0.46837m-12.38 1.5398c-1.2397-1.3388-3.1707-1.5869-4.6392-0.267-4.4134 3.9668 0.68408 9.2664 4.9308 6.132 2.3022-1.6991 3.1998-5.1498-0.2916-5.865-1.7595-0.36042-2.1854-0.51151-3.5937 0.39504m-10.725-10.107c0.0144 2.7854-0.13252 14.269 1.0669 16.412 0.64235 1.1475 2.5791 1.2683 3.5099 0.17993m-12.268-6.5077c-1.9135-0.3697-3.6958 0.51392-4.6923 2.2326-2.2912 3.9518 3.3579 8.0873 7.0482 3.9464 3.1196-3.5005-0.71326-8.2955-4.9346-5.5349m-9.1049 0.31314c-6.4416-2.4888-9.4501 9.2124-1.7956 7.4054 1.4029-0.32817 2.6924-0.74063 3.8293-1.7278m285.59-50.019c0.11738 1.6899-0.46967 4.0772-0.67135 5.3614m-4.9195-11.504c-0.7969-0.55224-1.9333-0.54742-2.9222-0.48694-2.2186 0.13569-5.6684 2.9464-2.0172 4.2187 1.8789 0.6547 4.3059-0.41805 6.0159 0.32334 0.46116 0.19995 0.31629 1.0779 0.21172 1.419-0.83442 2.7214-5.3655 3.6851-7.6321 2.0058m-9.9736-6.3986c2.0964-0.0982 3.1578-0.25114 5.2486-0.37903m-2.6706-9.5894c-0.0845 5.6332 0.58252 12.612 0.68404 17.569m-15.305-7.0106c0.10809 3.9312 0.21984 7.832 3.4708 7.6753 3.8536-0.1858 3.7382-5.4681 3.6153-8.2375-0.0553 2.3325 0.0109 6.6107 1.6242 8.0438m-13.295-6.5828c-0.7723-0.17468-1.8318-0.47636-2.7772-0.47425-1.4422 3e-3 -3.7327 0.28941-4.7145 1.5508-1.4544 1.8683-0.2073 5.2972 1.8644 5.9744 1.9266 0.6298 4.3322 0.1501 5.832-0.64011m-27.432 1.0638c-0.60151 1.6349-0.1442 3.6311-0.87382 5.2092m-141.63 62.971c0.0667 2.171 0.14884 5.2346 0.16818 7.9472-0.0678-3.7247 0.97026-7.9797 3.9547-8.1446 4.0534-0.22398 3.535 5.3986 3.6953 7.6743" fill="none" stroke-linecap="round" stroke-linejoin="round" stroke-width="3"/>
</svg>
