<?xml version="1.0" encoding="UTF-8" standalone="no"?>
<!-- Created with Inkscape (http://www.inkscape.org/) -->

<svg
   xmlns:dc="http://purl.org/dc/elements/1.1/"
   xmlns:cc="http://creativecommons.org/ns#"
   xmlns:rdf="http://www.w3.org/1999/02/22-rdf-syntax-ns#"
   xmlns:svg="http://www.w3.org/2000/svg"
   xmlns="http://www.w3.org/2000/svg"
   xmlns:sodipodi="http://sodipodi.sourceforge.net/DTD/sodipodi-0.dtd"
   xmlns:inkscape="http://www.inkscape.org/namespaces/inkscape"
   width="240.00333"
   height="50.00069"
   viewBox="0 0 240.00333 50.00069"
   version="1.1"
   id="svg5516"
   inkscape:version="0.92.2 5c3e80d, 2017-08-06"
   sodipodi:docname="twitter_button.svg"
   role="img">
  <defs
     id="defs5510" />
  <sodipodi:namedview
     id="base"
     pagecolor="#8c3f3f"
     bordercolor="#666666"
     borderopacity="1.0"
     inkscape:pageopacity="1"
     inkscape:pageshadow="2"
     inkscape:zoom="1.4142136"
     inkscape:cx="64.06201"
     inkscape:cy="-44.741118"
     inkscape:document-units="px"
     inkscape:current-layer="svg5516"
     showgrid="true"
     fit-margin-top="0"
     fit-margin-left="0"
     fit-margin-right="0"
     fit-margin-bottom="0"
     units="px"
     inkscape:snap-bbox="true"
     inkscape:bbox-paths="false"
     inkscape:bbox-nodes="true"
     inkscape:snap-nodes="false"
     inkscape:snap-others="false"
     inkscape:window-width="1920"
     inkscape:window-height="1016"
     inkscape:window-x="0"
     inkscape:window-y="27"
     inkscape:window-maximized="1"
     inkscape:snap-page="true"
     inkscape:snap-grids="false"
     inkscape:snap-to-guides="false"
     inkscape:snap-bbox-edge-midpoints="false"
     inkscape:snap-global="true">
    <inkscape:grid
       type="xygrid"
       id="grid6364"
       empspacing="1"
       originx="4.9266525e-07"
       originy="-149.99931"
       spacingx="26.458331"
       spacingy="26.458331" />
  </sodipodi:namedview>
  <metadata
     id="metadata5513">
    <rdf:RDF>
      <cc:Work
         rdf:about="">
        <dc:format>image/svg+xml</dc:format>
        <dc:type
           rdf:resource="http://purl.org/dc/dcmitype/StillImage" />
        <dc:title></dc:title>
      </cc:Work>
    </rdf:RDF>
  </metadata>
  <g
     id="twitter-button"
     aria-labelledby="twitter-button-button-desc">
    <title id="twitter-button-button-title">Follow on Twitter</title>
    <desc id="twitter-button-button-desc">A button with the Twitter icon next to "Follow on Twitter"</desc>
    <rect
       y="0"
       x="0"
       height="50.00069"
       width="240.00333"
       id="rect2361"
       style="fill:#55acee;stroke:none;stroke-width:3.77958012" />
    <path
       inkscape:connector-curvature="0"
       style="fill:#ffffff;stroke:none;stroke-width:3.77958012"
       d="m 45.000136,17.246913 c -0.919923,0.40792 -1.908408,0.68359 -2.945911,0.80763 1.059084,-0.63477 1.872276,-1.63997 2.255181,-2.83762 a 10.271839,10.271839 0 0 1 -3.256943,1.24464 c -0.935654,-0.99678 -2.268572,-1.61974 -3.743875,-1.61974 -2.832641,0 -5.129231,2.29649 -5.129231,5.12893 0,0.40206 0.04539,0.79346 0.132815,1.16896 -4.26272,-0.21396 -8.042039,-2.25587 -10.571837,-5.359 -0.441413,0.75751 -0.69435,1.63867 -0.69435,2.57851 0,1.77952 0.905576,3.34934 2.281762,4.26917 a 5.1086247,5.1086247 0 0 1 -2.323262,-0.64161 c 0,0.0215 0,0.043 0,0.0645 0,2.48508 1.767985,4.55814 4.114288,5.02934 a 5.1359685,5.1359685 0 0 1 -2.316232,0.0879 c 0.65265,2.03772 2.546896,3.52054 4.791245,3.56203 -1.755385,1.3756 -3.967013,2.19562 -6.369957,2.19562 -0.414064,0 -0.82227,-0.0242 -1.223548,-0.0717 2.269842,1.45529 4.96585,2.30442 7.86235,2.30442 9.434342,0 14.593254,-7.81559 14.593254,-14.59336 0,-0.22247 -0.0049,-0.44367 -0.01474,-0.66359 a 10.424672,10.424672 0 0 0 2.559395,-2.65507"
       id="path2363" />
    <path
       id="path2036"
       style="fill:#ffffff;stroke:none;stroke-width:3.77958012"
       d="m 219.43532,21.618793 q 0.56512,0 0.93881,0.082 l -0.20961,2.60681 q -0.33726,-0.0911 -0.82033,-0.0911 -1.33075,0 -2.07815,0.6836 -0.7383,0.6836 -0.7383,1.91408 v 5.18627 h -2.77998 v -10.19024 h 2.1055 l 0.41016,1.71356 h 0.13671 q 0.47397,-0.85678 1.27607,-1.37632 0.8112,-0.52865 1.75913,-0.52865 z m -12.51449,1.97788 q -0.88413,0 -1.38544,0.56512 -0.50131,0.55599 -0.57423,1.58596 h 3.90109 q -0.0181,-1.02996 -0.53776,-1.58596 -0.51954,-0.56512 -1.40366,-0.56512 z m 0.39193,8.58606 q -2.46097,0 -3.84641,-1.35809 -1.38544,-1.35809 -1.38544,-3.84641 0,-2.56123 1.27607,-3.95578 1.28516,-1.40366 3.54562,-1.40366 2.16019,0 3.36332,1.23048 1.20315,1.23049 1.20315,3.39978 v 1.34899 h -6.57171 q 0.0456,1.18491 0.70183,1.85029 0.65626,0.66536 1.84117,0.66536 0.92058,0 1.74091,-0.19139 0.82033,-0.1914 1.71357,-0.61069 v 2.15107 q -0.72918,0.36458 -1.55862,0.53778 -0.82943,0.18229 -2.02346,0.18229 z m -8.41289,-2.21487 q 0.72919,0 1.75003,-0.31903 v 2.06904 q -1.03908,0.46484 -2.55212,0.46484 -1.66799,0 -2.43362,-0.83855 -0.75652,-0.84767 -0.75652,-2.53388 v -4.91283 h -1.33075 v -1.17581 l 1.53127,-0.92969 0.80209,-2.15107 h 1.77738 v 2.1693 h 2.8529 v 2.08727 h -2.8529 v 4.91283 q 0,0.59244 0.32814,0.87501 0.33725,0.28256 0.88412,0.28256 z m -8.09385,0 q 0.72918,0 1.75003,-0.31903 v 2.06904 q -1.03908,0.46484 -2.55212,0.46484 -1.66799,0 -2.43363,-0.83855 -0.75652,-0.84767 -0.75652,-2.53388 v -4.91283 h -1.33074 v -1.17581 l 1.53127,-0.92969 0.80209,-2.15107 h 1.77737 v 2.1693 h 2.85291 v 2.08727 h -2.85291 v 4.91283 q 0,0.59244 0.32814,0.87501 0.33725,0.28256 0.88412,0.28256 z m -10.0991,-10.79182 q 0,-1.35809 1.51305,-1.35809 1.51304,0 1.51304,1.35809 0,0.64715 -0.38282,1.01174 -0.37369,0.35547 -1.13022,0.35547 -1.51305,0 -1.51305,-1.36721 z m 2.89848,12.8244 h -2.77999 v -10.19024 h 2.77999 z m -10.37253,0 -0.78388,-3.56385 -1.0573,-4.50267 h -0.0638 l -1.85941,8.06652 h -2.98962 l -2.89848,-10.19024 h 2.77088 l 1.1758,4.51177 q 0.28256,1.21226 0.57423,3.34511 h 0.0547 q 0.0367,-0.69272 0.31903,-2.19665 l 0.14585,-0.77475 1.25783,-4.88548 h 3.06254 l 1.19403,4.88548 q 0.0367,0.2005 0.10938,0.59245 0.082,0.39194 0.15496,0.83856 0.0729,0.4375 0.1276,0.8659 0.0638,0.41927 0.0729,0.67449 h 0.0547 q 0.082,-0.65626 0.29167,-1.79561 0.20962,-1.14845 0.30078,-1.5495 l 1.22137,-4.51177 h 2.7253 l -2.93496,10.19024 z m -13.84526,0 h -2.82556 v -10.97411 h -3.61854 v -2.3516 h 10.06264 v 2.3516 h -3.61854 z m -13.08872,0 h -2.77998 v -5.9519 q 0,-1.10289 -0.39193,-1.64976 -0.39194,-0.556 -1.24872,-0.556 -1.16668,0 -1.68622,0.78386 -0.51954,0.77475 -0.51954,2.57946 v 4.79434 h -2.77999 v -10.19024 h 2.12373 l 0.37369,1.3034 h 0.15496 q 0.46484,-0.73829 1.27606,-1.112 0.82032,-0.38281 1.85939,-0.38281 1.77738,0 2.69796,0.96616 0.92058,0.95704 0.92058,2.77087 z m -18.74896,-5.11335 q 0,1.51304 0.4922,2.28779 0.5013,0.77475 1.62241,0.77475 1.11199,0 1.59508,-0.76564 0.49219,-0.77475 0.49219,-2.2969 0,-1.51304 -0.49219,-2.26956 -0.49219,-0.75652 -1.6133,-0.75652 -1.11199,0 -1.60419,0.75652 -0.4922,0.7474 -0.4922,2.26956 z m 7.04567,0 q 0,2.48831 -1.31252,3.89198 -1.31252,1.40366 -3.65499,1.40366 -1.46747,0 -2.58858,-0.63803 -1.12111,-0.64714 -1.72268,-1.85028 -0.60157,-1.20314 -0.60157,-2.80733 0,-2.49743 1.3034,-3.88287 1.30341,-1.38543 3.66411,-1.38543 1.46747,0 2.58859,0.63803 1.1211,0.63802 1.72267,1.83205 0.60157,1.19403 0.60157,2.79822 z m -21.70211,5.11335 -0.78387,-3.56385 -1.05731,-4.50267 h -0.0638 l -1.8594,8.06652 h -2.98962 l -2.89848,-10.19024 h 2.77087 l 1.1758,4.51177 q 0.28256,1.21226 0.57423,3.34511 h 0.0547 q 0.0367,-0.69272 0.31903,-2.19665 l 0.14586,-0.77475 1.25783,-4.88548 h 3.06254 l 1.19402,4.88548 q 0.0367,0.2005 0.10938,0.59245 0.082,0.39194 0.15493,0.83856 0.0729,0.4375 0.1276,0.8659 0.0638,0.41927 0.0729,0.67449 h 0.0547 q 0.082,-0.65626 0.29167,-1.79561 0.20965,-1.14845 0.30078,-1.5495 l 1.22137,-4.51177 h 2.72529 l -2.93495,10.19024 z m -17.719002,-5.11335 q 0,1.51304 0.49219,2.28779 0.50132,0.77475 1.62242,0.77475 1.112,0 1.59507,-0.76564 0.4922,-0.77475 0.4922,-2.2969 0,-1.51304 -0.4922,-2.26956 -0.49219,-0.75652 -1.6133,-0.75652 -1.11199,0 -1.60419,0.75652 -0.49219,0.7474 -0.49219,2.26956 z m 7.045672,0 q 0,2.48831 -1.31252,3.89198 -1.312522,1.40366 -3.655002,1.40366 -1.46747,0 -2.58858,-0.63803 -1.1211,-0.64714 -1.72268,-1.85028 -0.60157,-1.20314 -0.60157,-2.80733 0,-2.49743 1.30341,-3.88287 1.3034,-1.38543 3.66411,-1.38543 1.46747,0 2.58858,0.63803 1.121102,0.63802 1.722682,1.83205 0.60157,1.19403 0.60157,2.79822 z m -12.168142,5.11335 h -2.77999 v -14.18249 h 2.77999 z m -5.68758,0 h -2.77999 v -14.18249 h 2.77999 z m -12.12256,-5.11335 q 0,1.51304 0.49219,2.28779 0.50131,0.77475 1.62243,0.77475 1.11199,0 1.59507,-0.76564 0.49219,-0.77475 0.49219,-2.2969 0,-1.51304 -0.49219,-2.26956 -0.4922,-0.75652 -1.6133,-0.75652 -1.112,0 -1.6042,0.75652 -0.49219,0.7474 -0.49219,2.26956 z m 7.04567,0 q 0,2.48831 -1.31252,3.89198 -1.31251,1.40366 -3.655,1.40366 -1.46747,0 -2.58857,-0.63803 -1.12112,-0.64714 -1.72268,-1.85028 -0.60157,-1.20314 -0.60157,-2.80733 0,-2.49743 1.30339,-3.88287 1.30341,-1.38543 3.66412,-1.38543 1.46746,0 2.58858,0.63803 1.12111,0.63802 1.72267,1.83205 0.60158,1.19403 0.60158,2.79822 z m -16.50674,5.11335 h -2.779984 v -13.32571 h 7.638124 v 2.31514 h -4.85814 v 3.43624 h 4.5209 v 2.30603 h -4.5209 z"
       inkscape:connector-curvature="0" />
  </g>
</svg>
