<?xml version="1.0" encoding="UTF-8" standalone="no"?>
<!-- Created with Inkscape (http://www.inkscape.org/) -->

<svg
   xmlns:dc="http://purl.org/dc/elements/1.1/"
   xmlns:cc="http://creativecommons.org/ns#"
   xmlns:rdf="http://www.w3.org/1999/02/22-rdf-syntax-ns#"
   xmlns:svg="http://www.w3.org/2000/svg"
   xmlns="http://www.w3.org/2000/svg"
   xmlns:sodipodi="http://sodipodi.sourceforge.net/DTD/sodipodi-0.dtd"
   xmlns:inkscape="http://www.inkscape.org/namespaces/inkscape"
   width="179.8118"
   height="59.504936"
   viewBox="0 0 179.8118 59.504936"
   version="1.1"
   id="svg5516"
   inkscape:version="0.92.2 5c3e80d, 2017-08-06"
   sodipodi:docname="youtube_button_annotation.svg">
  <defs
     id="defs5510" />
  <sodipodi:namedview
     id="base"
     pagecolor="#8c3f3f"
     bordercolor="#666666"
     borderopacity="1.0"
     inkscape:pageopacity="1"
     inkscape:pageshadow="2"
     inkscape:zoom="1.4142136"
     inkscape:cx="64.062257"
     inkscape:cy="66.940019"
     inkscape:document-units="px"
     inkscape:current-layer="svg5516"
     showgrid="true"
     fit-margin-top="0"
     fit-margin-left="0"
     fit-margin-right="0"
     fit-margin-bottom="0"
     units="px"
     inkscape:snap-bbox="true"
     inkscape:bbox-paths="false"
     inkscape:bbox-nodes="true"
     inkscape:snap-nodes="false"
     inkscape:snap-others="false"
     inkscape:window-width="1920"
     inkscape:window-height="1016"
     inkscape:window-x="0"
     inkscape:window-y="27"
     inkscape:window-maximized="1"
     inkscape:snap-page="true"
     inkscape:snap-grids="false"
     inkscape:snap-to-guides="false"
     inkscape:snap-bbox-edge-midpoints="false"
     inkscape:snap-global="true">
    <inkscape:grid
       type="xygrid"
       id="grid6364"
       empspacing="1"
       originx="0.00024126574"
       originy="-140.49531"
       spacingx="26.458331"
       spacingy="26.458331" />
  </sodipodi:namedview>
  <metadata
     id="metadata5513">
    <rdf:RDF>
      <cc:Work
         rdf:about="">
        <dc:format>image/svg+xml</dc:format>
        <dc:type
           rdf:resource="http://purl.org/dc/dcmitype/StillImage" />
        <dc:title></dc:title>
      </cc:Work>
    </rdf:RDF>
  </metadata>
  <g
     id="youtube-button-annotation"
     aria-labelledby="youtube-button-annotation-title">
    <title
       id="youtube-button-annotation-title">a new video every two weeks</title>
    <path
       sodipodi:nodetypes="cc"
       inkscape:connector-curvature="0"
       id="path4160"
       d="M 37.47006,24.55965 C 25.06603,27.01796 3.01989,20.05328 0.75132,0.76061"
       style="fill:none;stroke-width:1.50049329;stroke-linecap:round;stroke-linejoin:round" />
    <path
       inkscape:connector-curvature="0"
       d="m 178.30281,35.74419 c -0.887,-0.61348 -1.8053,-0.88836 -2.805,-0.78715 -1.541,0.15604 -3.9364,0.86147 -2.0912,2.67458 1.7436,1.71328 5.787,-0.13127 5.6525,2.78836 -0.08,1.82134 -5.3927,1.70906 -6.6307,0.59579 m -5.8546,-2.08052 c 0.9951,1.38759 1.7136,2.29164 2.7015,3.50222 m -7.6356,-15.94175 c 0.2276,4.58774 0.8222,8.29564 0.7573,12.74177 0,0.31262 0.187,2.43516 0.3678,3.6401 1.254,-1.20618 2.6332,-3.18269 3.3154,-4.05865 0.8763,-1.12541 1.4109,-1.80724 2.5275,-3.32244 m -16.297,4.80937 c 1.9051,0.0847 4.8342,0.29836 6.1798,-1.28461 0.6092,-0.71634 -0.2674,-1.33735 -0.7943,-1.70807 -1.7465,-1.22897 -4.339,-0.79735 -5.6366,0.87052 -1.3498,1.73495 -1.0433,4.82384 1.415,5.18309 2.0798,0.30395 4.0785,-0.12685 5.706,-1.11568 m -18.5298,-1.23738 c 1.7016,0.35039 5.2741,0.5023 6.4509,-1.20662 1.0624,-1.54309 -1.0887,-2.59807 -3.3039,-2.27344 -2.51,0.36784 -4.1239,1.64624 -3.6397,3.97382 0.7958,3.8251 5.744,3.2568 7.9658,1.2486 m -22.1445,-3.95034 c 0.4712,1.15073 0.8836,2.35481 1.3527,3.2184 0.6898,1.26987 1.312,2.19234 1.9482,3.36806 0.965,-1.60383 1.4942,-2.62481 2.3763,-4.04962 0.9845,1.25619 1.7085,2.7585 2.541,3.71583 0.6937,-1.24921 1.3961,-2.40109 1.861,-3.45081 0.6973,-1.5747 1.1841,-3.13819 1.3872,-3.75525 m -31.1183,3.11579 c -1.9903,-1.58909 -4.8787,0.34322 -4.7917,2.74082 0.1282,3.53283 4.3627,4.31509 6.9022,2.7585 0.9276,-0.56862 1.5046,-1.41596 1.6215,-2.49738 0.3001,-2.77461 -4.4909,-4.80127 -6.2308,-2.56504 M 87.51695,41.8072 c 0.6844,1.33244 1.064,2.37687 1.6652,3.50988 0.3836,0.7229 1.14426,2.33288 1.51536,3.03658 0.9297,-1.37807 1.8879,-2.57865 2.4569,-3.52959 0.9582,1.01182 1.9839,2.49338 2.6637,3.13477 0.4698,-1.01339 1.0989,-2.39979 1.4777,-3.39288 0.5269,-1.38126 0.9621,-2.52063 1.3938,-3.65287 M 79.34685,42.337 c 1.6768,-0.0702 4.0285,-0.28646 5.5357,-0.38464 m -3.0709,-9.58624 c 0.107,1.04025 0.031,2.0868 0.053,3.1297 0.07,3.33896 0.4033,6.66983 0.5183,10.00625 0.047,1.35456 0.1494,2.62375 0.1566,4.06314 m -16.482,-6.18464 c -0.4588,1.29632 -1.0142,2.45527 -1.5723,3.71475 -1.8453,4.16385 -3.793,8.31946 -5.2643,11.64958 m -1.6152,-14.72747 c 1.8515,2.30296 3.4008,4.39575 4.8878,6.45483 M 48.33214,44.75053 c 0.16561,2.28748 0.21788,4.51459 0.54971,6.85861 -0.16679,-2.17219 -0.0855,-4.45315 -0.30912,-6.56758 -0.0558,-0.11287 -0.32494,-0.19693 -0.24119,-0.29099 0.15374,-0.17251 1.081,0.0682 1.29109,0.12008 1.73161,0.42764 3.18872,0.077 4.72312,-0.47387 m -16.37689,5.04201 c 1.78712,0.0897 4.01919,0.0443 5.37379,-1.26677 1.70842,-1.65345 -1.68858,-3.76864 -4.12193,-2.38017 -1.90343,1.08613 -3.52532,3.22521 -2.19025,5.26868 0.32231,0.49333 0.74337,0.83322 1.32986,1.03267 2.10705,0.71664 4.65351,-0.41458 6.64208,-1.0347 m -18.6242,-4.53682 c 1.31868,2.63343 2.55051,4.24804 4.19712,6.40555 1.44416,-2.29599 2.55964,-4.74237 3.51621,-6.96716 m -16.07908,4.97006 c 1.8095,0.0222 4.17585,-0.0786 5.573,-1.52247 0.61504,-0.63566 -0.18449,-1.57971 -0.6817,-1.95662 -1.4336,-1.08659 -3.71382,-0.4966 -5.03075,0.44165 -1.90204,1.35516 -2.64827,4.89423 0.18707,5.6939 1.83942,0.51877 4.39788,-0.26157 6.11687,-0.95462"
       style="fill:none;stroke-width:1.50002074;stroke-linecap:round;stroke-linejoin:round"
       id="path3895" />
    <path
       inkscape:connector-curvature="0"
       d="m 46.83018,21.02427 c 1.39971,-1.11894 2.95011,-1.4393 4.45309,-1.40784 3.48768,0.0731 5.20478,7.1297 -0.67754,6.89026 -1.0244,-0.042 -2.39974,-0.10442 -2.89361,-1.09552 -1.45973,-2.93017 4.75339,-3.57578 6.11583,-1.24019 m 89.90886,-11.13683 c -1.9078,-0.64436 -4.0131,0.34426 -4.9671,2.08369 -0.3149,0.57411 -0.2909,1.12191 -0.1164,1.73705 0.9006,3.18013 5.7917,3.13236 7.8768,1.20064 3.1238,-2.89415 -0.6113,-6.7338 -4.6965,-5.38173 m -12.1636,4.29707 c 1.396,0.0295 4.0132,-0.10588 4.82,-1.55656 0.3757,-0.67537 -0.5246,-1.51699 -1.0411,-1.7513 -1.887,-0.85599 -3.5088,-0.32638 -4.7129,0.91642 -1.7899,1.84761 -0.4395,4.63998 1.9404,5.31895 1.6018,0.457 3.9462,0.057 5.4182,-0.68688 m -12.8775,-4.89581 c -1.5252,-0.53316 -3.2237,-0.32727 -4.4987,0.7193 -2.2729,1.86588 -0.8928,6.11645 2.1579,5.93485 0.6287,-0.0374 1.1843,-0.38144 1.6909,-0.72257 2.7658,-1.86213 1.5705,-6.4312 1.4783,-9.25064 -0.07,-2.15858 -0.3165,-4.36962 -0.4839,-6.58996 0.1621,1.82522 0.3251,4.01264 0.4323,5.49966 0.1818,2.64356 0.5314,5.3496 0.6535,8.0018 0.034,0.76563 0.3971,1.9911 0.5964,2.72744 m -11.3579,-10.40271 c -0.7016,0.85038 -0.4263,0.38817 0,0 z m 0.06,4.4397 c 0.1636,2.12997 0.3727,4.98379 0.5313,6.9175 m -10.7205,-6.34309 c 1.5717,2.54451 2.8137,4.64152 4.0984,6.82529 1.0179,-2.32073 2.0314,-4.79614 2.9872,-7.17103 m -47.08916,3.35125 c 0.071,1.04926 0.2494,2.08562 0.3349,3.13383 0.1158,1.37738 0.3064,2.76137 0.3441,4.07615 -0.051,-1.02633 -0.068,-2.03849 -0.073,-2.97502 -0.011,-1.97847 0.5082,-3.52066 2.5448,-3.90947 0.5574,-0.10637 1.2278,-0.22547 1.7785,-0.0463 1.478,0.48098 1.9605,2.313 2.128,3.69252 0.1144,0.94099 0.294,1.95728 0.3132,2.67869 m 11.5139,-7.8538 c 0.3178,1.01902 0.6943,1.94619 1.187,2.83626 0.7885,1.42459 1.4967,2.63841 2.3619,3.88855 0.6259,-0.84292 1.7702,-3.38328 2.0148,-3.88932 0.5598,0.71084 2.08416,4.57944 2.60466,3.3851 0.6907,-1.585 1.3298,-3.27592 1.7773,-4.9467 0.083,-0.3075 0.4815,-1.32617 0.7644,-2.12684 m -18.18736,5.26209 c 1.6131,0.0955 4.0142,0.13142 5.1205,-1.30878 1.127,-1.46713 -1.9681,-2.7763 -3.0207,-2.69548 -0.8557,0.0657 -1.7309,0.56662 -2.3504,1.14769 -1.6265,1.52555 -1.1189,4.55479 0.9769,5.39293 1.3886,0.55536 3.9295,0.44408 5.3032,-0.1493"
       style="fill:none;stroke-width:1.50002074;stroke-linecap:round;stroke-linejoin:round"
       id="path5300" />
  </g>
</svg>
