<?xml version="1.0" encoding="UTF-8" standalone="no"?>
<!-- Created with Inkscape (http://www.inkscape.org/) -->

<svg
   xmlns:dc="http://purl.org/dc/elements/1.1/"
   xmlns:cc="http://creativecommons.org/ns#"
   xmlns:rdf="http://www.w3.org/1999/02/22-rdf-syntax-ns#"
   xmlns:svg="http://www.w3.org/2000/svg"
   xmlns="http://www.w3.org/2000/svg"
   xmlns:sodipodi="http://sodipodi.sourceforge.net/DTD/sodipodi-0.dtd"
   xmlns:inkscape="http://www.inkscape.org/namespaces/inkscape"
   width="220"
   height="50"
   viewBox="0 0 220 50"
   version="1.1"
   id="svg5516"
   inkscape:version="0.92.2 5c3e80d, 2017-08-06"
   sodipodi:docname="youtube_button.svg"
   role="img">
  <defs
     id="defs5510" />
  <sodipodi:namedview
     id="base"
     pagecolor="#8c3f3f"
     bordercolor="#666666"
     borderopacity="1.0"
     inkscape:pageopacity="1"
     inkscape:pageshadow="2"
     inkscape:zoom="1.4142136"
     inkscape:cx="64.062016"
     inkscape:cy="-103.69164"
     inkscape:document-units="px"
     inkscape:current-layer="svg5516"
     showgrid="true"
     fit-margin-top="0"
     fit-margin-left="0"
     fit-margin-right="0"
     fit-margin-bottom="0"
     units="px"
     inkscape:snap-bbox="true"
     inkscape:bbox-paths="false"
     inkscape:bbox-nodes="true"
     inkscape:snap-nodes="false"
     inkscape:snap-others="false"
     inkscape:window-width="1920"
     inkscape:window-height="1016"
     inkscape:window-x="0"
     inkscape:window-y="27"
     inkscape:window-maximized="1"
     inkscape:snap-page="true"
     inkscape:snap-grids="false"
     inkscape:snap-to-guides="false"
     inkscape:snap-bbox-edge-midpoints="false"
     inkscape:snap-global="true">
    <inkscape:grid
       type="xygrid"
       id="grid6364"
       empspacing="1"
       originx="4.9266524e-07"
       originy="-150"
       spacingx="26.458331"
       spacingy="26.458331" />
  </sodipodi:namedview>
  <metadata
     id="metadata5513">
    <rdf:RDF>
      <cc:Work
         rdf:about="">
        <dc:format>image/svg+xml</dc:format>
        <dc:type
           rdf:resource="http://purl.org/dc/dcmitype/StillImage" />
        <dc:title></dc:title>
      </cc:Work>
    </rdf:RDF>
  </metadata>
  <g
     id="youtube-button"
     aria-labelledby="youtube-button-desc">
    <title
       id="youtube-button-title">Watch all Videos</title>
    <desc
       id="youtube-button-desc">A button with the YouTube Icon next to "Watch all Videos"</desc>
    <path
       style="display:inline;opacity:1;fill:#ff0000;fill-opacity:1;stroke:none;stroke-width:0.61185724;stroke-linecap:round;stroke-linejoin:round;stroke-miterlimit:4;stroke-dasharray:none;stroke-dashoffset:0;stroke-opacity:1"
       d="M 0,0 H 220 V 50 H 0 Z"
       id="rect2525"
       inkscape:connector-curvature="0"
       sodipodi:nodetypes="ccccc" />
    <path
       style="fill:#ffffff;fill-opacity:1;fill-rule:nonzero;stroke:none;stroke-width:0.14204882"
       d="m 32.95613,16.19363 c 0,0 -7.81614,-9.8e-4 -9.76578,0.52453 -1.0757,0.28935 -1.92308,1.14323 -2.21058,2.22591 C 20.4574,20.90631 20.45711,25 20.45711,25 c 0,0 9e-5,4.0934 0.52266,6.05592 0.2875,1.08254 1.13488,1.93643 2.21058,2.22592 1.94964,0.52572 9.76578,0.52453 9.76578,0.52453 0,0 7.81829,9.7e-4 9.76773,-0.52453 1.0759,-0.28949 1.92318,-1.14338 2.21068,-2.22592 C 45.45691,29.0934 45.45711,25 45.45711,25 c 0,0 -2e-4,-4.09369 -0.52257,-6.05593 -0.2875,-1.08268 -1.13478,-1.93656 -2.21068,-2.22591 -1.94944,-0.52586 -9.76773,-0.52453 -9.76773,-0.52453 z M 30.40023,21.28252 36.9349,25 30.40023,28.71748 Z"
       id="path2543"
       inkscape:connector-curvature="0" />
    <path
       inkscape:connector-curvature="0"
       d="m 196.72977,29.18075 q 0,-0.48307 -0.48307,-0.75651 -0.47396,-0.28255 -1.53125,-0.5013 -3.51823,-0.73828 -3.51823,-2.98958 0,-1.3125 1.08464,-2.1875 1.09375,-0.88412 2.85286,-0.88412 1.87761,0 2.9987,0.88412 1.13021,0.88411 1.13021,2.29687 h -2.63412 q 0,-0.5651 -0.36458,-0.92969 -0.36458,-0.37369 -1.13932,-0.37369 -0.66537,0 -1.02995,0.30078 -0.36458,0.30078 -0.36458,0.76562 0,0.4375 0.41015,0.71094 0.41927,0.26432 1.40365,0.46484 0.98437,0.19141 1.65885,0.4375 2.08724,0.76563 2.08724,2.65235 0,1.34896 -1.15755,2.1875 -1.15755,0.82942 -2.98958,0.82942 -1.23959,0 -2.20573,-0.4375 -0.95703,-0.44661 -1.50391,-1.21224 -0.54687,-0.77473 -0.54687,-1.66796 h 2.49739 q 0.0365,0.70182 0.51953,1.07552 0.48308,0.37369 1.29427,0.37369 0.75651,0 1.13933,-0.28255 0.39192,-0.29166 0.39192,-0.75651 z m -16.32421,-2.29687 q 0,-1.46745 0.5651,-2.61589 0.56511,-1.14844 1.6224,-1.77734 1.0664,-0.62891 2.47005,-0.62891 1.99609,0 3.25391,1.22136 1.26692,1.22135 1.41276,3.3177 l 0.0182,0.67448 q 0,2.26953 -1.26693,3.64584 -1.26693,1.36718 -3.39974,1.36718 -2.13281,0 -3.40885,-1.36718 -1.26693,-1.36719 -1.26693,-3.71875 z m 2.63411,0.1914 q 0,1.40365 0.52865,2.15105 0.52864,0.73828 1.51302,0.73828 0.95703,0 1.49479,-0.72917 0.53776,-0.73828 0.53776,-2.35156 0,-1.3763 -0.53776,-2.13282 -0.53776,-0.75651 -1.51302,-0.75651 -0.96615,0 -1.49479,0.75651 -0.52865,0.7474 -0.52865,2.32422 z m -7.78385,5.01302 q -2.16927,0 -3.53645,-1.33072 -1.35808,-1.33073 -1.35808,-3.54558 v -0.25521 q 0,-1.48567 0.57422,-2.65234 0.57422,-1.17578 1.6224,-1.80469 1.05729,-0.63802 2.40625,-0.63802 2.02343,0 3.18099,1.27604 1.16666,1.27605 1.16666,3.61849 v 1.07552 h -6.27994 q 0.1276,0.96615 0.76562,1.54948 0.64714,0.58334 1.63151,0.58334 1.52214,0 2.37891,-1.10287 l 1.29427,1.44922 q -0.59245,0.83854 -1.60417,1.3125 -1.01172,0.46484 -2.24219,0.46484 z m -0.30078,-8.09375 q -0.78385,0 -1.27604,0.52865 -0.48307,0.52865 -0.61979,1.51302 h 3.66406 v -0.20963 q -0.0182,-0.875 -0.47396,-1.34896 -0.45573,-0.48308 -1.29427,-0.48308 z m -15.1849,2.90756 q 0,-2.30599 1.02995,-3.67318 1.03906,-1.36719 2.83464,-1.36719 1.4401,0 2.3789,1.07552 v -5.03125 h 2.64323 v 14 h -2.3789 l -0.12761,-1.04817 q -0.98437,1.23046 -2.53385,1.23046 -1.74089,0 -2.79818,-1.36718 -1.04818,-1.37631 -1.04818,-3.81901 z m 2.63412,0.1914 q 0,1.38542 0.48307,2.1237 0.48307,0.73828 1.40365,0.73828 1.22135,0 1.72265,-1.02995 v -3.89192 q -0.49218,-1.02995 -1.70442,-1.02995 -1.90495,0 -1.90495,3.08984 z m -4.40235,4.8125 h -2.64323 v -9.86198 h 2.64323 z m -2.79817,-12.41406 q 0,-0.59245 0.39192,-0.97526 0.40104,-0.38281 1.08464,-0.38281 0.67448,0 1.07552,0.38281 0.40104,0.38281 0.40104,0.97526 0,0.60156 -0.41016,0.98438 -0.40104,0.38281 -1.0664,0.38281 -0.66537,0 -1.07552,-0.38281 -0.40104,-0.38282 -0.40104,-0.98438 z m -7.11849,9.1237 3.00781,-9.98047 h 3.04427 l -4.62109,13.27083 h -2.85287 l -4.60286,-13.27083 h 3.03515 z m -11.92188,3.29036 h -2.64323 v -14 h 2.64323 z m -4.95833,0 h -2.64322 v -14 h 2.64322 z m -7.09114,0 q -0.18229,-0.35547 -0.26433,-0.88411 -0.95703,1.0664 -2.48828,1.0664 -1.44922,0 -2.40625,-0.83854 -0.94791,-0.83854 -0.94791,-2.11458 0,-1.56771 1.15755,-2.40625 1.16667,-0.83854 3.36328,-0.84766 h 1.21224 v -0.5651 q 0,-0.68359 -0.35547,-1.09375 -0.34635,-0.41016 -1.10286,-0.41016 -0.66537,0 -1.04818,0.31901 -0.3737,0.31901 -0.3737,0.875 h -2.63411 q 0,-0.85677 0.52864,-1.58593 0.52865,-0.72917 1.49479,-1.13933 0.96615,-0.41927 2.16928,-0.41927 1.82291,0 2.88932,0.92058 1.07552,0.91145 1.07552,2.57031 v 4.27474 q 0.009,1.40364 0.39193,2.12369 v 0.15495 z m -2.17839,-1.83203 q 0.58334,0 1.07552,-0.25521 0.49219,-0.26432 0.72917,-0.70182 v -1.69531 h -0.98438 q -1.97786,0 -2.10546,1.36719 l -0.009,0.15494 q 0,0.49219 0.34636,0.8112 0.34635,0.31901 0.94791,0.31901 z m -16.09635,-6.95443 q 1.04818,-1.25781 2.63411,-1.25781 3.20834,0 3.25391,3.72787 v 6.3164 h -2.63411 v -6.24349 q 0,-0.84765 -0.36459,-1.24869 -0.36458,-0.41016 -1.21224,-0.41016 -1.15755,0 -1.67708,0.89323 v 7.00911 h -2.63412 v -14 h 2.63412 z m -8.20313,6.84506 q 0.72917,0 1.1849,-0.40105 0.45573,-0.40104 0.47396,-1.0664 h 2.47005 q -0.009,1.0026 -0.54687,1.84114 -0.53776,0.82943 -1.47657,1.29428 -0.92968,0.45572 -2.05989,0.45572 -2.11459,0 -3.33594,-1.33984 -1.22135,-1.34896 -1.22135,-3.71875 v -0.17318 q 0,-2.27864 1.21224,-3.63671 1.21223,-1.35808 3.32682,-1.35808 1.85026,0 2.96224,1.05729 1.12109,1.04818 1.13932,2.79818 h -2.47005 q -0.0182,-0.76562 -0.47396,-1.23958 -0.45573,-0.48308 -1.20312,-0.48308 -0.92058,0 -1.39454,0.67448 -0.46484,0.66537 -0.46484,2.16927 v 0.27344 q 0,1.52214 0.46484,2.1875 0.46485,0.66537 1.41276,0.66537 z M 90.38082,19.61955 v 2.42448 h 1.6862 v 1.9323 h -1.6862 v 4.92187 q 0,0.54688 0.20964,0.78385 0.20964,0.23698 0.80208,0.23698 0.4375,0 0.77474,-0.0638 v 1.9961 q -0.77474,0.23697 -1.59505,0.23697 -2.77083,0 -2.82552,-2.79817 v -5.3138 h -1.4401 v -1.9323 h 1.4401 v -2.42448 z m -7.46484,12.28646 q -0.18229,-0.35547 -0.26432,-0.88411 -0.95703,1.0664 -2.48828,1.0664 -1.44922,0 -2.40625,-0.83854 -0.94792,-0.83854 -0.94792,-2.11458 0,-1.56771 1.15755,-2.40625 1.16667,-0.83854 3.36328,-0.84766 h 1.21224 v -0.5651 q 0,-0.68359 -0.35547,-1.09375 -0.34635,-0.41016 -1.10286,-0.41016 -0.66536,0 -1.04818,0.31901 -0.37369,0.31901 -0.37369,0.875 h -2.63412 q 0,-0.85677 0.52865,-1.58593 0.52864,-0.72917 1.49479,-1.13933 0.96614,-0.41927 2.16927,-0.41927 1.82292,0 2.88932,0.92058 1.07552,0.91145 1.07552,2.57031 v 4.27474 q 0.009,1.40364 0.39193,2.12369 v 0.15495 z M 80.7376,30.07398 q 0.58333,0 1.07552,-0.25521 0.49218,-0.26432 0.72916,-0.70182 v -1.69531 h -0.98437 q -1.97787,0 -2.10547,1.36719 l -0.009,0.15494 q 0,0.49219 0.34635,0.8112 0.34635,0.31901 0.94792,0.31901 z m -9.06901,-1.99609 1.78645,-9.44271 h 2.72526 l -2.94401,13.27083 h -2.7526 l -2.16016,-8.8776 -2.16015,8.8776 H 63.41077 L 60.46676,18.63518 h 2.72526 l 1.79558,9.42448 2.1875,-9.42448 h 2.3151 z"
       style="fill:#ffffff;stroke:none;stroke-width:3.77958012"
       id="path7193" />
  </g>
</svg>
