<svg aria-labelledby="TwitterIcon-Title" role="img" version="1.1" viewBox="0 0 255.3 208.05" xmlns="http://www.w3.org/2000/svg"><title id="TwitterIcon-Title">Twitter Icon</title><desc id="TwitterIcon-Desc">A stylized bird with spread wings looking to the right</desc><path class="TwitterIcon-Bird" d="m256 24.628c-9.42 4.177-19.542 7-30.166 8.27 10.845-6.5 19.172-16.793 23.093-29.057a105.18 105.18 0 0 1-33.351 12.745c-9.581-10.207-23.23-16.586-38.337-16.586-29.006 0-52.523 23.516-52.523 52.52 0 4.117 0.465 8.125 1.36 11.97-43.65-2.191-82.35-23.1-108.26-54.876-4.52 7.757-7.11 16.78-7.11 26.404 0 18.222 9.273 34.297 23.365 43.716a52.312 52.312 0 0 1-23.79-6.57c-3e-3 0.21997-3e-3 0.44001-3e-3 0.661 0 25.447 18.104 46.675 42.13 51.5a52.592 52.592 0 0 1-23.718 0.90002c6.683 20.866 26.08 36.05 49.062 36.475-17.975 14.086-40.622 22.483-65.228 22.483-4.24 0-8.42-0.24907-12.529-0.73399 23.243 14.902 50.85 23.597 80.51 23.597 96.607 0 149.43-80.031 149.43-149.44 0-2.278-0.05-4.543-0.15201-6.795a106.75 106.75 0 0 0 26.208-27.188"/></svg>
