<svg aria-labelledby="FacebookIcon-Title" role="img" version="1.1" viewBox="0 0 256 256" xmlns="http://www.w3.org/2000/svg"><title id="FacebookIcon-Title">Facebook Icon</title><desc id="FacebookIcon-Desc">An f within a box with rounded corners</desc><path class="FacebookIcon-Box" d="m14.129-2.5197e-6c-7.805 0-14.129 6.3248-14.129 14.129v227.74c0 7.8029 6.3239 14.131 14.129 14.131h122.61v-99.138h-33.361v-38.634h33.361v-28.492c0-33.066 20.193-51.072 49.691-51.072 14.128 0 26.272 1.0524 29.812 1.5234v34.554l-20.459 0.0113c-16.041 0-19.148 7.6226-19.148 18.808v24.668h38.26l-4.9824 38.634h-33.277v99.136h65.236c7.802 0 14.129-6.3278 14.129-14.131v-227.74c0-7.8039-6.3269-14.129-14.129-14.129z"/><path class="FacebookIcon-F" d="m136.74 256v-99.139h-33.361v-38.635h33.361v-28.492c0-33.066 20.193-51.072 49.691-51.072 14.128 0 26.272 1.0524 29.812 1.5234v34.555l-20.459 0.0113c-16.041 0-19.148 7.6226-19.148 18.809v24.668h38.26l-4.9824 38.635h-33.277v99.137z"/></svg>
