<svg id="logo-christopheraue" aria-labelledby="logo-christopheraue-title" role="img" version="1.1" viewBox="0 0 436 76" xmlns="http://www.w3.org/2000/svg">
  <title id="logo-christopheraue-title">Christopher Aue</title>
  <desc id="logo-christopheraue-desc">A row of 11 squares with the letters C, H, R, I, S, T, O, P, H, E, R punched into them and below a row of 3 squares with the letters A, U, E punched into them</desc>
  <path id="logo-christopheraue-path" d="m400 0v36h36v-36zm15.82 8.5078c2.808 2e-4 4.9746 0.47758 6.4687 1.4766 1.494 0.999 2.25 2.6048 2.25 4.7108 0 1.3139-0.31106 2.3452-0.91404 3.1642-0.60321 0.81894-1.4677 1.5008-2.6015 1.9688 0.37796 0.46805 0.78146 0.94397 1.1952 1.5468 0.41394 0.60291 0.79023 1.2416 1.1952 1.8986 0.40516 0.65673 0.81728 1.3278 1.1952 2.039 0.37795 0.71086 0.73066 1.4252 1.0546 2.1092h-4.711c-0.34167-0.61198-0.70359-1.198-1.0546-1.828-0.35112-0.62997-0.68545-1.2341-1.0546-1.8282-0.36888-0.59399-0.76528-1.1564-1.1249-1.6874-0.35982-0.53095-0.69438-1.045-1.0546-1.4767h-2.1094v6.8204h-4.2187v-18.422c0.91842-0.17991 1.902-0.27954 2.8828-0.3515 0.98086-0.0726 1.8276-0.13908 2.6016-0.14211zm-0.56255 3.586c-0.24302 0.0212-0.48741 0.0514-0.70314 0.0695v5.0626h1.1952c1.5843 1.9e-4 2.6911-0.166 3.375-0.56255 0.68379-0.39534 1.0545-1.0846 1.0546-2.0388-4e-5 -0.91797-0.3617-1.5818-1.0546-1.9688-0.69301-0.38702-1.6732-0.56255-3.0235-0.56255-0.30576 0-0.60064-0.0212-0.84359 0zm-55.257-12.094v36h36v-36zm11.39 8.6487h12.586v3.5154h-8.3672v3.6562h7.4531v3.4454h-7.4531v4.5h9v3.5858h-13.219zm-51.39-8.6487v36h36v-36zm10.265 8.6487h4.2188v7.1014h7.0312v-7.1014h4.2187v18.703h-4.2187v-7.9452h-7.0312v7.9452h-4.2188zm-50.265-8.6487v36h36v-36zm16.453 8.5078c2.79 2e-4 4.9745 0.49588 6.4687 1.4766 1.4943 0.98086 2.25 2.5488 2.25 4.7812 0 2.25-0.80822 3.923-2.3202 4.9218-1.512 0.999-3.6607 1.4767-6.4687 1.4766h-1.336v6.2578h-4.2187v-18.422c0.91843-0.17991 1.9273-0.27954 2.9531-0.3515 1.0259-0.0726 1.8978-0.13909 2.6719-0.13909zm-0.63285 3.586c-0.29707 0.0197-0.55755 0.0514-0.77344 0.0695v5.4142h1.336c1.4578 0 2.5666-0.166 3.3046-0.56255 0.73806-0.39594 1.1249-1.17 1.1251-2.25-4e-5 -0.52188-0.0922-0.92342-0.2812-1.2657-0.18935-0.34228-0.49285-0.63708-0.84359-0.84374-0.35112-0.20682-0.76165-0.34092-1.2657-0.4218-0.50404-0.0816-1.0755-0.13909-1.6875-0.13909-0.30576 0-0.61697-0.0197-0.91404 0zm-55.82-12.094v36h36v-36zm18 8.2264c1.2784 2e-4 2.4519 0.21876 3.5859 0.633 1.1342 0.41408 2.1775 1.0005 3.0235 1.828 0.84586 0.82771 1.4828 1.8788 1.9687 3.0938 0.48589 1.2149 0.70299 2.6164 0.70314 4.2188-4e-5 1.6018-0.22602 3.0038-0.70314 4.2188-0.47683 1.2149-1.1407 2.2048-1.9687 3.0236-0.82817 0.81834-1.81 1.484-2.9532 1.8982-1.1431 0.41409-2.3422 0.56255-3.6562 0.56255-1.2778 0-2.4519-0.14816-3.586-0.56255-1.134-0.41424-2.1775-1.0797-3.0234-1.8982-0.84586-0.8188-1.4826-1.8086-1.9688-3.0236-0.48619-1.2149-0.70299-2.617-0.70299-4.2188 0-1.6024 0.19881-3.0038 0.70299-4.2188 0.50404-1.2149 1.184-2.266 2.0391-3.0938 0.85508-0.82757 1.8984-1.4138 3.0234-1.828 1.1251-0.41424 2.2736-0.63285 3.5156-0.633zm0 3.6564c-0.7916 2e-4 -1.497 0.19608-2.1094 0.49225-0.61228 0.29691-1.124 0.66444-1.5469 1.1952-0.42301 0.53095-0.75954 1.2217-0.98449 1.9688-0.22451 0.74729-0.3515 1.5608-0.3515 2.461 0 0.91797 0.12699 1.723 0.3515 2.461 0.22488 0.73806 0.56133 1.3674 0.98449 1.8984 0.42285 0.53095 0.9346 0.97769 1.5469 1.2657 0.61229 0.28815 1.3178 0.4218 2.1094 0.4218 0.77404 0 1.4884-0.13455 2.1094-0.4218 0.62105-0.288 1.1239-0.73459 1.5468-1.2657 0.42285-0.53094 0.75923-1.1605 0.98449-1.8984 0.22526-0.73807 0.35149-1.543 0.35149-2.461 0-0.91843-0.12699-1.7844-0.35149-2.5312-0.22526-0.74683-0.56134-1.3673-0.98449-1.8986-0.42286-0.53095-0.92584-0.90739-1.5468-1.1952-0.62105-0.2877-1.3354-0.4921-2.1094-0.49225zm-58-11.883v36h36v-36zm10.265 8.6487h15.469v3.5858h-5.625v15.117h-4.2187v-15.117h-5.625zm-50.265-8.6487v36h36v-36zm18.422 8.2264c1.2602 2e-4 2.3162 0.15194 3.2344 0.4221 0.91812 0.27016 1.6561 0.52022 2.25 0.84359l-1.1952 3.3046c-0.52188-0.27016-1.119-0.49617-1.7578-0.70299-0.63889-0.20681-1.42-0.28135-2.3203-0.28135-1.0081 0-1.6686 0.14363-2.1094 0.42195-0.44084 0.27878-0.70299 0.68939-0.70299 1.2657 0 0.34227 0.11943 0.60986 0.2812 0.84374 0.16176 0.23403 0.33562 0.44372 0.63284 0.63269 0.29707 0.18989 0.66762 0.4097 1.0546 0.56255 0.38702 0.1539 0.79763 0.25973 1.2657 0.42194 0.97164 0.35982 1.8111 0.77375 2.5312 1.1251 0.72023 0.35105 1.3513 0.72719 1.8282 1.1952 0.47682 0.46806 0.82061 0.98721 1.0546 1.6174 0.23402 0.62997 0.35164 1.4204 0.35164 2.3202 0 1.7462-0.60427 3.115-1.8281 4.078-1.2238 0.96288-3.0888 1.4064-5.5547 1.4064-0.82832 0-1.5839-0.0423-2.25-0.13908-0.6661-0.0998-1.245-0.20788-1.7578-0.35165-0.51281-0.14362-0.96681-0.25973-1.3358-0.42195-0.36918-0.16191-0.66187-0.34817-0.91404-0.49224l1.1952-3.375c0.55801 0.30599 1.22 0.6008 2.0391 0.84375 0.81895 0.24294 1.8353 0.35179 3.0234 0.35179 0.59384 0 1.0896-0.0423 1.4764-0.14211 0.38702-0.0983 0.68001-0.25081 0.91404-0.42164 0.23403-0.16993 0.40199-0.32867 0.49225-0.56239 0.0907-0.23449 0.14059-0.4853 0.14059-0.7736-1e-5 -0.61198-0.26759-1.1422-0.84389-1.547-0.57615-0.40456-1.5496-0.86793-2.9531-1.3358-0.61258-0.21649-1.2866-0.42421-1.8984-0.70314-0.61198-0.27847-1.1314-0.63163-1.6172-1.0546-0.48589-0.423-0.88939-0.94382-1.1952-1.547-0.30599-0.60322-0.4218-1.3156-0.4218-2.1798 0-0.864 0.16827-1.6976 0.49225-2.3904 0.32368-0.69287 0.74184-1.2719 1.3358-1.7578 0.59414-0.4859 1.3337-0.86385 2.1797-1.1251 0.84601-0.26124 1.821-0.35165 2.8828-0.3518zm-58.422-8.2264v36h36v-36zm15.891 8.6487h4.2187v18.703h-4.2187zm-15.891 31.351v36h36v-36zm11.391 8.6486h12.586v3.5154h-8.3672v3.6562h7.4531v3.4454h-7.4531v4.5h9v3.5858h-13.219zm-51.391-48.649v36h36v-36zm15.82 8.5078c2.8081 2e-4 4.9746 0.47758 6.4688 1.4766 1.4941 0.999 2.25 2.6048 2.25 4.7108-1e-5 1.3139-0.31083 2.3452-0.91404 3.1642-0.60321 0.81894-1.4678 1.5008-2.6016 1.9688 0.37795 0.46805 0.78145 0.94397 1.1952 1.5468 0.41394 0.60291 0.79023 1.2416 1.1952 1.8986 0.40502 0.65673 0.81729 1.3278 1.1952 2.039 0.37795 0.71086 0.73066 1.4252 1.0546 2.1092h-4.7109c-0.34182-0.61198-0.7036-1.198-1.0546-1.828-0.35105-0.62997-0.68546-1.2341-1.0546-1.8282-0.36919-0.59399-0.76528-1.1564-1.1251-1.6874-0.35981-0.53095-0.69438-1.045-1.0546-1.4767h-2.1094v6.8204h-4.2186v-18.422c0.91842-0.17991 1.902-0.27954 2.8828-0.3515 0.98086-0.0726 1.8276-0.13908 2.6016-0.13908zm-0.56239 3.586c-0.2431 0.0197-0.48726 0.0514-0.70314 0.0695v5.0624h1.1952c1.5842 2e-4 2.6911-0.166 3.375-0.56239 0.68379-0.39564 1.0546-1.0847 1.0546-2.039-1e-5 -0.91797-0.36177-1.5818-1.0546-1.9688-0.69287-0.38702-1.6732-0.56239-3.0235-0.56239-0.30599 0-0.60079-0.0197-0.84374 0zm-15.258 27.906v36h36v-36zm10.336 8.4376h4.2187v11.25c0 0.75561 0.11036 1.4376 0.2812 1.9686 0.17084 0.53095 0.40592 0.93234 0.70299 1.2657 0.29707 0.33336 0.63179 0.55907 1.0546 0.70315 0.42301 0.14362 0.90255 0.21104 1.4063 0.21104 1.0261 0 1.8221-0.28406 2.4609-0.91419 0.63889-0.62997 1.281-1.7518 0.98449-3.2342v-11.25h4.2187v11.601c-2e-5 1.0983-0.18611 2.1056-0.49225 3.0236-0.30599 0.91782-0.77616 1.7336-1.4063 2.3906-0.63012 0.65704-1.4187 1.1868-2.3906 1.5468-0.97209 0.36011-2.1138 0.49209-3.4453 0.4924-1.3139-4e-4 -2.4208-0.19397-3.375-0.56255-0.9541-0.36918-1.7696-0.81955-2.3906-1.4766-0.62105-0.65703-1.1094-1.4819-1.4063-2.3906-0.29692-0.90875-0.21286-1.9456-0.4218-3.0236zm-50.336-48.438v36h36v-36zm10.266 8.6487h4.2187v7.1014h7.0313v-7.1014h4.2187v18.703h-4.2187v-7.9452h-7.0313v7.9452h-4.2187zm-10.266 31.351v36h36v-36zm15.961 8.6486h4.0781c0.61198 1.2958 1.1638 2.5784 1.7578 3.9374 0.59414 1.359 1.2252 2.777 1.8281 4.289 0.60291 1.512 1.198 3.1414 1.8281 4.8514 0.63012 1.7102 1.337 3.6092 2.0391 5.625h-4.5703c-0.1985-0.64796-0.39005-1.3547-0.63284-2.0388-0.2428-0.68394-0.46927-1.3552-0.70299-2.039h-7.3125c-0.23403 0.68379-0.46035 1.3549-0.70314 2.039-0.2428 0.68395-0.43449 1.3909-0.63284 2.0388h-4.4297c0.70193-2.0158 1.4093-3.9148 2.0391-5.625 0.62982-1.71 1.225-3.3394 1.8281-4.8514 0.60321-1.512 1.1729-2.93 1.7578-4.289 0.58492-1.359 1.198-2.6416 1.8281-3.9374zm1.9687 4.2188c-0.09071 0.27016-0.24204 0.65658-0.4218 1.1251-0.17975 0.46791-0.39882 1.005-0.63284 1.617-0.23403 0.61199-0.49436 1.2308-0.77344 1.9688-0.27908 0.73806-0.55589 1.51-0.84374 2.3204h5.3437c-0.28785-0.81033-0.57373-1.5824-0.84374-2.3204-0.27001-0.73807-0.53034-1.3567-0.77344-1.9688-0.2431-0.61198-0.45279-1.1493-0.63284-1.617-0.1799-0.46851-0.31355-0.85478-0.4218-1.1251zm-57.93-52.867v36h36v-36zm19.758 8.2264c0.79204 2e-4 1.5318 0.0242 2.1797 0.13909 0.64796 0.11792 1.2013 0.26865 1.6875 0.4218 0.4862 0.15405 0.87156 0.33048 1.1952 0.49224 0.32383 0.16192 0.55861 0.2617 0.70299 0.35165l-1.1952 3.4454c-0.57615-0.30599-1.2742-0.6277-2.0391-0.84374-0.76498-0.21619-1.6298-0.2812-2.6016-0.2812-0.64826 0-1.2775 0.0665-1.8984 0.2812-0.62105 0.21619-1.1402 0.57766-1.6172 1.0546-0.47713 0.47728-0.90754 1.0723-1.1952 1.8282-0.28785 0.75591-0.4218 1.7326-0.4218 2.8126-1.5e-5 0.864 0.09222 1.6434 0.2812 2.3904 0.18882 0.74729 0.49119 1.3585 0.91404 1.8986 0.42285 0.54002 1.0037 1.0208 1.6875 1.336 0.68379 0.31491 1.4885 0.42179 2.4609 0.42149 0.61198 1.9e-4 1.2016 2e-3 1.6875-0.0695 0.4859-0.0726 0.88743-0.18202 1.2657-0.28119 0.37826-0.0998 0.69649-0.22541 0.98434-0.3515 0.2877-0.12548 0.53942-0.244 0.77344-0.3518l1.1952 3.375c-0.59384 0.35981-1.4513 0.69618-2.5313 0.98449-1.0799 0.28815-2.3044 0.42194-3.7266 0.42194-3.0421 0-5.3679-0.8392-6.961-2.5314-1.593-1.6922-2.3906-4.0582-2.3906-7.1718 0-1.5484 0.2171-2.9336 0.70314-4.1486 0.4862-1.2147 1.1931-2.2564 2.0391-3.0936 0.84601-0.83694 1.8534-1.4663 3.0234-1.8984 1.17-0.43192 2.4291-0.63284 3.7969-0.63299z" stroke-width="0"/>
</svg>
