<svg aria-labelledby="slash-collateral-title" role="img" version="1.1" viewBox="0 0 342.06 85.019" xmlns="http://www.w3.org/2000/svg" xmlns:xlink="http://www.w3.org/1999/xlink"><title id="slash-collateral-title">/collateral</title><desc id="slash-collateral-desc">The text "/collateral" written by hand</desc><defs><linearGradient id="a" x2="361.56" y1="42.51" y2="42.51" gradientUnits="userSpaceOnUse"><stop stop-color="#fff" offset="0"/><stop stop-color="#fff" offset=".95"/><stop offset="1"/></linearGradient><mask id="slash-collateral-blend-mask" maskUnits="userSpaceOnUse"><rect width="362.06" height="85.019" fill="url(#a)"/></mask></defs><g id="slash-collateral" fill="none" mask="url(#slash-collateral-blend-mask)" stroke-linecap="round" stroke-linejoin="round" stroke-width="5.5802"><path d="m331.3 4.6298c0.168 16.773 0.0281 33.804-0.0281 50.771-0.0211 4.9146 4.9895 4.7334 7.9643 2.58"/><path d="m291.89 37.572c2.3904-2.157 6.3342-4.8579 10.382-4.7472 4.1188 0.12 9.7683 0.369 12.129 2.865 5.5434 5.8308 5.2788 18.854 1.2261 21.624-5.8702 4.0119-24.254 3.9129-24.355-3.8805-0.057-4.3395 3.2789-5.5713 7.3013-5.7015 4.0227-0.15 10.38-0.15 14.103-0.3"/><path id="slash-collateral-r" d="m258.89 59.657c0.027-9.3288 0.4809-19.921 0.225-27.577 3.6219 2.79 7.8063 3.6639 12.582 3.7083 5.2603 0.06 8.1418-2.022 9.4387-2.919"/><path id="slash-collateral-e" d="m225 45.795c6.713 1.044 15.59 2.067 18.801-1.878 1.3443-1.653-0.025-5.811-1.0293-7.1364-3.595-4.7454-9.1316-5.2479-15.012-3.8229-7.5614 1.833-11.988 15.72-5.066 23.977 3.4858 4.158 16.733 3.2805 21.934 0.615"/><path id="slash-collateral-t" d="m200.31 3.2315c0.114 20.637-0.294 36.423-0.3036 55.744m-10.967-26.18c7.7256-0.21 15.298-0.06 21.702 0.06"/><path d="m152.1 35.329c4.8565-3.1206 14.355-2.931 20.045-2.337 2.1201 0.24 6.1314 3.1557 6.5302 5.346 1.0179 5.595 0.3459 8.7096-0.6441 15.612-0.3207 2.226-1.7601 4.7658-5.5581 5.3865-4.1939 0.684-7.9376 0.741-13.392 0.27-5.6483-0.489-10.395-9.0993-5.645-10.874 4.01-1.5 17.133-1.554 19.923 0.522"/><path d="m132.88 3.086c-0.084 16.776-0.7113 35.822-0.6918 51.215 6e-3 4.9947 4.9023 6.2925 8.2706 3.5916"/><path d="m113.69 2.8298c-0.297 14.93-0.72 36.256-0.7056 51.742 6e-3 5.7882 4.8623 5.6721 8.1384 3.8181"/><path id="slash-collateral-o" d="m85.847 33.028c-6.1407 0.69-11.643 2.454-13.091 12.176-1.0149 6.8211-0.168 11.957 5.4529 13.409 5.923 1.53 15.497 0.879 18.532-4.335 2.7504-4.7271 4.1934-13.862-0.8043-18.615-2.3931-2.274-6.6221-3.0255-10.089-2.637z"/><path id="slash-collateral-c" d="m59.942 36.489c-2.3172-2.043-5.5519-3.0414-8.6097-3.3219-1.2708-0.12-2.5842-0.3-3.8658-0.21-4.1461 0.306-9.0045 2.427-11.567 5.7984-2.0106 2.643-2.3424 6.0606-2.3424 9.2649 0 2.61 0.285 5.7285 1.9908 7.8402 2.4072 2.982 6.6303 3.4635 10.162 3.6966 4.7752 0.315 8.8662-0.24 12.768-3.0927 0.4134-0.303 1.0374-0.702 1.3191-1.089"/><path id="slash-collateral-slash" d="m27.172 2.9189c-2.3115 5.5323-4.7819 11.052-6.4439 16.822-4.4009 15.28-8.4781 30.638-13.236 45.994-1.3893 4.4823-2.7699 12.19-4.6855 16.459"/></g></svg>
