<svg id="slash-design-annotation" aria-labelledby="slash-design-annotation-title" role="img" version="1.1" viewBox="0 0 281.37 114.26" xmlns="http://www.w3.org/2000/svg">
  <title id="category">Software &amp; Interfaces</title>
  <desc id="slash-design-annotation-desc">The text "Software &amp; Interfaces" with an arrow pointing upwards</desc>
  <path id="software-and-interfaces" d="m90.25 107.4q-0.27344 0.82031-0.88867 1.8229-0.59245 1.0026-1.6406 1.8913-1.0254 0.88867-2.5749 1.4811-1.5267 0.59245-3.6686 0.59245-1.5723 0-2.985-0.41016-1.39-0.41016-2.6204-1.1393-1.9824 1.1621-4.1927 1.8913-2.1875 0.72917-4.5801 0.72917-2.2786 0-3.9193-0.61523-1.6406-0.63802-2.7116-1.6634-1.0482-1.0254-1.5495-2.3242-0.5013-1.2988-0.5013-2.6432 0-2.0508 0.79752-3.6003 0.79753-1.5495 2.0964-2.7116 1.2988-1.1849 2.9622-2.0736 1.6862-0.91146 3.4408-1.6862-0.18229-1.071-0.27343-2.1191-0.0684-1.0482-0.0684-2.0736 0-2.0736 0.54687-3.7142 0.54688-1.6406 1.5039-2.78 0.97982-1.1393 2.3014-1.7318 1.3444-0.59245 2.8939-0.59245 1.0254 0 1.7773 0.36459 0.77474 0.34179 1.276 0.91146 0.5013 0.56966 0.75195 1.276 0.25065 0.68359 0.25065 1.3672 0 1.8229-0.75195 3.2129-0.75196 1.39-1.9824 2.4837-1.2077 1.071-2.7572 1.9141t-3.1445 1.5723q0.36459 1.9596 0.97982 3.8509t1.4583 3.5775q0.86589 1.6862 1.9368 3.1218 1.0938 1.4128 2.4382 2.4154 1.4583-1.0482 2.666-2.3014 1.2077-1.2532 2.0736-2.5293 0.86588-1.2988 1.3216-2.5065 0.47852-1.2077 0.47852-2.1647 0-0.70638-0.15951-1.1849-0.1595-0.47851-0.43294-0.77474-0.27344-0.29622-0.63802-0.43294-0.36459-0.13672-0.77474-0.13672-0.3418 0-0.70638 0.13672-0.36459 0.13672-0.66081 0.41016-0.27344 0.25065-0.45573 0.6608-0.18229 0.38737-0.18229 0.93425 0 0.43294 0.22786 0.95703 0.25066 0.5013 0.88868 0.77474l-0.38737 0.75195q-0.45573-0.20507-0.75196-0.47851-0.29622-0.29623-0.47851-0.63802-0.18229-0.3418-0.27344-0.6836-0.0684-0.36458-0.0684-0.68359 0-0.75195 0.29622-1.2988 0.31902-0.56966 0.77474-0.93424 0.47852-0.38737 1.0254-0.56966 0.54687-0.1823 1.0254-0.1823 1.3672 0 2.1875 0.8431 0.84309 0.8431 0.84309 2.4154 0 1.0026-0.52408 2.2786-0.50131 1.276-1.4356 2.6432-0.93425 1.3672-2.2559 2.7344-1.3216 1.3672-2.9167 2.5293 1.1621 0.72917 2.4382 1.1393 1.2988 0.41015 2.78 0.41015 1.4583 0 2.5749-0.5013 1.1393-0.5013 1.9596-1.2532 0.82031-0.75196 1.3444-1.6178 0.52409-0.88867 0.75195-1.6406zm-21.989 5.5371q1.8457 0 3.5547-0.47852 1.709-0.47852 3.2585-1.3444-1.4356-1.0482-2.5977-2.4837-1.1621-1.4583-2.0736-3.1673-0.88868-1.709-1.5267-3.6003-0.61523-1.9141-0.97982-3.8509-1.5495 0.75195-2.8255 1.595-1.2532 0.82031-2.1419 1.8457-0.88868 1.0026-1.3672 2.2559-0.47852 1.2533-0.47852 2.8483 0 1.6862 0.63802 2.8939 0.66081 1.1849 1.6862 1.9824 1.0254 0.77474 2.3014 1.1393 1.276 0.36459 2.5521 0.36459zm1.2305-21.693q0 1.1621 0.0684 2.3698 0.0911 1.1849 0.29622 2.3926 1.5267-0.6836 2.9622-1.4356 1.4356-0.77474 2.5521-1.709 1.1165-0.95704 1.7774-2.1191 0.68359-1.1849 0.68359-2.666 0-0.61524-0.20508-1.2077-0.18229-0.59245-0.59245-1.071-0.38737-0.47851-1.0026-0.75195-0.59245-0.29622-1.4128-0.29622-1.0938 0-2.0508 0.5013-0.93425 0.5013-1.6178 1.39-0.68359 0.86589-1.071 2.0508-0.38737 1.1849-0.38737 2.5521zm200.15 22.931q-2.44 0-3.68-1.04t-1.44-3.24v-0.08q0-0.8 0.84-0.8 0.8 0 0.84 0.84 0.16 1.44 0.92 2.04 0.8 0.6 2.52 0.6h6.56q1.96 0 2.72-0.76t0.76-2.72-0.76-2.72-2.72-0.76h-6.48q-2.52 0-3.72-1.16-1.2-1.2-1.2-3.72 0-2.56 1.2-3.72 1.2-1.2 3.72-1.2h6.28q2.28 0 3.48 1 1.2 0.96 1.36 3v0.16q0 0.72-0.8 0.72-0.76 0-0.88-0.84-0.12-1.32-0.84-1.84t-2.32-0.52h-6.28q-1.84 0-2.56 0.72-0.68 0.68-0.68 2.52 0 1.8 0.68 2.52 0.72 0.68 2.56 0.68h6.48q2.68 0 3.92 1.24t1.24 3.92-1.24 3.92-3.92 1.24zm-26.312-8.56v1.64q0 2.92 1.2 4.12 1.2 1.16 4.12 1.16h3.28q2.72 0 3.92-0.72 1.2-0.76 1.36-2.56 0.08-0.84 0.88-0.84 0.4 0 0.6 0.24 0.24 0.24 0.2 0.64-0.2 2.56-1.92 3.76-1.68 1.16-5.04 1.16h-3.28q-3.64 0-5.32-1.64-1.68-1.68-1.68-5.32v-4.48q0-3.68 1.68-5.36t5.32-1.64h3.28q3.68 0 5.32 1.68 1.68 1.64 1.68 5.32v2q0 0.84-0.84 0.84zm0-1.68h13.92v-1.16q0-2.96-1.2-4.12-1.16-1.2-4.12-1.2h-3.28q-2.92-0.04-4.12 1.16-1.2 1.2-1.2 4.16zm-16.711 10.28q-3.64 0-5.32-1.68t-1.68-5.32v-4.48q0-3.68 1.68-5.32 1.68-1.68 5.32-1.64h3.28q2.96 0 4.44 1t1.72 3.12v0.08q0 0.8-0.84 0.8-0.72 0-0.84-0.8-0.16-1.36-1.2-1.92-1.04-0.6-3.28-0.6h-3.28q-2.96-0.04-4.16 1.16-1.16 1.16-1.16 4.12v4.48q0 2.92 1.2 4.12t4.12 1.2h3.28q2.24 0 3.28-0.56 1.04-0.6 1.2-1.96 0.12-0.8 0.84-0.8 0.44 0 0.64 0.24 0.24 0.24 0.2 0.64-0.24 2.12-1.72 3.12t-4.44 1zm-20.412-18.44q3.68 0 5.32 1.68 1.68 1.64 1.68 5.32v10.6q0 0.84-0.84 0.84t-0.84-0.84v-2.36q-0.92 1.56-2.72 2.4-1.76 0.8-4.36 0.8h-2.24q-3.04 0-4.44-1.36-1.36-1.4-1.36-4.44t1.4-4.44 4.4-1.4h9.32q-0.04-2.8-1.24-3.96-1.2-1.16-4.08-1.16h-2.32q-2.72 0-3.96 0.64-1.24 0.6-1.48 2.12-0.12 0.8-0.84 0.8-0.44 0-0.68-0.24-0.2-0.24-0.16-0.64 0.16-2.24 1.92-3.28 1.76-1.08 5.2-1.08zm5.32 12.12v-3.64h-9.32q-2.32 0-3.24 0.92-0.88 0.92-0.88 3.24t0.88 3.24q0.92 0.88 3.24 0.88h2.24q6.48 0 7.04-4.4zm-19.153-12.12q0.84 0 0.84 0.84t-0.84 0.84h-5.24v15.92q0 0.84-0.84 0.84t-0.84-0.84v-15.92h-1.76q-0.84 0-0.84-0.84t0.84-0.84h1.76v-2.28q0-3.6 1.64-5.24t5.24-1.64q0.88 0 0.88 0.84t-0.88 0.84q-2.88 0-4.04 1.16t-1.16 4.04v2.28zm-11.935 0q0.84 0 0.84 0.84t-0.84 0.84q-3.6 0-5.64 1.72-2 1.72-2.2 5 0 0.16-0.04 0.24v8.96q0 0.84-0.84 0.84t-0.84-0.84v-16.76q0-0.84 0.84-0.84t0.84 0.84v3.76q1-2.24 3-3.4 2-1.2 4.88-1.2zm-31.952 9.84v1.64q0 2.92 1.2 4.12 1.2 1.16 4.12 1.16h3.28q2.72 0 3.92-0.72 1.2-0.76 1.36-2.56 0.08-0.84 0.88-0.84 0.4 0 0.6 0.24 0.24 0.24 0.2 0.64-0.2 2.56-1.92 3.76-1.68 1.16-5.04 1.16h-3.28q-3.64 0-5.32-1.64-1.68-1.68-1.68-5.32v-4.48q0-3.68 1.68-5.36t5.32-1.64h3.28q3.68 0 5.32 1.68 1.68 1.64 1.68 5.32v2q0 0.84-0.84 0.84zm0-1.68h13.92v-1.16q0-2.96-1.2-4.12-1.16-1.2-4.12-1.2h-3.28q-2.92-0.04-4.12 1.16-1.2 1.2-1.2 4.16zm-5.7931 8.6q0.88 0 0.88 0.84t-0.88 0.84q-3.6 0-5.24-1.64t-1.64-5.2v-9.92h-2.52q-0.84 0-0.84-0.84t0.84-0.84h2.52v-4.76q0-0.84 0.84-0.84t0.84 0.84v4.76h5.16q0.84 0 0.84 0.84t-0.84 0.84h-5.16v9.92q0 2.88 1.12 4.04 1.16 1.12 4.08 1.12zm-21.31-16.76q3.68 0 5.32 1.68 1.68 1.64 1.68 5.32v10.6q0 0.84-0.84 0.84t-0.84-0.84v-10.6q0-2.96-1.2-4.12-1.16-1.2-4.12-1.2h-1.12q-6.52 0-7.04 4.36l-0.04 0.24v11.32q0 0.84-0.84 0.84t-0.84-0.84v-16.76q0-0.84 0.84-0.84t0.84 0.84v2.32q1.84-3.16 7.08-3.16zm-17.946 18.44q-0.36 0-0.6-0.24t-0.24-0.6v-23.68q0-0.36 0.24-0.6t0.6-0.24 0.6 0.24 0.24 0.6v23.68q0 0.36-0.24 0.6t-0.6 0.24zm125.34-36.17c2.88 0 5.6-0.96 7.68-2.32l-1.56-2.88c-1.76 1-3.44 1.64-5.52 1.64-3.64 0-6.24-1.76-6.76-5.4h14.44c0.08-0.52 0.2-1.4 0.2-2.32 0-5.44-3.24-9.32-9.08-9.32-5.28 0-10.16 3.88-10.16 10.28 0 6.52 4.76 10.32 10.76 10.32zm-0.48-17.04c2.8 0 4.56 1.6 4.88 4.8h-10.44c0.6-3.16 2.84-4.8 5.56-4.8zm-31.504 16.56h4.64v-10.84c2-3.8 4.64-5.2 7.32-5.2 1.48 0 2.28 0.2 3.56 0.6l0.96-3.88c-1.16-0.56-2.2-0.8-3.8-0.8-3.4 0-6.36 1.76-8.36 4.92h-0.12l-0.4-4.44h-3.8zm-19.784 0.48c2.64 0 5.28-1.32 7.36-2.92h0.12l0.36 2.44h3.76v-11.64c0-5.48-3-8.48-8.44-8.48-3.36 0-6.6 1.32-8.96 2.72l1.68 3.08c2.04-1.12 4.24-2.08 6.44-2.08 3.2 0 4.52 1.64 4.68 3.84-9.68 0.68-13.56 2.88-13.56 7.28 0 3.44 2.72 5.76 6.56 5.76zm1.4-3.6c-1.96 0-3.52-0.76-3.52-2.52 0-2.12 2.08-3.56 9.12-4.04v4.16c-1.8 1.44-3.64 2.4-5.6 2.4zm-30.824 3.12h5.56l1.6-7.84c0.32-1.92 0.56-3.76 0.8-5.8h0.16c0.28 2.36 0.56 4.28 0.84 5.8l1.64 7.84h5.6l3.6-19.64h-4.28l-1.68 10.2c-0.28 1.92-0.44 3.72-0.72 5.64h-0.16c-0.28-1.92-0.68-3.72-1.12-5.64l-1.76-8.28h-3.8l-1.8 8.28c-0.44 1.88-0.8 3.72-1.04 5.64h-0.12c-0.24-1.92-0.48-3.72-0.76-5.64l-1.76-10.2h-4.52zm-12.304 0.48c2.56 0 4.52-0.52 6.28-1.12l-0.88-3.36c-1.28 0.48-2.64 0.8-4.28 0.8-3.36 0-4.56-1.48-4.56-4.72v-8.08h8.96v-3.64h-8.96v-6.16h-3.8l-0.6 6.16-5.44 0.2v3.44h5.24v8.08c0 5.04 2.04 8.4 8.04 8.4zm-30.504-0.48h4.56v-16h7.48v-3.64h-7.48v-1.16c0-2.76 1.32-4.28 4.32-4.28 1.6 0 2.88 0.28 4.32 0.84l0.96-3.4c-1.76-0.68-3.72-1.08-5.84-1.08-5.76 0-8.32 3.36-8.32 8v1.08l-5.44 0.2v3.44h5.44zm-21.104 0.48c5.16 0 9.88-3.76 9.88-10.28 0-6.56-4.72-10.32-9.88-10.32s-9.88 3.76-9.88 10.32c0 6.52 4.72 10.28 9.88 10.28zm0-3.76c-3.2 0-5.12-2.6-5.12-6.52 0-3.96 1.92-6.56 5.12-6.56s5.12 2.6 5.12 6.56c0 3.92-1.92 6.52-5.12 6.52zm-23.904 3.76c6.08 0 9.68-3.52 9.68-7.76 0-3.8-2.36-5.76-5.68-7.08l-3.44-1.48c-2.36-0.92-4.48-1.68-4.48-3.68 0-1.96 1.68-3.08 4.16-3.08 2.64 0 4.48 0.84 6.24 2.24l2.4-2.96c-2.16-2.04-5.2-3.32-8.4-3.32-5.32 0-9.08 3.2-9.08 7.36 0 3.84 2.84 5.88 5.6 6.96l3.56 1.56c2.6 1.08 4.4 1.72 4.4 4.04 0 1.84-1.64 3.16-4.68 3.16-2.76 0-5.36-1.2-7.32-2.96l-2.72 3.16c2.6 2.44 6.08 3.84 9.76 3.84z" opacity=".99"/>
  <path id="slash-design-annotation-arrow-line" d="m40.136 86.992c-37.861 0-33.84-42.222-34.016-83.588" fill="none" stroke-linecap="round" stroke-linejoin="round" stroke-width="2.5"/>
  <path id="slash-design-annotation-arrow-head" d="m0 16.414 5.9565-16.414 6.0966 16.363c-3.5692-2.603-8.4372-2.5671-12.053 0.0515z" stroke-linecap="square" stroke-linejoin="round"/>
</svg>
