<svg id="slash-design" class="slash-text" aria-labelledby="slash-design-title" role="img" version="1.1" viewBox="0 0 283.12 85" xmlns="http://www.w3.org/2000/svg">
  <title id="slash-design-title">/design</title>
  <desc id="slash-design-desc">The text "/design" written with a monospaced font</desc>
  <path id="slash-design-path" d="m249.14 63.579h5.2282l4.3339-21.601c4.609-5.0906 9.2181-8.1174 13.69-8.1174 3.4396 0 5.297 1.8574 5.297 5.1594 0 1.5134-0.20639 2.958-0.61913 4.6778l-3.9899 19.881h5.297l4.1275-20.431c0.34396-1.8574 0.61913-3.5772 0.61913-5.5033 0-5.0218-2.6829-8.3238-8.599-8.3238-5.9849 0-11.007 3.646-14.997 7.6359h-0.27516l0.82549-6.8104h-4.2651zm-29.898 14.928c8.3926 0 15.341-3.8523 17.198-13.208l7.0168-35.153h-4.1963l-1.3758 4.1963h-0.27517c-1.8574-3.0268-5.5033-5.0218-10.25-5.0218-9.9748 0-18.161 9.6996-18.161 21.463 0 7.9798 4.5403 12.52 11.626 12.52 4.2651 0 8.6678-2.2013 11.901-5.3657h0.27517l-1.5134 7.0855c-1.4446 6.4664-6.26 9.1493-12.176 9.1493-3.7148 0-7.6359-1.2382-10.319-3.5772l-2.4765 3.7835c3.0268 2.4077 7.2231 4.1275 12.726 4.1275zm3.1644-19.606c-4.8842 0-7.7735-2.8892-7.7735-8.9429 0-8.6678 6.1224-16.235 13.346-16.235 3.302 0 6.26 1.5134 8.599 5.0218l-3.0268 14.24c-3.5084 3.7835-7.4983 5.9161-11.144 5.9161zm-34.369 5.5033c3.646 0 6.3288-0.89429 9.1493-2.2013l-1.2382-3.9899c-2.4077 1.1007-4.3339 1.7886-6.3976 1.7886-3.0268 0-5.1594-1.4446-5.1594-4.953 0-0.68791 0.13755-1.3758 0.27516-2.2013l5.0218-22.701h-17.473l-0.89429 4.2651h12.245l-3.9899 17.955c-0.34395 1.307-0.55034 2.5453-0.55034 3.646 0 5.5033 3.7148 8.3926 9.0117 8.3926zm-0.34397-41.344c2.6141 0 4.8154-2.0637 4.8154-4.7466 0-2.3389-1.5822-3.646-3.9899-3.646-2.5453 0-4.7466 2.1325-4.7466 4.7466 0 2.3389 1.7198 3.6459 3.9211 3.6459zm-46.201 41.344c7.8422 0 14.102-2.8892 14.102-10.112 0-5.4346-4.3339-7.6359-10.594-9.7684-5.3658-1.8574-8.255-3.2332-8.255-6.3288 0-2.958 2.6141-4.7466 6.948-4.7466 4.953 0 8.8053 2.2013 11.557 4.5403l2.958-3.2332c-2.8204-2.8204-7.5671-5.4345-13.965-5.4345-6.8104 0-12.52 3.0956-12.52 9.4932 0 4.609 3.0956 7.4295 10.044 9.7684 5.5721 1.8574 8.8053 3.1644 8.8053 6.3976 0 3.7148-3.4396 5.297-8.1174 5.297-4.8154 0-9.4245-1.651-12.726-5.3658l-3.0268 3.3708c3.2332 3.7148 9.0117 6.1225 14.79 6.1225zm-41.248 0c5.8473 0 11.075-2.2701 14.446-4.953l-1.995-3.5772c-3.0956 2.4765-7.0167 4.3339-11.419 4.3339-6.0537 0-10.044-3.7835-10.044-10.525 0-0.55032 0-1.0319 0.0688-1.5134h25.591c0.34395-0.89429 0.89428-3.646 0.89428-5.9849 0-7.4295-4.5402-12.864-12.726-12.864-10.112 0-19.055 8.5989-19.055 20.637 0 9.3557 5.5721 14.446 14.24 14.446zm4.5402-30.887c4.953 0 8.0486 3.2332 8.0486 8.4614 0 0.68791-0.0688 1.3758-0.20637 2.0637h-20.5c2.0637-6.4664 7.5671-10.525 12.658-10.525zm-49.366 30.887c4.3339 0 8.8053-2.3389 12.314-5.9161h0.27516l-0.55033 5.0906h4.3339l9.906-48.98h-5.297l-2.6141 13.07-1.1007 6.5352h-0.20638c-1.9262-2.958-5.3657-4.8842-10.112-4.8842-10.181 0-18.367 10.319-18.367 22.288 0 8.3238 4.5403 12.795 11.419 12.795zm1.651-4.4027c-4.6778 0-7.6359-2.958-7.6359-9.2181 0-8.9429 5.9849-17.06 13.621-17.06 3.1644 0 6.26 1.4446 8.5302 4.953l-3.0268 14.859c-3.646 4.1963-7.8422 6.4664-11.488 6.4664zm-57.07 14.584h4.953l34.465-59.849h-4.953z"/>
</svg>
