<svg class="SlashCollateralAnnotation" aria-labelledby="SlashCollateralAnnotation-title" role="img" version="1.1" viewBox="0 0 326.64 101.48" xmlns="http://www.w3.org/2000/svg"><title id="SlashCollateralAnnotation-title">Visual Storytelling in movies &amp; games</title><desc id="SlashCollateralAnnotation-desc">The text "Visual Storytelling in movies &amp; games" with an arrow pointing upwards</desc><path class="SlashCollateralAnnotation-VisualStorytelling" d="m87.425 53.956c-1.0359-1.0216-2.2811-1.3111-3.6904-1.398-3.1387-0.19366-6.722 2.7172-3.2719 5.2678 2.48 1.8334 5.6583 0.43415 8.1114 1.7358 0.68823 0.3652 0.77593 1.5206 0.46309 2.1559-1.1375 2.3099-9.3374 2.9288-10.528 0.76255m15.385-10.426c0.2725 3.4364-1.1123 11.535 5.3805 10.409 4.7298-0.82035 3.9037-8.0294 3.6277-10.97 0.24922 2.554 0.596 7.6957 1.2203 10.632m4.1242-9.8088c0.97246-1.2935 2.4112-1.726 3.9383-2.0428 7.0416-1.461 10.871 8.9543 2.658 10.931-1.0208 0.24564-2.0145 0.37199-3.0218-0.03-1.2454-0.497-4.2888-2.9704-2.5821-4.416 1.7889-1.5152 4.831-1.6268 6.9455-0.92466 0.81788 0.27162 2.1875 1.4521 3.044 0.91116m4.2325-17.456c0.51291 5.8661 0.7653 11.779 1.5414 17.618 0.23027 1.7324 1.6622 3.9626 2.9045 1.9162m-80.271-17.982c0.26455 0.71127 0.41502 1.1867 0.76635 1.8576 0.97738 1.8664 2.2262 3.585 3.2212 5.447 3.1136 5.8268 5.5448 12.249 7.4436 18.573 0.09723 0.32379 1.8637 6.6915 2.2162 6.5086 0.7232-0.37513 0.77009-4.5644 0.86508-5.1705 1.0295-6.5673 2.7386-13.134 5.3976-19.244 1.3718-3.1523 3.1497-6.0304 5.2164-8.7666 0.99857-1.322 2.739-2.7038 3.4752-4.1987 0.23808-0.48345-1.0117 0.38392-1.4801 0.65029m-1.4017 11.724 0.02245-0.99828m-0.25068 6.1308c-0.03326 3.4108-0.18155 8.5787 0.53173 11.402m108.89-30.649c0.39767 6.7379 1.0419 13.683 1.623 20.325m-4.2513-10.266c2.2064-0.0311 4.6024-0.80011 6.7511-0.63591m11.73-0.5055c-2.5687-0.74371-5.0252 0.21357-6.3058 2.5896-4.0564 7.5266 5.2667 10.474 9.7413 5.3068 1.8945-2.1878 1.628-8.1639-2.1458-8.213-0.44263-6e-3 -0.84753 0.33699-1.2897 0.31663-0.33495-0.0154-0.58091-0.38822-0.91488-0.41811-1.1317-0.10128-2.4006 0.71062-3.2267 1.3918m13.551-2.1819c0.36756 1.9807 0.47649 4.0082 0.58138 6.0176 0.0444 0.84928 0.0935 1.6961 0.16766 2.544 0.50201 5.7381-0.34877-3.6331-0.36961-4.2246-0.0332-0.94362 0.0174-1.9175 0.0791-2.86 0.014-0.2132 0.11726-0.43466 0.0539-0.63872-0.0971-0.31278-0.63157-0.53319-0.51248-0.83827 0.24577-0.6296 2.581 0.0148 3.0198 8e-3 1.9589-0.0327 3.7175-0.80075 5.6144-1.0799m5.1621-0.52002c0.75794 0.99596 1.5231 1.9798 2.2909 2.9697 1.4266 1.8392 2.5232 3.8852 3.9064 5.7493 0.21225 0.28606 2.7578 3.1363 1.426 1.8679m6.12-12.242c-2.6812 6.539-5.4529 13.037-8.2265 19.536-0.20992 0.49192-1.718 3.6112-2.3188 4.8674m17.638-34.116c0.66706 5.5873 1.6346 11.155 1.973 16.783 0.0818 1.3608 0.0841 3.1795 0.18552 4.3389m-4.3193-11.214c2.0499-0.22249 4.1162-0.29391 6.1647-0.52334 0.164-0.0187 0.91007-0.12831 1.1115-0.16129 0.17931-0.0293 0.51789-0.29175 0.53373-0.11074 6e-3 0.0664-0.33986 0.15424-0.37409 0.16082m5.6387 5.4185c1.729-0.17165 3.4683-0.18325 5.1994-0.35069 0.82943-0.0806 1.6684-0.17739 2.49-0.32206 0.86386-0.15206 2.4995-0.41544 3.1112-1.1927 1.232-1.5654-1.2245-3.7698-2.3144-4.3131-3.8116-1.9-10.899 1.7113-9.6178 6.9722 1.1304 4.6419 8.0561 4.5968 11.227 3.4465 0.64418-0.2337 2.3781-0.82791 2.1696-1.7703m3.2912-19.61c0.81319 6.1654 0.40305 12.618 2.0243 18.673 0.31402 1.1728 2.3106 2.9926 3.2688 1.1975m3.2859-20.471c0.24608 4.2288 0.54489 8.4605 0.91463 12.687 0.18917 2.1622 0.28579 4.4158 1.1888 6.4442 0.62263 1.3986 2.3034 2.7292 3.3486 0.77092m4.58-11.096c0.0677 0.7733 0.13531 1.5466 0.20297 2.3199 0.18604 2.1265 0.21614 4.2944 0.56024 6.4036 0.0384 0.23536 0.73094 2.9333 0.56216 2.4326m-1.8462-16.666c-0.13255-0.19711-0.16825-0.44427-0.25238-0.66641m6.6619 4.604c0.11262 1.8782 0.43231 3.7427 0.76388 5.594 0.41807 2.3343 0.83687 4.7263 1.0929 6.8446-0.22043-1.7841-0.33297-3.1782-0.35037-3.3772-0.13747-1.5713-1.2627-6.7417 0.0982-7.6621 2.1262-1.4381 7.0728-1.4185 8.9304 0.43014 2.0678 2.0579 2.5919 4.2581 2.7586 7.0612 0.0358 0.60089 0.15845 2.0819 0.0722 2.3939m-133.84-11.161c-0.24017-3.9902-4.471-6.0273-7.9036-6.93-7.2243-1.8997-17.418 5.1863-11.232 12.703 2.9516 3.5864 7.9742 5.302 12.106 7.0426 4.4232 1.8636 14.555 4.4338 11.559 11.446-3.7347 8.7406-16.1 8.0242-22.894 3.6361-1.322-0.85397-5.2259-3.5952-3.9812-5.5759m170.59-22.553c-6.7202-5.9506-13.636 4.5411-7.0321 9.8708 0.97086 0.78354 2.1525 1.0563 3.3787 0.9206 4.3042-0.47615 6.1854-4.7885 6.3388-8.6557 0.0213-0.53493 0.17458-2.3024-0.38503-2.6873-0.4722-0.32481-0.55789 4.3918-0.53598 4.7262 0.23545 3.5931 0.92524 7.1484 1.239 10.734 0.17753 2.0292 1.462 14.216-0.47882 15.09-2.8147 1.2674-8.3943-3.8943-10.985-5.0375" fill="none" stroke-linecap="round" stroke-linejoin="round" stroke-width="3.75"/><path class="SlashCollateralAnnotation-InMoviesAndGames" d="m75.756 88.142c0.12186 1.0034 0.13029 2.0123 0.21812 3.0162 0.15468 1.768 0.47766 4.4804 0.5714 5.485 0.09374 1.0046 0.26987 2.5615 0.18666 1.6104m-0.9802-15.388c-0.07689 0.28168-0.214 0.52011-0.48847 0.40749-0.26505-0.10875-0.36141-0.49906-0.12728-0.69378m4.9223 5.0477c0.21022 2.238 0.43258 4.5956 0.62215 6.1862 0.18956 1.5906 0.31744 3.2642 0.3855 4.3932-0.12629-2.3144-0.51499-5.3847-0.0876-7.3865 0.47985-2.0395 2.5859-3.7395 4.6012-3.3784 3.2528 0.58288 3.6797 2.3663 4.2605 5.2813 0.18925 0.94978 0.39397 1.8876 0.47512 2.8152 0.0307 0.35053 0.19952 2.199 0.15223 1.6584m121.84-10.246c-4.2551-2.1509-8.1423-5.0512-12.038-7.8742-9.0659-6.5687 2.3838-10.014 4.7162-8.8639 1.6462 0.81194-0.37763 3.5635-0.9065 4.2851-1.2409 1.6931-10.906 11.529-8.8824 13.553 2.5061 2.5068 15.606-1.8424 14.214-5.9652m-77.092 1.7799c-2.252-1.749-5.1471 0.49438-6.309 2.5382-2.6166 4.6024 4.8409 9.4917 8.5441 6.1857 1.6979-1.5158 2.0099-6.1394 0.55559-7.8437-0.79581-0.93263-1.7565-0.74549-2.7906-0.88015-1.2737-0.16587-1.9172-0.43456-3.156 0.20115m30.296 2.0212c1.546 0.36411 3.1216 0.50105 4.698 0.34286 1.9499-0.19571 5.097-0.85015 4.8634-3.5203-0.0696-0.79604-0.44755-1.4387-1.1208-1.8263-3.5808-2.0616-10.921 0.68292-8.9989 5.9454 1.3933 3.8149 6.9062 3.7108 9.9309 3.1386 0.47723-0.0903 3.068-0.94371 2.8918-0.94736m-32.114-6.2869c0.88757 1.3536 1.5817 2.8256 2.3463 4.2556 0.20638 0.38599 1.1754 2.1884 2.8271 4.943 1.031-1.5077 1.7174-3.6226 2.4095-5.0084s2.316-3.6027 1.9478-5.1083m4.9314-0.49557c0.0603 0.68907 0.12057 1.3782 0.18086 2.0672 0.16149 1.8459 0.32289 3.6906 0.48401 5.5323 0.029 0.33122 0.0772 2.7606 0.14579 2.1893m-1.063-14.684c-0.72655 0.81264 0.35337 1.1439 0.68005 0.37538 0.1529-0.35971-0.17426-1.1893-0.55114-0.75138m-49.262 8.7708c0.24711 1.8898 0.43612 3.7565 0.57418 5.511 0.13804 1.7546 0.2851 2.6585 0.52848 5.1816-0.095-2.8987-0.57184-6.6812 0.7053-9.2658 1.3459-2.581 5.404-2.1185 6.7131 0.17037 1.1825 2.0674 1.073 5.9759 1.2766 8.3033 0.022 0.25083-0.11019-1.3642-0.10901-1.6158 4e-3 -0.83734 0.0189-1.6673 0.0722-2.5033 0.18834-2.9538 0.43007-7.1646 4.2639-6.7837 3.0104 0.29908 3.3036 5.3123 3.5848 7.7243 0.0696 0.59717 0.21183 1.8902 0.21817 2.4936m59.904-14.106c-0.86683-0.75931-1.9045-1.2965-3.0627-1.415-1.7169-0.17567-6.3848 1.5866-3.7554 3.7087 0.33197 0.26791 0.74007 0.54773 1.1343 0.71372 0.45674 0.19232 0.97319 0.33552 1.4564 0.44308 0.70735 0.15745 0.41022 0.0759 1.1203 0.15871 1.8637 0.2174 5.1191 0.45446 5.9634 2.5589 0.17666 0.44036 0.33257 0.78105 1e-3 1.1979-1.4786 1.8595-5.3563 2.0833-7.4559 1.722-0.0877-0.0152-3.8224-1.1631-2.3947-1.288m124.12-17.559c-0.77303-0.8284-1.6462-1.5308-3.6159-1.784-1.9696-0.25313-6.1075 1.6831-3.8567 4.2106s9.3791-0.0256 9.0603 3.5898c-0.31878 3.6153-7.3666 3.5175-9.6086 1.9843m-60.036-3.4972c-9.1769-2.7697-10.948 9.8314-3.9749 10.047 3.3451 0.10341 5.9273-3.3996 6.1217-6.2228 0.0648-0.94168-0.092-1.8949-0.31026-2.8065-0.0844-0.35237-0.26009-1.3267-0.41128-1.0021-0.27432 0.58903-0.10288 1.9798-0.0946 2.6175 0.0399 3.0749 0.22929 6.3049 0.81604 9.3274 0.52912 2.7257 2.7923 10.614 1.0018 12.93-2.2072 2.8559-11.704-2.6117-10.93-6.5628m29.758-21.179c0.0327 1.5625 0.2541 2.6501 0.44639 4.6588 0.19228 2.0087 0.38322 3.9204 0.6879 6.2195 0.0986-2.2728-0.0889-4.1059 0.0573-6.1207 0.11828-1.1838 0.49607-5.1472 3.8348-5.1434 3.3387 4e-3 4.1358 6.3734 4.772 10.517-0.12435-4.9168-0.82544-11.583 3.6765-11.233s4.6339 7.2853 4.9574 10.498m4.6235-6.0191c2.8946 0.16949 5.4804 0.25328 7.8917-0.92063 5.7771-2.8125-2.8082-6.9268-7.0647-3.2953-3.823 3.2616-2.0494 9.1115 3.2862 9.3136 2.6067 0.0988 5.0777-0.53539 6.6443-1.6638m-49.183-3.9548c1.4569-1.2318 3.3933-1.617 5.9553-1.8076 2.562-0.19067 5.1764 1.6812 5.7064 4.4656 0.52705 2.9942 0.26142 5.3613-3.465 6.0199-1.6225 0.28675-5.7057 0.84485-6.839-0.46598-0.23671-0.27378-0.40146-0.87488-0.49373-1.2136-0.59258-2.1754 1.1962-3.1661 3.0748-3.6121 1.8786-0.44599 3.8964-0.48787 5.6161 0.88144" fill="none" stroke-linecap="round" stroke-linejoin="round" stroke-width="1.847"/><path class="SlashCollateralAnnotation-Arrow" d="m1.9494 5.412c1.8755-1.9441 10.222-5.6832 12.673-4.0948 2.0168 2.8852-0.65906 7.7287-1.7601 10.658m33.749 62.325c-22.839 4.2223-47.121-17.072-45.621-44.481 0.37991-8.1431 2.8065-14.82 6.6179-20.766" fill="none" stroke-linecap="round" stroke-linejoin="round" stroke-width="1.847"/></svg>
