<svg id="slash-design" aria-labelledby="slash-design-title" role="img" version="1.1" viewBox="0 0 283.12 85" xmlns="http://www.w3.org/2000/svg"><title id="slash-design-title">/design</title><desc id="slash-design-desc">The text "/design" written with a monospaced font</desc><path id="slash-desgin-slash" d="m0 74.586h4.953l34.465-59.849h-4.953z"/><path id="slash-desgin-d" d="m76.4 14.6-2.6133 13.07-1.1016 6.5352h-0.20508c-1.9262-2.958-5.3667-4.8848-10.113-4.8848-10.181 0-18.367 10.319-18.367 22.289 0 8.3238 4.5408 12.795 11.42 12.795 4.3339 0 8.8041-2.3389 12.312-5.916h0.27539l-0.55078 5.0918h4.334l9.9062-48.98zm-13.346 19.123c3.1644 0 6.2611 1.4447 8.5312 4.9531l-3.0273 14.859c-3.646 4.1963-7.8423 6.4668-11.488 6.4668-4.6778 0-7.6367-2.9587-7.6367-9.2188 0-8.9429 5.9852-17.061 13.621-17.061z"/><path id="slash-desgin-e" d="m105.06 29.32c-10.112 0-19.057 8.6001-19.057 20.639 0 9.3557 5.5725 14.445 14.24 14.445 5.8473 0 11.076-2.2702 14.447-4.9531l-1.9961-3.5762c-3.0956 2.4765-7.0153 4.334-11.418 4.334-6.0537 0-10.045-3.7838-10.045-10.525 0-0.55032-4.41e-4 -1.0321 0.06836-1.5137h25.592c0.34395-0.89429 0.89453-3.6455 0.89453-5.9844 0-7.4295-4.5404-12.865-12.727-12.865zm-0.27539 4.1973c4.953 0 8.0488 3.2328 8.0488 8.4609 0 0.68791-0.0695 1.3765-0.20703 2.0645h-20.5c2.0637-6.4664 7.5676-10.525 12.658-10.525z"/><path id="slash-desgin-s" d="m141.49 64.405c7.8422 0 14.102-2.8892 14.102-10.112 0-5.4346-4.3339-7.6359-10.594-9.7684-5.3658-1.8574-8.255-3.2332-8.255-6.3288 0-2.958 2.6141-4.7466 6.948-4.7466 4.953 0 8.8053 2.2013 11.557 4.5403l2.958-3.2332c-2.8204-2.8204-7.5671-5.4345-13.965-5.4345-6.8104 0-12.52 3.0956-12.52 9.4932 0 4.609 3.0956 7.4295 10.044 9.7684 5.5721 1.8574 8.8053 3.1644 8.8053 6.3976 0 3.7148-3.4396 5.297-8.1174 5.297-4.8154 0-9.4245-1.651-12.726-5.3658l-3.0268 3.3708c3.2332 3.7148 9.0117 6.1225 14.79 6.1225z"/><path id="slash-desgin-i" d="m188.52 14.668c-2.5453 0-4.7461 2.132-4.7461 4.7461 0 2.3389 1.7186 3.6465 3.9199 3.6465 2.6141 0 4.8164-2.0632 4.8164-4.7461 0-2.3389-1.5825-3.6465-3.9902-3.6465zm-16.305 15.479-0.89257 4.2656h12.244l-3.9902 17.953c-0.34395 1.307-0.55078 2.5458-0.55078 3.6465 0 5.5033 3.7148 8.3926 9.0117 8.3926 3.646 0 6.3299-0.89413 9.1504-2.2012l-1.2383-3.9902c-2.4077 1.1007-4.3347 1.7891-6.3984 1.7891-3.0268 0-5.1582-1.4447-5.1582-4.9531 0-0.68791 0.13583-1.3757 0.27344-2.2012l5.0234-22.701z"/><path id="slash-desgin-g" d="m227.36 29.32c-9.9748 0-18.16 9.6995-18.16 21.463 0 7.9798 4.5395 12.521 11.625 12.521 4.2651 0 8.6672-2.2028 11.9-5.3672h0.27539l-1.5137 7.0859c-1.4446 6.4664-6.2597 9.1504-12.176 9.1504-3.7148 0-7.6355-1.2392-10.318-3.5781l-2.4766 3.7832c3.0268 2.4077 7.2232 4.1289 12.727 4.1289 8.3926 0 15.34-3.8533 17.197-13.209l7.0176-35.152h-4.1973l-1.375 4.1953h-0.27539c-1.8574-3.0268-5.5034-5.0215-10.25-5.0215zm0.61914 4.4023c3.302 0 6.2607 1.5151 8.5996 5.0234l-3.0273 14.238c-3.5084 3.7835-7.4986 5.918-11.145 5.918-4.8842 0-7.7734-2.8897-7.7734-8.9434 0-8.6678 6.1226-16.236 13.346-16.236z"/><path id="slash-desgin-n" d="m249.14 63.579h5.2282l4.3339-21.601c4.609-5.0906 9.2181-8.1174 13.69-8.1174 3.4396 0 5.297 1.8574 5.297 5.1594 0 1.5134-0.20639 2.958-0.61913 4.6778l-3.9899 19.881h5.297l4.1275-20.431c0.34396-1.8574 0.61913-3.5772 0.61913-5.5033 0-5.0218-2.6829-8.3238-8.599-8.3238-5.9849 0-11.007 3.646-14.997 7.6359h-0.27516l0.82549-6.8104h-4.2651z"/></svg>
