<svg class="square-u" aria-labelledby="square-u-title" role="img" version="1.1" viewBox="0 0 36 36" xmlns="http://www.w3.org/2000/svg"><title id="square-u-title">U</title><desc id="square-u-desc">A square with the letter U punched into it</desc><path d="m0 0v36h36v-36zm10.336 8.4376h4.2187v11.25c0 0.75561 0.11036 1.4376 0.2812 1.9686 0.17084 0.53095 0.40592 0.93234 0.70299 1.2657 0.29707 0.33336 0.63179 0.55907 1.0546 0.70315 0.42301 0.14362 0.90255 0.21104 1.4063 0.21104 1.0261 0 1.8221-0.28406 2.4609-0.91419 0.63889-0.62997 1.281-1.7518 0.98449-3.2342v-11.25h4.2187v11.601c-2e-5 1.0983-0.18611 2.1056-0.49225 3.0236-0.30599 0.91782-0.77616 1.7336-1.4063 2.3906-0.63012 0.65704-1.4187 1.1868-2.3906 1.5468-0.97209 0.36011-2.1138 0.49209-3.4453 0.4924-1.3139-4e-4 -2.4208-0.19397-3.375-0.56255-0.9541-0.36918-1.7696-0.81955-2.3906-1.4766-0.62105-0.65703-1.1094-1.4819-1.4063-2.3906-0.29692-0.90875-0.21286-1.9456-0.4218-3.0236z" stroke-width="0"/></svg>
