<svg class="square-c" aria-labelledby="square-c-title" role="img" version="1.1" viewBox="0 0 36 36" xmlns="http://www.w3.org/2000/svg"><title id="square-c-title">C</title><desc id="square-c-desc">A square with the letter C punched into it</desc><path d="m0 0v36h36v-36zm19.758 8.2264c0.79204 2e-4 1.5318 0.0242 2.1797 0.13909 0.64796 0.11792 1.2013 0.26865 1.6875 0.4218 0.4862 0.15405 0.87156 0.33048 1.1952 0.49224 0.32383 0.16192 0.55861 0.2617 0.70299 0.35165l-1.1952 3.4454c-0.57615-0.30599-1.2742-0.6277-2.0391-0.84374-0.76498-0.21619-1.6298-0.2812-2.6016-0.2812-0.64826 0-1.2775 0.0665-1.8984 0.2812-0.62105 0.21619-1.1402 0.57766-1.6172 1.0546-0.47713 0.47728-0.90754 1.0723-1.1952 1.8282-0.28785 0.75591-0.4218 1.7326-0.4218 2.8126-1.5e-5 0.864 0.09222 1.6434 0.2812 2.3904 0.18882 0.74729 0.49119 1.3585 0.91404 1.8986 0.42285 0.54002 1.0037 1.0208 1.6875 1.336 0.68379 0.31491 1.4885 0.42179 2.4609 0.42149 0.61198 1.9e-4 1.2016 2e-3 1.6875-0.0695 0.4859-0.0726 0.88743-0.18202 1.2657-0.28119 0.37826-0.0998 0.69649-0.22541 0.98434-0.3515 0.2877-0.12548 0.53942-0.244 0.77344-0.3518l1.1952 3.375c-0.59384 0.35981-1.4513 0.69618-2.5313 0.98449-1.0799 0.28815-2.3044 0.42194-3.7266 0.42194-3.0421 0-5.3679-0.8392-6.961-2.5314-1.593-1.6922-2.3906-4.0582-2.3906-7.1718 0-1.5484 0.2171-2.9336 0.70314-4.1486 0.4862-1.2147 1.1931-2.2564 2.0391-3.0936 0.84601-0.83694 1.8534-1.4663 3.0234-1.8984 1.17-0.43192 2.4291-0.63284 3.7969-0.63299z" stroke-width="0"/></svg>
