<svg class="square-o" aria-labelledby="square-o-title" role="img" version="1.1" viewBox="0 0 36 36" xmlns="http://www.w3.org/2000/svg"><title id="square-o-title">O</title><desc id="square-o-desc">A square with the letter O punched into it</desc><path d="m0 0v36h36v-36zm18 8.2264c1.2784 2e-4 2.4519 0.21876 3.5859 0.633 1.1342 0.41408 2.1775 1.0005 3.0235 1.828 0.84586 0.82771 1.4828 1.8788 1.9687 3.0938 0.48589 1.2149 0.70299 2.6164 0.70314 4.2188-4e-5 1.6018-0.22602 3.0038-0.70314 4.2188-0.47683 1.2149-1.1407 2.2048-1.9687 3.0236-0.82817 0.81834-1.81 1.484-2.9532 1.8982-1.1431 0.41409-2.3422 0.56255-3.6562 0.56255-1.2778 0-2.4519-0.14816-3.586-0.56255-1.134-0.41424-2.1775-1.0797-3.0234-1.8982-0.84586-0.8188-1.4826-1.8086-1.9688-3.0236-0.48619-1.2149-0.70299-2.617-0.70299-4.2188 0-1.6024 0.19881-3.0038 0.70299-4.2188 0.50404-1.2149 1.184-2.266 2.0391-3.0938 0.85508-0.82757 1.8984-1.4138 3.0234-1.828 1.1251-0.41424 2.2736-0.63285 3.5156-0.633zm0 3.6564c-0.7916 2e-4 -1.497 0.19608-2.1094 0.49225-0.61228 0.29691-1.124 0.66444-1.5469 1.1952-0.42301 0.53095-0.75954 1.2217-0.98449 1.9688-0.22451 0.74729-0.3515 1.5608-0.3515 2.461 0 0.91797 0.12699 1.723 0.3515 2.461 0.22488 0.73806 0.56133 1.3674 0.98449 1.8984 0.42285 0.53095 0.9346 0.97769 1.5469 1.2657 0.61229 0.28815 1.3178 0.4218 2.1094 0.4218 0.77404 0 1.4884-0.13455 2.1094-0.4218 0.62105-0.288 1.1239-0.73459 1.5468-1.2657 0.42285-0.53094 0.75923-1.1605 0.98449-1.8984 0.22526-0.73807 0.35149-1.543 0.35149-2.461 0-0.91843-0.12699-1.7844-0.35149-2.5312-0.22526-0.74683-0.56134-1.3673-0.98449-1.8986-0.42286-0.53095-0.92584-0.90739-1.5468-1.1952-0.62105-0.2877-1.3354-0.4921-2.1094-0.49225z" stroke-width="0"/></svg>
