<svg class="square-p" aria-labelledby="square-p-title" role="img" version="1.1" viewBox="0 0 36 36" xmlns="http://www.w3.org/2000/svg"><title id="square-p-title">P</title><desc id="square-p-desc">A square with the letter P punched into it</desc><path d="m0 0v36h36v-36zm16.453 8.5078c2.79 2e-4 4.9745 0.49588 6.4687 1.4766 1.4943 0.98086 2.25 2.5488 2.25 4.7812 0 2.25-0.80822 3.923-2.3202 4.9218-1.512 0.999-3.6607 1.4767-6.4687 1.4766h-1.336v6.2578h-4.2187v-18.422c0.91843-0.17991 1.9273-0.27954 2.9531-0.3515 1.0259-0.0726 1.8978-0.13909 2.6719-0.13909zm-0.63285 3.586c-0.29707 0.0197-0.55755 0.0514-0.77344 0.0695v5.4142h1.336c1.4578 0 2.5666-0.166 3.3046-0.56255 0.73806-0.39594 1.1249-1.17 1.1251-2.25-4e-5 -0.52188-0.0922-0.92342-0.2812-1.2657-0.18935-0.34228-0.49285-0.63708-0.84359-0.84374-0.35112-0.20682-0.76165-0.34092-1.2657-0.4218-0.50404-0.0816-1.0755-0.13909-1.6875-0.13909-0.30576 0-0.61697-0.0197-0.91404 0z" stroke-width="0"/></svg>
