<svg version="1.1" viewBox="0 0 256 256" xmlns="http://www.w3.org/2000/svg">
  <path d="m0 0v256h256v-256zm140.5 58.744v0.005859c5.6323 1e-3 10.892 0.17123 15.5 0.98828 4.6077 0.83855 8.5425 1.911 12 3 3.4574 1.0955 6.1983 2.3497 8.5 3.5 2.3028 1.1514 3.9714 1.8623 4.998 2.502l-8.498 24.5c-4.0971-2.1759-9.0607-4.4638-14.5-6-5.4398-1.5374-11.59-2-18.5-2-4.6099 0-9.0843 0.47343-13.5 2-4.4164 1.5373-8.1082 4.1082-11.5 7.5-3.3929 3.394-6.4541 7.6244-8.5 13-2.0469 5.3753-3 12.322-3 20.002-1.1e-4 6.144 0.65618 11.686 2 16.998 1.3428 5.314 3.4931 9.6595 6.5 13.5 3.007 3.8401 7.1374 7.2604 12 9.502 4.8625 2.2394 10.585 2.9982 17.5 2.9961 4.3519 1e-3 8.5446 0.0132 12-0.49414 3.4553-0.51603 6.3102-1.2948 9-2 2.6898-0.70954 4.953-1.6014 7-2.498 2.0458-0.89231 3.8358-1.7354 5.5-2.502l8.5 24c-4.2228 2.5587-10.321 4.9499-18 7-7.6792 2.0491-16.387 3-26.5 3-21.633 0-38.172-5.9667-49.5-18-11.328-12.033-17-28.859-17-51 0-11.011 1.5437-20.86 5-29.5 3.4574-8.6382 8.4844-16.047 14.5-22 6.0161-5.9516 13.18-10.427 21.5-13.5 8.3199-3.0715 17.273-4.4989 27-4.5z" fill="#3f668c"/>
</svg>
