<svg version="1.1" viewBox="0 0 256 256" xmlns="http://www.w3.org/2000/svg">
  <path d="m256 256v-128h-256v128z" fill="#8c3f3f" style="paint-order:markers fill stroke"/>
  <path d="m256 0v128h-256v-128z" fill="#3f668c" style="paint-order:markers fill stroke"/>
  <path d="m140.5 58.744v6e-3c5.6324 1e-3 10.892 0.1712 15.5 0.98828 4.6076 0.83854 8.5424 1.911 12 3 3.4574 1.0955 6.1984 2.3498 8.5 3.5 2.3028 1.1514 3.9714 1.8623 4.998 2.502l-8.498 24.5c-4.0972-2.176-9.0608-4.4638-14.5-6-5.4398-1.5374-11.59-2-18.5-2-4.61 0-9.0844 0.47342-13.5 2-4.4164 1.5373-8.1082 4.1082-11.5 7.5-3.3928 3.394-6.454 7.6244-8.5 13-2.0468 5.3754-3 12.322-3 20.002-1e-4 6.144 0.65618 11.686 2 16.998 1.3428 5.314 3.4932 9.6596 6.5 13.5 3.007 3.8402 7.1374 7.2604 12 9.502 4.8624 2.2394 10.585 2.9982 17.5 2.996 4.352 1e-3 8.5446 0.014 12-0.49414 3.4552-0.51604 6.3102-1.2948 9-2 2.6898-0.70954 4.953-1.6014 7-2.498 2.0458-0.89232 3.8358-1.7355 5.5-2.502l8.5 24c-4.2228 2.5588-10.321 4.95-18 7-7.6792 2.0492-16.387 3-26.5 3-21.632 0-38.172-5.9668-49.5-18-11.328-12.033-17-28.86-17-51 0-11.011 1.5437-20.86 5-29.5 3.4574-8.6382 8.4844-16.047 14.5-22 6.016-5.9516 13.18-10.427 21.5-13.5 8.32-3.0716 17.273-4.499 27-4.5z" fill="#fff"/>
</svg>
