<svg version="1.1" viewBox="0 0 256 256" xmlns="http://www.w3.org/2000/svg">
  <path d="m256 128v96c0 17.728-14.272 32-32 32h-192c-17.728 0-32-14.272-32-32v-96z" fill="#8c3f3f" style="paint-order:markers fill stroke"/>
  <path d="m32 0h192c17.728 0 32 14.272 32 32v96h-256v-96c0-17.728 14.272-32 32-32z" fill="#3f668c" style="paint-order:markers fill stroke"/>
  <path d="m64 64v128h128v-128zm70.25 29.372v0.0027c2.8162 5e-4 5.446 0.08561 7.75 0.49414 2.3038 0.41927 4.2712 0.9555 6 1.5 1.7287 0.54775 3.0992 1.1749 4.25 1.75 1.1514 0.5757 1.9857 0.93113 2.499 1.251l-4.249 12.25c-2.0486-1.088-4.5304-2.2319-7.25-3-2.7199-0.7687-5.795-1-9.25-1-2.305 0-4.5422 0.23671-6.75 1-2.2082 0.76865-4.0541 2.0541-5.75 3.75-1.6964 1.697-3.227 3.8122-4.25 6.5-1.0234 2.6877-1.5 6.161-1.5 10.001-5e-5 3.072 0.32809 5.843 1 8.499 0.6714 2.657 1.7466 4.8298 3.25 6.75 1.5035 1.9201 3.5687 3.6302 6 4.751 2.4312 1.1197 5.2925 1.4991 8.75 1.498 2.176 5e-4 4.2723 7e-3 6-0.24707 1.7276-0.25802 3.1551-0.6474 4.5-1 1.3449-0.35477 2.4765-0.80072 3.5-1.249 1.0229-0.44616 1.9179-0.86773 2.75-1.251l4.25 12c-2.1114 1.2794-5.1605 2.475-9 3.5-3.8396 1.0246-8.1935 1.5-13.25 1.5-10.816 0-19.086-2.9834-24.75-9-5.664-6.0165-8.5-14.43-8.5-25.5 0-5.5055 0.77185-10.43 2.5-14.75 1.7287-4.3191 4.2422-8.0235 7.25-11 3.008-2.9758 6.59-5.2135 10.75-6.75 4.16-1.5358 8.6365-2.2495 13.5-2.25z" fill="#fff" stroke-width=".5"/>
</svg>
