<?xml version="1.0" encoding="UTF-8" standalone="no"?>
<!-- Created with Inkscape (http://www.inkscape.org/) -->

<svg
   xmlns:dc="http://purl.org/dc/elements/1.1/"
   xmlns:cc="http://creativecommons.org/ns#"
   xmlns:rdf="http://www.w3.org/1999/02/22-rdf-syntax-ns#"
   xmlns:svg="http://www.w3.org/2000/svg"
   xmlns="http://www.w3.org/2000/svg"
   xmlns:sodipodi="http://sodipodi.sourceforge.net/DTD/sodipodi-0.dtd"
   xmlns:inkscape="http://www.inkscape.org/namespaces/inkscape"
   width="230.00319"
   height="50.00069"
   viewBox="0 0 230.00319 50.00069"
   version="1.1"
   id="patreon-button"
   inkscape:version="0.92.2 2405546, 2018-03-11"
   sodipodi:docname="patreon_button.svg"
   role="img"
   aria-labelledby="patreon-button-desc">
  <title
     id="patreon-button-title">Become a Patron</title>
  <desc
     id="patreon-button-desc">A button with the Patreon Icon next to &quot;Become a patron&quot;</desc>
  <defs
     id="defs5510" />
  <sodipodi:namedview
     id="base"
     pagecolor="#8c3f3f"
     bordercolor="#666666"
     borderopacity="1.0"
     inkscape:pageopacity="1"
     inkscape:pageshadow="2"
     inkscape:zoom="1.4142136"
     inkscape:cx="18.237255"
     inkscape:cy="17.296996"
     inkscape:document-units="px"
     inkscape:current-layer="patreon-button"
     showgrid="true"
     fit-margin-top="0"
     fit-margin-left="0"
     fit-margin-right="0"
     fit-margin-bottom="0"
     units="px"
     inkscape:snap-bbox="true"
     inkscape:bbox-paths="false"
     inkscape:bbox-nodes="true"
     inkscape:snap-nodes="false"
     inkscape:snap-others="false"
     inkscape:window-width="1920"
     inkscape:window-height="1016"
     inkscape:window-x="0"
     inkscape:window-y="27"
     inkscape:window-maximized="1"
     inkscape:snap-page="true"
     inkscape:snap-grids="false"
     inkscape:snap-to-guides="false"
     inkscape:snap-bbox-edge-midpoints="false"
     inkscape:snap-global="true">
    <inkscape:grid
       type="xygrid"
       id="grid6364"
       empspacing="1"
       originx="4.9326422e-07"
       originy="-149.99931"
       spacingx="26.458331"
       spacingy="26.458331"
       enabled="false" />
  </sodipodi:namedview>
  <metadata
     id="metadata5513">
    <rdf:RDF>
      <cc:Work
         rdf:about="">
        <dc:format>image/svg+xml</dc:format>
        <dc:type
           rdf:resource="http://purl.org/dc/dcmitype/StillImage" />
        <dc:title>Become a Patron</dc:title>
      </cc:Work>
    </rdf:RDF>
  </metadata>
  <rect
     y="-1.2090595e-09"
     x="-5.9897332e-10"
     height="50.00069"
     width="230.00319"
     id="rect2375"
     style="fill:#f96854;stroke-width:0" />
  <path
     style="fill:#ffffff;stroke-width:0"
     inkscape:connector-curvature="0"
     d="m 36.026954,13.012833 c -4.96345,0 -9.0016,4.037597 -9.0016,9.000752 0,4.948121 4.03815,8.973808 9.0016,8.973808 4.94812,0 8.97367,-4.025687 8.97367,-8.973808 0,-4.963155 -4.02555,-9.000752 -8.97367,-9.000752"
     id="path2377" />
  <path
     id="path1182"
     style="fill:#ffffff;stroke-width:0"
     d="m 200.25277,19.320268 h 2.99204 l 3.64805,6.48009 q 0.51201,0.960013 0.68801,1.472022 h 0.0321 l -0.0159,-1.456019 v -6.496093 h 2.48003 v 11.360159 h -2.88004 l -3.77604,-6.54409 q -0.208,-0.368017 -0.40001,-0.736012 -0.17602,-0.384006 -0.27202,-0.656007 h -0.0321 l 0.0159,1.50402 v 6.432089 h -2.48003 z m -7.2451,11.632164 q -1.69602,0 -2.96004,-0.72001 -1.26402,-0.736013 -1.95203,-2.080032 -0.68801,-1.344018 -0.68801,-3.152041 0,-1.808026 0.68801,-3.152045 0.68801,-1.344018 1.95203,-2.064028 1.26402,-0.736009 2.96004,-0.736009 1.69602,0 2.96004,0.736009 1.26402,0.72001 1.95203,2.064028 0.68801,1.344019 0.68801,3.152045 0,1.808023 -0.68801,3.152041 -0.68801,1.344019 -1.95203,2.080032 -1.26402,0.72001 -2.96004,0.72001 z m 0,-2.11203 q 1.32802,0 2.06403,-1.008013 0.75201,-1.024017 0.75201,-2.83204 0,-1.808026 -0.75201,-2.81604 -0.73601,-1.024013 -2.06403,-1.024013 -1.32802,0 -2.08003,1.024013 -0.75201,1.008014 -0.75201,2.81604 0,1.792024 0.75201,2.816037 0.75201,1.024016 2.08003,1.024016 z m -11.35665,-2.512037 h -1.63203 v 4.352062 h -2.70404 V 19.320268 h 4.99207 q 2.09603,0 3.12004,0.928015 1.04002,0.928012 1.04002,2.560035 0,1.088016 -0.57601,1.920026 -0.57601,0.832011 -1.64802,1.200017 l 2.51203,4.752066 h -2.92804 z m -1.63203,-1.856023 h 1.74403 q 0.96001,0 1.42402,-0.432006 0.464,-0.432006 0.464,-1.232018 0,-1.584022 -1.88802,-1.584022 h -1.74403 z m -3.98005,-3.008043 h -3.31205 v 9.216128 h -2.68804 v -9.216128 h -3.29604 v -2.144031 h 9.29613 z m -11.73667,6.560092 h -4.19205 l -0.86401,2.656036 h -2.70404 l 4.12805,-11.360159 h 3.08805 l 4.12806,11.360159 h -2.72004 z m -0.624,-1.904027 -1.04002,-3.168044 q -0.12801,-0.368018 -0.24,-0.752012 -0.096,-0.400004 -0.17602,-0.848009 h -0.0321 q -0.08,0.448005 -0.192,0.848009 -0.096,0.384005 -0.22402,0.752012 l -1.04001,3.168044 z m -10.32365,-6.800096 q 1.21602,0 2.14403,0.448009 0.92802,0.432006 1.42402,1.248017 0.51201,0.800009 0.51201,1.872026 0,1.696022 -1.12001,2.688037 -1.10402,0.976013 -3.02405,0.976013 h -2.27203 v 4.128057 h -2.70404 V 19.320268 Z m -0.65601,5.344077 q 0.89602,0 1.39202,-0.448009 0.51201,-0.448005 0.51201,-1.248017 0,-0.800009 -0.49601,-1.248018 -0.496,-0.448005 -1.40802,-0.448005 h -1.68002 v 3.392049 z m -13.30293,3.360046 h -4.19206 l -0.86401,2.656036 h -2.70404 l 4.12806,-11.360159 h 3.08804 l 4.12806,11.360159 h -2.72004 z m -0.62401,-1.904027 -1.04001,-3.168044 q -0.12802,-0.368018 -0.24001,-0.752012 -0.096,-0.400004 -0.17601,-0.848009 h -0.0321 q -0.08,0.448005 -0.192,0.848009 -0.096,0.384005 -0.22402,0.752012 l -1.04002,3.168044 z m -12.06942,2.560034 v 2.000029 h -7.88811 V 19.320268 h 7.77611 v 2.000029 h -5.07207 v 2.560034 h 4.80007 v 1.98403 h -4.80007 v 2.816037 z m -22.41956,-9.36013 h 3.71205 l 2.09603,6.960096 q 0.17602,0.60801 0.27202,1.376021 h 0.0321 q 0.08,-0.688008 0.288,-1.408018 l 2.00003,-6.928099 h 3.76005 v 11.360159 h -2.46403 v -7.744106 q 0,-0.704011 0.064,-1.280019 h -0.048 q -0.048,0.496005 -0.24001,1.104015 l -2.28803,7.92011 h -2.27203 l -2.38403,-7.92011 q -0.17602,-0.480007 -0.24001,-1.088016 h -0.048 q 0.064,0.76801 0.064,1.26402 v 7.744106 h -2.30403 z m -7.245096,11.632164 q -1.69602,0 -2.96004,-0.72001 -1.26402,-0.736013 -1.95203,-2.080032 -0.68801,-1.344018 -0.68801,-3.152041 0,-1.808026 0.68801,-3.152045 0.68801,-1.344018 1.95203,-2.064028 1.26402,-0.736009 2.96004,-0.736009 1.69602,0 2.96004,0.736009 1.264016,0.72001 1.952026,2.064028 0.68801,1.344019 0.68801,3.152045 0,1.808023 -0.68801,3.152041 -0.68801,1.344019 -1.952026,2.080032 -1.26402,0.72001 -2.96004,0.72001 z m 0,-2.11203 q 1.32802,0 2.06403,-1.008013 0.75201,-1.024017 0.75201,-2.83204 0,-1.808026 -0.75201,-2.81604 -0.73601,-1.024013 -2.06403,-1.024013 -1.32802,0 -2.08003,1.024013 -0.75201,1.008014 -0.75201,2.81604 0,1.792024 0.75201,2.816037 0.75201,1.024016 2.08003,1.024016 z m -11.62666,2.11203 q -1.77602,0 -3.02404,-0.72001 -1.23202,-0.736013 -1.87203,-2.064029 -0.64,-1.344018 -0.64,-3.152045 0,-1.792023 0.672,-3.136042 0.67201,-1.344019 1.92003,-2.080031 1.26402,-0.752008 2.97604,-0.752008 2.14403,0 3.47205,1.104015 1.32802,1.088013 1.55202,2.976041 l -2.73604,0.480007 q -0.12801,-1.136017 -0.73601,-1.760026 -0.60801,-0.624008 -1.61602,-0.624008 -1.28002,0 -2.01603,1.024013 -0.72001,1.008014 -0.72001,2.75204 0,1.712021 0.73601,2.736038 0.75201,1.024013 2.08003,1.024013 0.94401,0 1.55202,-0.60801 0.60801,-0.624008 0.78401,-1.728024 l 2.73604,0.592011 q -0.416,1.840024 -1.74402,2.896039 -1.31202,1.040016 -3.37605,1.040016 z m -6.61559,-2.272034 v 2.000029 h -7.88811 V 19.320268 h 7.77611 v 2.000029 h -5.07207 v 2.560034 h 4.80006 v 1.98403 h -4.80006 v 2.816037 z m -11.94642,-3.920052 q 1.10402,0.176015 1.71203,0.89601 0.62401,0.704011 0.62401,1.824025 0,0.912013 -0.43201,1.648025 -0.43201,0.72001 -1.31202,1.136014 -0.86401,0.416007 -2.11203,0.416007 h -5.32807 V 19.320268 h 5.12007 q 1.87202,0 2.81604,0.816011 0.96001,0.800013 0.96001,2.11203 0,0.912012 -0.544,1.584022 -0.52801,0.672009 -1.50403,0.928015 z m -4.14405,-3.53605 v 2.768039 h 1.69602 q 0.86401,0 1.26402,-0.384005 0.416,-0.384005 0.416,-1.008014 0,-0.624009 -0.416,-0.992015 -0.41601,-0.384005 -1.26402,-0.384005 z m 1.87202,7.552103 q 0.88001,0 1.32802,-0.416003 0.46401,-0.416007 0.46401,-1.104015 0,-0.67201 -0.44801,-1.072018 -0.448,-0.400004 -1.28002,-0.400004 h -1.93602 v 2.99204 z"
     inkscape:connector-curvature="0" />
  <rect
     style="fill:#052d49;stroke-width:0"
     id="rect9378"
     width="4.3950882"
     height="23.97521"
     x="20.000252"
     y="13.012735" />
</svg>
