<?xml version="1.0" encoding="UTF-8" standalone="no"?>
<svg
   xmlns:dc="http://purl.org/dc/elements/1.1/"
   xmlns:cc="http://creativecommons.org/ns#"
   xmlns:rdf="http://www.w3.org/1999/02/22-rdf-syntax-ns#"
   xmlns:svg="http://www.w3.org/2000/svg"
   xmlns="http://www.w3.org/2000/svg"
   xmlns:sodipodi="http://sodipodi.sourceforge.net/DTD/sodipodi-0.dtd"
   xmlns:inkscape="http://www.inkscape.org/namespaces/inkscape"
   class="Tile Tile-S"
   aria-labelledby="TileS-title"
   role="img"
   version="1.1"
   viewBox="0 0 36 36"
   id="svg36483"
   sodipodi:docname="tile_S.svg"
   width="36"
   height="36"
   inkscape:version="0.92.2 5c3e80d, 2017-08-06">
  <metadata
     id="metadata36489">
    <rdf:RDF>
      <cc:Work
         rdf:about="">
        <dc:format>image/svg+xml</dc:format>
        <dc:type
           rdf:resource="http://purl.org/dc/dcmitype/StillImage" />
        <dc:title>S</dc:title>
      </cc:Work>
    </rdf:RDF>
  </metadata>
  <defs
     id="defs36487" />
  <sodipodi:namedview
     pagecolor="#ffffff"
     bordercolor="#666666"
     borderopacity="1"
     objecttolerance="10"
     gridtolerance="10"
     guidetolerance="10"
     inkscape:pageopacity="0"
     inkscape:pageshadow="2"
     inkscape:window-width="1920"
     inkscape:window-height="1016"
     id="namedview36485"
     showgrid="false"
     inkscape:zoom="6.5555556"
     inkscape:cx="1.4210855e-14"
     inkscape:cy="18"
     inkscape:window-x="0"
     inkscape:window-y="27"
     inkscape:window-maximized="1"
     inkscape:current-layer="svg36483" />
  <title
     id="TileS-title">S</title>
  <desc
     id="TileS-desc">A square with the letter S punched into it</desc>
  <path
     d="M 0,0 V 36 H 36 V 0 Z m 18.422,8.2264 c 1.2602,2e-4 2.3162,0.15194 3.2344,0.4221 0.91812,0.27016 1.6561,0.52022 2.25,0.84359 l -1.1952,3.3046 c -0.52188,-0.27016 -1.119,-0.49617 -1.7578,-0.70299 -0.63889,-0.20681 -1.42,-0.28135 -2.3203,-0.28135 -1.0081,0 -1.6686,0.14363 -2.1094,0.42195 -0.44084,0.27878 -0.70299,0.68939 -0.70299,1.2657 0,0.34227 0.11943,0.60986 0.2812,0.84374 0.16176,0.23403 0.33562,0.44372 0.63284,0.63269 0.29707,0.18989 0.66762,0.4097 1.0546,0.56255 0.38702,0.1539 0.79763,0.25973 1.2657,0.42194 0.97164,0.35982 1.8111,0.77375 2.5312,1.1251 0.72023,0.35105 1.3513,0.72719 1.8282,1.1952 0.47682,0.46806 0.82061,0.98721 1.0546,1.6174 0.23402,0.62997 0.35164,1.4204 0.35164,2.3202 0,1.7462 -0.60427,3.115 -1.8281,4.078 -1.2238,0.96288 -3.0888,1.4064 -5.5547,1.4064 -0.82832,0 -1.5839,-0.0423 -2.25,-0.13908 -0.6661,-0.0998 -1.245,-0.20788 -1.7578,-0.35165 -0.51281,-0.14362 -0.96681,-0.25973 -1.3358,-0.42195 -0.36918,-0.16191 -0.66187,-0.34817 -0.91404,-0.49224 l 1.1952,-3.375 c 0.55801,0.30599 1.22,0.6008 2.0391,0.84375 0.81895,0.24294 1.8353,0.35179 3.0234,0.35179 0.59384,0 1.0896,-0.0423 1.4764,-0.14211 0.38702,-0.0983 0.68001,-0.25081 0.91404,-0.42164 0.23403,-0.16993 0.40199,-0.32867 0.49225,-0.56239 0.0907,-0.23449 0.14059,-0.4853 0.14059,-0.7736 -10e-6,-0.61198 -0.26759,-1.1422 -0.84389,-1.547 -0.57615,-0.40456 -1.5496,-0.86793 -2.9531,-1.3358 -0.61258,-0.21649 -1.2866,-0.42421 -1.8984,-0.70314 -0.61198,-0.27847 -1.1314,-0.63163 -1.6172,-1.0546 -0.48589,-0.423 -0.88939,-0.94382 -1.1952,-1.547 -0.30599,-0.60322 -0.4218,-1.3156 -0.4218,-2.1798 0,-0.864 0.16827,-1.6976 0.49225,-2.3904 0.32368,-0.69287 0.74184,-1.2719 1.3358,-1.7578 0.59414,-0.4859 1.3337,-0.86385 2.1797,-1.1251 0.84601,-0.26124 1.821,-0.35165 2.8828,-0.3518 z"
     id="path36481"
     inkscape:connector-curvature="0"
     style="stroke-width:0" />
</svg>
