<?xml version="1.0" encoding="UTF-8" standalone="no"?>
<svg
   xmlns:dc="http://purl.org/dc/elements/1.1/"
   xmlns:cc="http://creativecommons.org/ns#"
   xmlns:rdf="http://www.w3.org/1999/02/22-rdf-syntax-ns#"
   xmlns:svg="http://www.w3.org/2000/svg"
   xmlns="http://www.w3.org/2000/svg"
   id="svg858"
   version="1.1"
   viewBox="0 0 268.03462 80.000001"
   height="80"
   width="268.03461">
  <defs
     id="defs852" />
  <metadata
     id="metadata855">
    <rdf:RDF>
      <cc:Work
         rdf:about="">
        <dc:format>image/svg+xml</dc:format>
        <dc:type
           rdf:resource="http://purl.org/dc/dcmitype/StillImage" />
        <dc:title></dc:title>
      </cc:Work>
    </rdf:RDF>
  </metadata>
  <g
     transform="translate(-76.191,-81.743901)"
     id="layer1">
    <g
       transform="matrix(20,0,0,20,-5459.4344,-2126.3649)"
       id="g5979">
      <path
         id="path5829"
         style="font-style:italic;font-variant:normal;font-weight:normal;font-stretch:normal;font-size:2.29305553px;line-height:125%;font-family:'Source Code Pro';-inkscape-font-specification:'Source Code Pro Italic';letter-spacing:0px;word-spacing:0px;fill:#ffffff;fill-opacity:1;stroke:none;stroke-width:0.26458332px;stroke-linecap:butt;stroke-linejoin:miter;stroke-opacity:1"
         d="m 276.78127,113.54739 h 0.1651 l 1.14882,-1.99496 h -0.1651 z" />
      <path
         id="path5831"
         style="font-style:italic;font-variant:normal;font-weight:normal;font-stretch:normal;font-size:2.29305553px;line-height:125%;font-family:'Source Code Pro';-inkscape-font-specification:'Source Code Pro Italic';letter-spacing:0px;word-spacing:0px;fill:#ffffff;fill-opacity:1;stroke:none;stroke-width:0.26458332px;stroke-linecap:butt;stroke-linejoin:miter;stroke-opacity:1"
         d="m 278.83266,113.20801 c 0.15593,0 0.2958,-0.0413 0.39211,-0.10089 l -0.0573,-0.12612 c -0.0803,0.0436 -0.17886,0.0803 -0.28893,0.0803 -0.12612,0 -0.20637,-0.0688 -0.20637,-0.20867 0,-0.0321 0.002,-0.0619 0.0115,-0.10319 l 0.11236,-0.54116 h 0.55033 l 0.0298,-0.14217 h -0.55033 l 0.0734,-0.35772 h -0.14446 l -0.0963,0.35772 -0.33479,0.0115 -0.0252,0.1307 h 0.32332 l -0.11007,0.53658 c -0.009,0.0527 -0.0183,0.0963 -0.0183,0.14446 0,0.19032 0.10548,0.31873 0.33937,0.31873 z" />
      <path
         id="path5833"
         style="font-style:italic;font-variant:normal;font-weight:normal;font-stretch:normal;font-size:2.29305553px;line-height:125%;font-family:'Source Code Pro';-inkscape-font-specification:'Source Code Pro Italic';letter-spacing:0px;word-spacing:0px;fill:#ffffff;fill-opacity:1;stroke:none;stroke-width:0.26458332px;stroke-linecap:butt;stroke-linejoin:miter;stroke-opacity:1"
         d="m 280.12275,113.20801 c 0.19491,0 0.36919,-0.0757 0.48155,-0.1651 l -0.0665,-0.11924 c -0.10319,0.0825 -0.23389,0.14447 -0.38065,0.14447 -0.20179,0 -0.33479,-0.12612 -0.33479,-0.35084 0,-0.0183 0,-0.0344 0.002,-0.0504 h 0.85301 c 0.0115,-0.0298 0.0298,-0.12153 0.0298,-0.19949 0,-0.24765 -0.15134,-0.42881 -0.42421,-0.42881 -0.33708,0 -0.63518,0.28664 -0.63518,0.68792 0,0.31186 0.18574,0.48154 0.47466,0.48154 z m 0.15135,-1.02958 c 0.1651,0 0.26828,0.10777 0.26828,0.28205 0,0.0229 -0.002,0.0459 -0.007,0.0688 h -0.68333 c 0.0688,-0.21555 0.25224,-0.35084 0.42193,-0.35084 z" />
      <path
         id="path5835"
         style="font-style:italic;font-variant:normal;font-weight:normal;font-stretch:normal;font-size:2.29305553px;line-height:125%;font-family:'Source Code Pro';-inkscape-font-specification:'Source Code Pro Italic';letter-spacing:0px;word-spacing:0px;fill:#ffffff;fill-opacity:1;stroke:none;stroke-width:0.26458332px;stroke-linecap:butt;stroke-linejoin:miter;stroke-opacity:1"
         d="m 281.54585,113.20801 c 0.16739,0 0.33249,-0.0734 0.44943,-0.18115 l -0.0711,-0.11924 c -0.10319,0.0894 -0.22472,0.15364 -0.35542,0.15364 -0.20638,0 -0.36001,-0.11924 -0.36001,-0.3646 0,-0.28434 0.24077,-0.51135 0.47237,-0.51135 0.14446,0 0.24765,0.0504 0.3302,0.15363 l 0.11236,-0.10089 c -0.0803,-0.10548 -0.22472,-0.1995 -0.41963,-0.1995 -0.34855,0 -0.67187,0.27288 -0.67187,0.67875 0,0.32561 0.22243,0.49071 0.51365,0.49071 z" />
      <path
         id="path5837"
         style="font-style:italic;font-variant:normal;font-weight:normal;font-stretch:normal;font-size:2.29305553px;line-height:125%;font-family:'Source Code Pro';-inkscape-font-specification:'Source Code Pro Italic';letter-spacing:0px;word-spacing:0px;fill:#ffffff;fill-opacity:1;stroke:none;stroke-width:0.26458332px;stroke-linecap:butt;stroke-linejoin:miter;stroke-opacity:1"
         d="m 282.33605,113.1805 h 0.17428 l 0.14446,-0.72002 c 0.15363,-0.16969 0.30727,-0.27058 0.45632,-0.27058 0.11465,0 0.17656,0.0619 0.17656,0.17198 0,0.0504 -0.007,0.0986 -0.0206,0.15592 l -0.13299,0.6627 h 0.17656 l 0.13759,-0.68104 c 0.0115,-0.0619 0.0206,-0.11924 0.0206,-0.18345 0,-0.16739 -0.0894,-0.27746 -0.28663,-0.27746 -0.1972,0 -0.35542,0.11695 -0.49301,0.24995 h -0.009 l 0.0367,-0.13988 0.12153,-0.60078 h -0.17656 z" />
      <path
         id="path5839"
         style="font-style:italic;font-variant:normal;font-weight:normal;font-stretch:normal;font-size:2.29305553px;line-height:125%;font-family:'Source Code Pro';-inkscape-font-specification:'Source Code Pro Italic';letter-spacing:0px;word-spacing:0px;fill:#ffffff;fill-opacity:1;stroke:none;stroke-width:0.26458332px;stroke-linecap:butt;stroke-linejoin:miter;stroke-opacity:1"
         d="m 283.71099,113.1805 h 0.17427 l 0.14447,-0.72002 c 0.15363,-0.16969 0.30727,-0.27058 0.45631,-0.27058 0.11466,0 0.17657,0.0619 0.17657,0.17198 0,0.0504 -0.007,0.0986 -0.0206,0.15592 l -0.13299,0.6627 h 0.17656 l 0.13758,-0.68104 c 0.0115,-0.0619 0.0206,-0.11924 0.0206,-0.18345 0,-0.16739 -0.0894,-0.27746 -0.28663,-0.27746 -0.1995,0 -0.36689,0.12154 -0.49989,0.25453 h -0.009 l 0.0275,-0.22701 h -0.14217 z" />
      <path
         id="path5841"
         style="font-style:italic;font-variant:normal;font-weight:normal;font-stretch:normal;font-size:2.29305553px;line-height:125%;font-family:'Source Code Pro';-inkscape-font-specification:'Source Code Pro Italic';letter-spacing:0px;word-spacing:0px;fill:#ffffff;fill-opacity:1;stroke:none;stroke-width:0.26458332px;stroke-linecap:butt;stroke-linejoin:miter;stroke-opacity:1"
         d="m 285.79907,113.20801 c 0.12153,0 0.21096,-0.0298 0.30498,-0.0734 l -0.0413,-0.133 c -0.0803,0.0367 -0.14446,0.0596 -0.21325,0.0596 -0.1009,0 -0.17198,-0.0482 -0.17198,-0.1651 0,-0.0229 0.005,-0.0459 0.009,-0.0734 l 0.16739,-0.75671 h -0.58243 l -0.0298,0.14217 h 0.40816 l -0.133,0.59849 c -0.0115,0.0436 -0.0183,0.0848 -0.0183,0.12153 0,0.18344 0.12382,0.27975 0.30039,0.27975 z m -0.0115,-1.37812 c 0.0871,0 0.16052,-0.0688 0.16052,-0.15822 0,-0.078 -0.0527,-0.12154 -0.133,-0.12154 -0.0848,0 -0.15822,0.0711 -0.15822,0.15822 0,0.078 0.0573,0.12154 0.1307,0.12154 z" />
      <path
         id="path5843"
         style="font-style:italic;font-variant:normal;font-weight:normal;font-stretch:normal;font-size:2.29305553px;line-height:125%;font-family:'Source Code Pro';-inkscape-font-specification:'Source Code Pro Italic';letter-spacing:0px;word-spacing:0px;fill:#ffffff;fill-opacity:1;stroke:none;stroke-width:0.26458332px;stroke-linecap:butt;stroke-linejoin:miter;stroke-opacity:1"
         d="m 287.0456,113.20801 c 0.16739,0 0.33249,-0.0734 0.44943,-0.18115 l -0.0711,-0.11924 c -0.10319,0.0894 -0.22472,0.15364 -0.35542,0.15364 -0.20638,0 -0.36001,-0.11924 -0.36001,-0.3646 0,-0.28434 0.24077,-0.51135 0.47237,-0.51135 0.14446,0 0.24765,0.0504 0.3302,0.15363 l 0.11236,-0.10089 c -0.0803,-0.10548 -0.22472,-0.1995 -0.41963,-0.1995 -0.34855,0 -0.67187,0.27288 -0.67187,0.67875 0,0.32561 0.22243,0.49071 0.51365,0.49071 z" />
      <path
         id="path5845"
         style="font-style:italic;font-variant:normal;font-weight:normal;font-stretch:normal;font-size:2.29305553px;line-height:125%;font-family:'Source Code Pro';-inkscape-font-specification:'Source Code Pro Italic';letter-spacing:0px;word-spacing:0px;fill:#ffffff;fill-opacity:1;stroke:none;stroke-width:0.26458332px;stroke-linecap:butt;stroke-linejoin:miter;stroke-opacity:1"
         d="m 288.25543,113.20801 c 0.14217,0 0.29122,-0.078 0.40817,-0.1972 h 0.009 l -0.0183,0.16969 h 0.14446 l 0.22242,-1.11443 h -0.14216 l -0.0436,0.13988 h -0.009 c -0.0619,-0.1009 -0.18344,-0.1674 -0.34166,-0.1674 -0.33937,0 -0.61225,0.34396 -0.61225,0.74295 0,0.27746 0.15135,0.42651 0.38294,0.42651 z m 0.0527,-0.14675 c -0.15592,0 -0.25452,-0.0963 -0.25452,-0.30727 0,-0.2981 0.19949,-0.56868 0.45402,-0.56868 0.10548,0 0.21096,0.0481 0.28663,0.1651 l -0.10319,0.4953 c -0.12153,0.13988 -0.2614,0.21555 -0.38294,0.21555 z" />
      <path
         id="path5847"
         style="font-style:italic;font-variant:normal;font-weight:normal;font-stretch:normal;font-size:2.29305553px;line-height:125%;font-family:'Source Code Pro';-inkscape-font-specification:'Source Code Pro Italic';letter-spacing:0px;word-spacing:0px;fill:#ffffff;fill-opacity:1;stroke:none;stroke-width:0.26458332px;stroke-linecap:butt;stroke-linejoin:miter;stroke-opacity:1"
         d="m 289.87344,113.20801 c 0.11006,0 0.21096,-0.0252 0.30956,-0.0734 l -0.0436,-0.1353 c -0.0803,0.0413 -0.14446,0.0619 -0.21784,0.0619 -0.10319,0 -0.16969,-0.0504 -0.16969,-0.1651 0,-0.0321 0.005,-0.0665 0.0115,-0.1009 l 0.26141,-1.24742 h -0.54346 l -0.0298,0.14217 h 0.37148 l -0.2316,1.09837 c -0.0115,0.0482 -0.0161,0.0849 -0.0161,0.12383 0,0.19491 0.12612,0.2958 0.2981,0.2958 z" />
    </g>
  </g>
</svg>
