<?xml version="1.0" encoding="UTF-8" standalone="no"?>
<svg
   xmlns:dc="http://purl.org/dc/elements/1.1/"
   xmlns:cc="http://creativecommons.org/ns#"
   xmlns:rdf="http://www.w3.org/1999/02/22-rdf-syntax-ns#"
   xmlns:svg="http://www.w3.org/2000/svg"
   xmlns="http://www.w3.org/2000/svg"
   id="svg858"
   version="1.1"
   viewBox="0 0 188.75001 80.000001"
   height="80"
   width="188.75">
  <defs
     id="defs852" />
  <metadata
     id="metadata855">
    <rdf:RDF>
      <cc:Work
         rdf:about="">
        <dc:format>image/svg+xml</dc:format>
        <dc:type
           rdf:resource="http://purl.org/dc/dcmitype/StillImage" />
        <dc:title></dc:title>
      </cc:Work>
    </rdf:RDF>
  </metadata>
  <g
     transform="translate(-76.191,-81.743901)"
     id="layer1">
    <g
       id="text830-3-3"
       style="font-style:normal;font-weight:normal;font-size:211.66665649px;line-height:125%;font-family:sans-serif;letter-spacing:0px;word-spacing:0px;fill:#000000;fill-opacity:1;stroke:none;stroke-width:5.29166651px;stroke-linecap:butt;stroke-linejoin:miter;stroke-opacity:1"
       aria-label="/design">
      <path
         id="path904"
         style="font-style:italic;font-variant:normal;font-weight:normal;font-stretch:normal;font-size:45.86111069px;font-family:'Source Code Pro';-inkscape-font-specification:'Source Code Pro Italic';fill:#ffffff;fill-opacity:1;stroke-width:5.29166651px"
         d="m 76.190996,144.54144 h 3.302 l 22.976414,-39.89917 h -3.301997 z" />
      <path
         id="path906"
         style="font-style:italic;font-variant:normal;font-weight:normal;font-stretch:normal;font-size:45.86111069px;font-family:'Source Code Pro';-inkscape-font-specification:'Source Code Pro Italic';fill:#ffffff;fill-opacity:1;stroke-width:5.29166651px"
         d="m 113.13714,137.75399 c 2.88925,0 5.87022,-1.55928 8.20914,-3.94405 h 0.18344 l -0.36689,3.39372 h 2.88925 l 6.604,-32.65311 h -3.5313 l -1.74273,8.71361 -0.73377,4.3568 h -0.13759 c -1.28411,-1.97202 -3.57716,-3.25613 -6.74158,-3.25613 -6.78744,0 -12.24492,6.87916 -12.24492,14.859 0,5.54919 3.02684,8.53016 7.61295,8.53016 z m 1.10066,-2.93511 c -3.11855,0 -5.09058,-1.97203 -5.09058,-6.14539 0,-5.96194 3.98992,-11.37355 9.0805,-11.37355 2.10961,0 4.17336,0.96308 5.68678,3.302 l -2.01789,9.906 c -2.43064,2.79752 -5.22817,4.31094 -7.65881,4.31094 z" />
      <path
         id="path908"
         style="font-style:italic;font-variant:normal;font-weight:normal;font-stretch:normal;font-size:45.86111069px;font-family:'Source Code Pro';-inkscape-font-specification:'Source Code Pro Italic';fill:#ffffff;fill-opacity:1;stroke-width:5.29166651px"
         d="m 143.02067,137.75399 c 3.89819,0 7.38364,-1.51341 9.63083,-3.302 l -1.32997,-2.38478 c -2.06375,1.651 -4.67783,2.88925 -7.61295,2.88925 -4.03577,0 -6.69572,-2.52236 -6.69572,-7.01675 0,-0.36688 0,-0.68791 0.0459,-1.00894 h 17.06034 c 0.2293,-0.59619 0.59619,-2.43064 0.59619,-3.98992 0,-4.953 -3.02683,-8.57602 -8.4843,-8.57602 -6.74159,0 -12.70353,5.73263 -12.70353,13.75833 0,6.23711 3.71475,9.63083 9.49325,9.63083 z m 3.02683,-20.59164 c 3.302,0 5.36575,2.15548 5.36575,5.64092 0,0.45861 -0.0459,0.91722 -0.13758,1.37583 h -13.66661 c 1.37583,-4.31094 5.04472,-7.01675 8.43844,-7.01675 z" />
      <path
         id="path910"
         style="font-style:italic;font-variant:normal;font-weight:normal;font-stretch:normal;font-size:45.86111069px;font-family:'Source Code Pro';-inkscape-font-specification:'Source Code Pro Italic';fill:#ffffff;fill-opacity:1;stroke-width:5.29166651px"
         d="m 170.51942,137.75399 c 5.22817,0 9.40153,-1.92616 9.40153,-6.74158 0,-3.62303 -2.88925,-5.09058 -7.06261,-6.51228 -3.57717,-1.23825 -5.50333,-2.15547 -5.50333,-4.21922 0,-1.97203 1.74272,-3.16442 4.63197,-3.16442 3.302,0 5.87022,1.46756 7.70467,3.02684 l 1.97202,-2.15548 c -1.8803,-1.8803 -5.04472,-3.62302 -9.3098,-3.62302 -4.54025,0 -8.34672,2.06375 -8.34672,6.32883 0,3.07269 2.06375,4.953 6.69572,6.51228 3.71475,1.23825 5.87022,2.10961 5.87022,4.26508 0,2.4765 -2.29305,3.53131 -5.41161,3.53131 -3.21028,0 -6.28297,-1.10067 -8.48431,-3.57717 l -2.01788,2.24719 c 2.15547,2.4765 6.0078,4.08164 9.86013,4.08164 z" />
      <path
         id="path912"
         style="font-style:italic;font-variant:normal;font-weight:normal;font-stretch:normal;font-size:45.86111069px;font-family:'Source Code Pro';-inkscape-font-specification:'Source Code Pro Italic';fill:#ffffff;fill-opacity:1;stroke-width:5.29166651px"
         d="m 201.54948,137.75399 c 2.43064,0 4.21922,-0.59619 6.09953,-1.46755 l -0.8255,-2.65995 c -1.60514,0.73378 -2.88925,1.19239 -4.26509,1.19239 -2.01789,0 -3.43958,-0.96308 -3.43958,-3.302 0,-0.45861 0.0917,-0.91722 0.18344,-1.46755 l 3.34787,-15.13417 h -11.64873 l -0.59619,2.84339 h 8.16328 l -2.65995,11.96975 c -0.2293,0.87136 -0.36689,1.69686 -0.36689,2.43064 0,3.66889 2.4765,5.59505 6.00781,5.59505 z m -0.22931,-27.56253 c 1.74273,0 3.21028,-1.37583 3.21028,-3.16441 0,-1.55928 -1.0548,-2.43064 -2.65994,-2.43064 -1.69686,0 -3.16442,1.42169 -3.16442,3.16442 0,1.55927 1.14653,2.43063 2.61408,2.43063 z" />
      <path
         id="path914"
         style="font-style:italic;font-variant:normal;font-weight:normal;font-stretch:normal;font-size:45.86111069px;font-family:'Source Code Pro';-inkscape-font-specification:'Source Code Pro Italic';fill:#ffffff;fill-opacity:1;stroke-width:5.29166651px"
         d="m 222.35251,147.15552 c 5.59505,0 10.22702,-2.56822 11.46527,-8.80533 l 4.67784,-23.43503 h -2.79753 l -0.91722,2.79753 h -0.18345 c -1.23825,-2.01789 -3.66889,-3.34786 -6.8333,-3.34786 -6.64986,0 -12.10734,6.46641 -12.10734,14.30866 0,5.31989 3.02684,8.34672 7.75053,8.34672 2.84339,0 5.7785,-1.46755 7.93397,-3.57716 h 0.18345 l -1.00895,4.72369 c -0.96308,4.31095 -4.17336,6.09953 -8.11741,6.09953 -2.4765,0 -5.09059,-0.8255 -6.87917,-2.38478 l -1.651,2.52236 c 2.01789,1.60514 4.81542,2.75167 8.48431,2.75167 z m 2.10961,-13.07042 c -3.25614,0 -5.18231,-1.92616 -5.18231,-5.96194 0,-5.7785 4.08164,-10.82322 8.89706,-10.82322 2.20133,0 4.17336,1.00894 5.73264,3.34786 l -2.01789,9.49325 c -2.33892,2.52236 -4.99886,3.94405 -7.4295,3.94405 z" />
      <path
         id="path916"
         style="font-style:italic;font-variant:normal;font-weight:normal;font-stretch:normal;font-size:45.86111069px;font-family:'Source Code Pro';-inkscape-font-specification:'Source Code Pro Italic';fill:#ffffff;fill-opacity:1;stroke-width:5.29166651px"
         d="m 242.28419,137.20366 h 3.48544 l 2.88925,-14.40039 c 3.0727,-3.39372 6.14539,-5.41161 9.12636,-5.41161 2.29306,0 3.53131,1.23825 3.53131,3.43958 0,1.00895 -0.13759,1.97203 -0.41275,3.11856 l -2.65995,13.25386 h 3.53131 l 2.75167,-13.62075 c 0.2293,-1.23825 0.41275,-2.38478 0.41275,-3.66889 0,-3.34786 -1.78859,-5.54919 -5.73264,-5.54919 -3.98992,0 -7.33778,2.43063 -9.99773,5.09058 h -0.18344 l 0.55033,-4.54025 h -2.84339 z" />
    </g>
  </g>
</svg>
