<?xml version="1.0" encoding="UTF-8" standalone="no"?>
<svg
   xmlns:dc="http://purl.org/dc/elements/1.1/"
   xmlns:cc="http://creativecommons.org/ns#"
   xmlns:rdf="http://www.w3.org/1999/02/22-rdf-syntax-ns#"
   xmlns:svg="http://www.w3.org/2000/svg"
   xmlns="http://www.w3.org/2000/svg"
   id="svg858"
   version="1.1"
   viewBox="0 0 414.73452 200"
   height="200"
   width="414.7345">
  <defs
     id="defs852">
    <marker
       style="overflow:visible"
       id="marker2124"
       refX="0"
       refY="0"
       orient="auto">
      <path
         transform="scale(-0.6)"
         d="M 8.7185878,4.0337352 -2.2072895,0.01601326 8.7185884,-4.0017078 c -1.7454984,2.3720609 -1.7354408,5.6174519 -6e-7,8.035443 z"
         style="fill:#ffffff;fill-opacity:1;fill-rule:evenodd;stroke:#ffffff;stroke-width:0.625;stroke-linejoin:round;stroke-opacity:1"
         id="path2122" />
    </marker>
    <marker
       style="overflow:visible"
       id="TriangleOutL"
       refX="0"
       refY="0"
       orient="auto">
      <path
         transform="scale(0.8)"
         style="fill:#ffffff;fill-opacity:1;fill-rule:evenodd;stroke:#ffffff;stroke-width:1.00000003pt;stroke-opacity:1"
         d="M 5.77,0 -2.88,5 V -5 Z"
         id="path1135" />
    </marker>
    <marker
       style="overflow:visible"
       id="EmptyTriangleOutL"
       refX="0"
       refY="0"
       orient="auto">
      <path
         transform="matrix(0.8,0,0,0.8,-4.8,0)"
         style="fill:#ffffff;fill-rule:evenodd;stroke:#ffffff;stroke-width:1.00000003pt;stroke-opacity:1"
         d="M 5.77,0 -2.88,5 V -5 Z"
         id="path1153" />
    </marker>
    <marker
       style="overflow:visible"
       id="Arrow2Mend"
       refX="0"
       refY="0"
       orient="auto">
      <path
         transform="scale(-0.6)"
         d="M 8.7185878,4.0337352 -2.2072895,0.01601326 8.7185884,-4.0017078 c -1.7454984,2.3720609 -1.7354408,5.6174519 -6e-7,8.035443 z"
         style="fill:#ffffff;fill-opacity:1;fill-rule:evenodd;stroke:#ffffff;stroke-width:0.625;stroke-linejoin:round;stroke-opacity:1"
         id="path1020" />
    </marker>
    <marker
       style="overflow:visible"
       id="marker1261"
       refX="0"
       refY="0"
       orient="auto">
      <path
         transform="matrix(0.8,0,0,0.8,10,0)"
         style="fill:#ffffff;fill-opacity:1;fill-rule:evenodd;stroke:#ffffff;stroke-width:1.00000003pt;stroke-opacity:1"
         d="M 0,0 5,-5 -12.5,0 5,5 Z"
         id="path1259" />
    </marker>
    <marker
       style="overflow:visible"
       id="Arrow1Lend"
       refX="0"
       refY="0"
       orient="auto">
      <path
         transform="matrix(-0.8,0,0,-0.8,-10,0)"
         style="fill:#ffffff;fill-opacity:1;fill-rule:evenodd;stroke:#ffffff;stroke-width:1.00000003pt;stroke-opacity:1"
         d="M 0,0 5,-5 -12.5,0 5,5 Z"
         id="path996" />
    </marker>
    <marker
       style="overflow:visible"
       id="Arrow1Lstart"
       refX="0"
       refY="0"
       orient="auto">
      <path
         transform="matrix(0.8,0,0,0.8,10,0)"
         style="fill:#ffffff;fill-opacity:1;fill-rule:evenodd;stroke:#ffffff;stroke-width:1.00000003pt;stroke-opacity:1"
         d="M 0,0 5,-5 -12.5,0 5,5 Z"
         id="path993" />
    </marker>
  </defs>
  <metadata
     id="metadata855">
    <rdf:RDF>
      <cc:Work
         rdf:about="">
        <dc:format>image/svg+xml</dc:format>
        <dc:type
           rdf:resource="http://purl.org/dc/dcmitype/StillImage" />
        <dc:title></dc:title>
      </cc:Work>
    </rdf:RDF>
  </metadata>
  <g
     transform="translate(88.668176,19.857269)"
     id="layer1">
    <g
       transform="translate(0,20)"
       id="text830-3-7"
       style="font-style:normal;font-weight:normal;font-size:211.66665649px;line-height:125%;font-family:sans-serif;letter-spacing:0px;word-spacing:0px;fill:#000000;fill-opacity:1;stroke:none;stroke-width:5.29166651px;stroke-linecap:butt;stroke-linejoin:miter;stroke-opacity:1"
       aria-label="Software">
      <path
         id="path2059"
         style="font-style:normal;font-variant:normal;font-weight:600;font-stretch:normal;font-size:40px;font-family:'Source Code Pro';-inkscape-font-specification:'Source Code Pro Semi-Bold';fill:#ffffff;fill-opacity:1;stroke-width:5.29166651px"
         d="m 104.47484,123.92962 c 6.08,0 9.68,-3.52 9.68,-7.76 0,-3.8 -2.36,-5.76 -5.68,-7.08 l -3.44,-1.48 c -2.36,-0.92 -4.48,-1.68 -4.48,-3.68 0,-1.96 1.68,-3.08 4.16,-3.08 2.64,0 4.48,0.84 6.24,2.24 l 2.4,-2.96 c -2.16,-2.039997 -5.2,-3.319997 -8.4,-3.319997 -5.319996,0 -9.079996,3.199997 -9.079996,7.359997 0,3.84 2.84,5.88 5.599996,6.96 l 3.56,1.56 c 2.6,1.08 4.4,1.72 4.4,4.04 0,1.84 -1.64,3.16 -4.68,3.16 -2.76,0 -5.359996,-1.2 -7.319996,-2.96 l -2.72,3.16 c 2.6,2.44 6.079996,3.84 9.759996,3.84 z" />
      <path
         id="path2061"
         style="font-style:normal;font-variant:normal;font-weight:600;font-stretch:normal;font-size:40px;font-family:'Source Code Pro';-inkscape-font-specification:'Source Code Pro Semi-Bold';fill:#ffffff;fill-opacity:1;stroke-width:5.29166651px"
         d="m 128.37922,123.92962 c 5.16,0 9.88,-3.76 9.88,-10.28 0,-6.56 -4.72,-10.32 -9.88,-10.32 -5.16,0 -9.88,3.76 -9.88,10.32 0,6.52 4.72,10.28 9.88,10.28 z m 0,-3.76 c -3.2,0 -5.12,-2.6 -5.12,-6.52 0,-3.96 1.92,-6.56 5.12,-6.56 3.2,0 5.12,2.6 5.12,6.56 0,3.92 -1.92,6.52 -5.12,6.52 z" />
      <path
         id="path2063"
         style="font-style:normal;font-variant:normal;font-weight:600;font-stretch:normal;font-size:40px;font-family:'Source Code Pro';-inkscape-font-specification:'Source Code Pro Semi-Bold';fill:#ffffff;fill-opacity:1;stroke-width:5.29166651px"
         d="m 149.48359,123.44962 h 4.56 v -16 h 7.48 v -3.64 h -7.48 v -1.16 c 0,-2.759997 1.32,-4.279997 4.32,-4.279997 1.6,0 2.88,0.28 4.32,0.84 l 0.96,-3.4 c -1.76,-0.68 -3.72,-1.08 -5.84,-1.08 -5.76,0 -8.32,3.36 -8.32,7.999997 v 1.08 l -5.44,0.2 v 3.44 h 5.44 z" />
      <path
         id="path2065"
         style="font-style:normal;font-variant:normal;font-weight:600;font-stretch:normal;font-size:40px;font-family:'Source Code Pro';-inkscape-font-specification:'Source Code Pro Semi-Bold';fill:#ffffff;fill-opacity:1;stroke-width:5.29166651px"
         d="m 179.98797,123.92962 c 2.56,0 4.52,-0.52 6.28,-1.12 l -0.88,-3.36 c -1.28,0.48 -2.64,0.8 -4.28,0.8 -3.36,0 -4.56,-1.48 -4.56,-4.72 v -8.08 h 8.96 v -3.64 h -8.96 v -6.159997 h -3.8 l -0.6,6.159997 -5.44,0.2 v 3.44 h 5.24 v 8.08 c 0,5.04 2.04,8.4 8.04,8.4 z" />
      <path
         id="path2067"
         style="font-style:normal;font-variant:normal;font-weight:600;font-stretch:normal;font-size:40px;font-family:'Source Code Pro';-inkscape-font-specification:'Source Code Pro Semi-Bold';fill:#ffffff;fill-opacity:1;stroke-width:5.29166651px"
         d="m 192.29234,123.44962 h 5.56 l 1.6,-7.84 c 0.32,-1.92 0.56,-3.76 0.8,-5.8 h 0.16 c 0.28,2.36 0.56,4.28 0.84,5.8 l 1.64,7.84 h 5.6 l 3.6,-19.64 h -4.28 l -1.68,10.2 c -0.28,1.92 -0.44,3.72 -0.72,5.64 h -0.16 c -0.28,-1.92 -0.68,-3.72 -1.12,-5.64 l -1.76,-8.28 h -3.8 l -1.8,8.28 c -0.44,1.88 -0.8,3.72 -1.04,5.64 h -0.12 c -0.24,-1.92 -0.48,-3.72 -0.76,-5.64 l -1.76,-10.2 h -4.52 z" />
      <path
         id="path2069"
         style="font-style:normal;font-variant:normal;font-weight:600;font-stretch:normal;font-size:40px;font-family:'Source Code Pro';-inkscape-font-specification:'Source Code Pro Semi-Bold';fill:#ffffff;fill-opacity:1;stroke-width:5.29166651px"
         d="m 221.71672,123.92962 c 2.64,0 5.28,-1.32 7.36,-2.92 h 0.12 l 0.36,2.44 h 3.76 v -11.64 c 0,-5.48 -3,-8.48 -8.44,-8.48 -3.36,0 -6.6,1.32 -8.96,2.72 l 1.68,3.08 c 2.04,-1.12 4.24,-2.08 6.44,-2.08 3.2,0 4.52,1.64 4.68,3.84 -9.68,0.68 -13.56,2.88 -13.56,7.28 0,3.44 2.72,5.76 6.56,5.76 z m 1.4,-3.6 c -1.96,0 -3.52,-0.76 -3.52,-2.52 0,-2.12 2.08,-3.56 9.12,-4.04 v 4.16 c -1.8,1.44 -3.64,2.4 -5.6,2.4 z" />
      <path
         id="path2071"
         style="font-style:normal;font-variant:normal;font-weight:600;font-stretch:normal;font-size:40px;font-family:'Source Code Pro';-inkscape-font-specification:'Source Code Pro Semi-Bold';fill:#ffffff;fill-opacity:1;stroke-width:5.29166651px"
         d="m 241.50109,123.44962 h 4.64 v -10.84 c 2,-3.8 4.64,-5.2 7.32,-5.2 1.48,0 2.28,0.2 3.56,0.6 l 0.96,-3.88 c -1.16,-0.56 -2.2,-0.8 -3.8,-0.8 -3.4,0 -6.36,1.76 -8.36,4.92 h -0.12 l -0.4,-4.44 h -3.8 z" />
      <path
         id="path2073"
         style="font-style:normal;font-variant:normal;font-weight:600;font-stretch:normal;font-size:40px;font-family:'Source Code Pro';-inkscape-font-specification:'Source Code Pro Semi-Bold';fill:#ffffff;fill-opacity:1;stroke-width:5.29166651px"
         d="m 273.48547,123.92962 c 2.88,0 5.6,-0.96 7.68,-2.32 l -1.56,-2.88 c -1.76,1 -3.44,1.64 -5.52,1.64 -3.64,0 -6.24,-1.76 -6.76,-5.4 h 14.44 c 0.08,-0.52 0.2,-1.4 0.2,-2.32 0,-5.44 -3.24,-9.32 -9.08,-9.32 -5.28,0 -10.16,3.88 -10.16,10.28 0,6.52 4.76,10.32 10.76,10.32 z m -0.48,-17.04 c 2.8,0 4.56,1.6 4.88,4.8 h -10.44 c 0.6,-3.16 2.84,-4.8 5.56,-4.8 z" />
    </g>
    <g
       transform="translate(0,20)"
       id="text1077-0-4-5-6-5-4-0-2-6-3-7"
       style="font-style:normal;font-variant:normal;font-weight:normal;font-stretch:normal;font-size:40px;line-height:125%;font-family:Ubuntu;-inkscape-font-specification:Ubuntu;letter-spacing:0px;word-spacing:0px;fill:#ffffff;fill-opacity:1;stroke:none;stroke-width:1px;stroke-linecap:butt;stroke-linejoin:miter;stroke-opacity:1"
       aria-label="Interfaces">
      <path
         id="path2038"
         style="font-style:normal;font-variant:normal;font-weight:300;font-stretch:normal;font-family:Jura;-inkscape-font-specification:'Jura Light'"
         d="m 148.14132,160.09946 q -0.36,0 -0.6,-0.24 -0.24,-0.24 -0.24,-0.6 v -23.68 q 0,-0.36 0.24,-0.6 0.24,-0.24 0.6,-0.24 0.36,0 0.6,0.24 0.24,0.24 0.24,0.6 v 23.68 q 0,0.36 -0.24,0.6 -0.24,0.24 -0.6,0.24 z" />
      <path
         id="path2040"
         style="font-style:normal;font-variant:normal;font-weight:300;font-stretch:normal;font-family:Jura;-inkscape-font-specification:'Jura Light'"
         d="m 166.08757,141.65946 q 3.68,0 5.32,1.68 1.68,1.64 1.68,5.32 v 10.6 q 0,0.84 -0.84,0.84 -0.84,0 -0.84,-0.84 v -10.6 q 0,-2.96 -1.2,-4.12 -1.16,-1.2 -4.12,-1.2 h -1.12 q -6.52,0 -7.04,4.36 l -0.04,0.24 v 11.32 q 0,0.84 -0.84,0.84 -0.84,0 -0.84,-0.84 v -16.76 q 0,-0.84 0.84,-0.84 0.84,0 0.84,0.84 v 2.32 q 1.84,-3.16 7.08,-3.16 z" />
      <path
         id="path2042"
         style="font-style:normal;font-variant:normal;font-weight:300;font-stretch:normal;font-family:Jura;-inkscape-font-specification:'Jura Light'"
         d="m 187.39757,158.41946 q 0.88,0 0.88,0.84 0,0.84 -0.88,0.84 -3.6,0 -5.24,-1.64 -1.64,-1.64 -1.64,-5.2 v -9.92 h -2.52 q -0.84,0 -0.84,-0.84 0,-0.84 0.84,-0.84 h 2.52 v -4.76 q 0,-0.84 0.84,-0.84 0.84,0 0.84,0.84 v 4.76 h 5.16 q 0.84,0 0.84,0.84 0,0.84 -0.84,0.84 h -5.16 v 9.92 q 0,2.88 1.12,4.04 1.16,1.12 4.08,1.12 z" />
      <path
         id="path2044"
         style="font-style:normal;font-variant:normal;font-weight:300;font-stretch:normal;font-family:Jura;-inkscape-font-specification:'Jura Light'"
         d="m 193.1907,151.49946 v 1.64 q 0,2.92 1.2,4.12 1.2,1.16 4.12,1.16 h 3.28 q 2.72,0 3.92,-0.72 1.2,-0.76 1.36,-2.56 0.08,-0.84 0.88,-0.84 0.4,0 0.6,0.24 0.24,0.24 0.2,0.64 -0.2,2.56 -1.92,3.76 -1.68,1.16 -5.04,1.16 h -3.28 q -3.64,0 -5.32,-1.64 -1.68,-1.68 -1.68,-5.32 v -4.48 q 0,-3.68 1.68,-5.36 1.68,-1.68 5.32,-1.64 h 3.28 q 3.68,0 5.32,1.68 1.68,1.64 1.68,5.32 v 2 q 0,0.84 -0.84,0.84 z m 0,-1.68 h 13.92 v -1.16 q 0,-2.96 -1.2,-4.12 -1.16,-1.2 -4.12,-1.2 h -3.28 q -2.92,-0.04 -4.12,1.16 -1.2,1.2 -1.2,4.16 z" />
      <path
         id="path2046"
         style="font-style:normal;font-variant:normal;font-weight:300;font-stretch:normal;font-family:Jura;-inkscape-font-specification:'Jura Light'"
         d="m 225.14257,141.65946 q 0.84,0 0.84,0.84 0,0.84 -0.84,0.84 -3.6,0 -5.64,1.72 -2,1.72 -2.2,5 0,0.16 -0.04,0.24 v 8.96 q 0,0.84 -0.84,0.84 -0.84,0 -0.84,-0.84 v -16.76 q 0,-0.84 0.84,-0.84 0.84,0 0.84,0.84 v 3.76 q 1,-2.24 3,-3.4 2,-1.2 4.88,-1.2 z" />
      <path
         id="path2048"
         style="font-style:normal;font-variant:normal;font-weight:300;font-stretch:normal;font-family:Jura;-inkscape-font-specification:'Jura Light'"
         d="m 237.07757,141.65946 q 0.84,0 0.84,0.84 0,0.84 -0.84,0.84 h -5.24 v 15.92 q 0,0.84 -0.84,0.84 -0.84,0 -0.84,-0.84 v -15.92 h -1.76 q -0.84,0 -0.84,-0.84 0,-0.84 0.84,-0.84 h 1.76 v -2.28 q 0,-3.6 1.64,-5.24 1.64,-1.64 5.24,-1.64 0.88,0 0.88,0.84 0,0.84 -0.88,0.84 -2.88,0 -4.04,1.16 -1.16,1.16 -1.16,4.04 v 2.28 z" />
      <path
         id="path2050"
         style="font-style:normal;font-variant:normal;font-weight:300;font-stretch:normal;font-family:Jura;-inkscape-font-specification:'Jura Light'"
         d="m 250.9107,141.65946 q 3.68,0 5.32,1.68 1.68,1.64 1.68,5.32 v 10.6 q 0,0.84 -0.84,0.84 -0.84,0 -0.84,-0.84 v -2.36 q -0.92,1.56 -2.72,2.4 -1.76,0.8 -4.36,0.8 h -2.24 q -3.04,0 -4.44,-1.36 -1.36,-1.4 -1.36,-4.44 0,-3.04 1.4,-4.44 1.4,-1.4 4.4,-1.4 h 9.32 q -0.04,-2.8 -1.24,-3.96 -1.2,-1.16 -4.08,-1.16 h -2.32 q -2.72,0 -3.96,0.64 -1.24,0.6 -1.48,2.12 -0.12,0.8 -0.84,0.8 -0.44,0 -0.68,-0.24 -0.2,-0.24 -0.16,-0.64 0.16,-2.24 1.92,-3.28 1.76,-1.08 5.2,-1.08 z m 5.32,12.12 v -3.64 h -9.32 q -2.32,0 -3.24,0.92 -0.88,0.92 -0.88,3.24 0,2.32 0.88,3.24 0.92,0.88 3.24,0.88 h 2.24 q 6.48,0 7.04,-4.4 z" />
      <path
         id="path2052"
         style="font-style:normal;font-variant:normal;font-weight:300;font-stretch:normal;font-family:Jura;-inkscape-font-specification:'Jura Light'"
         d="m 271.3232,160.09946 q -3.64,0 -5.32,-1.68 -1.68,-1.68 -1.68,-5.32 v -4.48 q 0,-3.68 1.68,-5.32 1.68,-1.68 5.32,-1.64 h 3.28 q 2.96,0 4.44,1 1.48,1 1.72,3.12 v 0.08 q 0,0.8 -0.84,0.8 -0.72,0 -0.84,-0.8 -0.16,-1.36 -1.2,-1.92 -1.04,-0.6 -3.28,-0.6 h -3.28 q -2.96,-0.04 -4.16,1.16 -1.16,1.16 -1.16,4.12 v 4.48 q 0,2.92 1.2,4.12 1.2,1.2 4.12,1.2 h 3.28 q 2.24,0 3.28,-0.56 1.04,-0.6 1.2,-1.96 0.12,-0.8 0.84,-0.8 0.44,0 0.64,0.24 0.24,0.24 0.2,0.64 -0.24,2.12 -1.72,3.12 -1.48,1 -4.44,1 z" />
      <path
         id="path2054"
         style="font-style:normal;font-variant:normal;font-weight:300;font-stretch:normal;font-family:Jura;-inkscape-font-specification:'Jura Light'"
         d="m 288.03445,151.49946 v 1.64 q 0,2.92 1.2,4.12 1.2,1.16 4.12,1.16 h 3.28 q 2.72,0 3.92,-0.72 1.2,-0.76 1.36,-2.56 0.08,-0.84 0.88,-0.84 0.4,0 0.6,0.24 0.24,0.24 0.2,0.64 -0.2,2.56 -1.92,3.76 -1.68,1.16 -5.04,1.16 h -3.28 q -3.64,0 -5.32,-1.64 -1.68,-1.68 -1.68,-5.32 v -4.48 q 0,-3.68 1.68,-5.36 1.68,-1.68 5.32,-1.64 h 3.28 q 3.68,0 5.32,1.68 1.68,1.64 1.68,5.32 v 2 q 0,0.84 -0.84,0.84 z m 0,-1.68 h 13.92 v -1.16 q 0,-2.96 -1.2,-4.12 -1.16,-1.2 -4.12,-1.2 h -3.28 q -2.92,-0.04 -4.12,1.16 -1.2,1.2 -1.2,4.16 z" />
      <path
         id="path2056"
         style="font-style:normal;font-variant:normal;font-weight:300;font-stretch:normal;font-family:Jura;-inkscape-font-specification:'Jura Light'"
         d="m 314.34632,160.05946 q -2.44,0 -3.68,-1.04 -1.24,-1.04 -1.44,-3.24 v -0.08 q 0,-0.8 0.84,-0.8 0.8,0 0.84,0.84 0.16,1.44 0.92,2.04 0.8,0.6 2.52,0.6 h 6.56 q 1.96,0 2.72,-0.76 0.76,-0.76 0.76,-2.72 0,-1.96 -0.76,-2.72 -0.76,-0.76 -2.72,-0.76 h -6.48 q -2.52,0 -3.72,-1.16 -1.2,-1.2 -1.2,-3.72 0,-2.56 1.2,-3.72 1.2,-1.2 3.72,-1.2 h 6.28 q 2.28,0 3.48,1 1.2,0.96 1.36,3 v 0.16 q 0,0.72 -0.8,0.72 -0.76,0 -0.88,-0.84 -0.12,-1.32 -0.84,-1.84 -0.72,-0.52 -2.32,-0.52 h -6.28 q -1.84,0 -2.56,0.72 -0.68,0.68 -0.68,2.52 0,1.8 0.68,2.52 0.72,0.68 2.56,0.68 h 6.48 q 2.68,0 3.92,1.24 1.24,1.24 1.24,3.92 0,2.68 -1.24,3.92 -1.24,1.24 -3.92,1.24 z" />
    </g>
    <g
       transform="translate(0,20)"
       id="text881-3-7-3-6-2"
       style="font-style:normal;font-variant:normal;font-weight:normal;font-stretch:normal;font-size:40px;line-height:125%;font-family:Rochester;-inkscape-font-specification:Rochester;letter-spacing:0px;word-spacing:0px;fill:#000000;fill-opacity:1;stroke:none;stroke-width:1px;stroke-linecap:butt;stroke-linejoin:miter;stroke-opacity:1"
       aria-label="&amp;">
      <path
         id="path2035"
         style="font-style:normal;font-variant:normal;font-weight:normal;font-stretch:normal;font-size:46.66666794px;font-family:'Clicker Script';-inkscape-font-specification:'Clicker Script';fill:#ffffff"
         d="m 134.9512,153.28401 q -0.27344,0.82031 -0.88867,1.82291 -0.59245,1.00261 -1.64063,1.89128 -1.02539,0.88867 -2.57487,1.48112 -1.52669,0.59245 -3.66862,0.59245 -1.57226,0 -2.98502,-0.41016 -1.38998,-0.41016 -2.62044,-1.13932 -1.98243,1.16211 -4.19271,1.89127 -2.1875,0.72917 -4.58008,0.72917 -2.27865,0 -3.91927,-0.61523 -1.64063,-0.63802 -2.71159,-1.66342 -1.04818,-1.02539 -1.54948,-2.32421 -0.5013,-1.29883 -0.5013,-2.64323 0,-2.05078 0.79752,-3.60026 0.79753,-1.54948 2.09636,-2.71159 1.29883,-1.1849 2.96224,-2.07357 1.6862,-0.91146 3.44075,-1.6862 -0.18229,-1.07096 -0.27343,-2.11914 -0.0684,-1.04818 -0.0684,-2.07357 0,-2.07356 0.54687,-3.71419 0.54688,-1.64062 1.50391,-2.77995 0.97982,-1.13932 2.30143,-1.73177 1.3444,-0.59245 2.89388,-0.59245 1.02539,0 1.77734,0.36459 0.77474,0.34179 1.27605,0.91146 0.5013,0.56966 0.75195,1.27604 0.25065,0.68359 0.25065,1.36718 0,1.82292 -0.75195,3.2129 -0.75196,1.38997 -1.98243,2.48372 -1.20768,1.07096 -2.75716,1.91406 -1.54948,0.8431 -3.14453,1.57227 0.36459,1.95963 0.97982,3.85091 0.61523,1.89128 1.45833,3.57747 0.86589,1.6862 1.93685,3.12175 1.09375,1.41276 2.43815,2.41536 1.45834,-1.04817 2.66602,-2.30143 1.20768,-1.25325 2.07357,-2.5293 0.86588,-1.29882 1.32161,-2.50651 0.47852,-1.20768 0.47852,-2.16471 0,-0.70638 -0.15951,-1.1849 -0.1595,-0.47851 -0.43294,-0.77474 -0.27344,-0.29622 -0.63802,-0.43294 -0.36459,-0.13672 -0.77474,-0.13672 -0.3418,0 -0.70638,0.13672 -0.36459,0.13672 -0.66081,0.41016 -0.27344,0.25065 -0.45573,0.6608 -0.18229,0.38737 -0.18229,0.93425 0,0.43294 0.22786,0.95703 0.25066,0.5013 0.88868,0.77474 l -0.38737,0.75195 q -0.45573,-0.20507 -0.75196,-0.47851 -0.29622,-0.29623 -0.47851,-0.63802 -0.18229,-0.3418 -0.27344,-0.6836 -0.0684,-0.36458 -0.0684,-0.68359 0,-0.75195 0.29622,-1.29883 0.31902,-0.56966 0.77474,-0.93424 0.47852,-0.38737 1.0254,-0.56966 0.54687,-0.1823 1.02539,-0.1823 1.36718,0 2.1875,0.8431 0.84309,0.8431 0.84309,2.41537 0,1.0026 -0.52408,2.27864 -0.50131,1.27604 -1.43555,2.64323 -0.93425,1.36719 -2.25586,2.73438 -1.32161,1.36718 -2.91667,2.52929 1.16211,0.72917 2.43815,1.13933 1.29883,0.41015 2.77995,0.41015 1.45834,0 2.57487,-0.5013 1.13933,-0.5013 1.95964,-1.25325 0.82031,-0.75196 1.3444,-1.61784 0.52409,-0.88867 0.75195,-1.64063 z m -21.98893,5.53711 q 1.8457,0 3.55469,-0.47852 1.70898,-0.47852 3.25846,-1.3444 -1.43555,-1.04818 -2.59766,-2.48372 -1.16211,-1.45834 -2.07356,-3.16732 -0.88868,-1.70899 -1.5267,-3.60026 -0.61523,-1.91407 -0.97982,-3.85091 -1.54947,0.75195 -2.82552,1.59505 -1.25325,0.82031 -2.14192,1.8457 -0.88868,1.0026 -1.36719,2.25586 -0.47852,1.25326 -0.47852,2.84831 0,1.6862 0.63802,2.89388 0.66081,1.18489 1.6862,1.98242 1.02539,0.77474 2.30143,1.13932 1.27605,0.36459 2.55209,0.36459 z m 1.23047,-21.69271 q 0,1.16211 0.0684,2.36979 0.0911,1.18489 0.29622,2.39258 1.52669,-0.6836 2.96224,-1.43555 1.43555,-0.77474 2.55208,-1.70898 1.11654,-0.95704 1.77735,-2.11914 0.68359,-1.1849 0.68359,-2.66602 0,-0.61524 -0.20508,-1.20768 -0.18229,-0.59245 -0.59245,-1.07097 -0.38737,-0.47851 -1.0026,-0.75195 -0.59245,-0.29622 -1.41276,-0.29622 -1.09375,0 -2.05078,0.5013 -0.93425,0.5013 -1.61784,1.38997 -0.68359,0.86589 -1.07096,2.05078 -0.38737,1.1849 -0.38737,2.55209 z" />
    </g>
    <g
       transform="translate(0,20)"
       id="g2293">
      <path
         style="opacity:1;fill:none;fill-opacity:1;stroke:#ffffff;stroke-width:2.5;stroke-linecap:round;stroke-linejoin:round;stroke-miterlimit:4;stroke-dasharray:none;stroke-dashoffset:0;stroke-opacity:1"
         d="m 84.83724,132.87309 c -37.86098,0 -33.83957,-42.222199 -34.01635,-83.587949"
         id="path991" />
      <g
         id="g2222"
         transform="translate(-0.125,-0.09375)">
        <path
           d="m 44.826231,62.388761 5.95649,-16.414421 6.096565,16.362912 c -3.569248,-2.603018 -8.437226,-2.567128 -12.053055,0.05151 z"
           style="fill:#ffffff;fill-opacity:1;fill-rule:evenodd;stroke:#ffffff;stroke-width:0.93800002;stroke-linecap:square;stroke-linejoin:round;stroke-miterlimit:4;stroke-dasharray:none;stroke-opacity:1"
           id="path2228" />
      </g>
    </g>
    <g
       id="text830-3-3"
       style="font-style:normal;font-weight:normal;font-size:211.66665649px;line-height:125%;font-family:sans-serif;letter-spacing:0px;word-spacing:0px;fill:#000000;fill-opacity:1;stroke:none;stroke-width:5.29166651px;stroke-linecap:butt;stroke-linejoin:miter;stroke-opacity:1"
       aria-label="/design"
       transform="matrix(1.5,0,0,1.5,-202.95467,-156.66959)">
      <path
         id="path904"
         style="font-style:italic;font-variant:normal;font-weight:normal;font-stretch:normal;font-size:45.86111069px;font-family:'Source Code Pro';-inkscape-font-specification:'Source Code Pro Italic';fill:#ffffff;fill-opacity:1;stroke-width:5.29166651px"
         d="m 76.190996,144.54144 h 3.302 l 22.976414,-39.89917 h -3.301997 z" />
      <path
         id="path906"
         style="font-style:italic;font-variant:normal;font-weight:normal;font-stretch:normal;font-size:45.86111069px;font-family:'Source Code Pro';-inkscape-font-specification:'Source Code Pro Italic';fill:#ffffff;fill-opacity:1;stroke-width:5.29166651px"
         d="m 113.13714,137.75399 c 2.88925,0 5.87022,-1.55928 8.20914,-3.94405 h 0.18344 l -0.36689,3.39372 h 2.88925 l 6.604,-32.65311 h -3.5313 l -1.74273,8.71361 -0.73377,4.3568 h -0.13759 c -1.28411,-1.97202 -3.57716,-3.25613 -6.74158,-3.25613 -6.78744,0 -12.24492,6.87916 -12.24492,14.859 0,5.54919 3.02684,8.53016 7.61295,8.53016 z m 1.10066,-2.93511 c -3.11855,0 -5.09058,-1.97203 -5.09058,-6.14539 0,-5.96194 3.98992,-11.37355 9.0805,-11.37355 2.10961,0 4.17336,0.96308 5.68678,3.302 l -2.01789,9.906 c -2.43064,2.79752 -5.22817,4.31094 -7.65881,4.31094 z" />
      <path
         id="path908"
         style="font-style:italic;font-variant:normal;font-weight:normal;font-stretch:normal;font-size:45.86111069px;font-family:'Source Code Pro';-inkscape-font-specification:'Source Code Pro Italic';fill:#ffffff;fill-opacity:1;stroke-width:5.29166651px"
         d="m 143.02067,137.75399 c 3.89819,0 7.38364,-1.51341 9.63083,-3.302 l -1.32997,-2.38478 c -2.06375,1.651 -4.67783,2.88925 -7.61295,2.88925 -4.03577,0 -6.69572,-2.52236 -6.69572,-7.01675 0,-0.36688 0,-0.68791 0.0459,-1.00894 h 17.06034 c 0.2293,-0.59619 0.59619,-2.43064 0.59619,-3.98992 0,-4.953 -3.02683,-8.57602 -8.4843,-8.57602 -6.74159,0 -12.70353,5.73263 -12.70353,13.75833 0,6.23711 3.71475,9.63083 9.49325,9.63083 z m 3.02683,-20.59164 c 3.302,0 5.36575,2.15548 5.36575,5.64092 0,0.45861 -0.0459,0.91722 -0.13758,1.37583 h -13.66661 c 1.37583,-4.31094 5.04472,-7.01675 8.43844,-7.01675 z" />
      <path
         id="path910"
         style="font-style:italic;font-variant:normal;font-weight:normal;font-stretch:normal;font-size:45.86111069px;font-family:'Source Code Pro';-inkscape-font-specification:'Source Code Pro Italic';fill:#ffffff;fill-opacity:1;stroke-width:5.29166651px"
         d="m 170.51942,137.75399 c 5.22817,0 9.40153,-1.92616 9.40153,-6.74158 0,-3.62303 -2.88925,-5.09058 -7.06261,-6.51228 -3.57717,-1.23825 -5.50333,-2.15547 -5.50333,-4.21922 0,-1.97203 1.74272,-3.16442 4.63197,-3.16442 3.302,0 5.87022,1.46756 7.70467,3.02684 l 1.97202,-2.15548 c -1.8803,-1.8803 -5.04472,-3.62302 -9.3098,-3.62302 -4.54025,0 -8.34672,2.06375 -8.34672,6.32883 0,3.07269 2.06375,4.953 6.69572,6.51228 3.71475,1.23825 5.87022,2.10961 5.87022,4.26508 0,2.4765 -2.29305,3.53131 -5.41161,3.53131 -3.21028,0 -6.28297,-1.10067 -8.48431,-3.57717 l -2.01788,2.24719 c 2.15547,2.4765 6.0078,4.08164 9.86013,4.08164 z" />
      <path
         id="path912"
         style="font-style:italic;font-variant:normal;font-weight:normal;font-stretch:normal;font-size:45.86111069px;font-family:'Source Code Pro';-inkscape-font-specification:'Source Code Pro Italic';fill:#ffffff;fill-opacity:1;stroke-width:5.29166651px"
         d="m 201.54948,137.75399 c 2.43064,0 4.21922,-0.59619 6.09953,-1.46755 l -0.8255,-2.65995 c -1.60514,0.73378 -2.88925,1.19239 -4.26509,1.19239 -2.01789,0 -3.43958,-0.96308 -3.43958,-3.302 0,-0.45861 0.0917,-0.91722 0.18344,-1.46755 l 3.34787,-15.13417 h -11.64873 l -0.59619,2.84339 h 8.16328 l -2.65995,11.96975 c -0.2293,0.87136 -0.36689,1.69686 -0.36689,2.43064 0,3.66889 2.4765,5.59505 6.00781,5.59505 z m -0.22931,-27.56253 c 1.74273,0 3.21028,-1.37583 3.21028,-3.16441 0,-1.55928 -1.0548,-2.43064 -2.65994,-2.43064 -1.69686,0 -3.16442,1.42169 -3.16442,3.16442 0,1.55927 1.14653,2.43063 2.61408,2.43063 z" />
      <path
         id="path914"
         style="font-style:italic;font-variant:normal;font-weight:normal;font-stretch:normal;font-size:45.86111069px;font-family:'Source Code Pro';-inkscape-font-specification:'Source Code Pro Italic';fill:#ffffff;fill-opacity:1;stroke-width:5.29166651px"
         d="m 222.35251,147.15552 c 5.59505,0 10.22702,-2.56822 11.46527,-8.80533 l 4.67784,-23.43503 h -2.79753 l -0.91722,2.79753 h -0.18345 c -1.23825,-2.01789 -3.66889,-3.34786 -6.8333,-3.34786 -6.64986,0 -12.10734,6.46641 -12.10734,14.30866 0,5.31989 3.02684,8.34672 7.75053,8.34672 2.84339,0 5.7785,-1.46755 7.93397,-3.57716 h 0.18345 l -1.00895,4.72369 c -0.96308,4.31095 -4.17336,6.09953 -8.11741,6.09953 -2.4765,0 -5.09059,-0.8255 -6.87917,-2.38478 l -1.651,2.52236 c 2.01789,1.60514 4.81542,2.75167 8.48431,2.75167 z m 2.10961,-13.07042 c -3.25614,0 -5.18231,-1.92616 -5.18231,-5.96194 0,-5.7785 4.08164,-10.82322 8.89706,-10.82322 2.20133,0 4.17336,1.00894 5.73264,3.34786 l -2.01789,9.49325 c -2.33892,2.52236 -4.99886,3.94405 -7.4295,3.94405 z" />
      <path
         id="path916"
         style="font-style:italic;font-variant:normal;font-weight:normal;font-stretch:normal;font-size:45.86111069px;font-family:'Source Code Pro';-inkscape-font-specification:'Source Code Pro Italic';fill:#ffffff;fill-opacity:1;stroke-width:5.29166651px"
         d="m 242.28419,137.20366 h 3.48544 l 2.88925,-14.40039 c 3.0727,-3.39372 6.14539,-5.41161 9.12636,-5.41161 2.29306,0 3.53131,1.23825 3.53131,3.43958 0,1.00895 -0.13759,1.97203 -0.41275,3.11856 l -2.65995,13.25386 h 3.53131 l 2.75167,-13.62075 c 0.2293,-1.23825 0.41275,-2.38478 0.41275,-3.66889 0,-3.34786 -1.78859,-5.54919 -5.73264,-5.54919 -3.98992,0 -7.33778,2.43063 -9.99773,5.09058 h -0.18344 l 0.55033,-4.54025 h -2.84339 z" />
    </g>
  </g>
</svg>
