<?xml version="1.0" encoding="UTF-8" standalone="no"?>
<svg
   xmlns:dc="http://purl.org/dc/elements/1.1/"
   xmlns:cc="http://creativecommons.org/ns#"
   xmlns:rdf="http://www.w3.org/1999/02/22-rdf-syntax-ns#"
   xmlns:svg="http://www.w3.org/2000/svg"
   xmlns="http://www.w3.org/2000/svg"
   id="svg19196"
   version="1.1"
   viewBox="0 0 228.03868 80"
   height="80"
   width="228.03868">
  <defs
     id="defs19190" />
  <metadata
     id="metadata19193">
    <rdf:RDF>
      <cc:Work
         rdf:about="">
        <dc:format>image/svg+xml</dc:format>
        <dc:type
           rdf:resource="http://purl.org/dc/dcmitype/StillImage" />
        <dc:title></dc:title>
      </cc:Work>
    </rdf:RDF>
  </metadata>
  <g
     transform="translate(92.476212,-61.405454)"
     id="layer1">
    <g
       transform="matrix(20,0,0,20,-409.31949,-2145.9044)"
       id="g6134">
      <path
         style="opacity:1;fill:none;fill-opacity:1;stroke:#ffffff;stroke-width:0.18600664;stroke-linecap:round;stroke-linejoin:round;stroke-miterlimit:4;stroke-dasharray:none;stroke-dashoffset:0;stroke-opacity:1"
         d="m 16.747888,111.37881 c -0.07705,0.18441 -0.159398,0.36839 -0.214796,0.56073 -0.146697,0.50932 -0.282604,1.02127 -0.441195,1.53312 -0.04631,0.14941 -0.09233,0.40633 -0.156182,0.54862"
         id="path13551" />
      <path
         style="opacity:1;fill:none;fill-opacity:1;stroke:#ffffff;stroke-width:0.18600664;stroke-linecap:round;stroke-linejoin:round;stroke-miterlimit:4;stroke-dasharray:none;stroke-dashoffset:0;stroke-opacity:1"
         d="m 17.840236,112.49782 c -0.07724,-0.0681 -0.185063,-0.10138 -0.286991,-0.11073 -0.04236,-0.004 -0.08614,-0.01 -0.128859,-0.007 -0.138203,0.0102 -0.30015,0.0809 -0.385581,0.19328 -0.06702,0.0881 -0.07808,0.20202 -0.07808,0.30883 0,0.087 0.0095,0.19095 0.06636,0.26134 0.08024,0.0994 0.22101,0.11545 0.338723,0.12322 0.159173,0.0105 0.295539,-0.008 0.425607,-0.10309 0.01378,-0.0101 0.03458,-0.0234 0.04397,-0.0363"
         id="path13583" />
      <path
         style="opacity:1;fill:none;fill-opacity:1;stroke:#ffffff;stroke-width:0.18600664;stroke-linecap:round;stroke-linejoin:round;stroke-miterlimit:4;stroke-dasharray:none;stroke-dashoffset:0;stroke-opacity:1"
         d="m 18.703731,112.38245 c -0.20469,0.023 -0.388084,0.0818 -0.436367,0.40587 -0.03383,0.22737 -0.0056,0.39858 0.181763,0.44696 0.197435,0.051 0.516559,0.0293 0.617727,-0.1445 0.09168,-0.15757 0.139779,-0.46208 -0.02681,-0.6205 -0.07977,-0.0758 -0.220738,-0.10085 -0.336296,-0.0879 z"
         id="path13601" />
      <path
         style="opacity:1;fill:none;fill-opacity:1;stroke:#ffffff;stroke-width:0.18600664;stroke-linecap:round;stroke-linejoin:round;stroke-miterlimit:4;stroke-dasharray:none;stroke-dashoffset:0;stroke-opacity:1"
         d="m 19.631673,111.37584 c -0.0099,0.49766 -0.024,1.20853 -0.02352,1.72474 1.96e-4,0.19294 0.162078,0.18907 0.27128,0.12727"
         id="path13625" />
      <path
         style="opacity:1;fill:none;fill-opacity:1;stroke:#ffffff;stroke-width:0.18600664;stroke-linecap:round;stroke-linejoin:round;stroke-miterlimit:4;stroke-dasharray:none;stroke-dashoffset:0;stroke-opacity:1"
         d="m 20.271532,111.38438 c -0.0028,0.55921 -0.02371,1.19406 -0.02306,1.70717 2.16e-4,0.16649 0.163409,0.20975 0.275686,0.11972"
         id="path13627" />
      <path
         style="opacity:1;fill:none;fill-opacity:1;stroke:#ffffff;stroke-width:0.18600664;stroke-linecap:round;stroke-linejoin:round;stroke-miterlimit:4;stroke-dasharray:none;stroke-dashoffset:0;stroke-opacity:1"
         d="m 20.912083,112.45916 c 0.161882,-0.10402 0.478511,-0.0977 0.668157,-0.0779 0.07067,0.008 0.204381,0.10519 0.217673,0.1782 0.03393,0.1865 0.01153,0.29032 -0.02147,0.5204 -0.01069,0.0742 -0.05867,0.15886 -0.185269,0.17955 -0.139797,0.0228 -0.264588,0.0247 -0.446388,0.009 -0.188278,-0.0163 -0.346493,-0.30331 -0.188165,-0.36245 0.133668,-0.05 0.571085,-0.0518 0.664108,0.0174"
         id="path13631" />
      <path
         style="opacity:1;fill:none;fill-opacity:1;stroke:#ffffff;stroke-width:0.18600664;stroke-linecap:round;stroke-linejoin:round;stroke-miterlimit:4;stroke-dasharray:none;stroke-dashoffset:0;stroke-opacity:1"
         d="m 22.51919,111.38923 c 0.0038,0.68791 -0.0098,1.2141 -0.01012,1.85813"
         id="path13635" />
      <path
         style="opacity:1;fill:none;fill-opacity:1;stroke:#ffffff;stroke-width:0.18600664;stroke-linecap:round;stroke-linejoin:round;stroke-miterlimit:4;stroke-dasharray:none;stroke-dashoffset:0;stroke-opacity:1"
         d="m 22.143509,112.37468 c 0.25752,-0.007 0.509931,-0.002 0.723386,0.002"
         id="path13639" />
      <path
         style="opacity:1;fill:none;fill-opacity:1;stroke:#ffffff;stroke-width:0.18600664;stroke-linecap:round;stroke-linejoin:round;stroke-miterlimit:4;stroke-dasharray:none;stroke-dashoffset:0;stroke-opacity:1"
         d="m 23.342245,112.80802 c 0.223765,0.0348 0.519661,0.0689 0.626716,-0.0626 0.04481,-0.0551 -8.34e-4,-0.1937 -0.03431,-0.23788 -0.119833,-0.15818 -0.304388,-0.17493 -0.500409,-0.12743 -0.252045,0.0611 -0.399594,0.524 -0.168865,0.79924 0.116195,0.1386 0.557756,0.10935 0.731129,0.0205"
         id="path13671" />
      <path
         style="opacity:1;fill:none;fill-opacity:1;stroke:#ffffff;stroke-width:0.18600664;stroke-linecap:round;stroke-linejoin:round;stroke-miterlimit:4;stroke-dasharray:none;stroke-dashoffset:0;stroke-opacity:1"
         d="m 24.471947,113.27008 c 9e-4,-0.31096 0.01603,-0.66404 0.0075,-0.91924 0.120731,0.093 0.260209,0.12213 0.419392,0.12361 0.175342,0.002 0.271392,-0.0674 0.314623,-0.0973"
         id="path13681" />
      <path
         style="opacity:1;fill:none;fill-opacity:1;stroke:#ffffff;stroke-width:0.18600664;stroke-linecap:round;stroke-linejoin:round;stroke-miterlimit:4;stroke-dasharray:none;stroke-dashoffset:0;stroke-opacity:1"
         d="m 25.571728,112.5339 c 0.07968,-0.0719 0.211139,-0.16193 0.346072,-0.15824 0.137294,0.004 0.32561,0.0123 0.404301,0.0955 0.18478,0.19436 0.175961,0.62848 0.04087,0.72081 -0.195674,0.13373 -0.808461,0.13043 -0.811817,-0.12935 -0.0019,-0.14465 0.109296,-0.18571 0.243376,-0.19005 0.134089,-0.005 0.346015,-0.005 0.470093,-0.01"
         id="path13695" />
      <path
         style="opacity:1;fill:none;fill-opacity:1;stroke:#ffffff;stroke-width:0.18600664;stroke-linecap:round;stroke-linejoin:round;stroke-miterlimit:4;stroke-dasharray:none;stroke-dashoffset:0;stroke-opacity:1"
         d="m 26.88548,111.43584 c 0.0056,0.55909 9.37e-4,1.12679 -9.38e-4,1.69236 -7.02e-4,0.16382 0.166316,0.15778 0.265478,0.086"
         id="path13715" />
    </g>
  </g>
</svg>
