<svg version="1.1" viewBox="0 0 256 256" xmlns="http://www.w3.org/2000/svg"><path class="pause-icon" d="m41.201 0c-5.0817-1.8115e-5 -9.2012 4.1195-9.2012 9.2012v237.6c-1.7e-5 5.0817 4.1195 9.2012 9.2012 9.2012h45.598c5.0817 2e-5 9.2012-4.1195 9.2012-9.2012v-237.6c1.8e-5 -5.0817-4.1195-9.2012-9.2012-9.2012zm128 0c-5.0817-1.701e-5 -9.2012 4.1195-9.2012 9.2012v237.6c-2e-5 5.0817 4.1195 9.2012 9.2012 9.2012h45.598c5.0817 2e-5 9.2012-4.1195 9.2012-9.2012v-237.6c2e-5 -5.0817-4.1195-9.2012-9.2012-9.2012z"/></svg>
