<svg version="1" xmlns="http://www.w3.org/2000/svg" width="933.333" height="933.333" viewBox="0 0 700.000000 700.000000"><path d="M349 43.1c-3 .4-8.3 1-11.7 1.4-5.7.6-7.3.8-13.5 1.9-39.6 7-72.1 17.5-106.7 34.3-45.5 22.1-83.5 51.4-111.2 85.8C86 191.1 71.2 218.7 61.1 250c-2.6 8.2-8.8 33.2-9.6 38.5-.3 2.3-.7 5.2-1 6.5-.3 1.3-.7 4-1 6-.3 2-.7 4.5-.9 5.6-.3 1.2-.7 5.7-1.1 10-.4 4.3-.9 8.8-1.1 9.9-2.4 12.5-2.3 82.3.1 101.5.2 1.9.6 5.5.9 8 3.8 36.6 15.5 73.7 32.7 104 9.6 16.9 33.5 44.1 49.9 56.7 31.8 24.6 74 42.7 118 50.8 1.4.3 3.6.7 5 .9 1.4.3 4.3.8 6.5 1.1 2.2.3 6.9 1 10.5 1.6 3.6.6 8.1 1.2 10 1.4 1.9.2 5.1.6 7 .9 1.9.2 7.1.7 11.5 1.1 4.4.4 9.6.8 11.5 1 28.3 2.9 79.3 3.4 102 1l11-1.1c10.4-1.1 24.9-3.5 41.5-6.8 2.1-.4 18.3-4.7 25-6.6 37.2-10.6 76.2-30.9 114.3-59.2 36.9-27.5 51.7-55.9 47.8-91.3-.5-3.9-.8-7.2-.8-7.5-.1-2-6.5-18.5-9-23-11.4-20.4-29.5-34.7-52.8-41.6-5.3-1.5-9.5-1.9-22.5-1.9-15.3.1-16.4.2-25.3 3.3-14.2 4.9-22.9 10.1-33.7 20.2-8.6 8.1-24.7 18.8-40.1 26.8-14 7.2-39.2 15.1-54.2 16.8-3.1.3-6 .8-6.4 1-1.1.7-24 1.8-37.8 1.8-20 0-46.6-1.6-64-3.8-1.4-.2-5-.6-8-1s-6.2-.9-7-1.1c-.8-.2-3.5-.7-6-1-2.5-.3-8.1-1.5-12.5-2.6-27.7-6.9-42-16.5-47.8-32-6.3-16.8-8.2-32.6-8.2-68.4 0-34.2 1.1-46.2 6.1-67.5 5.2-22.1 15.8-38.3 35.4-54.5 5.9-4.9 21.4-14.5 31.5-19.7 22.3-11.4 44.9-18.4 71.5-22.3 4.2-.7 24.2-.7 29.5-.1 2.8.3 8.2.8 12 1.1 37.3 3.2 61.7 8.6 83.1 18.6 9.1 4.2 23.1 12.6 26.6 15.9 10.8 10.2 29.9 19.6 44 21.6 6.6.9 20.8 1.1 26.8.3 22.1-3.1 43.6-16.3 57.3-35.4 4-5.6 10.7-19.1 10.7-21.5 0-.9.4-2 .9-2.6.5-.5 1.2-2.7 1.6-4.9.3-2.2 1-6.2 1.4-8.8 1-6.1.6-20.6-.8-27.3-1.3-6.5-4.9-17.6-6.2-18.9-.5-.5-.9-1.5-.9-2.2 0-2.6-9.5-15.8-16-22.3-9.3-9.3-24.4-21.5-31.1-25-1.3-.7-2.6-1.6-2.9-1.9-.9-1.2-17.5-10.9-26.5-15.6-13.1-6.8-34.2-15.6-48.5-20.3-11.9-3.9-33.1-9.7-39.5-10.8-1.6-.2-7.7-1.3-13.5-2.4-5.8-1-12.4-2.2-14.7-2.5-2.4-.3-6-.7-8-1-2.1-.3-6.5-.7-9.8-1-3.3-.3-7.1-.7-8.5-1-1.4-.2-5.9-.7-10-1-4.1-.3-8.8-.8-10.5-1.1-5.3-.8-51.8-1.1-57.5-.3z"/></svg>