<svg version="1" xmlns="http://www.w3.org/2000/svg" width="933.333" height="933.333" viewBox="0 0 700.000000 700.000000"><path d="M251.5 1.2C236.1 2.9 224 11.5 216.8 26c-2 4.1-6.7 14.7-10.3 23.5-6.7 16.3-7.7 18.7-10 24-6.3 14.4-20.9 53.4-26 69.5-5.9 18.1-10 32.6-29.5 102-5 17.9-9.9 35.4-11 39-1 3.6-4.4 15.5-7.5 26.5-3.1 11-6.2 22.2-7 25-4.5 15.6-20.7 72.2-21.1 73.5-.5 2.3-2.7 10-7.4 25.5-4.3 14.4-4.7 15.9-9.9 33.2-7.9 26.2-9.2 30.7-13.1 43.8-5.4 18.3-8.3 29.2-13.6 50.8-9.3 37.6-18.5 69.5-21.6 74.2-1.5 2.4-3.8 13.8-4 19.6-.3 16.5 9.4 31.8 25.2 39.3 6 2.9 7.3 3.1 17.5 3.1 9.5 0 11.8-.3 16.5-2.4 5.4-2.4 12.9-7.7 16.2-11.6 9.2-10.5 18.2-36.9 33.8-99.4 7.5-30.3 9.9-38.7 25.4-90.2 12.2-40.8 21.6-72.6 24.1-82.4 1.1-4.2 25.5-89.7 29.9-105 2.1-7.2 10.4-36.8 12.1-42.8 3.3-12.4 7.6-27.5 8.9-31.7.8-2.5 2.6-9 4.1-14.5 1.4-5.5 3-11.1 3.5-12.5.5-1.4 2.5-8.4 4.5-15.5 8.2-29.3 18.5-56.8 43.4-115.8 8.3-19.6 8.3-19.7 8.6-30.3.4-12.4-3.5-22-12.4-31.1-5.5-5.5-15-10.7-21.5-11.7-2.1-.4-4.1-.8-4.5-.9-.3-.2-4.2.1-8.6.5zM487.5 183.7c-6.2.6-25.1 2.5-27 2.9-22.7 4.2-44.9 10.7-61 17.9-2.7 1.2-7.5 3.3-10.5 4.5-3 1.3-5.9 2.7-6.5 3-.5.4-3.7 2.2-7 4-9.2 5.1-9.2 5.1-19.1 11.7-21.7 14.5-41.2 33.5-54.2 52.8-12.8 19.1-23.3 47.5-27.7 75-3.5 21.8-4.8 54.4-3.3 81 3.6 60.6 25.9 103.2 68.1 129.8 3.1 2.1 6.1 3.7 6.6 3.7.4 0 1.9.8 3.2 1.8 5.5 4.2 32.9 14.1 45.9 16.7.8.2 3.3.8 5.5 1.3 2.2.6 5.6 1.3 7.5 1.6 8.6 1.5 24.1 3.5 30 4.1 3.6.3 8 .8 9.8 1 18.2 2.2 62.4 2.2 78.7 0 1.7-.3 4.8-.7 7-.9 5.6-.6 26.5-4.5 27.4-5 .4-.3 1.9-.7 3.2-.9 18.5-3.4 50.2-17.7 73.4-33.2 25.4-16.9 37.2-29.2 40-41.5 2.3-10.3 2.4-11.6 1.1-20.2-3.5-24.3-30.2-41.2-54.2-34.2-7.6 2.2-11.4 4.4-19.9 11.6-20.9 17.5-46.1 30-69.4 34.4-4.7.9-9.4 1.8-10.4 2-12.9 2.4-60.4 2.4-78.2-.1-1.6-.3-5.2-.7-8-1-21-2.3-41.7-8.5-53.2-15.7-15.4-9.7-22.8-24.6-26.1-52.3-1.2-10.2-.8-52.3.7-63 1.5-11.7 1.5-11.7 3.1-17.5.7-2.5 1.3-5.2 1.5-6 .9-4.5 7-18.3 10.6-23.8 8.7-13.4 28.7-29.9 46.4-38.5 17.5-8.5 32.8-13.7 49.9-17.2 6.3-1.3 14.5-2 24.1-1.9 10.6 0 26.4 1.1 29.5 1.9.8.2 4.9.7 9 1 4.1.4 7.8.9 8.1 1.1.4.2 2.4.6 4.5 1 11.9 1.8 31.5 8.2 42 13.8 7.5 4.1 10.2 5.8 19.7 12.9 9.8 7.3 17.6 10.5 27.2 11 24.9 1.4 45.5-18.4 45.5-43.7 0-7.2-1.8-14.2-5.6-21.5-1.9-3.8-9.9-12.2-15.9-16.6-2.2-1.7-4.2-3.3-4.5-3.6-.3-.4-4.5-3.2-9.4-6.4-28.5-18.3-61.7-29.8-101.1-34.9-2.2-.3-6.9-.8-10.5-1.1-3.6-.3-7.6-.8-9-1-7.3-1.1-31.7-2.2-37.5-1.8z"/></svg>