<svg version="1.1" viewBox="0 0 256 256" xmlns="http://www.w3.org/2000/svg">
  <path d="m233.2 99.084c-10.389-9.1595-24.891-13.636-38.601-14.893-5.6975-0.538-11.586-1.345-17.332-0.94151-18.588 1.3719-40.371 10.881-51.861 25.996-9.0143 11.85-10.502 27.172-10.502 41.538 0 11.702 1.2778 25.683 8.9255 35.151 10.792 13.369 29.726 15.528 45.559 16.573 21.409 1.4123 39.75-1.076 57.245-13.866 1.8534-1.3584 4.651-3.1473 5.914-4.8824" fill="none" stroke="#8c3f3f" stroke-linecap="round" stroke-linejoin="round" stroke-width="32"/>
  <path d="m93.588 16.043c-6.529 15.626-13.507 31.216-18.201 47.515-12.431 43.158-23.947 86.54-37.386 129.91-3.9242 12.661-7.8238 34.431-13.234 46.489" fill="none" stroke="#8c3f3f" stroke-linecap="round" stroke-linejoin="round" stroke-width="31.67"/>
</svg>
