<svg version="1.1" viewBox="0 0 256 256" xmlns="http://www.w3.org/2000/svg">
  <rect width="256" height="256" rx="32" fill="#8c3f3f" style="paint-order:markers fill stroke"/>
  <path d="m217.75 103.07c-8.9573-7.8973-21.461-11.757-33.281-12.841-4.9124-0.46387-9.9894-1.1597-14.943-0.81177-16.027 1.1829-34.807 9.3817-44.715 22.414-7.7721 10.217-9.0547 23.428-9.0547 35.814 0 10.089 1.1017 22.144 7.6956 30.307 9.3052 11.527 25.63 13.388 39.281 14.289 18.459 1.2176 34.273-0.92774 49.356-11.955 1.598-1.1712 4.0101-2.7136 5.0991-4.2096" fill="none" stroke="#fff" stroke-linecap="round" stroke-linejoin="round" stroke-width="27.59"/>
  <path d="m97.378 31.471c-5.6293 13.473-11.646 26.915-15.693 40.967-10.718 37.211-20.647 74.614-32.234 112.01-3.3834 10.916-6.7457 29.687-11.411 40.082" fill="none" stroke="#fff" stroke-linecap="round" stroke-linejoin="round" stroke-width="27.306"/>
</svg>
