<svg version="1.1" viewBox="0 0 256 256" xmlns="http://www.w3.org/2000/svg">
  <rect width="256" height="256" fill="#8c3f3f" style="paint-order:markers fill stroke"/>
  <path d="m217.75 103.07c-8.9573-7.8973-21.461-11.757-33.281-12.841-4.9124-0.46387-9.9894-1.1597-14.943-0.81177-16.027 1.1829-34.807 9.3817-44.715 22.414-7.7721 10.217-9.0547 23.428-9.0547 35.814 0 10.089 1.1017 22.144 7.6956 30.307 9.3052 11.527 25.63 13.388 39.281 14.289 18.459 1.2176 34.273-0.92774 49.356-11.955 1.598-1.1712 4.0101-2.7136 5.0991-4.2096" fill="none" stroke="#fff" stroke-linecap="round" stroke-linejoin="round" stroke-width="27.59"/>
  <path d="m95.798 38.359c-5.2276 12.512-10.815 24.995-14.573 38.044-9.9533 34.556-19.174 69.29-29.934 104.02-3.142 10.137-6.2644 27.569-10.597 37.222" fill="none" stroke="#fff" stroke-linecap="round" stroke-linejoin="round" stroke-width="26.534"/>
</svg>
