<?xml version="1.0" encoding="UTF-8" standalone="no"?>
<!-- Created with Inkscape (http://www.inkscape.org/) -->

<svg
   xmlns:dc="http://purl.org/dc/elements/1.1/"
   xmlns:cc="http://creativecommons.org/ns#"
   xmlns:rdf="http://www.w3.org/1999/02/22-rdf-syntax-ns#"
   xmlns:svg="http://www.w3.org/2000/svg"
   xmlns="http://www.w3.org/2000/svg"
   xmlns:sodipodi="http://sodipodi.sourceforge.net/DTD/sodipodi-0.dtd"
   xmlns:inkscape="http://www.inkscape.org/namespaces/inkscape"
   width="256"
   height="256"
   viewBox="0 0 256 256"
   version="1.1"
   id="svg8"
   inkscape:version="0.92.2 5c3e80d, 2017-08-06"
   sodipodi:docname="media-pause-icon.svg">
  <defs
     id="defs2" />
  <sodipodi:namedview
     id="base"
     pagecolor="#ffffff"
     bordercolor="#666666"
     borderopacity="1.0"
     inkscape:pageopacity="0.0"
     inkscape:pageshadow="2"
     inkscape:zoom="1.4"
     inkscape:cx="223.4726"
     inkscape:cy="7.090698"
     inkscape:document-units="px"
     inkscape:current-layer="svg8"
     showgrid="true"
     units="px"
     inkscape:snap-global="false"
     inkscape:window-width="1920"
     inkscape:window-height="1016"
     inkscape:window-x="0"
     inkscape:window-y="27"
     inkscape:window-maximized="1"
     showborder="false"
     inkscape:showpageshadow="false" />
  <metadata
     id="metadata5">
    <rdf:RDF>
      <cc:Work
         rdf:about="">
        <dc:format>image/svg+xml</dc:format>
        <dc:type
           rdf:resource="http://purl.org/dc/dcmitype/StillImage" />
        <dc:title></dc:title>
      </cc:Work>
    </rdf:RDF>
  </metadata>
  <path
     style="stroke:none"
     d="M 41.201172,0 C 36.119498,-1.8115063e-5 31.999982,4.1194975 32,9.2011719 V 246.79883 c -1.7e-5,5.08167 4.119498,9.20119 9.201172,9.20117 h 45.597656 c 5.081674,2e-5 9.201189,-4.1195 9.201172,-9.20117 V 9.2011719 C 96.000018,4.1194975 91.880502,-1.8115063e-5 86.798828,0 Z M 169.20117,0 C 164.1195,-1.7010485e-5 159.99998,4.1194982 160,9.2011719 V 246.79883 c -2e-5,5.08167 4.1195,9.20119 9.20117,9.20117 h 45.59766 c 5.08167,2e-5 9.20119,-4.1195 9.20117,-9.20117 V 9.2011719 C 224.00002,4.1194982 219.8805,-1.7010485e-5 214.79883,0 Z"
     id="rect4828"
     inkscape:connector-curvature="0"
     class="pause-icon" />
</svg>
