<?xml version="1.0" encoding="UTF-8" standalone="no"?>
<!-- Created with Inkscape (http://www.inkscape.org/) -->

<svg
   xmlns:dc="http://purl.org/dc/elements/1.1/"
   xmlns:cc="http://creativecommons.org/ns#"
   xmlns:rdf="http://www.w3.org/1999/02/22-rdf-syntax-ns#"
   xmlns:svg="http://www.w3.org/2000/svg"
   xmlns="http://www.w3.org/2000/svg"
   xmlns:sodipodi="http://sodipodi.sourceforge.net/DTD/sodipodi-0.dtd"
   xmlns:inkscape="http://www.inkscape.org/namespaces/inkscape"
   width="436"
   height="76"
   viewBox="0 0 436 76"
   version="1.1"
   id="logo-christopheraue"
   sodipodi:docname="logo_christopheraue.svg"
   inkscape:version="0.92.2 5c3e80d, 2017-08-06"
   role="img"
   aria-labelledby="logo-christopheraue-title">
  <title
     id="logo-christopheraue-title">Christopher Aue</title>
  <desc
     id="logo-christopheraue-desc">A row of 11 squares with the letters C, H, R, I, S, T, O, P, H, E, R punched into them and below a row of 3 squares with the letters A, U, E punched into them</desc>
  <defs
     id="defs852" />
  <sodipodi:namedview
     id="base"
     pagecolor="#ffffff"
     bordercolor="#666666"
     borderopacity="1.0"
     inkscape:pageopacity="0"
     inkscape:pageshadow="2"
     inkscape:zoom="1.0000001"
     inkscape:cx="101.2474"
     inkscape:cy="-128.52554"
     inkscape:document-units="px"
     inkscape:current-layer="logo-christopheraue"
     showgrid="true"
     fit-margin-top="0"
     fit-margin-left="0"
     fit-margin-right="0"
     fit-margin-bottom="0"
     inkscape:window-width="1920"
     inkscape:window-height="1016"
     inkscape:window-x="0"
     inkscape:window-y="27"
     inkscape:window-maximized="1"
     units="px"
     viewbox-y="0.37"
     viewbox-height="3"
     inkscape:snap-others="false"
     inkscape:snap-nodes="false"
     inkscape:snap-bbox="true"
     inkscape:bbox-paths="false"
     inkscape:bbox-nodes="true"
     inkscape:snap-bbox-edge-midpoints="false"
     inkscape:snap-global="false">
    <inkscape:grid
       type="xygrid"
       id="grid10679"
       spacingx="50.000003"
       spacingy="50.000003"
       empspacing="2"
       originx="0"
       originy="-24" />
  </sodipodi:namedview>
  <metadata
     id="metadata855">
    <rdf:RDF>
      <cc:Work
         rdf:about="">
        <dc:format>image/svg+xml</dc:format>
        <dc:type
           rdf:resource="http://purl.org/dc/dcmitype/StillImage" />
        <dc:title>Christopher Aue</dc:title>
      </cc:Work>
    </rdf:RDF>
  </metadata>
  <path
     inkscape:connector-curvature="0"
     d="m 400,0 v 36 h 36 V 0 Z m 15.82004,8.50785 c 2.80804,2e-4 4.97457,0.47758 6.4687,1.47659 1.49397,0.999 2.24995,2.60482 2.24995,4.71082 0,1.31391 -0.31106,2.34519 -0.91404,3.16419 -0.60321,0.81894 -1.46767,1.50077 -2.60153,1.9688 0.37796,0.46805 0.78146,0.94397 1.19524,1.54679 0.41394,0.60291 0.79023,1.24165 1.19524,1.8986 0.40516,0.65673 0.81728,1.32782 1.19524,2.039 0.37795,0.71086 0.73066,1.42519 1.05464,2.10921 h -4.71096 c -0.34167,-0.61198 -0.70359,-1.19796 -1.05464,-1.82801 -0.35112,-0.62997 -0.68545,-1.23409 -1.05464,-1.8282 -0.36888,-0.59399 -0.76528,-1.15639 -1.12493,-1.68741 -0.35982,-0.53095 -0.69438,-1.04496 -1.05464,-1.47674 h -2.10943 v 6.8204 h -4.21871 V 9.0001 c 0.91842,-0.17991 1.90201,-0.27954 2.88283,-0.3515 0.98086,-0.0726 1.82755,-0.13908 2.60156,-0.14211 z m -0.56255,3.586 c -0.24302,0.0212 -0.48741,0.0514 -0.70314,0.0695 v 5.0626 h 1.19524 c 1.58426,1.9e-4 2.69113,-0.166 3.37504,-0.56255 0.68379,-0.39534 1.05449,-1.08457 1.05464,-2.0388 -4e-5,-0.91797 -0.3617,-1.58179 -1.05464,-1.96878 -0.69301,-0.38702 -1.67324,-0.56255 -3.02351,-0.56255 -0.30576,0 -0.60064,-0.0212 -0.84359,0 z M 360,0 v 36 h 36 V 0 Z m 11.39033,8.64866 h 12.58594 v 3.51539 h -8.36716 v 3.65619 h 7.45308 v 3.4454 h -7.45308 v 4.5 h 8.99997 v 3.58579 H 371.39033 Z M 320,0 v 36 h 36 V 0 Z m 10.26533,8.64866 h 4.21882 v 7.1014 h 7.03121 v -7.1014 h 4.21874 v 18.70277 h -4.21874 v -7.94519 h -7.03121 v 7.94519 h -4.21882 z M 280,0 v 36 h 36 V 0 Z m 16.45292,8.50785 c 2.78997,2e-4 4.97454,0.49588 6.46873,1.47659 1.49428,0.98086 2.24996,2.54881 2.24996,4.78121 0,2.24999 -0.80822,3.92299 -2.32025,4.92179 -1.51204,0.999 -3.6607,1.47673 -6.46874,1.47658 h -1.33599 v 6.25781 h -4.21871 V 9.00004 c 0.91843,-0.17991 1.9273,-0.27954 2.95314,-0.3515 1.02591,-0.0726 1.89781,-0.13909 2.67186,-0.13909 z m -0.63285,3.586 c -0.29707,0.0197 -0.55755,0.0514 -0.77344,0.0695 v 5.4142 h 1.33599 c 1.45784,0 2.5666,-0.166 3.30463,-0.56255 0.73806,-0.39594 1.12494,-1.16999 1.12509,-2.24999 -4e-5,-0.52188 -0.0922,-0.92342 -0.2812,-1.26569 -0.18935,-0.34228 -0.49285,-0.63708 -0.84359,-0.84374 -0.35112,-0.20682 -0.76165,-0.34092 -1.26569,-0.4218 -0.50404,-0.0816 -1.0755,-0.13909 -1.68752,-0.13909 -0.30576,0 -0.61697,-0.0197 -0.91404,0 z M 240,0 v 36 h 36 V 0 Z m 17.99978,8.22644 c 1.27838,2e-4 2.45189,0.21876 3.58594,0.633 1.13416,0.41408 2.1775,1.00052 3.02347,1.82801 0.84586,0.82771 1.48278,1.87878 1.96872,3.09378 0.48589,1.21489 0.70299,2.61639 0.70314,4.2188 -4e-5,1.60179 -0.22602,3.0038 -0.70314,4.2188 -0.47683,1.21489 -1.14066,2.20479 -1.96872,3.02359 -0.82817,0.81834 -1.81002,1.48399 -2.95317,1.8982 -1.14308,0.41409 -2.34225,0.56255 -3.65624,0.56255 -1.2778,0 -2.45187,-0.14816 -3.58595,-0.56255 -1.13401,-0.41424 -2.17747,-1.07973 -3.0234,-1.8982 -0.84586,-0.8188 -1.48263,-1.80861 -1.96876,-3.02359 -0.48619,-1.21489 -0.70299,-2.61701 -0.70299,-4.2188 0,-1.60241 0.19881,-3.0038 0.70299,-4.2188 0.50404,-1.21489 1.18405,-2.26599 2.03906,-3.09378 0.85508,-0.82757 1.89842,-1.41385 3.02343,-1.82801 1.12509,-0.41424 2.27362,-0.63285 3.51562,-0.633 z m 0,3.65641 c -0.7916,2e-4 -1.49701,0.19608 -2.10937,0.49225 -0.61228,0.29691 -1.12403,0.66444 -1.54688,1.19523 -0.42301,0.53095 -0.75954,1.2217 -0.98449,1.9688 -0.22451,0.74729 -0.3515,1.5608 -0.3515,2.46101 0,0.91797 0.12699,1.72299 0.3515,2.461 0.22488,0.73806 0.56133,1.36743 0.98449,1.89839 0.42285,0.53095 0.9346,0.97769 1.54688,1.26569 0.61229,0.28815 1.31785,0.4218 2.10937,0.4218 0.77404,0 1.48838,-0.13455 2.10939,-0.4218 0.62105,-0.288 1.12388,-0.73459 1.54685,-1.26569 0.42285,-0.53094 0.75923,-1.16046 0.98449,-1.89839 0.22526,-0.73807 0.35149,-1.543 0.35149,-2.461 0,-0.91843 -0.12699,-1.78441 -0.35149,-2.5312 -0.22526,-0.74683 -0.56134,-1.36728 -0.98449,-1.89861 -0.42286,-0.53095 -0.92584,-0.90739 -1.54685,-1.19523 -0.62105,-0.2877 -1.33538,-0.4921 -2.10939,-0.49225 z M 200,0 v 36 h 36 V 0 Z m 10.26547,8.64866 h 15.4687 v 3.58578 h -5.625 v 15.11699 h -4.21871 V 12.23444 h -5.62499 z M 160,0 v 36 h 36 V 0 Z m 18.42173,8.22644 c 1.26025,2e-4 2.31617,0.15194 3.23439,0.4221 0.91812,0.27016 1.65614,0.52022 2.24998,0.84359 l -1.19524,3.30459 c -0.52188,-0.27016 -1.11904,-0.49617 -1.75781,-0.70299 -0.63889,-0.20681 -1.42005,-0.28135 -2.32033,-0.28135 -1.00807,0 -1.66855,0.14363 -2.10937,0.42195 -0.44084,0.27878 -0.70299,0.68939 -0.70299,1.26569 0,0.34227 0.11943,0.60986 0.2812,0.84374 0.16176,0.23403 0.33562,0.44372 0.63284,0.63269 0.29707,0.18989 0.66762,0.4097 1.05464,0.56255 0.38702,0.1539 0.79763,0.25973 1.26569,0.42194 0.97164,0.35982 1.81109,0.77375 2.53122,1.12509 0.72023,0.35105 1.35126,0.72719 1.82815,1.19524 0.47682,0.46806 0.82061,0.98721 1.05464,1.61741 0.23402,0.62997 0.35164,1.42035 0.35164,2.32019 0,1.74619 -0.60427,3.11499 -1.82812,4.07799 -1.22382,0.96288 -3.08882,1.40644 -5.5547,1.40644 -0.82832,0 -1.58394,-0.0423 -2.25,-0.13908 -0.6661,-0.0998 -1.24498,-0.20788 -1.75781,-0.35165 -0.51281,-0.14362 -0.96681,-0.25973 -1.33584,-0.42195 -0.36918,-0.16191 -0.66187,-0.34817 -0.91404,-0.49224 l 1.19524,-3.37502 c 0.55801,0.30599 1.22003,0.6008 2.03907,0.84375 0.81895,0.24294 1.83526,0.35179 3.02342,0.35179 0.59384,0 1.08957,-0.0423 1.47644,-0.14211 0.38702,-0.0983 0.68001,-0.25081 0.91404,-0.42164 0.23403,-0.16993 0.40199,-0.32867 0.49225,-0.56239 0.0907,-0.23449 0.14059,-0.4853 0.14059,-0.7736 -10e-6,-0.61198 -0.26759,-1.14217 -0.84389,-1.54699 -0.57615,-0.40456 -1.54964,-0.86793 -2.95313,-1.33584 -0.61258,-0.21649 -1.28655,-0.42421 -1.89844,-0.70314 -0.61198,-0.27847 -1.13144,-0.63163 -1.61717,-1.05464 -0.48589,-0.423 -0.88939,-0.94382 -1.19523,-1.547 -0.30599,-0.60322 -0.4218,-1.31558 -0.4218,-2.17979 0,-0.864 0.16827,-1.6976 0.49225,-2.3904 0.32368,-0.69287 0.74184,-1.27189 1.33583,-1.7578 0.59414,-0.4859 1.33372,-0.86385 2.17967,-1.12509 0.84601,-0.26124 1.82098,-0.35165 2.88281,-0.3518 z M 120,0 v 36 h 36 V 0 Z m 15.89051,8.64866 h 4.21874 v 18.70277 h -4.21874 z M 120,40 v 36 h 36 V 40 Z m 11.39052,8.64863 h 12.58591 v 3.5154 h -8.36718 v 3.65619 h 7.45313 v 3.44539 h -7.45313 v 4.49999 h 9 v 3.58579 H 131.39052 Z M 80,0 v 36 h 36 V 0 Z m 15.82023,8.50785 c 2.80809,2e-4 4.9746,0.47758 6.46875,1.47659 1.49413,0.999 2.24999,2.60482 2.25,4.71082 -10e-6,1.31391 -0.31083,2.34519 -0.91404,3.16419 -0.60321,0.81894 -1.46782,1.50077 -2.60155,1.9688 0.37795,0.46805 0.78145,0.94397 1.19523,1.54679 0.41394,0.60291 0.79023,1.24165 1.19524,1.8986 0.40502,0.65673 0.81729,1.32782 1.19524,2.039 0.37795,0.71086 0.73066,1.42519 1.05464,2.10921 h -4.71092 c -0.34182,-0.61198 -0.7036,-1.19796 -1.054641,-1.82801 -0.35105,-0.62997 -0.68546,-1.23409 -1.05464,-1.8282 -0.36919,-0.59399 -0.76528,-1.15639 -1.12509,-1.68741 -0.35981,-0.53095 -0.69438,-1.04496 -1.05464,-1.47674 h -2.109372 v 6.8204 H 90.33579 V 9.0001 C 91.254215,8.82019 92.237784,8.72056 93.218602,8.6486 94.199465,8.576 95.04617,8.50952 95.82016,8.50952 Z m -0.562392,3.586 c -0.243099,0.0197 -0.487257,0.0514 -0.703143,0.0695 v 5.0624 h 1.195235 c 1.58423,2e-4 2.69109,-0.166 3.37502,-0.56239 0.68379,-0.39564 1.05463,-1.08473 1.05463,-2.039 -1e-5,-0.91797 -0.36177,-1.58179 -1.05463,-1.9688 -0.69287,-0.38702 -1.67325,-0.56239 -3.02346,-0.56239 -0.30599,0 -0.600794,-0.0197 -0.843743,0 z M 80,40 v 36 h 36 V 40 Z m 10.335864,8.43761 h 4.218739 v 11.25 c 0,0.75561 0.110362,1.43759 0.281198,1.96859 0.170835,0.53095 0.405921,0.93234 0.702991,1.26569 0.297067,0.33336 0.631788,0.55907 1.054637,0.70315 0.423011,0.14362 0.902551,0.21104 1.40629,0.21104 1.026071,0 1.82206,-0.28406 2.460941,-0.91419 0.63889,-0.62997 1.28096,-1.75179 0.98449,-3.2342 V 48.4377 h 4.21873 v 11.6014 c -2e-5,1.09833 -0.18611,2.1056 -0.49225,3.0236 -0.30599,0.91782 -0.77616,1.7336 -1.40629,2.39058 -0.63012,0.65704 -1.41868,1.18678 -2.39061,1.5468 -0.97209,0.36011 -2.113781,0.49209 -3.445311,0.4924 -1.31391,-4e-4 -2.420848,-0.19397 -3.375012,-0.56255 -0.954104,-0.36918 -1.769621,-0.81955 -2.390627,-1.47659 -0.621052,-0.65703 -1.109367,-1.48187 -1.406287,-2.39058 -0.296919,-0.90875 -0.212863,-1.94561 -0.421795,-3.0236 z M 40,0 V 36 H 76 V 0 Z m 10.265585,8.64866 h 4.218739 v 7.1014 h 7.031251 v -7.1014 h 4.218739 v 18.70277 h -4.218739 v -7.94519 h -7.031251 v 7.94519 H 50.265585 Z M 40,40 V 76 H 76 V 40 Z m 15.960894,8.64863 h 4.078111 c 0.611981,1.29577 1.163792,2.57839 1.757813,3.93737 0.594141,1.35897 1.225171,2.77702 1.828127,4.28901 0.60291,1.51205 1.197959,3.14139 1.828127,4.8514 0.630123,1.71019 1.337046,3.60919 2.039055,5.62498 h -4.570295 c -0.198501,-0.64796 -0.390047,-1.35473 -0.632844,-2.0388 -0.242797,-0.68394 -0.469266,-1.35518 -0.702992,-2.03897 h -7.312494 c -0.234029,0.68379 -0.460347,1.35488 -0.703144,2.03897 -0.242797,0.68395 -0.434494,1.39087 -0.632844,2.0388 h -4.429681 c 0.701934,-2.01579 1.40931,-3.91479 2.039055,-5.62498 0.62982,-1.71001 1.22502,-3.33941 1.828127,-4.8514 0.603212,-1.51205 1.172863,-2.92999 1.757813,-4.28901 0.584919,-1.35896 1.197959,-2.64158 1.828127,-3.93737 z m 1.968741,4.21878 c -0.09071,0.27016 -0.242041,0.65658 -0.421795,1.12509 -0.179754,0.46791 -0.398816,1.00505 -0.632844,1.617 -0.234029,0.61199 -0.494362,1.23077 -0.773443,1.96881 -0.27908,0.73806 -0.555893,1.50999 -0.843741,2.32038 h 5.343738 c -0.287849,-0.81033 -0.573733,-1.58238 -0.843742,-2.32038 -0.27001,-0.73807 -0.530343,-1.3567 -0.773443,-1.96881 -0.243099,-0.61198 -0.452787,-1.14927 -0.632844,-1.617 -0.179905,-0.46851 -0.313549,-0.85478 -0.421795,-1.12509 z M 0,0 V 36 H 36 V 0 Z m 19.757797,8.22644 c 0.792038,2e-4 1.531752,0.0242 2.179684,0.13909 0.647962,0.11792 1.201285,0.26865 1.687499,0.4218 0.486198,0.15405 0.871559,0.33048 1.195238,0.49224 0.323829,0.16192 0.558614,0.2617 0.702992,0.35165 l -1.195238,3.4454 c -0.576151,-0.30599 -1.274154,-0.6277 -2.03907,-0.84374 -0.764977,-0.21619 -1.629823,-0.2812 -2.601555,-0.2812 -0.648265,0 -1.27748,0.0665 -1.898442,0.2812 -0.621052,0.21619 -1.140208,0.57766 -1.617184,1.05464 -0.477127,0.47728 -0.90754,1.07233 -1.195237,1.8282 -0.28785,0.75591 -0.421795,1.7326 -0.421795,2.8126 -1.5e-5,0.864 0.09222,1.64339 0.281197,2.3904 0.188825,0.74729 0.491187,1.35852 0.914041,1.8986 0.422852,0.54002 1.00369,1.02077 1.687482,1.33599 0.683793,0.31491 1.488529,0.42179 2.460942,0.42149 0.611981,1.9e-4 1.201588,0.002 1.687499,-0.0695 0.485896,-0.0726 0.887433,-0.18202 1.265688,-0.28119 0.378255,-0.0998 0.696492,-0.22541 0.98434,-0.3515 0.287697,-0.12548 0.539415,-0.244 0.773443,-0.3518 l 1.195238,3.37499 c -0.59384,0.35981 -1.451339,0.69618 -2.531256,0.98449 -1.079886,0.28815 -2.304393,0.42194 -3.726554,0.42194 -3.042126,0 -5.367926,-0.8392 -6.960952,-2.53139 -1.59301,-1.69218 -2.390612,-4.05818 -2.390612,-7.17179 0,-1.54838 0.217096,-2.93361 0.703144,-4.14859 0.486198,-1.21474 1.193121,-2.25641 2.039055,-3.0936 0.846009,-0.83694 1.853389,-1.46631 3.02344,-1.8984 1.169991,-0.43192 2.429073,-0.63284 3.796868,-0.63299 z"
     id="logo-christopheraue-path"
     sodipodi:nodetypes="cccccccscccccccccccccccccccccccccscccccccccccccccccccccccccccccccccccccccccccccsccccccccccccscccccscccccccccccccccscccsccccccccscccscccsccccccccccccccccccccccccccccscscccccccscsccccccscccccccccsccccccccccccccccccccccccccccccccccccccccccccccccccccccccccccccccccscccccccccscccsccccccccccccccccccccccccccccccccccccccccccccccccccccccccccccccccccccccccccccccsccccccccccccccscsccccc"
     style="stroke-width:0" />
</svg>
