<?xml version="1.0" encoding="UTF-8" standalone="no"?>
<!-- Created with Inkscape (http://www.inkscape.org/) -->

<svg
   xmlns:dc="http://purl.org/dc/elements/1.1/"
   xmlns:cc="http://creativecommons.org/ns#"
   xmlns:rdf="http://www.w3.org/1999/02/22-rdf-syntax-ns#"
   xmlns:svg="http://www.w3.org/2000/svg"
   xmlns="http://www.w3.org/2000/svg"
   xmlns:sodipodi="http://sodipodi.sourceforge.net/DTD/sodipodi-0.dtd"
   xmlns:inkscape="http://www.inkscape.org/namespaces/inkscape"
   width="283.12299"
   height="85"
   viewBox="0 0 283.123 85"
   version="1.1"
   id="slash-design"
   class="slash-text"
   sodipodi:docname="category_design.svg"
   inkscape:version="0.92.2 5c3e80d, 2017-08-06"
   role="img"
   aria-labelledby="slash-design-title">
  <title
     id="slash-design-title">/design</title>
  <desc
     id="slash-design-desc">The text &quot;/design&quot; written with a monospaced font</desc>
  <defs
     id="defs852" />
  <sodipodi:namedview
     id="base"
     pagecolor="#ffffff"
     bordercolor="#666666"
     borderopacity="1.0"
     inkscape:pageopacity="0"
     inkscape:pageshadow="2"
     inkscape:zoom="1.0000001"
     inkscape:cx="488.74736"
     inkscape:cy="-170.51153"
     inkscape:document-units="px"
     inkscape:current-layer="slash-design"
     showgrid="true"
     fit-margin-top="0"
     fit-margin-left="0"
     fit-margin-right="0"
     fit-margin-bottom="0"
     inkscape:window-width="1920"
     inkscape:window-height="1016"
     inkscape:window-x="0"
     inkscape:window-y="27"
     inkscape:window-maximized="1"
     units="px"
     viewbox-y="0.37"
     viewbox-height="3"
     inkscape:snap-others="false"
     inkscape:snap-nodes="false"
     inkscape:snap-bbox="true"
     inkscape:bbox-paths="false"
     inkscape:bbox-nodes="true"
     inkscape:snap-bbox-edge-midpoints="false"
     inkscape:snap-global="false">
    <inkscape:grid
       type="xygrid"
       id="grid10679"
       spacingx="50.000003"
       spacingy="50.000003"
       empspacing="2" />
  </sodipodi:namedview>
  <metadata
     id="metadata855">
    <rdf:RDF>
      <cc:Work
         rdf:about="">
        <dc:format>image/svg+xml</dc:format>
        <dc:type
           rdf:resource="http://purl.org/dc/dcmitype/StillImage" />
        <dc:title></dc:title>
      </cc:Work>
    </rdf:RDF>
  </metadata>
  <path
     inkscape:connector-curvature="0"
     d="m 249.1398,63.57922 h 5.22815 l 4.33388,-21.60059 c 4.60905,-5.09058 9.21808,-8.11741 13.68954,-8.11741 3.43959,0 5.29697,1.85737 5.29697,5.15937 0,1.51342 -0.20639,2.95804 -0.61913,4.67784 l -3.98992,19.88079 h 5.29696 l 4.1275,-20.43113 c 0.34396,-1.85737 0.61913,-3.57717 0.61913,-5.50333 0,-5.0218 -2.68289,-8.32379 -8.59896,-8.32379 -5.98488,0 -11.00667,3.64595 -14.99659,7.63587 h -0.27516 l 0.82549,-6.81037 h -4.26508 z M 219.24228,78.507 c 8.39257,0 15.34053,-3.85233 17.1979,-13.20799 l 7.01676,-35.15255 h -4.19629 l -1.37584,4.1963 h -0.27517 c -1.85737,-3.02684 -5.50333,-5.02179 -10.24995,-5.02179 -9.97479,0 -18.16101,9.69961 -18.16101,21.46299 0,7.97983 4.54026,12.52008 11.62579,12.52008 4.26509,0 8.66775,-2.20133 11.90096,-5.36574 h 0.27517 l -1.51342,7.08553 c -1.44462,6.46643 -6.26004,9.1493 -12.17612,9.1493 -3.71475,0 -7.63588,-1.23825 -10.31875,-3.57717 l -2.4765,3.78354 c 3.02683,2.40771 7.22313,4.1275 12.72647,4.1275 z m 3.16441,-19.60563 c -4.88421,0 -7.77346,-2.88924 -7.77346,-8.94291 0,-8.66775 6.12245,-16.23483 13.34558,-16.23483 3.302,0 6.26005,1.51341 8.59896,5.02179 l -3.02683,14.23988 c -3.50838,3.78354 -7.49829,5.91607 -11.14425,5.91607 z m -34.36896,5.50334 c 3.64596,0 6.32883,-0.89429 9.14929,-2.20133 l -1.23825,-3.98992 c -2.40771,1.10067 -4.33387,1.78858 -6.39763,1.78858 -3.02684,0 -5.15937,-1.44462 -5.15937,-4.953 0,-0.68791 0.13755,-1.37583 0.27516,-2.20132 l 5.0218,-22.70126 h -17.47309 l -0.89429,4.26509 h 12.24492 l -3.98992,17.95462 c -0.34395,1.30704 -0.55034,2.54529 -0.55034,3.64596 0,5.50334 3.71475,8.39258 9.01172,8.39258 z m -0.34397,-41.3438 c 2.6141,0 4.81542,-2.06374 4.81542,-4.74661 0,-2.33892 -1.58219,-3.64596 -3.98991,-3.64596 -2.54528,0 -4.74662,2.13253 -4.74662,4.74663 0,2.3389 1.71979,3.64594 3.92111,3.64594 z m -46.20112,41.3438 c 7.84225,0 14.1023,-2.88924 14.1023,-10.11237 0,-5.43455 -4.33388,-7.63587 -10.59392,-9.76842 -5.36576,-1.85738 -8.255,-3.23321 -8.255,-6.32883 0,-2.95805 2.61408,-4.74663 6.94796,-4.74663 4.953,0 8.80533,2.20134 11.557,4.54026 l 2.95803,-3.23322 c -2.82045,-2.82045 -7.56708,-5.43453 -13.9647,-5.43453 -6.81037,0 -12.52008,3.09562 -12.52008,9.49324 0,4.60904 3.09563,7.4295 10.04358,9.76842 5.57213,1.85738 8.80533,3.16442 8.80533,6.39762 0,3.71475 -3.43957,5.29697 -8.11741,5.29697 -4.81542,0 -9.42446,-1.65101 -12.72647,-5.36576 l -3.02682,3.37079 c 3.23321,3.71475 9.0117,6.12246 14.7902,6.12246 z m -41.24813,0 c 5.84729,0 11.07546,-2.27012 14.44625,-4.953 l -1.99496,-3.57717 c -3.09562,2.4765 -7.01674,4.33387 -11.41942,4.33387 -6.05366,0 -10.04358,-3.78354 -10.04358,-10.52512 0,-0.55032 0,-1.03187 0.0688,-1.51341 h 25.59051 c 0.34395,-0.89429 0.89428,-3.64596 0.89428,-5.98488 0,-7.4295 -4.54024,-12.86403 -12.72645,-12.86403 -10.11238,0 -19.05529,8.59894 -19.05529,20.63749 0,9.35567 5.57212,14.44625 14.23987,14.44625 z m 4.54025,-30.88746 c 4.953,0 8.04862,3.23322 8.04862,8.46138 0,0.68791 -0.0688,1.37583 -0.20637,2.06374 H 92.1271 c 2.06374,-6.46641 7.56708,-10.52512 12.65766,-10.52512 z M 55.41922,64.40471 c 4.33388,0 8.80533,-2.33892 12.31371,-5.91608 h 0.27516 l -0.55033,5.09058 h 4.33387 l 9.906,-48.97966 h -5.29695 l -2.61409,13.07041 -1.10066,6.5352 h -0.20638 c -1.92617,-2.95803 -5.36574,-4.88419 -10.11237,-4.88419 -10.18117,0 -18.36738,10.31874 -18.36738,22.2885 0,8.32379 4.54026,12.79524 11.41942,12.79524 z m 1.65099,-4.40267 c -4.67783,0 -7.63587,-2.95804 -7.63587,-9.21808 0,-8.94291 5.98488,-17.06033 13.62075,-17.06033 3.16442,0 6.26004,1.44462 8.53017,4.953 l -3.02684,14.859 c -3.64596,4.19628 -7.84225,6.46641 -11.48821,6.46641 z M 0,74.58588 H 4.953 L 39.41762,14.73713 h -4.95299 z"
     id="slash-design-path"
     style="stroke:none" />
</svg>
