<?xml version="1.0" encoding="UTF-8" standalone="no"?>
<!-- Created with Inkscape (http://www.inkscape.org/) -->

<svg
   xmlns:dc="http://purl.org/dc/elements/1.1/"
   xmlns:cc="http://creativecommons.org/ns#"
   xmlns:rdf="http://www.w3.org/1999/02/22-rdf-syntax-ns#"
   xmlns:svg="http://www.w3.org/2000/svg"
   xmlns="http://www.w3.org/2000/svg"
   xmlns:sodipodi="http://sodipodi.sourceforge.net/DTD/sodipodi-0.dtd"
   xmlns:inkscape="http://www.inkscape.org/namespaces/inkscape"
   width="281.36508"
   height="114.26214"
   viewBox="0 0 281.36511 114.26214"
   version="1.1"
   id="slash-design-annotation"
   class="slash-text-annotation"
   sodipodi:docname="category_annotation_design.svg"
   inkscape:version="0.92.2 5c3e80d, 2017-08-06"
   role="img"
   aria-labelledby="slash-design-annotation-title">
  <title
     id="category">Software &amp; Interfaces</title>
  <desc
     id="slash-design-annotation-desc">The text &quot;Software &amp; Interfaces&quot; with an arrow pointing upwards</desc>
  <defs
     id="defs852" />
  <sodipodi:namedview
     id="base"
     pagecolor="#ffffff"
     bordercolor="#666666"
     borderopacity="1.0"
     inkscape:pageopacity="0"
     inkscape:pageshadow="2"
     inkscape:zoom="0.70710685"
     inkscape:cx="414.60111"
     inkscape:cy="-125.46682"
     inkscape:document-units="px"
     inkscape:current-layer="slash-design-annotation"
     showgrid="true"
     fit-margin-top="0"
     fit-margin-left="0"
     fit-margin-right="0"
     fit-margin-bottom="0"
     inkscape:window-width="1920"
     inkscape:window-height="1016"
     inkscape:window-x="0"
     inkscape:window-y="27"
     inkscape:window-maximized="1"
     units="px"
     viewbox-y="0.37"
     viewbox-height="3"
     inkscape:snap-others="false"
     inkscape:snap-nodes="false"
     inkscape:snap-bbox="true"
     inkscape:bbox-paths="false"
     inkscape:bbox-nodes="true"
     inkscape:snap-bbox-edge-midpoints="false"
     inkscape:snap-global="false">
    <inkscape:grid
       type="xygrid"
       id="grid10679"
       spacingx="50.000003"
       spacingy="50.000003"
       empspacing="2"
       originx="-5.0000005e-06"
       originy="14.262127" />
  </sodipodi:namedview>
  <metadata
     id="metadata855">
    <rdf:RDF>
      <cc:Work
         rdf:about="">
        <dc:format>image/svg+xml</dc:format>
        <dc:type
           rdf:resource="http://purl.org/dc/dcmitype/StillImage" />
        <dc:title></dc:title>
      </cc:Work>
    </rdf:RDF>
  </metadata>
  <path
     inkscape:connector-curvature="0"
     d="m 90.24997,107.40342 q -0.27344,0.82031 -0.88867,1.82291 -0.59245,1.00261 -1.64063,1.89128 -1.02539,0.88867 -2.57487,1.48112 -1.52669,0.59245 -3.66862,0.59245 -1.57226,0 -2.98502,-0.41016 -1.38998,-0.41016 -2.62044,-1.13932 -1.98243,1.16211 -4.19271,1.89127 -2.1875,0.72917 -4.58008,0.72917 -2.27865,0 -3.91927,-0.61523 -1.64063,-0.63802 -2.71159,-1.66342 -1.04818,-1.02539 -1.54948,-2.32421 -0.5013,-1.29883 -0.5013,-2.64323 0,-2.05078 0.79752,-3.60026 0.79753,-1.54948 2.09636,-2.71159 1.29883,-1.184904 2.96224,-2.07357 1.6862,-0.91146 3.44075,-1.6862 -0.18229,-1.07096 -0.27343,-2.11914 -0.0684,-1.04818 -0.0684,-2.07357 0,-2.07356 0.54687,-3.71419 0.54688,-1.64062 1.50391,-2.77995 0.97982,-1.13932 2.30143,-1.73177 1.3444,-0.59245 2.89388,-0.59245 1.02539,0 1.77734,0.36459 0.77474,0.34179 1.27605,0.91146 0.5013,0.56966 0.75195,1.27604 0.25065,0.68359 0.25065,1.36718 0,1.82292 -0.75195,3.2129 -0.75196,1.38997 -1.98243,2.48372 -1.20768,1.07096 -2.75716,1.91406 -1.54948,0.8431 -3.14453,1.57227 0.36459,1.95963 0.97982,3.85091 0.61523,1.89128 1.45833,3.57747 0.86589,1.6862 1.93685,3.12175 1.09375,1.41276 2.43815,2.41536 1.45834,-1.04817 2.66602,-2.30143 1.20768,-1.25325 2.07357,-2.5293 0.86588,-1.29882 1.32161,-2.50651 0.47852,-1.20768 0.47852,-2.16471 0,-0.706384 -0.15951,-1.1849 -0.1595,-0.47851 -0.43294,-0.77474 -0.27344,-0.29622 -0.63802,-0.43294 -0.36459,-0.13672 -0.77474,-0.13672 -0.3418,0 -0.70638,0.13672 -0.36459,0.13672 -0.66081,0.41016 -0.27344,0.25065 -0.45573,0.6608 -0.18229,0.387366 -0.18229,0.93425 0,0.43294 0.22786,0.95703 0.25066,0.5013 0.88868,0.77474 l -0.38737,0.75195 q -0.45573,-0.20507 -0.75196,-0.47851 -0.29622,-0.29623 -0.47851,-0.63802 -0.18229,-0.3418 -0.27344,-0.6836 -0.0684,-0.36458 -0.0684,-0.68359 0,-0.75195 0.29622,-1.29883 0.31902,-0.56966 0.77474,-0.93424 0.47852,-0.38737 1.0254,-0.56966 0.54687,-0.1823 1.02539,-0.1823 1.36718,0 2.1875,0.8431 0.84309,0.8431 0.84309,2.41537 0,1.0026 -0.52408,2.27864 -0.50131,1.27604 -1.43555,2.64323 -0.93425,1.36719 -2.25586,2.73438 -1.32161,1.36718 -2.91667,2.52929 1.16211,0.72917 2.43815,1.13933 1.29883,0.41015 2.77995,0.41015 1.45834,0 2.57487,-0.5013 1.13933,-0.5013 1.95964,-1.25325 0.82031,-0.75196 1.3444,-1.61784 0.52409,-0.88867 0.75195,-1.64063 z m -21.98893,5.53711 q 1.8457,0 3.55469,-0.47852 1.70898,-0.47852 3.25846,-1.3444 -1.43555,-1.04818 -2.59766,-2.48372 -1.16211,-1.45834 -2.07356,-3.16732 -0.88868,-1.70899 -1.5267,-3.60026 -0.61523,-1.914074 -0.97982,-3.85091 -1.54947,0.75195 -2.82552,1.595046 -1.25325,0.820314 -2.14192,1.845704 -0.88868,1.0026 -1.36719,2.25586 -0.47852,1.25326 -0.47852,2.84831 0,1.6862 0.63802,2.89388 0.66081,1.18489 1.6862,1.98242 1.02539,0.77474 2.30143,1.13932 1.27605,0.36459 2.55209,0.36459 z m 1.23047,-21.69271 q 0,1.16211 0.0684,2.36979 0.0911,1.18489 0.29622,2.39258 1.52669,-0.6836 2.96224,-1.43555 1.43555,-0.77474 2.55208,-1.70898 1.11654,-0.95704 1.77735,-2.11914 0.68359,-1.1849 0.68359,-2.66602 0,-0.61524 -0.20508,-1.20768 -0.18229,-0.59245 -0.59245,-1.07097 -0.38737,-0.47851 -1.0026,-0.75195 -0.59245,-0.29622 -1.41276,-0.29622 -1.09375,0 -2.05078,0.5013 -0.93425,0.5013 -1.61784,1.38997 -0.68359,0.86589 -1.07096,2.05078 -0.38737,1.1849 -0.38737,2.55209 z m 200.15358,22.93105 q -2.44,0 -3.68,-1.04 -1.24,-1.04 -1.44,-3.24 v -0.08 q 0,-0.8 0.84,-0.8 0.8,0 0.84,0.84 0.16,1.44 0.92,2.04 0.8,0.6 2.52,0.6 h 6.56 q 1.96,0 2.72,-0.76 0.76,-0.76 0.76,-2.72 0,-1.96 -0.76,-2.72 -0.76,-0.76 -2.72,-0.76 h -6.48 q -2.52,0 -3.72,-1.16 -1.2,-1.2 -1.2,-3.72 0,-2.56 1.2,-3.72 1.2,-1.2 3.72,-1.2 h 6.28 q 2.28,0 3.48,1 1.2,0.96 1.36,2.999996 v 0.16 q 0,0.720004 -0.8,0.720004 -0.76,0 -0.88,-0.840004 -0.12,-1.319996 -0.84,-1.839996 -0.72,-0.52 -2.32,-0.52 h -6.28 q -1.84,0 -2.56,0.72 -0.68,0.68 -0.68,2.52 0,1.8 0.68,2.52 0.72,0.68 2.56,0.68 h 6.48 q 2.68,0 3.92,1.24 1.24,1.24 1.24,3.92 0,2.68 -1.24,3.92 -1.24,1.24 -3.92,1.24 z m -26.31187,-8.56 v 1.64 q 0,2.92 1.2,4.12 1.2,1.16 4.12,1.16 h 3.28 q 2.72,0 3.92,-0.72 1.2,-0.76 1.36,-2.56 0.08,-0.84 0.88,-0.84 0.4,0 0.6,0.24 0.24,0.24 0.2,0.64 -0.2,2.56 -1.92,3.76 -1.68,1.16 -5.04,1.16 h -3.28 q -3.64,0 -5.32,-1.64 -1.68,-1.68 -1.68,-5.32 v -4.48 q 0,-3.68 1.68,-5.36 1.68,-1.68 5.32,-1.64 h 3.28 q 3.68,0 5.32,1.68 1.68,1.64 1.68,5.32 v 2 q 0,0.84 -0.84,0.84 z m 0,-1.68 h 13.92 v -1.16 q 0,-2.960004 -1.2,-4.12 -1.16,-1.2 -4.12,-1.2 h -3.28 q -2.92,-0.04 -4.12,1.16 -1.2,1.199996 -1.2,4.16 z m -16.71125,10.28 q -3.64,0 -5.32,-1.68 -1.68,-1.68 -1.68,-5.32 v -4.48 q 0,-3.68 1.68,-5.32 1.68,-1.68 5.32,-1.64 h 3.28 q 2.96,0 4.44,1 1.48,1 1.72,3.119996 v 0.08 q 0,0.800004 -0.84,0.800004 -0.72,0 -0.84,-0.800004 -0.16,-1.359996 -1.2,-1.919996 -1.04,-0.6 -3.28,-0.6 h -3.28 q -2.96,-0.04 -4.16,1.16 -1.16,1.159996 -1.16,4.12 v 4.48 q 0,2.92 1.2,4.12 1.2,1.2 4.12,1.2 h 3.28 q 2.24,0 3.28,-0.56 1.04,-0.6 1.2,-1.96 0.12,-0.8 0.84,-0.8 0.44,0 0.64,0.24 0.24,0.24 0.2,0.64 -0.24,2.12 -1.72,3.12 -1.48,1 -4.44,1 z m -20.4125,-18.44 q 3.68,0 5.32,1.68 1.68,1.64 1.68,5.32 v 10.6 q 0,0.84 -0.84,0.84 -0.84,0 -0.84,-0.84 v -2.36 q -0.92,1.56 -2.72,2.4 -1.76,0.8 -4.36,0.8 h -2.24 q -3.04,0 -4.44,-1.36 -1.36,-1.4 -1.36,-4.44 0,-3.04 1.4,-4.44 1.4,-1.4 4.4,-1.4 h 9.32 q -0.04,-2.800004 -1.24,-3.96 -1.2,-1.16 -4.08,-1.16 h -2.32 q -2.72,0 -3.96,0.64 -1.24,0.6 -1.48,2.12 -0.12,0.8 -0.84,0.8 -0.44,0 -0.68,-0.24 -0.2,-0.24 -0.16,-0.64 0.16,-2.24 1.92,-3.28 1.76,-1.08 5.2,-1.08 z m 5.32,12.12 v -3.64 h -9.32 q -2.32,0 -3.24,0.92 -0.88,0.92 -0.88,3.24 0,2.32 0.88,3.24 0.92,0.88 3.24,0.88 h 2.24 q 6.48,0 7.04,-4.4 z m -19.15313,-12.12 q 0.84,0 0.84,0.84 0,0.84 -0.84,0.84 h -5.24 v 15.92 q 0,0.84 -0.84,0.84 -0.84,0 -0.84,-0.84 v -15.92 h -1.76 q -0.84,0 -0.84,-0.84 0,-0.84 0.84,-0.84 h 1.76 v -2.28 q 0,-3.6 1.64,-5.24 1.64,-1.64 5.24,-1.64 0.88,0 0.88,0.84 0,0.84 -0.88,0.84 -2.88,0 -4.04,1.16 -1.16,1.16 -1.16,4.04 v 2.28 z m -11.935,0 q 0.84,0 0.84,0.84 0,0.84 -0.84,0.84 -3.6,0 -5.64,1.72 -2,1.72 -2.2,5 0,0.16 -0.04,0.24 v 8.96 q 0,0.84 -0.84,0.84 -0.84,0 -0.84,-0.84 v -16.76 q 0,-0.84 0.84,-0.84 0.84,0 0.84,0.84 v 3.76 q 1,-2.24 3,-3.4 2,-1.2 4.88,-1.2 z m -31.95187,9.84 v 1.64 q 0,2.92 1.2,4.12 1.2,1.16 4.12,1.16 h 3.28 q 2.72,0 3.92,-0.72 1.2,-0.76 1.36,-2.56 0.08,-0.84 0.88,-0.84 0.4,0 0.6,0.24 0.24,0.24 0.2,0.64 -0.2,2.56 -1.92,3.76 -1.68,1.16 -5.04,1.16 h -3.28 q -3.64,0 -5.32,-1.64 -1.68,-1.68 -1.68,-5.32 v -4.48 q 0,-3.68 1.68,-5.36 1.68,-1.68 5.32,-1.64 h 3.28 q 3.68,0 5.32,1.68 1.68,1.64 1.68,5.32 v 2 q 0,0.84 -0.84,0.84 z m 0,-1.68 h 13.92 v -1.16 q 0,-2.960004 -1.2,-4.12 -1.16,-1.2 -4.12,-1.2 h -3.28 q -2.92,-0.04 -4.12,1.16 -1.2,1.199996 -1.2,4.16 z m -5.79313,8.6 q 0.88,0 0.88,0.84 0,0.84 -0.88,0.84 -3.6,0 -5.24,-1.64 -1.64,-1.64 -1.64,-5.2 v -9.92 h -2.52 q -0.84,0 -0.84,-0.84 0,-0.84 0.84,-0.84 h 2.52 v -4.76 q 0,-0.84 0.84,-0.84 0.84,0 0.84,0.84 v 4.76 h 5.16 q 0.84,0 0.84,0.84 0,0.84 -0.84,0.84 h -5.16 v 9.92 q 0,2.88 1.12,4.04 1.16,1.12 4.08,1.12 z m -21.31,-16.76 q 3.68,0 5.32,1.68 1.68,1.64 1.68,5.32 v 10.6 q 0,0.84 -0.84,0.84 -0.84,0 -0.84,-0.84 v -10.6 q 0,-2.960004 -1.2,-4.12 -1.16,-1.2 -4.12,-1.2 h -1.12 q -6.52,0 -7.04,4.36 l -0.04,0.24 v 11.32 q 0,0.84 -0.84,0.84 -0.84,0 -0.84,-0.84 v -16.76 q 0,-0.84 0.84,-0.84 0.84,0 0.84,0.84 v 2.32 q 1.84,-3.16 7.08,-3.16 z m -17.94625,18.44 q -0.36,0 -0.6,-0.24 -0.24,-0.24 -0.24,-0.6 v -23.68 q 0,-0.36 0.24,-0.6 0.24,-0.24 0.6,-0.24 0.36,0 0.6,0.24 0.24,0.24 0.24,0.6 v 23.68 q 0,0.36 -0.24,0.6 -0.24,0.24 -0.6,0.24 z M 228.78424,78.04903 c 2.88,0 5.6,-0.96 7.68,-2.32 l -1.56,-2.88 c -1.76,1 -3.44,1.64 -5.52,1.64 -3.64,0 -6.24,-1.76 -6.76,-5.4 h 14.44 c 0.08,-0.52 0.2,-1.4 0.2,-2.32 0,-5.44 -3.24,-9.32 -9.08,-9.32 -5.28,0 -10.16,3.88 -10.16,10.28 0,6.52 4.76,10.32 10.76,10.32 z m -0.48,-17.04 c 2.8,0 4.56,1.6 4.88,4.8 h -10.44 c 0.6,-3.16 2.84,-4.8 5.56,-4.8 z m -31.50438,16.56 h 4.64 v -10.84 c 2,-3.8 4.64,-5.2 7.32,-5.2 1.48,0 2.28,0.2 3.56,0.6 l 0.96,-3.88 c -1.16,-0.56 -2.2,-0.8 -3.8,-0.8 -3.4,0 -6.36,1.76 -8.36,4.92 h -0.12 l -0.4,-4.44 h -3.8 z m -19.78437,0.48 c 2.64,0 5.28,-1.32 7.36,-2.92 h 0.12 l 0.36,2.44 h 3.76 v -11.64 c 0,-5.48 -3,-8.48 -8.44,-8.48 -3.36,0 -6.6,1.32 -8.96,2.72 l 1.68,3.08 c 2.04,-1.12 4.24,-2.08 6.44,-2.08 3.2,0 4.52,1.64 4.68,3.84 -9.68,0.68 -13.56,2.88 -13.56,7.28 0,3.44 2.72,5.76 6.56,5.76 z m 1.4,-3.6 c -1.96,0 -3.52,-0.76 -3.52,-2.52 0,-2.12 2.08,-3.56 9.12,-4.04 v 4.16 c -1.8,1.44 -3.64,2.4 -5.6,2.4 z m -30.82438,3.12 h 5.56 l 1.6,-7.84 c 0.32,-1.92 0.56,-3.76 0.8,-5.8 h 0.16 c 0.28,2.36 0.56,4.28 0.84,5.8 l 1.64,7.84 h 5.6 l 3.6,-19.64 h -4.28 l -1.68,10.2 c -0.28,1.92 -0.44,3.72 -0.72,5.64 h -0.16 c -0.28,-1.92 -0.68,-3.72 -1.12,-5.64 l -1.76,-8.28 h -3.8 l -1.8,8.28 c -0.44,1.88 -0.8,3.72 -1.04,5.64 h -0.12 c -0.24,-1.92 -0.48,-3.72 -0.76,-5.64 l -1.76,-10.2 h -4.52 z m -12.30437,0.48 c 2.56,0 4.52,-0.52 6.28,-1.12 l -0.88,-3.36 c -1.28,0.48 -2.64,0.8 -4.28,0.8 -3.36,0 -4.56,-1.48 -4.56,-4.72 v -8.08 h 8.96 v -3.64 h -8.96 v -6.16 h -3.8 l -0.6,6.16 -5.44,0.2 v 3.44 h 5.24 v 8.08 c 0,5.04 2.04,8.4 8.04,8.4 z m -30.50438,-0.48 h 4.56 v -16 h 7.48 v -3.64 h -7.48 v -1.16 c 0,-2.76 1.32,-4.28 4.32,-4.28 1.6,0 2.88,0.28 4.32,0.84 l 0.96,-3.4 c -1.76,-0.68 -3.72,-1.08 -5.84,-1.08 -5.76,0 -8.32,3.36 -8.32,8 v 1.08 l -5.44,0.2 v 3.44 h 5.44 z m -21.10437,0.48 c 5.16,0 9.88,-3.76 9.88,-10.28 0,-6.56 -4.72,-10.32 -9.88,-10.32 -5.16,0 -9.88,3.76 -9.88,10.32 0,6.52 4.72,10.28 9.88,10.28 z m 0,-3.76 c -3.2,0 -5.12,-2.6 -5.12,-6.52 0,-3.96 1.92,-6.56 5.12,-6.56 3.2,0 5.12,2.6 5.12,6.56 0,3.92 -1.92,6.52 -5.12,6.52 z m -23.90438,3.76 c 6.08,0 9.68,-3.52 9.68,-7.76 0,-3.8 -2.36,-5.76 -5.68,-7.08 l -3.44,-1.48 c -2.36,-0.92 -4.48,-1.68 -4.48,-3.68 0,-1.96 1.68,-3.08 4.16,-3.08 2.64,0 4.48,0.84 6.24,2.24 l 2.4,-2.96 c -2.16,-2.04 -5.2,-3.32 -8.4,-3.32 -5.32,0 -9.08,3.2 -9.08,7.36 0,3.84 2.84,5.88 5.6,6.96 l 3.56,1.56 c 2.6,1.08 4.4,1.72 4.4,4.04 0,1.84 -1.64,3.16 -4.68,3.16 -2.76,0 -5.36,-1.2 -7.32,-2.96 l -2.72,3.16 c 2.6,2.44 6.08,3.84 9.76,3.84 z"
     id="software-and-interfaces"
     style="opacity:0.98999999;stroke:none" />
  <path
     sodipodi:nodetypes="cc"
     inkscape:connector-curvature="0"
     id="slash-design-annotation-arrow-line"
     d="M 40.13601,86.9925 C 2.27503,86.9925 6.29644,44.7703 6.11966,3.40455"
     style="fill:none;stroke-width:2.5;stroke-linecap:round;stroke-linejoin:round" />
  <path
     sodipodi:nodetypes="cccc"
     inkscape:connector-curvature="0"
     d="M 0,16.41442 5.95649,0 12.05306,16.36291 C 8.48381,13.75989 3.61583,13.79578 0,16.41441 Z"
     style="stroke-width:1;stroke-linecap:square;stroke-linejoin:round"
     id="slash-design-annotation-arrow-head" />
</svg>
