<?xml version="1.0" encoding="UTF-8" standalone="no"?>
<!-- Created with Inkscape (http://www.inkscape.org/) -->

<svg
   xmlns:dc="http://purl.org/dc/elements/1.1/"
   xmlns:cc="http://creativecommons.org/ns#"
   xmlns:rdf="http://www.w3.org/1999/02/22-rdf-syntax-ns#"
   xmlns:svg="http://www.w3.org/2000/svg"
   xmlns="http://www.w3.org/2000/svg"
   xmlns:sodipodi="http://sodipodi.sourceforge.net/DTD/sodipodi-0.dtd"
   xmlns:inkscape="http://www.inkscape.org/namespaces/inkscape"
   width="283.12299"
   height="85"
   viewBox="0 0 283.123 85"
   version="1.1"
   sodipodi:docname="SlashDesign.svg"
   inkscape:version="0.92.2 5c3e80d, 2017-08-06"
   role="img"
   aria-labelledby="SlashDesign-title"
   id="svg4769">
  <title
     id="SlashDesign-title">/design</title>
  <desc
     id="SlashDesign-desc">The text &quot;/design&quot; written with a monospaced font</desc>
  <defs
     id="defs852" />
  <sodipodi:namedview
     id="base"
     pagecolor="#ffffff"
     bordercolor="#666666"
     borderopacity="1.0"
     inkscape:pageopacity="0"
     inkscape:pageshadow="2"
     inkscape:zoom="2.8284274"
     inkscape:cx="14.84981"
     inkscape:cy="-0.82761215"
     inkscape:document-units="px"
     showgrid="true"
     fit-margin-top="0"
     fit-margin-left="0"
     fit-margin-right="0"
     fit-margin-bottom="0"
     inkscape:window-width="1920"
     inkscape:window-height="1016"
     inkscape:window-x="0"
     inkscape:window-y="27"
     inkscape:window-maximized="1"
     units="px"
     viewbox-y="0.37"
     viewbox-height="3"
     inkscape:snap-others="false"
     inkscape:snap-nodes="false"
     inkscape:snap-bbox="true"
     inkscape:bbox-paths="false"
     inkscape:bbox-nodes="true"
     inkscape:snap-bbox-edge-midpoints="false"
     inkscape:snap-global="false"
     inkscape:current-layer="svg4769">
    <inkscape:grid
       type="xygrid"
       id="grid10679"
       spacingx="50.000003"
       spacingy="50.000003"
       empspacing="2" />
  </sodipodi:namedview>
  <metadata
     id="metadata855">
    <rdf:RDF>
      <cc:Work
         rdf:about="">
        <dc:format>image/svg+xml</dc:format>
        <dc:type
           rdf:resource="http://purl.org/dc/dcmitype/StillImage" />
        <dc:title>/design</dc:title>
      </cc:Work>
    </rdf:RDF>
  </metadata>
  <g
     class="SlashDesign"
     id="g4767">
    <path
       inkscape:connector-curvature="0"
       d="M 0,74.58588 H 4.953 L 39.41762,14.73713 h -4.95299 z"
       style="stroke:none"
       class="SlashDesign-Char"
       id="path4753" />
    <path
       inkscape:connector-curvature="0"
       d="m 76.400391,14.599609 -2.613282,13.070313 -1.101562,6.535156 H 72.480469 C 70.554299,31.247048 67.113817,29.320312 62.367188,29.320312 52.186017,29.320312 44,39.639615 44,51.609375 c 0,8.32379 4.540762,12.794922 11.419922,12.794922 4.33388,0 8.80412,-2.338856 12.3125,-5.916016 h 0.27539 l -0.550781,5.091797 h 4.333985 l 9.90625,-48.980469 z M 63.054688,33.722656 c 3.16442,0 6.26112,1.444745 8.53125,4.953125 l -3.027344,14.859375 c -3.64596,4.19628 -7.842321,6.466797 -11.488282,6.466797 -4.67783,0 -7.636718,-2.95871 -7.636718,-9.21875 0,-8.94291 5.985223,-17.060547 13.621094,-17.060547 z"
       style="stroke:none"
       class="SlashDesign-Char"
       id="path4755" />
    <path
       inkscape:connector-curvature="0"
       d="m 105.06055,29.320312 c -10.112383,0 -19.056644,8.600122 -19.056644,20.638672 0,9.35567 5.572485,14.445313 14.240234,14.445313 5.84729,0 11.07648,-2.270245 14.44727,-4.953125 L 112.69531,55.875 c -3.09562,2.4765 -7.01529,4.333984 -11.41797,4.333984 -6.053656,0 -10.044918,-3.78381 -10.044918,-10.52539 0,-0.55032 -4.41e-4,-1.032132 0.06836,-1.513672 h 25.591798 c 0.34395,-0.89429 0.89453,-3.645455 0.89453,-5.984375 0,-7.4295 -4.54035,-12.865235 -12.72656,-12.865235 z m -0.27539,4.197266 c 4.953,0 8.04882,3.232778 8.04882,8.460938 0,0.68791 -0.0695,1.376543 -0.20703,2.064453 H 92.126953 c 2.06374,-6.46641 7.567623,-10.525391 12.658207,-10.525391 z"
       style="stroke:none"
       class="SlashDesign-Char"
       id="path4757" />
    <path
       inkscape:connector-curvature="0"
       d="m 141.49264,64.40471 c 7.84225,0 14.1023,-2.88924 14.1023,-10.11237 0,-5.43455 -4.33388,-7.63587 -10.59392,-9.76842 -5.36576,-1.85738 -8.255,-3.23321 -8.255,-6.32883 0,-2.95805 2.61408,-4.74663 6.94796,-4.74663 4.953,0 8.80533,2.20134 11.557,4.54026 l 2.95803,-3.23322 c -2.82045,-2.82045 -7.56708,-5.43453 -13.9647,-5.43453 -6.81037,0 -12.52008,3.09562 -12.52008,9.49324 0,4.60904 3.09563,7.4295 10.04358,9.76842 5.57213,1.85738 8.80533,3.16442 8.80533,6.39762 0,3.71475 -3.43957,5.29697 -8.11741,5.29697 -4.81542,0 -9.42446,-1.65101 -12.72647,-5.36576 l -3.02682,3.37079 c 3.23321,3.71475 9.0117,6.12246 14.7902,6.12246 z"
       style="stroke:none"
       class="SlashDesign-Char"
       id="path4759" />
    <path
       inkscape:connector-curvature="0"
       d="m 188.51953,14.667969 c -2.54528,0 -4.74609,2.131994 -4.74609,4.746093 0,2.3389 1.7186,3.646485 3.91992,3.646485 2.6141,0 4.81641,-2.063224 4.81641,-4.746094 0,-2.33892 -1.58252,-3.646484 -3.99024,-3.646484 z m -16.30469,15.478515 -0.89257,4.265625 h 12.24414 l -3.99024,17.953125 c -0.34395,1.30704 -0.55078,2.545815 -0.55078,3.646485 0,5.50334 3.71475,8.392578 9.01172,8.392578 3.64596,0 6.32993,-0.894132 9.15039,-2.201172 l -1.23828,-3.990234 c -2.40771,1.10067 -4.33468,1.789062 -6.39844,1.789062 -3.02684,0 -5.1582,-1.444745 -5.1582,-4.953125 0,-0.68791 0.13583,-1.375682 0.27344,-2.201172 l 5.02343,-22.701172 z"
       style="stroke:none"
       class="SlashDesign-Char"
       id="path4761" />
    <path
       inkscape:connector-curvature="0"
       d="m 227.35938,29.320312 c -9.9748,0 -18.16016,9.699511 -18.16016,21.462891 0,7.97983 4.53947,12.521484 11.625,12.521485 4.26509,0 8.66718,-2.202778 11.90039,-5.367188 H 233 l -1.51367,7.085938 c -1.44462,6.46643 -6.2597,9.15039 -12.17578,9.15039 -3.71475,0 -7.63549,-1.239205 -10.31836,-3.578125 l -2.47657,3.783203 c 3.02683,2.40771 7.22323,4.128907 12.72657,4.128906 8.39257,0 15.33989,-3.853324 17.19726,-13.208984 l 7.01758,-35.152344 h -4.19726 l -1.375,4.195313 h -0.27539 c -1.85738,-3.02684 -5.50338,-5.021484 -10.25,-5.021485 z m 0.61914,4.402344 c 3.302,0 6.26069,1.515058 8.5996,5.023438 l -3.02734,14.238281 c -3.50838,3.78354 -7.49857,5.917969 -11.14453,5.917969 -4.88421,0 -7.77344,-2.88969 -7.77344,-8.94336 0,-8.66775 6.12258,-16.236328 13.34571,-16.236328 z"
       style="stroke:none"
       class="SlashDesign-Char"
       id="path4763" />
    <path
       inkscape:connector-curvature="0"
       d="m 249.1398,63.57922 h 5.22815 l 4.33388,-21.60059 c 4.60905,-5.09058 9.21808,-8.11741 13.68954,-8.11741 3.43959,0 5.29697,1.85737 5.29697,5.15937 0,1.51342 -0.20639,2.95804 -0.61913,4.67784 l -3.98992,19.88079 h 5.29696 l 4.1275,-20.43113 c 0.34396,-1.85737 0.61913,-3.57717 0.61913,-5.50333 0,-5.0218 -2.68289,-8.32379 -8.59896,-8.32379 -5.98488,0 -11.00667,3.64595 -14.99659,7.63587 h -0.27516 l 0.82549,-6.81037 h -4.26508 z"
       style="stroke:none"
       class="SlashDesign-Char"
       id="path4765" />
  </g>
</svg>
