<?xml version="1.0" encoding="UTF-8" standalone="no"?>
<!-- Created with Inkscape (http://www.inkscape.org/) -->

<svg
   xmlns:dc="http://purl.org/dc/elements/1.1/"
   xmlns:cc="http://creativecommons.org/ns#"
   xmlns:rdf="http://www.w3.org/1999/02/22-rdf-syntax-ns#"
   xmlns:svg="http://www.w3.org/2000/svg"
   xmlns="http://www.w3.org/2000/svg"
   xmlns:sodipodi="http://sodipodi.sourceforge.net/DTD/sodipodi-0.dtd"
   xmlns:inkscape="http://www.inkscape.org/namespaces/inkscape"
   width="256"
   height="249.68045"
   viewBox="0 0 256 249.68045"
   version="1.1"
   id="svg4817"
   inkscape:version="0.92.2 5c3e80d, 2017-08-06"
   sodipodi:docname="github-icon.svg"
   role="img"
   aria-labelledby="github-icon-title">
  <title
     id="github-icon-title">Github Icon</title>
  <desc
     id="github-icon-desc">A silhouette of an octocat, a crossing of an octopus and a cat</desc>
  <defs
     id="defs39" />
  <sodipodi:namedview
     id="base"
     pagecolor="#ffffff"
     bordercolor="#666666"
     borderopacity="1.0"
     inkscape:pageopacity="0.0"
     inkscape:pageshadow="2"
     inkscape:zoom="0.98994949"
     inkscape:cx="-177.27163"
     inkscape:cy="126.76899"
     inkscape:document-units="px"
     inkscape:current-layer="svg4817"
     showgrid="true"
     inkscape:window-width="1920"
     inkscape:window-height="1016"
     inkscape:window-x="0"
     inkscape:window-y="27"
     inkscape:window-maximized="1"
     units="px"
     inkscape:snap-bbox="true"
     inkscape:bbox-paths="false"
     inkscape:bbox-nodes="true"
     inkscape:snap-bbox-edge-midpoints="false"
     inkscape:snap-bbox-midpoints="false"
     inkscape:snap-nodes="false"
     inkscape:snap-others="false"
     fit-margin-top="0"
     fit-margin-left="0"
     fit-margin-right="0"
     fit-margin-bottom="0">
    <inkscape:grid
       type="xygrid"
       id="grid14320"
       spacingx="33.866667"
       spacingy="33.866667"
       empspacing="2"
       originx="0"
       originy="-6.319546" />
  </sodipodi:namedview>
  <metadata
     id="metadata4814">
    <rdf:RDF>
      <cc:Work
         rdf:about="">
        <dc:format>image/svg+xml</dc:format>
        <dc:type
           rdf:resource="http://purl.org/dc/dcmitype/StillImage" />
        <dc:title></dc:title>
      </cc:Work>
    </rdf:RDF>
  </metadata>
  <path
     inkscape:connector-curvature="0"
     id="github-octocat"
     d="M 128.00096,0 C 57.31692,0 0,57.30705 0,128.00108 c 0,56.55402 36.67593,104.53505 87.53492,121.46004 6.39704,1.18499 8.74602,-2.77701 8.74602,-6.15799 0,-3.05201 -0.11981,-13.13503 -0.17386,-23.83003 -35.60999,7.74202 -43.124,-15.103 -43.124,-15.103 -5.823,-14.795 -14.21302,-18.73001 -14.21302,-18.73001 -11.61302,-7.944 0.87601,-7.78001 0.87601,-7.78001 12.85301,0.90202 19.62101,13.19002 19.62101,13.19002 11.41701,19.56802 29.94501,13.91101 37.24902,10.64001 1.14898,-8.27202 4.466,-13.92 8.127,-17.116 -28.43104,-3.236 -58.31803,-14.21201 -58.31803,-63.25803 0,-13.97503 5.00001,-25.394008 13.18802,-34.358027 -1.32904,-3.224013 -5.71004,-16.241993 1.23998,-33.874013 0,0 10.74898,-3.44002 35.21001,13.121 10.21001,-2.836 21.16002,-4.25801 32.03803,-4.30699 10.87798,0.0491 21.83698,1.47 32.06601,4.30699 24.43102,-16.56 35.16499,-13.11998 35.16499,-13.11998 6.96703,17.62998 2.58403,30.650001 1.25503,33.872993 8.20698,8.964019 13.17298,20.382997 13.17298,34.358027 0,49.163 -29.94399,59.98802 -58.447,63.157 4.59099,3.97202 8.68199,11.762 8.68199,23.70403 0,17.12602 -0.14815,30.91 -0.14815,35.12602 0,3.40698 2.304,7.39801 8.79201,6.14 C 219.36999,232.50011 256,184.53711 256,128.00206 256,57.30705 198.69098,0 128.00093,0 Z M 47.94093,182.3401 c -0.28195,0.63599 -1.283,0.827 -2.19402,0.39001 -0.92901,-0.41703 -1.44998,-1.28402 -1.14999,-1.922 0.2759,-0.65503 1.27899,-0.838 2.20501,-0.399 0.92999,0.41797 1.45999,1.29297 1.139,1.93099 z m 6.29601,5.61801 c -0.61001,0.56598 -1.80401,0.30312 -2.61403,-0.59101 -0.83698,-0.892 -0.99398,-2.08599 -0.37493,-2.65999 0.63001,-0.56602 1.787,-0.30085 2.62601,0.591 0.838,0.90297 0.99999,2.088 0.36284,2.66 z m 4.32,7.18798 c -0.78501,0.54501 -2.06702,0.034 -2.86,-1.104 -0.78403,-1.13798 -0.78403,-2.50299 0.0189,-3.05 0.79499,-0.54698 2.05799,-0.0548 2.86099,1.07501 0.78202,1.15699 0.78202,2.522 -0.0189,3.08001 z m 7.30398,8.32501 c -0.70099,0.77401 -2.19598,0.56599 -3.29001,-0.49001 -1.11896,-1.032 -1.42998,-2.496 -0.72597,-3.26997 0.70999,-0.77602 2.21299,-0.55801 3.31499,0.48997 1.11001,1.03 1.45001,2.505 0.70099,3.27001 z m 9.44201,2.81001 c -0.30992,1.00301 -1.74999,1.45901 -3.19899,1.03298 -1.44801,-0.43899 -2.39501,-1.61299 -2.103,-2.62598 0.30085,-1.01 1.74701,-1.48399 3.207,-1.02799 1.44601,0.436 2.39599,1.60199 2.09499,2.62197 z m 10.74403,1.19301 c 0.0378,1.05497 -1.19301,1.92997 -2.71503,1.95 -1.52999,0.034 -2.76899,-0.82 -2.786,-1.86001 0,-1.065 1.202,-1.93199 2.73302,-1.95799 1.52197,-0.0302 2.76801,0.818 2.76801,1.868 z m 10.55497,-0.40502 c 0.18218,1.03 -0.875,2.088 -2.387,2.36999 -1.48497,0.27099 -2.86099,-0.3651 -3.05,-1.38599 -0.18406,-1.056 0.89303,-2.114 2.376,-2.387 1.514,-0.26305 2.86802,0.35603 3.061,1.403 z"
     class="github-octocat" />
</svg>
