<?xml version="1.0" encoding="UTF-8" standalone="no"?>
<!-- Created with Inkscape (http://www.inkscape.org/) -->

<svg
   xmlns:dc="http://purl.org/dc/elements/1.1/"
   xmlns:cc="http://creativecommons.org/ns#"
   xmlns:rdf="http://www.w3.org/1999/02/22-rdf-syntax-ns#"
   xmlns:svg="http://www.w3.org/2000/svg"
   xmlns="http://www.w3.org/2000/svg"
   xmlns:sodipodi="http://sodipodi.sourceforge.net/DTD/sodipodi-0.dtd"
   xmlns:inkscape="http://www.inkscape.org/namespaces/inkscape"
   width="256"
   height="180.36121"
   viewBox="0 0 256 180.36121"
   version="1.1"
   id="svg4817"
   inkscape:version="0.92.2 5c3e80d, 2017-08-06"
   sodipodi:docname="youtube-icon.svg"
   role="img"
   aria-labelledby="youtube-icon-title">
  <title
     id="youtube-icon-title">YouTube Icon</title>
  <desc
     id="youtube-icon-desc">A triangle pointing right within a flat bellied rectangle with round corners</desc>
  <defs
     id="defs39" />
  <sodipodi:namedview
     id="base"
     pagecolor="#ffffff"
     bordercolor="#666666"
     borderopacity="1.0"
     inkscape:pageopacity="0.0"
     inkscape:pageshadow="2"
     inkscape:zoom="0.98994949"
     inkscape:cx="-170.20057"
     inkscape:cy="57.44975"
     inkscape:document-units="px"
     inkscape:current-layer="svg4817"
     showgrid="true"
     inkscape:window-width="1920"
     inkscape:window-height="1016"
     inkscape:window-x="0"
     inkscape:window-y="27"
     inkscape:window-maximized="1"
     units="px"
     inkscape:snap-bbox="true"
     inkscape:bbox-paths="false"
     inkscape:bbox-nodes="true"
     inkscape:snap-bbox-edge-midpoints="false"
     inkscape:snap-bbox-midpoints="false"
     inkscape:snap-nodes="false"
     inkscape:snap-others="false"
     fit-margin-top="0"
     fit-margin-left="0"
     fit-margin-right="0"
     fit-margin-bottom="0">
    <inkscape:grid
       type="xygrid"
       id="grid14320"
       spacingx="33.866667"
       spacingy="33.866667"
       empspacing="2"
       originx="0"
       originy="-75.638792" />
  </sodipodi:namedview>
  <metadata
     id="metadata4814">
    <rdf:RDF>
      <cc:Work
         rdf:about="">
        <dc:format>image/svg+xml</dc:format>
        <dc:type
           rdf:resource="http://purl.org/dc/dcmitype/StillImage" />
        <dc:title>YouTube Icon</dc:title>
      </cc:Work>
    </rdf:RDF>
  </metadata>
  <path
     inkscape:connector-curvature="0"
     id="youtube-box"
     d="M 128,0 C 128,0 47.9478,-4.8999998e-4 27.9842,5.3841999 16.969,8.3471199 8.2941,17.0767 5.3501,28.16323 0.0018,48.25621 0,90.18062 0,90.18062 c 0,0 0,41.9215 5.3501,62.0174 2.944,11.08498 11.6189,19.81678 22.6341,22.7811 19.9636,5.3833 100.0158,5.38209 100.0158,5.38209 0,0 80.0537,9.8e-4 100.0158,-5.38209 11.0167,-2.96432 19.6901,-11.69612 22.6341,-22.7811 5.3498,-20.0959 5.3501,-62.0174 5.3501,-62.0174 0,0 -3e-4,-41.92441 -5.3501,-62.01739 C 247.7059,17.0767 239.0325,8.3471199 228.0158,5.3841999 208.0537,-4.8999998e-4 128,0 128,0 Z m -26.1816,52.11621 66.9094,38.06649 -66.9094,38.0623 z"
     class="youtube-box" />
  <path
     sodipodi:nodetypes="cccc"
     d="M 101.8184,52.11621 168.7278,90.1827 101.8184,128.245 Z"
     id="youtube-triangle"
     inkscape:connector-curvature="0"
     class="youtube-triangle" />
</svg>
