<?xml version="1.0" encoding="UTF-8" standalone="no"?>
<!-- Created with Inkscape (http://www.inkscape.org/) -->

<svg
   xmlns:dc="http://purl.org/dc/elements/1.1/"
   xmlns:cc="http://creativecommons.org/ns#"
   xmlns:rdf="http://www.w3.org/1999/02/22-rdf-syntax-ns#"
   xmlns:svg="http://www.w3.org/2000/svg"
   xmlns="http://www.w3.org/2000/svg"
   xmlns:xlink="http://www.w3.org/1999/xlink"
   xmlns:sodipodi="http://sodipodi.sourceforge.net/DTD/sodipodi-0.dtd"
   xmlns:inkscape="http://www.inkscape.org/namespaces/inkscape"
   width="300"
   height="200"
   viewBox="0 0 300 200"
   version="1.1"
   id="svg5516"
   inkscape:version="0.92.2 5c3e80d, 2017-08-06"
   sodipodi:docname="collateral_page_annotated_buttons.svg">
  <defs
     id="defs5510">
    <symbol
       id="patreon-button"
       viewBox="-5 0 240 50">
      <title
         id="title5051">Become a Patron</title>
      <desc
         id="desc5053">A button with the Patreon logo next to the title text</desc>
      <rect
         y="-1.2090595e-09"
         x="-5.9897332e-10"
         height="50.00069"
         width="230.00319"
         id="rect2375"
         style="fill:#f96854;stroke:none;stroke-width:3.77958012" />
      <path
         style="fill:#ffffff;stroke:none;stroke-width:3.77958012"
         inkscape:connector-curvature="0"
         d="m 36.026954,13.012833 c -4.96345,0 -9.0016,4.037597 -9.0016,9.000752 0,4.948121 4.03815,8.973808 9.0016,8.973808 4.94812,0 8.97367,-4.025687 8.97367,-8.973808 0,-4.963155 -4.02555,-9.000752 -8.97367,-9.000752"
         id="path2377" />
      <path
         id="path1182"
         style="fill:#ffffff;stroke:none;stroke-width:3.77958012"
         d="m 200.25277,19.320268 h 2.99204 l 3.64805,6.48009 q 0.51201,0.960013 0.68801,1.472022 h 0.0321 l -0.0159,-1.456019 v -6.496093 h 2.48003 v 11.360159 h -2.88004 l -3.77604,-6.54409 q -0.208,-0.368017 -0.40001,-0.736012 -0.17602,-0.384006 -0.27202,-0.656007 h -0.0321 l 0.0159,1.50402 v 6.432089 h -2.48003 z m -7.2451,11.632164 q -1.69602,0 -2.96004,-0.72001 -1.26402,-0.736013 -1.95203,-2.080032 -0.68801,-1.344018 -0.68801,-3.152041 0,-1.808026 0.68801,-3.152045 0.68801,-1.344018 1.95203,-2.064028 1.26402,-0.736009 2.96004,-0.736009 1.69602,0 2.96004,0.736009 1.26402,0.72001 1.95203,2.064028 0.68801,1.344019 0.68801,3.152045 0,1.808023 -0.68801,3.152041 -0.68801,1.344019 -1.95203,2.080032 -1.26402,0.72001 -2.96004,0.72001 z m 0,-2.11203 q 1.32802,0 2.06403,-1.008013 0.75201,-1.024017 0.75201,-2.83204 0,-1.808026 -0.75201,-2.81604 -0.73601,-1.024013 -2.06403,-1.024013 -1.32802,0 -2.08003,1.024013 -0.75201,1.008014 -0.75201,2.81604 0,1.792024 0.75201,2.816037 0.75201,1.024016 2.08003,1.024016 z m -11.35665,-2.512037 h -1.63203 v 4.352062 h -2.70404 V 19.320268 h 4.99207 q 2.09603,0 3.12004,0.928015 1.04002,0.928012 1.04002,2.560035 0,1.088016 -0.57601,1.920026 -0.57601,0.832011 -1.64802,1.200017 l 2.51203,4.752066 h -2.92804 z m -1.63203,-1.856023 h 1.74403 q 0.96001,0 1.42402,-0.432006 0.464,-0.432006 0.464,-1.232018 0,-1.584022 -1.88802,-1.584022 h -1.74403 z m -3.98005,-3.008043 h -3.31205 v 9.216128 h -2.68804 v -9.216128 h -3.29604 v -2.144031 h 9.29613 z m -11.73667,6.560092 h -4.19205 l -0.86401,2.656036 h -2.70404 l 4.12805,-11.360159 h 3.08805 l 4.12806,11.360159 h -2.72004 z m -0.624,-1.904027 -1.04002,-3.168044 q -0.12801,-0.368018 -0.24,-0.752012 -0.096,-0.400004 -0.17602,-0.848009 h -0.0321 q -0.08,0.448005 -0.192,0.848009 -0.096,0.384005 -0.22402,0.752012 l -1.04001,3.168044 z m -10.32365,-6.800096 q 1.21602,0 2.14403,0.448009 0.92802,0.432006 1.42402,1.248017 0.51201,0.800009 0.51201,1.872026 0,1.696022 -1.12001,2.688037 -1.10402,0.976013 -3.02405,0.976013 h -2.27203 v 4.128057 h -2.70404 V 19.320268 Z m -0.65601,5.344077 q 0.89602,0 1.39202,-0.448009 0.51201,-0.448005 0.51201,-1.248017 0,-0.800009 -0.49601,-1.248018 -0.496,-0.448005 -1.40802,-0.448005 h -1.68002 v 3.392049 z m -13.30293,3.360046 h -4.19206 l -0.86401,2.656036 h -2.70404 l 4.12806,-11.360159 h 3.08804 l 4.12806,11.360159 h -2.72004 z m -0.62401,-1.904027 -1.04001,-3.168044 q -0.12802,-0.368018 -0.24001,-0.752012 -0.096,-0.400004 -0.17601,-0.848009 h -0.0321 q -0.08,0.448005 -0.192,0.848009 -0.096,0.384005 -0.22402,0.752012 l -1.04002,3.168044 z m -12.06942,2.560034 v 2.000029 h -7.88811 V 19.320268 h 7.77611 v 2.000029 h -5.07207 v 2.560034 h 4.80007 v 1.98403 h -4.80007 v 2.816037 z m -22.41956,-9.36013 h 3.71205 l 2.09603,6.960096 q 0.17602,0.60801 0.27202,1.376021 h 0.0321 q 0.08,-0.688008 0.288,-1.408018 l 2.00003,-6.928099 h 3.76005 v 11.360159 h -2.46403 v -7.744106 q 0,-0.704011 0.064,-1.280019 h -0.048 q -0.048,0.496005 -0.24001,1.104015 l -2.28803,7.92011 h -2.27203 l -2.38403,-7.92011 q -0.17602,-0.480007 -0.24001,-1.088016 h -0.048 q 0.064,0.76801 0.064,1.26402 v 7.744106 h -2.30403 z m -7.245096,11.632164 q -1.69602,0 -2.96004,-0.72001 -1.26402,-0.736013 -1.95203,-2.080032 -0.68801,-1.344018 -0.68801,-3.152041 0,-1.808026 0.68801,-3.152045 0.68801,-1.344018 1.95203,-2.064028 1.26402,-0.736009 2.96004,-0.736009 1.69602,0 2.96004,0.736009 1.264016,0.72001 1.952026,2.064028 0.68801,1.344019 0.68801,3.152045 0,1.808023 -0.68801,3.152041 -0.68801,1.344019 -1.952026,2.080032 -1.26402,0.72001 -2.96004,0.72001 z m 0,-2.11203 q 1.32802,0 2.06403,-1.008013 0.75201,-1.024017 0.75201,-2.83204 0,-1.808026 -0.75201,-2.81604 -0.73601,-1.024013 -2.06403,-1.024013 -1.32802,0 -2.08003,1.024013 -0.75201,1.008014 -0.75201,2.81604 0,1.792024 0.75201,2.816037 0.75201,1.024016 2.08003,1.024016 z m -11.62666,2.11203 q -1.77602,0 -3.02404,-0.72001 -1.23202,-0.736013 -1.87203,-2.064029 -0.64,-1.344018 -0.64,-3.152045 0,-1.792023 0.672,-3.136042 0.67201,-1.344019 1.92003,-2.080031 1.26402,-0.752008 2.97604,-0.752008 2.14403,0 3.47205,1.104015 1.32802,1.088013 1.55202,2.976041 l -2.73604,0.480007 q -0.12801,-1.136017 -0.73601,-1.760026 -0.60801,-0.624008 -1.61602,-0.624008 -1.28002,0 -2.01603,1.024013 -0.72001,1.008014 -0.72001,2.75204 0,1.712021 0.73601,2.736038 0.75201,1.024013 2.08003,1.024013 0.94401,0 1.55202,-0.60801 0.60801,-0.624008 0.78401,-1.728024 l 2.73604,0.592011 q -0.416,1.840024 -1.74402,2.896039 -1.31202,1.040016 -3.37605,1.040016 z m -6.61559,-2.272034 v 2.000029 h -7.88811 V 19.320268 h 7.77611 v 2.000029 h -5.07207 v 2.560034 h 4.80006 v 1.98403 h -4.80006 v 2.816037 z m -11.94642,-3.920052 q 1.10402,0.176015 1.71203,0.89601 0.62401,0.704011 0.62401,1.824025 0,0.912013 -0.43201,1.648025 -0.43201,0.72001 -1.31202,1.136014 -0.86401,0.416007 -2.11203,0.416007 h -5.32807 V 19.320268 h 5.12007 q 1.87202,0 2.81604,0.816011 0.96001,0.800013 0.96001,2.11203 0,0.912012 -0.544,1.584022 -0.52801,0.672009 -1.50403,0.928015 z m -4.14405,-3.53605 v 2.768039 h 1.69602 q 0.86401,0 1.26402,-0.384005 0.416,-0.384005 0.416,-1.008014 0,-0.624009 -0.416,-0.992015 -0.41601,-0.384005 -1.26402,-0.384005 z m 1.87202,7.552103 q 0.88001,0 1.32802,-0.416003 0.46401,-0.416007 0.46401,-1.104015 0,-0.67201 -0.44801,-1.072018 -0.448,-0.400004 -1.28002,-0.400004 h -1.93602 v 2.99204 z"
         inkscape:connector-curvature="0" />
      <rect
         style="fill:#052d49;stroke:none;stroke-width:3.77958012"
         id="rect9378"
         width="4.3950882"
         height="23.97521"
         x="20.000252"
         y="13.012735" />
    </symbol>
    <symbol
       id="patreon-button-annotation"
       viewBox="0 0 300 180.430"
       preserveAspectRatio="xMinYMin">
      <title
         id="title5060">You help by pledging $1 for my next video. On top, you get as a thank-you:</title>
      <desc
         id="desc5062">The title text written by hand</desc>
      <path
         style="fill:none;stroke-width:1.50002074;stroke-linecap:round"
         d="M 0.75223441,0.7604724 C 3.7522744,15.26068 19.97002,28.635253 40.476399,30.75658"
         id="path336-3"
         inkscape:connector-curvature="0"
         sodipodi:nodetypes="cc" />
      <path
         inkscape:connector-curvature="0"
         id="path3105-6"
         style="fill:none;stroke-width:1.50002074;stroke-linecap:round;stroke-linejoin:round"
         d="m 272.9834,46.954236 c -3.77135,-3.612598 -10.39701,2.792467 -4.90209,6.168539 3.78417,2.325085 7.85583,-3.292014 6.232,-5.443048 -0.68092,-0.901959 -0.34066,1.774059 -0.37309,2.05696 -0.52586,4.59597 -1.10297,9.864402 -1.3847,14.469182 -0.0559,0.90963 -0.39517,1.56788 -0.72744,1.68172 -0.92212,0.31597 -9.31405,-2.806867 -6.99583,-7.173378 m -10.77162,-13.815651 -0.29141,2.594115 c -0.20833,1.849991 -0.30769,3.88435 -0.40515,5.526653 0.14453,-1.838765 0.54364,-3.479594 1.03672,-5.02344 0.38875,-1.217364 1.83457,-2.375541 3.07538,-2.655268 0.46487,-0.104694 2.91086,0.07559 3.27063,0.401581 1.79957,1.631531 1.30525,5.641476 1.19312,7.910509 M 249.92424,40.18138 c -0.26771,0.257012 -0.43125,0.572228 -0.60615,0.882948 m -0.14052,3.591508 c -0.0378,1.452795 -0.25153,5.111617 -0.60663,7.783931 m -6.17186,-6.706902 c -4.27875,-5.891987 -10.53855,3.941989 -3.84464,5.813863 3.98256,1.143663 6.25135,-4.494903 5.63731,-4.793301 -0.68857,-0.334493 -0.99203,3.380305 -1.07133,3.797269 -0.32527,1.70973 0.06,12.096773 -0.49976,12.503758 -2.41798,1.758225 -11.6105,-2.844021 -8.1234,-7.274143 m -5.75904,-11.291155 c -1.42712,-1.664035 -3.98795,-1.63274 -5.64206,-0.199561 -4.61652,4.000685 5.03475,12.947556 7.42436,-0.05821 0.27481,-1.495542 0.27477,-3.051066 0.3676,-4.568605 0.023,-0.381964 0.34696,-3.485833 0.38857,-4.895201 -0.0622,1.181157 -0.22519,3.157841 -0.29953,4.193144 -0.3156,4.373541 -0.6988,8.725652 0.23864,12.673461 m -20.89697,-5.596576 c 1.89572,0.595398 4.51144,1.183236 6.12332,-0.463565 2.23039,-2.278747 -4.59889,-3.999438 -6.70963,-1.503479 -0.58676,0.693855 -0.72031,1.666795 -0.7737,2.539689 -0.26389,4.314768 6.96621,4.086557 9.55157,2.697562 M 203.13492,32.764557 c -0.32648,3.411525 -0.72186,12.244481 -0.74918,15.879 -0.0113,1.547701 2.853,1.294922 3.60489,0.296319 m -16.2964,9.354575 c 0.31416,-4.235663 0.70523,-8.567213 0.93773,-12.440526 0.0966,-1.578882 0.16158,-3.166305 0.55265,-4.703007 1.34797,-0.07408 2.63838,0.0189 3.96301,0.200318 2.59282,0.354524 6.08236,3.673827 3.4061,6.408126 -2.45619,1.943838 -6.18684,2.221411 -7.84769,1.232559 m -14.8274,-8.790925 c -3.96221,5.269075 -8.45461,11.715904 -11.88126,16.561477 m 0.92475,-17.244069 c 0.40013,0.708029 4.9009,8.676971 4.89326,8.801999 M 153.69007,29.64973 c -0.35014,2.458465 -0.297,4.053183 -0.44411,6.507529 -0.19502,3.188418 -0.41009,6.701727 -0.76113,9.467888 0.46989,-2.363901 0.0824,-4.243788 1.68539,-5.804074 2.88294,-2.806151 7.61082,-0.491648 7.56727,3.370402 -0.0503,4.461076 -7.77312,4.195221 -9.39017,3.314276 m -25.32596,8.125795 c 0.65388,-6.490748 0.67847,-11.698821 1.21193,-17.677211 1.81049,4.16e-4 4.22804,0.122836 5.81983,0.647291 3.43391,1.130965 3.36976,5.459151 0.61761,6.708567 -2.28986,1.039574 -4.55136,0.855319 -6.83801,0.821643 m -6.33436,-17.79657 c -0.2569,5.543245 -0.56825,10.765115 -0.76371,15.545074 -0.0291,0.720313 0.4457,1.756333 1.21846,1.826634 0.84689,0.0771 1.49348,0.0189 1.96445,-0.711658 M 98.487104,25.897476 c -0.190037,2.206103 -0.251001,4.497171 -0.423509,6.629459 -0.286152,3.531753 -0.06452,7.237595 -0.393394,10.866332 0.265969,-3.578355 1.326417,-7.848526 4.955669,-7.598469 3.62937,0.250208 3.52651,3.990671 3.25056,8.110867 m 5.53862,-3.408955 c 1.52868,0.327312 4.52636,0.713207 5.35601,-1.026231 1.41655,-2.969656 -7.89478,-4.331703 -7.27337,1.808567 0.29821,2.946333 5.14382,2.964098 7.48005,2.306299 M 71.628619,33.746681 c -0.211883,1.683614 -0.268312,3.434958 -0.393133,4.933714 -0.17885,2.147407 2.201315,3.91746 4.501779,2.585725 1.525786,-0.883402 2.030594,-2.915606 2.559871,-4.507492 0.06629,-0.199184 0.490238,-1.741517 0.596267,-2.56762 -0.456252,5.26972 -0.427985,7.3579 0.348515,7.918752 M 66.039244,33.617608 c -1.96483,-0.404944 -4.758778,-0.589274 -6.316476,1.102013 -3.371578,3.660789 1.655381,7.993284 5.3369,6.279887 3.61338,-1.681686 4.032014,-8.686648 -2.297392,-7.048049 m -0.948542,-10.03917 c -1.891124,3.070191 -4.179724,6.029716 -5.782051,8.945359 -1.598331,2.908387 -3.302975,5.642424 -4.847617,8.134112 M 50.845983,23.389989 c 0.586885,1.263741 4.163978,7.28601 5.10645,8.976503" />
      <path
         inkscape:connector-curvature="0"
         id="path3464-7"
         style="fill:none;stroke-width:2.50003457;stroke-linecap:round;stroke-linejoin:round"
         d="m 286.94285,88.264179 c -1.7e-4,0.16668 -3.5e-4,0.33336 4.7e-4,0.50004 m -6.15193,-8.18578 c -1.39869,-1.21771 -3.52092,-0.64215 -4.59648,0.77557 -2.48206,3.27111 1.18367,8.04204 4.9292,6.05852 4.82225,-2.55364 3.3535,-8.50822 -2.39596,-7.7619 m -13.54628,3.4043 c 1.77123,0.55371 4.9487,0.74371 6.4473,-0.66959 1.42482,-1.34402 -2.57144,-4.14431 -6.17793,-2.11773 -2.30635,1.2959 -2.83216,4.92785 0.095,6.23937 2.13425,0.95608 4.68263,0.52698 6.85343,-0.12549 m -14.01454,-6.37184 c -1.52068,-1.20032 -3.95559,-1.30796 -5.39141,-0.28725 -1.75539,1.2481 -1.53482,5.94354 1.58515,6.19394 5.77207,0.46326 5.09827,-5.69042 5.70791,-13.00746 0.12884,-1.6315 0.28755,-3.12885 0.18701,-3.22122 -0.31934,5.46689 -1.12953,11.27169 -0.19026,16.4711 m -10.82758,-12.74066 c -0.31994,0.45298 -0.42172,0.55741 -0.74862,0.92895 m -0.22764,3.54203 c -0.28041,2.71249 -0.63958,6.58947 -0.67119,8.02526 m -13.19589,-8.59329 c 0.23391,0.86994 2.90234,6.52461 3.82119,7.98863 1.5932,-2.10337 4.27528,-5.60625 5.64012,-7.46505 m -30.86116,-1.81473 c 2.11629,0.33563 4.49867,0.3224 6.51504,0.70765 m -2.63498,-10.018 c -0.6888,6.80302 -0.71583,11.21239 -1.37703,17.37586 m -6.03052,-8.60187 c -3.04953,2.97642 -7.07717,5.02685 -10.1121,8.0643 m 1.28051,-8.68173 c 2.2825,2.37309 4.94893,7.07753 7.32076,9.02057 m -18.32806,-5.72307 c 1.61318,0.29707 4.56007,1.15171 5.95507,-0.34206 2.85629,-3.05862 -4.30729,-4.46542 -6.36424,-2.15927 -0.5646,0.63304 -0.66728,1.53542 -0.89249,2.33775 -1.40604,5.00941 4.48278,5.31624 7.74194,4.1183 m -20.22523,-8.3455 c -0.14911,2.17545 -0.23339,5.40446 -0.22708,7.76352 0.11021,-1.80225 0.50176,-3.57113 1.19918,-5.27826 1.20502,-2.94924 6.25481,-2.83975 7.26947,-0.36888 0.86688,2.11089 0.649,4.39036 0.55034,6.32777 m -23.09517,-9.10467 c -3.11539,4.14144 -6.36566,8.39993 -8.60899,13.10309 -0.474,1.06474 -1.47147,3.28113 -1.59034,3.53557 m 0.005,-17.43502 c 1.187,2.84935 2.66672,5.63479 4.37963,8.04136 m -22.17008,-9.26579 c -0.12941,2.60708 -0.16063,5.49283 -0.42231,7.83843 -0.0689,-0.003 0.66563,-7.41194 4.01285,-7.29432 3.40258,0.11943 3.13536,4.41663 3.0934,7.6532 0.65063,-3.18638 1.45853,-7.36969 4.37692,-7.26644 3.26178,0.11566 2.4626,4.68377 2.2804,7.6625 m -34.18592,-9.77959 c -0.005,2.59045 -0.26676,4.91878 -0.35989,7.70089 0.20433,-2.65269 0.53419,-6.64843 0.78853,-7.6013 1.63304,0.87516 4.37986,0.87588 6.0347,0.4167 m -13.25577,-0.81476 c -0.83845,-0.40347 -1.7325,-0.66415 -2.66171,-0.39467 -1.10065,0.319 -2.29669,1.12836 -2.75799,2.20168 -2.295973,5.34267 7.181,8.40806 7.8411,2.51501 0.31514,-2.81322 -3.192,-6.46716 -5.69655,-3.87823 m -11.680713,-1.07513 c 1.781498,0.18104 4.944938,0.31068 6.275626,0.53836 m 1.420412,-9.935573 c -4.707902,-4.38401 -4.755978,17.508343 -4.844159,18.950063 -0.0378,0.61622 -0.43977,6.6332 -0.600602,5.7346 M 66.076692,63.578303 c 1.544896,-1.277082 5.980086,-5.147901 6.496516,-5.116341 -0.378396,1.022111 -0.424632,2.865602 -0.558535,4.044188 -0.3963,3.486659 -0.67312,9.360769 -0.862988,12.049189 M 55.974774,50.026997 c -0.306221,1.679721 -0.57987,3.353659 -0.684198,5.059573 -0.365145,5.970187 0.01285,11.996459 -0.722497,17.939699 -0.268048,2.16619 -0.944752,7.23087 -0.94996,7.36217 m 5.481737,-21.204124 c -0.714934,-1.055561 -1.496903,-1.445274 -2.710749,-1.634404 -1.238515,-0.193136 -2.981669,-0.518974 -4.183364,-0.02268 -2.137806,0.880567 -2.437084,3.235434 -0.984376,4.86088 2.052712,2.296818 11.925191,5.569858 9.366082,10.260428 -1.275551,2.33797 -10.910479,1.31227 -12.410874,-1.32198" />
      <path
         id="path5064"
         style="fill:none;stroke-width:2.49803448;stroke-linecap:round;stroke-linejoin:round"
         d="m 122.96658,131.38499 c -0.55855,1.47426 -1.46939,4.29254 -1.88068,5.21828 M 54.044161,110.77849 c -3.18563,-0.34243 -6.467969,2.22553 -7.729732,5.06566 -1.446873,3.2569 -1.913197,7.30514 0.250586,10.34524 2.752033,3.86655 8.724801,1.93114 11.202716,-1.19136 1.035912,-1.30539 1.367993,-3.03519 1.652667,-4.63569 0.752012,-4.22814 -0.611672,-8.743 -5.376245,-9.58385 -1.346199,-0.23773 -3.169502,-0.50843 -4.42901,0.20297 m 59.590287,29.12408 c 0.42961,-5.62182 0.53921,-11.16257 1.1536,-15.88833 1.87743,-0.52419 4.50698,-0.45272 6.22384,0.36284 2.46578,1.1714 2.36419,5.12495 0.16037,6.56932 -2.19633,1.43942 -5.30921,0.74617 -6.67251,0.47113 m -7.11402,-8.17765 c -3.409116,-0.57061 -5.417585,0.2725 -6.269045,3.47252 -1.00304,4.72414 5.344085,6.22463 7.689075,3.77951 3.43716,-3.58391 0.19711,-7.88602 -3.54015,-7.41047 m -13.104859,-1.03576 c 1.902581,0.0733 4.547104,0.20183 6.251093,0.38234 m -2.616709,-9.2221 c -0.367829,6.19723 -0.667583,11.64716 -0.949003,17.4123 m -26.906154,-9.67334 c -0.317144,2.67817 -0.470459,5.68978 -0.66891,7.91746 0.303122,-2.55091 0.412931,-5.28363 2.256262,-6.45941 2.55291,-1.6284 4.563329,-1.33703 5.856497,0.11187 1.259488,1.41103 0.708898,5.37199 0.591871,7.05058 m 145.810682,0.65413 c 2.13863,0.37191 4.29321,0.15345 6.43085,0.28423 m -2.77517,-9.5064 c -0.26106,4.2685 -0.62004,13.20249 -0.99843,17.74921 m -12.332,-4.87759 c 1.94821,0.2676 4.38784,0.7699 6.05502,-0.79197 2.24618,-2.10421 -3.81995,-4.79179 -6.42431,-1.83563 -4.49126,5.0979 3.41918,8.87581 7.12369,6.2868 m -13.26494,-7.6693 c -4.34403,-2.4543 -8.68027,0.78408 -7.48742,4.68752 0.32553,1.74276 2.40407,2.89852 4.2381,2.92652 3.92361,0.0601 4.93111,-4.33018 4.23815,-7.90502 -0.0117,1.25425 0.037,2.11955 0.0391,2.26423 0.0253,1.73672 -0.10439,3.46927 -0.31749,5.1911 -0.2448,1.97774 -0.98451,10.47465 -1.85678,11.58271 -1.40718,1.78763 -6.56749,-1.84542 -7.50301,-2.97305 -0.76215,-0.91863 -1.02713,-2.3376 -1.11134,-3.49302 m -25.53581,-15.11408 c -0.30932,2.21366 -0.91827,4.80838 0.37968,6.79032 3.21568,4.91035 7.68377,-0.4198 8.30133,-4.302 0.20587,-1.29386 0.16618,-1.79972 0.0253,-1.7885 -0.16532,3.34198 -0.17387,5.37037 0.45276,8.41282 m -15.89767,-9.20751 c -3.15265,-1.68191 -8.57883,0.6488 -7.26094,5.2041 1.01568,3.51063 7.57001,3.51554 9.31864,0.67927 1.65022,-2.67689 0.90327,-5.91455 -1.66542,-5.90367 -1.00748,0.004 -1.8765,0.37758 -2.65383,0.62639 m -6.63585,-1.14196 c -4.3598,5.8184 -8.20711,11.95753 -11.58382,18.23088 m 0.11626,-19.23164 c 1.43857,3.35185 3.55441,6.24383 5.37943,8.84192"
         inkscape:connector-curvature="0"
         sodipodi:nodetypes="ccccccccccccccccccccccccccccccccccccccccscsccccccccccccccc" />
      <path
         inkscape:connector-curvature="0"
         d="m 221.36382,172.77029 -0.0469,0.4071 m 0.57642,-8.16317 -0.15092,0.30048 M 42.544785,154.90373 c 1.750607,-0.82818 3.187494,-0.82535 4.26523,-0.75112 5.414089,0.37305 6.679927,8.80314 -0.674172,8.41675 -1.147922,-0.0601 -4.045605,-0.20637 -4.131768,-1.88877 -0.137955,-2.69219 6.983677,-2.00934 8.057739,-1.02721 M 60.7765,156.33823 c -0.724999,-1.60488 -5.887074,-1.73203 -5.330134,0.49384 0.733095,2.93004 6.669704,2.26593 7.049601,5.33197 0.343904,2.77531 -7.840017,0.68319 -8.22381,-0.57612 m 25.199129,-4.22769 c 3.247985,-2.17912 9.708675,-1.41345 8.753329,3.96674 -0.681813,3.83968 -5.805476,4.67746 -8.40246,2.4858 -0.491666,-0.41489 -0.634436,-1.03508 -0.64412,-1.65792 -0.0528,-3.39531 5.9094,-1.66339 7.176353,-0.31635 m 122.721742,2.68335 c -0.02,1.31284 -0.35267,3.20266 -0.27455,4.48897 0.31439,5.0731 6.96556,4.32686 7.98328,-0.55639 0.27402,-1.31496 0.46889,-2.25161 0.61643,-3.5779 0.21684,1.42441 -0.85166,6.88654 0.70477,7.98644 m -17.79646,-9.16386 c -1.36431,-0.24983 -4.56414,-0.5805 -5.57527,0.96467 -2.857,4.3659 2.61215,9.10186 6.83652,6.03016 4.66232,-3.39024 2.332,-7.83533 -2.98561,-7.11252 m -8.45362,-0.17197 c -3.62674,5.15697 -7.44961,10.98988 -10.97666,16.26164 m 0.55568,-16.97927 c 0.91054,1.43639 3.01047,5.69389 4.47526,7.67043 m -16.83739,-7.72682 c 2.21245,0.054 5.7226,0.42014 7.2194,0.42354 m -15.53386,2.605 c 0.81149,1.1045 2.55918,3.70387 3.09574,4.23051 m -7.50219,-18.10399 c -0.42961,5.73011 -0.60519,11.10701 -0.86088,16.96339 3.65201,-3.14113 5.64476,-5.0037 8.61378,-7.24526 m -20.66642,-0.81344 c -0.15179,2.30146 -0.28491,5.00231 -0.40275,7.30562 0.77043,-2.4619 0.23509,-7.20497 4.68029,-7.11736 4.44519,0.0877 3.36664,4.70599 3.20191,7.55659 m -20.58626,-7.94509 c 1.37059,-0.50658 3.29212,-0.64582 4.31582,-0.47022 4.01162,0.68811 5.19,4.25135 3.15173,6.14076 -1.71337,1.58829 -5.75458,1.97509 -7.55835,-0.55945 -1.62414,-2.29168 5.35181,-2.14333 6.50079,-0.85457 m -18.05853,-15.26523 c -0.35131,2.15542 -0.6205,4.41863 -0.80111,6.5982 -0.30652,3.70085 -0.39616,7.2306 -0.53343,10.1467 0.60603,-1.91477 1.33437,-7.01713 5.10035,-6.72727 3.76591,0.28951 3.14466,4.99876 2.99755,7.59226 m -18.6346,-9.42581 c 1.34018,0.042 4.82738,0.22602 6.91056,0.3394 m -2.55374,-9.34758 c -0.24578,1.07314 -0.16823,2.17734 -0.28766,3.26178 -0.38529,3.50325 -0.59888,6.61377 -0.93613,10.23087 -0.0677,0.73074 -0.14915,2.16007 -0.37826,3.99282"
         style="fill:none;stroke-width:1.50002074;stroke-linecap:round;stroke-linejoin:round"
         id="path5084" />
    </symbol>
    <symbol
       id="twitter-button"
       viewBox="0 0 240 50">
      <title
         id="title5070">Follow on Twitter</title>
      <desc
         id="desc5072">A button with the Twitter logo next to the title text</desc>
      <rect
         y="0"
         x="0"
         height="50.00069"
         width="240.00333"
         id="rect2361"
         style="fill:#55acee;stroke:none;stroke-width:3.77958012" />
      <path
         inkscape:connector-curvature="0"
         style="fill:#ffffff;stroke:none;stroke-width:3.77958012"
         d="m 45.000136,17.246913 c -0.919923,0.40792 -1.908408,0.68359 -2.945911,0.80763 1.059084,-0.63477 1.872276,-1.63997 2.255181,-2.83762 a 10.271839,10.271839 0 0 1 -3.256943,1.24464 c -0.935654,-0.99678 -2.268572,-1.61974 -3.743875,-1.61974 -2.832641,0 -5.129231,2.29649 -5.129231,5.12893 0,0.40206 0.04539,0.79346 0.132815,1.16896 -4.26272,-0.21396 -8.042039,-2.25587 -10.571837,-5.359 -0.441413,0.75751 -0.69435,1.63867 -0.69435,2.57851 0,1.77952 0.905576,3.34934 2.281762,4.26917 a 5.1086247,5.1086247 0 0 1 -2.323262,-0.64161 c 0,0.0215 0,0.043 0,0.0645 0,2.48508 1.767985,4.55814 4.114288,5.02934 a 5.1359685,5.1359685 0 0 1 -2.316232,0.0879 c 0.65265,2.03772 2.546896,3.52054 4.791245,3.56203 -1.755385,1.3756 -3.967013,2.19562 -6.369957,2.19562 -0.414064,0 -0.82227,-0.0242 -1.223548,-0.0717 2.269842,1.45529 4.96585,2.30442 7.86235,2.30442 9.434342,0 14.593254,-7.81559 14.593254,-14.59336 0,-0.22247 -0.0049,-0.44367 -0.01474,-0.66359 a 10.424672,10.424672 0 0 0 2.559395,-2.65507"
         id="path2363" />
      <path
         id="path2036"
         style="fill:#ffffff;stroke:none;stroke-width:3.77958012"
         d="m 219.43532,21.618793 q 0.56512,0 0.93881,0.082 l -0.20961,2.60681 q -0.33726,-0.0911 -0.82033,-0.0911 -1.33075,0 -2.07815,0.6836 -0.7383,0.6836 -0.7383,1.91408 v 5.18627 h -2.77998 v -10.19024 h 2.1055 l 0.41016,1.71356 h 0.13671 q 0.47397,-0.85678 1.27607,-1.37632 0.8112,-0.52865 1.75913,-0.52865 z m -12.51449,1.97788 q -0.88413,0 -1.38544,0.56512 -0.50131,0.55599 -0.57423,1.58596 h 3.90109 q -0.0181,-1.02996 -0.53776,-1.58596 -0.51954,-0.56512 -1.40366,-0.56512 z m 0.39193,8.58606 q -2.46097,0 -3.84641,-1.35809 -1.38544,-1.35809 -1.38544,-3.84641 0,-2.56123 1.27607,-3.95578 1.28516,-1.40366 3.54562,-1.40366 2.16019,0 3.36332,1.23048 1.20315,1.23049 1.20315,3.39978 v 1.34899 h -6.57171 q 0.0456,1.18491 0.70183,1.85029 0.65626,0.66536 1.84117,0.66536 0.92058,0 1.74091,-0.19139 0.82033,-0.1914 1.71357,-0.61069 v 2.15107 q -0.72918,0.36458 -1.55862,0.53778 -0.82943,0.18229 -2.02346,0.18229 z m -8.41289,-2.21487 q 0.72919,0 1.75003,-0.31903 v 2.06904 q -1.03908,0.46484 -2.55212,0.46484 -1.66799,0 -2.43362,-0.83855 -0.75652,-0.84767 -0.75652,-2.53388 v -4.91283 h -1.33075 v -1.17581 l 1.53127,-0.92969 0.80209,-2.15107 h 1.77738 v 2.1693 h 2.8529 v 2.08727 h -2.8529 v 4.91283 q 0,0.59244 0.32814,0.87501 0.33725,0.28256 0.88412,0.28256 z m -8.09385,0 q 0.72918,0 1.75003,-0.31903 v 2.06904 q -1.03908,0.46484 -2.55212,0.46484 -1.66799,0 -2.43363,-0.83855 -0.75652,-0.84767 -0.75652,-2.53388 v -4.91283 h -1.33074 v -1.17581 l 1.53127,-0.92969 0.80209,-2.15107 h 1.77737 v 2.1693 h 2.85291 v 2.08727 h -2.85291 v 4.91283 q 0,0.59244 0.32814,0.87501 0.33725,0.28256 0.88412,0.28256 z m -10.0991,-10.79182 q 0,-1.35809 1.51305,-1.35809 1.51304,0 1.51304,1.35809 0,0.64715 -0.38282,1.01174 -0.37369,0.35547 -1.13022,0.35547 -1.51305,0 -1.51305,-1.36721 z m 2.89848,12.8244 h -2.77999 v -10.19024 h 2.77999 z m -10.37253,0 -0.78388,-3.56385 -1.0573,-4.50267 h -0.0638 l -1.85941,8.06652 h -2.98962 l -2.89848,-10.19024 h 2.77088 l 1.1758,4.51177 q 0.28256,1.21226 0.57423,3.34511 h 0.0547 q 0.0367,-0.69272 0.31903,-2.19665 l 0.14585,-0.77475 1.25783,-4.88548 h 3.06254 l 1.19403,4.88548 q 0.0367,0.2005 0.10938,0.59245 0.082,0.39194 0.15496,0.83856 0.0729,0.4375 0.1276,0.8659 0.0638,0.41927 0.0729,0.67449 h 0.0547 q 0.082,-0.65626 0.29167,-1.79561 0.20962,-1.14845 0.30078,-1.5495 l 1.22137,-4.51177 h 2.7253 l -2.93496,10.19024 z m -13.84526,0 h -2.82556 v -10.97411 h -3.61854 v -2.3516 h 10.06264 v 2.3516 h -3.61854 z m -13.08872,0 h -2.77998 v -5.9519 q 0,-1.10289 -0.39193,-1.64976 -0.39194,-0.556 -1.24872,-0.556 -1.16668,0 -1.68622,0.78386 -0.51954,0.77475 -0.51954,2.57946 v 4.79434 h -2.77999 v -10.19024 h 2.12373 l 0.37369,1.3034 h 0.15496 q 0.46484,-0.73829 1.27606,-1.112 0.82032,-0.38281 1.85939,-0.38281 1.77738,0 2.69796,0.96616 0.92058,0.95704 0.92058,2.77087 z m -18.74896,-5.11335 q 0,1.51304 0.4922,2.28779 0.5013,0.77475 1.62241,0.77475 1.11199,0 1.59508,-0.76564 0.49219,-0.77475 0.49219,-2.2969 0,-1.51304 -0.49219,-2.26956 -0.49219,-0.75652 -1.6133,-0.75652 -1.11199,0 -1.60419,0.75652 -0.4922,0.7474 -0.4922,2.26956 z m 7.04567,0 q 0,2.48831 -1.31252,3.89198 -1.31252,1.40366 -3.65499,1.40366 -1.46747,0 -2.58858,-0.63803 -1.12111,-0.64714 -1.72268,-1.85028 -0.60157,-1.20314 -0.60157,-2.80733 0,-2.49743 1.3034,-3.88287 1.30341,-1.38543 3.66411,-1.38543 1.46747,0 2.58859,0.63803 1.1211,0.63802 1.72267,1.83205 0.60157,1.19403 0.60157,2.79822 z m -21.70211,5.11335 -0.78387,-3.56385 -1.05731,-4.50267 h -0.0638 l -1.8594,8.06652 h -2.98962 l -2.89848,-10.19024 h 2.77087 l 1.1758,4.51177 q 0.28256,1.21226 0.57423,3.34511 h 0.0547 q 0.0367,-0.69272 0.31903,-2.19665 l 0.14586,-0.77475 1.25783,-4.88548 h 3.06254 l 1.19402,4.88548 q 0.0367,0.2005 0.10938,0.59245 0.082,0.39194 0.15493,0.83856 0.0729,0.4375 0.1276,0.8659 0.0638,0.41927 0.0729,0.67449 h 0.0547 q 0.082,-0.65626 0.29167,-1.79561 0.20965,-1.14845 0.30078,-1.5495 l 1.22137,-4.51177 h 2.72529 l -2.93495,10.19024 z m -17.719002,-5.11335 q 0,1.51304 0.49219,2.28779 0.50132,0.77475 1.62242,0.77475 1.112,0 1.59507,-0.76564 0.4922,-0.77475 0.4922,-2.2969 0,-1.51304 -0.4922,-2.26956 -0.49219,-0.75652 -1.6133,-0.75652 -1.11199,0 -1.60419,0.75652 -0.49219,0.7474 -0.49219,2.26956 z m 7.045672,0 q 0,2.48831 -1.31252,3.89198 -1.312522,1.40366 -3.655002,1.40366 -1.46747,0 -2.58858,-0.63803 -1.1211,-0.64714 -1.72268,-1.85028 -0.60157,-1.20314 -0.60157,-2.80733 0,-2.49743 1.30341,-3.88287 1.3034,-1.38543 3.66411,-1.38543 1.46747,0 2.58858,0.63803 1.121102,0.63802 1.722682,1.83205 0.60157,1.19403 0.60157,2.79822 z m -12.168142,5.11335 h -2.77999 v -14.18249 h 2.77999 z m -5.68758,0 h -2.77999 v -14.18249 h 2.77999 z m -12.12256,-5.11335 q 0,1.51304 0.49219,2.28779 0.50131,0.77475 1.62243,0.77475 1.11199,0 1.59507,-0.76564 0.49219,-0.77475 0.49219,-2.2969 0,-1.51304 -0.49219,-2.26956 -0.4922,-0.75652 -1.6133,-0.75652 -1.112,0 -1.6042,0.75652 -0.49219,0.7474 -0.49219,2.26956 z m 7.04567,0 q 0,2.48831 -1.31252,3.89198 -1.31251,1.40366 -3.655,1.40366 -1.46747,0 -2.58857,-0.63803 -1.12112,-0.64714 -1.72268,-1.85028 -0.60157,-1.20314 -0.60157,-2.80733 0,-2.49743 1.30339,-3.88287 1.30341,-1.38543 3.66412,-1.38543 1.46746,0 2.58858,0.63803 1.12111,0.63802 1.72267,1.83205 0.60158,1.19403 0.60158,2.79822 z m -16.50674,5.11335 h -2.779984 v -13.32571 h 7.638124 v 2.31514 h -4.85814 v 3.43624 h 4.5209 v 2.30603 h -4.5209 z"
         inkscape:connector-curvature="0" />
    </symbol>
    <symbol
       id="twitter-button-annotation"
       viewBox="0 0 300 64.025"
       preserveAspectRatio="xMaxYMax">
      <title
         id="title5078">for in between</title>
      <desc
         id="desc5080">The title text written by hand</desc>
      <path
         style="fill:none;stroke-width:1.50002074;stroke-linecap:round"
         d="m 84.040992,47.511546 c 9.4132,1.37475 19.205378,5.21379 24.179798,15.75418"
         id="path4854"
         inkscape:connector-curvature="0"
         sodipodi:nodetypes="cc" />
      <path
         inkscape:connector-curvature="0"
         id="path6762"
         style="fill:none;stroke-width:1.50002074;stroke-linecap:round;stroke-linejoin:round"
         d="m 67.907092,41.055766 c -0.4415,2.33415 -0.53577,4.42119 -0.97509,6.7376 0.51723,-3.37293 1.43501,-6.64864 4.59144,-6.24887 3.52008,0.44552 2.42819,4.74966 2.18443,7.19327 m -16.17713,-5.39382 c 1.44943,0.36798 3.99567,1.05013 5.3245,-0.0113 1.26524,-1.01049 -0.052,-2.61639 -1.12973,-2.96201 -1.24837,-0.40035 -2.84549,0.0348 -3.85178,0.89558 -1.34197,1.14795 -1.28045,3.57159 -0.14911,4.57524 1.34506,1.1932 3.86778,1.4478 5.43719,0.98111 m -15.88191,-4.92197 c 1.54287,0.21782 3.76417,0.92063 5.18408,-0.13731 0.51175,-0.38131 0.43087,-1.36378 0.0456,-1.81081 -1.91215,-2.21891 -6.08473,-0.84897 -6.09892,2.30256 -0.0151,3.39215 5.15868,4.07896 6.85405,3.18027 m -21.34567,-9.03142 c 0.62566,2.64039 1.21429,4.77715 1.97172,7.19716 1.25413,-1.21412 2.41123,-2.30871 3.37613,-3.43086 0.51718,1.41319 1.24134,2.91015 1.80439,4.09463 1.561,-2.17731 2.86209,-4.29123 4.34818,-6.36404 m -21.17361,-3.43216 c 1.91463,0.21581 4.58891,0.54322 6.11202,0.85943 m -1.96802,-9.19342 c -0.62156,5.50485 -1.50087,11.46806 -2.03168,16.23728 m -11.44202,-4.69792 c 1.30791,0.17825 4.61377,0.5323 5.75821,-0.28762 0.68023,-0.48731 -0.12106,-1.70338 -0.48582,-2.03805 -1.43776,-1.31918 -3.60222,-1.30536 -5.11074,-0.095 -1.6369,1.31341 -1.43864,3.90002 0.16324,5.12874 1.30467,1.00068 3.81272,1.11284 5.31543,0.53882 M 2.7518718,23.144786 c -0.52329,3.69363 -0.99596,8.03024 -1.39515,11.16336 l -0.37802998,2.94018 c -0.6471,5.033 0.21819998,-2.07204 0.86836998,-3.32535 1.11701,-2.15344 5.69911,-0.55596 6.27152,1.404 0.9074,3.10702 -1.05503,4.60887 -4.73038,4.23773 -0.63149,-0.0637 -1.66298,-0.16169 -2.56048998,-0.35139 M 59.654102,14.647346 c -0.34919,2.36453 -0.77609,4.97677 -0.98461,6.85645 0.51771,-3.61417 1.70759,-6.61568 4.16451,-6.40203 3.54202,0.30803 2.40698,4.69619 2.14336,7.1656 M 57.007142,9.5101864 c -0.11146,0.175107 -0.22284,0.350253 -0.33423,0.5253796 -0.0178,0.02192 -0.0355,0.04479 -0.053,0.06678 m -0.62446,4.10795 c -0.4064,2.39399 -0.65169,4.50565 -0.94572,6.76516 m -16.82934,-8.982725 c -0.39874,2.402585 -0.71504,4.807075 -0.9533,6.805975 0.41697,-2.34354 0.96353,-4.49847 1.37574,-6.639613 0.40539,0.291179 1.55806,0.70022 2.21999,0.797113 0.67946,0.09952 1.92377,0.09192 2.66506,-0.06762 m -11.66383,-1.502485 c -1.61118,-0.532505 -3.60724,-0.571197 -4.96606,0.979104 -2.84494,3.245891 3.42174,6.867451 5.76634,5.072371 3.23493,-2.47675 0.57024,-8.8465426 -3.39672,-5.498277 m -12.0835,-2.8169966 c 2.51496,0.337555 4.51812,0.585937 7.12961,0.9237216 m 3.60365,-7.2104706 c -3.31973,-3.42675602 -5.79289,-2.27506902 -6.40013,0.910414 -1.22301,6.4157156 -1.89704,15.9049086 -2.32603,19.7370386" />
    </symbol>
    <symbol
       id="youtube-button"
       viewBox="-10 0 240 50">
      <title
         id="title5085">Watch all Videos</title>
      <desc
         id="desc5087">A button with the YouTube logo next to the title text</desc>
      <path
         style="display:inline;opacity:1;fill:#ff0000;fill-opacity:1;stroke:none;stroke-width:0.61185724;stroke-linecap:round;stroke-linejoin:round;stroke-miterlimit:4;stroke-dasharray:none;stroke-dashoffset:0;stroke-opacity:1"
         d="M 0,0 H 220 V 50 H 0 Z"
         id="rect2525"
         inkscape:connector-curvature="0"
         sodipodi:nodetypes="ccccc" />
      <path
         style="fill:#ffffff;fill-opacity:1;fill-rule:nonzero;stroke:none;stroke-width:0.14204882"
         d="m 32.95613,16.19363 c 0,0 -7.81614,-9.8e-4 -9.76578,0.52453 -1.0757,0.28935 -1.92308,1.14323 -2.21058,2.22591 C 20.4574,20.90631 20.45711,25 20.45711,25 c 0,0 9e-5,4.0934 0.52266,6.05592 0.2875,1.08254 1.13488,1.93643 2.21058,2.22592 1.94964,0.52572 9.76578,0.52453 9.76578,0.52453 0,0 7.81829,9.7e-4 9.76773,-0.52453 1.0759,-0.28949 1.92318,-1.14338 2.21068,-2.22592 C 45.45691,29.0934 45.45711,25 45.45711,25 c 0,0 -2e-4,-4.09369 -0.52257,-6.05593 -0.2875,-1.08268 -1.13478,-1.93656 -2.21068,-2.22591 -1.94944,-0.52586 -9.76773,-0.52453 -9.76773,-0.52453 z M 30.40023,21.28252 36.9349,25 30.40023,28.71748 Z"
         id="path2543"
         inkscape:connector-curvature="0" />
      <path
         inkscape:connector-curvature="0"
         d="m 196.72977,29.18075 q 0,-0.48307 -0.48307,-0.75651 -0.47396,-0.28255 -1.53125,-0.5013 -3.51823,-0.73828 -3.51823,-2.98958 0,-1.3125 1.08464,-2.1875 1.09375,-0.88412 2.85286,-0.88412 1.87761,0 2.9987,0.88412 1.13021,0.88411 1.13021,2.29687 h -2.63412 q 0,-0.5651 -0.36458,-0.92969 -0.36458,-0.37369 -1.13932,-0.37369 -0.66537,0 -1.02995,0.30078 -0.36458,0.30078 -0.36458,0.76562 0,0.4375 0.41015,0.71094 0.41927,0.26432 1.40365,0.46484 0.98437,0.19141 1.65885,0.4375 2.08724,0.76563 2.08724,2.65235 0,1.34896 -1.15755,2.1875 -1.15755,0.82942 -2.98958,0.82942 -1.23959,0 -2.20573,-0.4375 -0.95703,-0.44661 -1.50391,-1.21224 -0.54687,-0.77473 -0.54687,-1.66796 h 2.49739 q 0.0365,0.70182 0.51953,1.07552 0.48308,0.37369 1.29427,0.37369 0.75651,0 1.13933,-0.28255 0.39192,-0.29166 0.39192,-0.75651 z m -16.32421,-2.29687 q 0,-1.46745 0.5651,-2.61589 0.56511,-1.14844 1.6224,-1.77734 1.0664,-0.62891 2.47005,-0.62891 1.99609,0 3.25391,1.22136 1.26692,1.22135 1.41276,3.3177 l 0.0182,0.67448 q 0,2.26953 -1.26693,3.64584 -1.26693,1.36718 -3.39974,1.36718 -2.13281,0 -3.40885,-1.36718 -1.26693,-1.36719 -1.26693,-3.71875 z m 2.63411,0.1914 q 0,1.40365 0.52865,2.15105 0.52864,0.73828 1.51302,0.73828 0.95703,0 1.49479,-0.72917 0.53776,-0.73828 0.53776,-2.35156 0,-1.3763 -0.53776,-2.13282 -0.53776,-0.75651 -1.51302,-0.75651 -0.96615,0 -1.49479,0.75651 -0.52865,0.7474 -0.52865,2.32422 z m -7.78385,5.01302 q -2.16927,0 -3.53645,-1.33072 -1.35808,-1.33073 -1.35808,-3.54558 v -0.25521 q 0,-1.48567 0.57422,-2.65234 0.57422,-1.17578 1.6224,-1.80469 1.05729,-0.63802 2.40625,-0.63802 2.02343,0 3.18099,1.27604 1.16666,1.27605 1.16666,3.61849 v 1.07552 h -6.27994 q 0.1276,0.96615 0.76562,1.54948 0.64714,0.58334 1.63151,0.58334 1.52214,0 2.37891,-1.10287 l 1.29427,1.44922 q -0.59245,0.83854 -1.60417,1.3125 -1.01172,0.46484 -2.24219,0.46484 z m -0.30078,-8.09375 q -0.78385,0 -1.27604,0.52865 -0.48307,0.52865 -0.61979,1.51302 h 3.66406 v -0.20963 q -0.0182,-0.875 -0.47396,-1.34896 -0.45573,-0.48308 -1.29427,-0.48308 z m -15.1849,2.90756 q 0,-2.30599 1.02995,-3.67318 1.03906,-1.36719 2.83464,-1.36719 1.4401,0 2.3789,1.07552 v -5.03125 h 2.64323 v 14 h -2.3789 l -0.12761,-1.04817 q -0.98437,1.23046 -2.53385,1.23046 -1.74089,0 -2.79818,-1.36718 -1.04818,-1.37631 -1.04818,-3.81901 z m 2.63412,0.1914 q 0,1.38542 0.48307,2.1237 0.48307,0.73828 1.40365,0.73828 1.22135,0 1.72265,-1.02995 v -3.89192 q -0.49218,-1.02995 -1.70442,-1.02995 -1.90495,0 -1.90495,3.08984 z m -4.40235,4.8125 h -2.64323 v -9.86198 h 2.64323 z m -2.79817,-12.41406 q 0,-0.59245 0.39192,-0.97526 0.40104,-0.38281 1.08464,-0.38281 0.67448,0 1.07552,0.38281 0.40104,0.38281 0.40104,0.97526 0,0.60156 -0.41016,0.98438 -0.40104,0.38281 -1.0664,0.38281 -0.66537,0 -1.07552,-0.38281 -0.40104,-0.38282 -0.40104,-0.98438 z m -7.11849,9.1237 3.00781,-9.98047 h 3.04427 l -4.62109,13.27083 h -2.85287 l -4.60286,-13.27083 h 3.03515 z m -11.92188,3.29036 h -2.64323 v -14 h 2.64323 z m -4.95833,0 h -2.64322 v -14 h 2.64322 z m -7.09114,0 q -0.18229,-0.35547 -0.26433,-0.88411 -0.95703,1.0664 -2.48828,1.0664 -1.44922,0 -2.40625,-0.83854 -0.94791,-0.83854 -0.94791,-2.11458 0,-1.56771 1.15755,-2.40625 1.16667,-0.83854 3.36328,-0.84766 h 1.21224 v -0.5651 q 0,-0.68359 -0.35547,-1.09375 -0.34635,-0.41016 -1.10286,-0.41016 -0.66537,0 -1.04818,0.31901 -0.3737,0.31901 -0.3737,0.875 h -2.63411 q 0,-0.85677 0.52864,-1.58593 0.52865,-0.72917 1.49479,-1.13933 0.96615,-0.41927 2.16928,-0.41927 1.82291,0 2.88932,0.92058 1.07552,0.91145 1.07552,2.57031 v 4.27474 q 0.009,1.40364 0.39193,2.12369 v 0.15495 z m -2.17839,-1.83203 q 0.58334,0 1.07552,-0.25521 0.49219,-0.26432 0.72917,-0.70182 v -1.69531 h -0.98438 q -1.97786,0 -2.10546,1.36719 l -0.009,0.15494 q 0,0.49219 0.34636,0.8112 0.34635,0.31901 0.94791,0.31901 z m -16.09635,-6.95443 q 1.04818,-1.25781 2.63411,-1.25781 3.20834,0 3.25391,3.72787 v 6.3164 h -2.63411 v -6.24349 q 0,-0.84765 -0.36459,-1.24869 -0.36458,-0.41016 -1.21224,-0.41016 -1.15755,0 -1.67708,0.89323 v 7.00911 h -2.63412 v -14 h 2.63412 z m -8.20313,6.84506 q 0.72917,0 1.1849,-0.40105 0.45573,-0.40104 0.47396,-1.0664 h 2.47005 q -0.009,1.0026 -0.54687,1.84114 -0.53776,0.82943 -1.47657,1.29428 -0.92968,0.45572 -2.05989,0.45572 -2.11459,0 -3.33594,-1.33984 -1.22135,-1.34896 -1.22135,-3.71875 v -0.17318 q 0,-2.27864 1.21224,-3.63671 1.21223,-1.35808 3.32682,-1.35808 1.85026,0 2.96224,1.05729 1.12109,1.04818 1.13932,2.79818 h -2.47005 q -0.0182,-0.76562 -0.47396,-1.23958 -0.45573,-0.48308 -1.20312,-0.48308 -0.92058,0 -1.39454,0.67448 -0.46484,0.66537 -0.46484,2.16927 v 0.27344 q 0,1.52214 0.46484,2.1875 0.46485,0.66537 1.41276,0.66537 z M 90.38082,19.61955 v 2.42448 h 1.6862 v 1.9323 h -1.6862 v 4.92187 q 0,0.54688 0.20964,0.78385 0.20964,0.23698 0.80208,0.23698 0.4375,0 0.77474,-0.0638 v 1.9961 q -0.77474,0.23697 -1.59505,0.23697 -2.77083,0 -2.82552,-2.79817 v -5.3138 h -1.4401 v -1.9323 h 1.4401 v -2.42448 z m -7.46484,12.28646 q -0.18229,-0.35547 -0.26432,-0.88411 -0.95703,1.0664 -2.48828,1.0664 -1.44922,0 -2.40625,-0.83854 -0.94792,-0.83854 -0.94792,-2.11458 0,-1.56771 1.15755,-2.40625 1.16667,-0.83854 3.36328,-0.84766 h 1.21224 v -0.5651 q 0,-0.68359 -0.35547,-1.09375 -0.34635,-0.41016 -1.10286,-0.41016 -0.66536,0 -1.04818,0.31901 -0.37369,0.31901 -0.37369,0.875 h -2.63412 q 0,-0.85677 0.52865,-1.58593 0.52864,-0.72917 1.49479,-1.13933 0.96614,-0.41927 2.16927,-0.41927 1.82292,0 2.88932,0.92058 1.07552,0.91145 1.07552,2.57031 v 4.27474 q 0.009,1.40364 0.39193,2.12369 v 0.15495 z M 80.7376,30.07398 q 0.58333,0 1.07552,-0.25521 0.49218,-0.26432 0.72916,-0.70182 v -1.69531 h -0.98437 q -1.97787,0 -2.10547,1.36719 l -0.009,0.15494 q 0,0.49219 0.34635,0.8112 0.34635,0.31901 0.94792,0.31901 z m -9.06901,-1.99609 1.78645,-9.44271 h 2.72526 l -2.94401,13.27083 h -2.7526 l -2.16016,-8.8776 -2.16015,8.8776 H 63.41077 L 60.46676,18.63518 h 2.72526 l 1.79558,9.42448 2.1875,-9.42448 h 2.3151 z"
         style="fill:#ffffff;stroke:none;stroke-width:3.77958012"
         id="path7193" />
    </symbol>
    <symbol
       id="youtube-button-annotation"
       viewBox="0 0 300 58.614"
       preserveAspectRatio="xMinYMin">
      <title
         id="title5093">a new video every two weeks</title>
      <desc
         id="desc5095">The title text written by hand</desc>
      <path
         sodipodi:nodetypes="cc"
         inkscape:connector-curvature="0"
         id="path4160"
         d="M 53.125921,24.232086 C 33.283049,26.369555 9.7857066,18.07809 0.75696959,6.8470149"
         style="fill:none;stroke-width:1.50049329;stroke-linecap:round;stroke-linejoin:round" />
      <path
         inkscape:connector-curvature="0"
         d="m 198.05294,29.648469 c -0.91304,-0.573967 -1.84255,-0.80827 -2.83684,-0.663278 -1.53274,0.223524 -3.89486,1.033424 -1.97185,2.763829 1.81711,1.635122 5.77577,-0.385154 5.76949,2.537606 0,1.823126 -5.31258,1.944137 -6.5982,0.886262 m -5.94037,-1.821576 c 1.055,1.342598 1.8125,2.214252 2.85264,3.380317 m -8.32804,-15.591467 c 0.42872,4.573406 1.18554,8.251674 1.31583,12.696437 0.0113,0.312496 0.29367,2.424635 0.52721,3.620501 1.1999,-1.260078 2.49105,-3.295245 3.13414,-4.200319 0.82603,-1.162807 1.33022,-1.867456 2.37925,-3.430218 m -16.07044,5.520107 c 1.90703,10e-4 4.84266,0.08591 6.11759,-1.554632 0.57711,-0.7424 -0.3258,-1.324346 -0.86851,-1.671584 -1.79881,-1.151146 -4.36995,-0.606146 -5.59309,1.117097 -1.27232,1.792545 -0.83061,4.865049 1.64113,5.116062 2.09124,0.212374 4.06905,-0.30573 5.65168,-1.365079 m -18.56655,-0.422885 c 1.7154,0.27538 5.29115,0.270315 6.39177,-1.488615 0.99372,-1.588258 -1.20161,-2.547822 -3.40053,-2.126267 -2.49142,0.477656 -4.04767,1.825674 -3.46176,4.129796 0.96293,3.786535 5.88148,3.001592 8.01302,0.897783 m -22.29692,-2.97462 c 0.52132,1.128956 0.98613,2.313791 1.49271,3.155972 0.74492,1.238379 1.40702,2.132669 2.09426,3.279345 0.89361,-1.644662 1.37751,-2.687898 2.19621,-4.150077 1.03874,1.211786 1.82795,2.680897 2.70175,3.600771 0.63822,-1.278469 1.28933,-2.460083 1.70773,-3.529209 0.62749,-1.603812 1.04521,-3.187184 1.22099,-3.812572 m -30.95192,4.478682 c -2.05813,-1.500222 -4.85895,0.557027 -4.66688,2.948529 0.28309,3.52385 4.54797,4.119508 7.01672,2.452936 0.90181,-0.608799 1.441,-1.480661 1.51043,-2.566187 0.17802,-2.78515 -4.69749,-4.599594 -6.33748,-2.289122 m -16.27873,1.117724 c 0.74231,1.301128 1.16728,2.327915 1.81771,3.433461 0.415,0.705368 1.2456,2.280429 1.64722,2.967179 0.86832,-1.41757 1.77292,-2.659067 2.29965,-3.634078 1.0017,0.968801 2.0915,2.40393 2.79881,3.014869 0.42483,-1.033042 0.99252,-2.445732 1.32732,-3.454506 0.46583,-1.403078 0.85052,-2.560465 1.23214,-3.710584 m -19.261872,2.271562 c 1.672122,-0.1437 4.012062,-0.463006 5.513572,-0.627259 m -3.48874,-9.442339 c 0.1527,1.034565 0.12246,2.08347 0.18973,3.124423 0.21657,3.332705 0.69564,6.645791 0.95703,9.973987 0.10621,1.351219 0.2642,2.614709 0.33487,4.052409 M 86.248988,42.204313 c -0.4015,1.31523 -0.90551,2.497456 -1.40782,3.780234 -1.66071,4.240889 -3.424146,8.478036 -4.747944,11.869575 M 77.833262,43.211537 c 1.950831,2.219502 3.59045,4.24231 5.166456,6.234157 m -14.3991,-5.094719 c 0.265704,2.27804 0.415829,4.500743 0.850216,6.827974 -0.261925,-2.162808 -0.280823,-4.445172 -0.597098,-6.547779 -0.06085,-0.110326 -0.333359,-0.182478 -0.25361,-0.280142 0.145892,-0.179077 1.082963,0.02079 1.295111,0.06331 1.748774,0.351236 3.189059,-0.06301 4.697867,-0.680733 m -16.140054,5.75604 c 1.789367,0.01134 4.017316,-0.132172 5.313107,-1.501439 1.634215,-1.726863 -1.85241,-3.690941 -4.222509,-2.19699 -1.853922,1.168646 -3.380381,3.376885 -1.956915,5.359815 0.343563,0.478714 0.779236,0.799801 1.373952,0.973321 2.136484,0.623468 4.630893,-0.618449 6.590341,-1.325257 M 46.745385,47.084042 c 1.433028,2.573044 2.734564,4.132056 4.474305,6.215243 1.341978,-2.357199 2.349047,-4.850214 3.207049,-7.114878 m -15.845662,5.67109 c 1.808755,-0.0573 4.168423,-0.261774 5.500876,-1.765634 0.586553,-0.662058 -0.25361,-1.570114 -0.766915,-1.924846 -1.479932,-1.022637 -3.732108,-0.333094 -5.00662,0.662039 -1.840732,1.437359 -2.430914,5.005827 0.436844,5.680289 1.860422,0.437536 4.382196,-0.454358 6.069136,-1.222199"
         style="fill:none;stroke-width:1.50002074;stroke-linecap:round;stroke-linejoin:round"
         id="path3895" />
      <path
         inkscape:connector-curvature="0"
         d="m 66.059077,20.713157 c 1.349272,-1.179305 2.884122,-1.567411 4.387072,-1.601953 3.487532,-0.08009 5.512782,6.894476 -0.374557,6.913457 -1.025248,0.003 -2.402036,0.001 -2.938925,-0.967474 -1.58697,-2.863319 4.591925,-3.78102 6.055529,-1.507452 M 162.52296,8.4771789 c -1.93432,-0.56001 -3.99426,0.520085 -4.87098,2.2997311 -0.28951,0.587388 -0.24151,1.133617 -0.0401,1.740516 1.03931,3.137573 5.92366,2.875168 7.922,0.853761 2.99373,-3.028502 -0.9063,-6.7005761 -4.92827,-5.1704731 m -11.96346,4.8268791 c 1.39602,-0.03175 4.00476,-0.281919 4.74715,-1.766647 0.34545,-0.691217 -0.59071,-1.4925301 -1.11702,-1.7039411 -1.92282,-0.772354 -3.51984,-0.172047 -4.66816,1.1224031 -1.70712,1.924426 -0.23546,4.654874 2.17194,5.228732 1.62042,0.386258 3.94497,-0.116298 5.38299,-0.92404 m -13.08018,-4.325941 c -1.54714,-0.465708 -3.23506,-0.185464 -4.46289,0.916072 -2.18883,1.963878 -0.62348,6.149834 2.41636,5.834499 0.6265,-0.06501 1.16641,-0.433056 1.65761,-0.796099 2.68142,-1.981759 1.28672,-6.494018 1.07083,-9.3067411 -0.16517,-2.153427 -0.50802,-4.35157 -0.77274,-6.56245698 0.24227,1.81637498 0.50091,3.99456198 0.67333,5.47546198 0.29784,2.633067 0.76571,5.3211951 1.00409,7.9655141 0.068,0.763389 0.48412,1.971777 0.71551,2.698677 M 132.57734,6.9887759 c -0.66358,0.880363 -0.40887,0.406517 0,0 z m 0.25437,4.4328741 c 0.25701,2.120767 0.59109,4.962698 0.83442,6.887603 m -10.98875,-5.866508 c 1.68191,2.473104 3.01474,4.513612 4.39406,6.638911 0.91511,-2.363205 1.819,-4.880749 2.66963,-7.295334 m -46.897372,5.414917 c 0.11641,1.045164 0.34054,2.072688 0.47211,3.116154 0.17613,1.370986 0.42732,2.745298 0.52272,4.057175 -0.096,-1.023113 -0.15761,-2.033558 -0.20335,-2.968992 -0.0979,-1.976097 0.3534,-3.539618 2.37071,-4.017444 0.55223,-0.130736 1.21683,-0.27916 1.77485,-0.124311 1.4977,0.415645 2.0601,2.224752 2.28801,3.595609 0.15572,0.935072 0.37962,1.942519 0.43053,2.662397 m 11.158232,-8.351715 c 0.36208,1.004103 0.77901,1.913878 1.31034,2.781468 0.85029,1.388629 1.61112,2.570217 2.53032,3.781194 0.58832,-0.869594 1.62004,-3.457768 1.84224,-3.974066 0.59041,0.685597 2.2832,4.48361 2.75074,3.267564 0.62049,-1.613812 1.18482,-3.331185 1.55851,-5.020018 0.0692,-0.310833 0.42282,-1.346037 0.67031,-2.158371 m -17.939142,6.055385 c 1.6157,0.02457 4.01615,-0.0449 5.05818,-1.532291 1.061492,-1.515202 -2.08803,-2.687276 -3.13615,-2.560335 -0.85203,0.10322 -1.70432,0.64206 -2.29776,1.249767 -1.55801,1.595492 -0.9179,4.599574 1.21265,5.344922 1.41171,0.493889 3.94523,0.271185 5.291672,-0.381926"
         style="fill:none;stroke-width:1.50002074;stroke-linecap:round;stroke-linejoin:round"
         id="path5300" />
    </symbol>
  </defs>
  <sodipodi:namedview
     id="base"
     pagecolor="#8c3f3f"
     bordercolor="#666666"
     borderopacity="1.0"
     inkscape:pageopacity="1"
     inkscape:pageshadow="2"
     inkscape:zoom="2.0000001"
     inkscape:cx="190.22232"
     inkscape:cy="112.91578"
     inkscape:document-units="px"
     inkscape:current-layer="svg5516"
     showgrid="true"
     fit-margin-top="0"
     fit-margin-left="0"
     fit-margin-right="0"
     fit-margin-bottom="0"
     units="px"
     inkscape:snap-bbox="true"
     inkscape:bbox-paths="false"
     inkscape:bbox-nodes="true"
     inkscape:snap-nodes="false"
     inkscape:snap-others="false"
     inkscape:window-width="1920"
     inkscape:window-height="1016"
     inkscape:window-x="0"
     inkscape:window-y="27"
     inkscape:window-maximized="1"
     inkscape:snap-page="true"
     inkscape:snap-grids="true"
     inkscape:snap-to-guides="false"
     inkscape:snap-bbox-edge-midpoints="false"
     inkscape:snap-global="false">
    <inkscape:grid
       type="xygrid"
       id="grid6364"
       empspacing="1"
       originx="4.9266524e-07"
       originy="0"
       spacingx="26.458331"
       spacingy="26.458331" />
  </sodipodi:namedview>
  <metadata
     id="metadata5513">
    <rdf:RDF>
      <cc:Work
         rdf:about="">
        <dc:format>image/svg+xml</dc:format>
        <dc:type
           rdf:resource="http://purl.org/dc/dcmitype/StillImage" />
        <dc:title></dc:title>
      </cc:Work>
    </rdf:RDF>
  </metadata>
  <g
     inkscape:label="Layer 1"
     inkscape:groupmode="layer"
     id="layer1">
    <use
       xlink:href="#patreon-button"
       id="use14795" />
    <use
       xlink:href="#patreon-button-annotation"
       id="use14820"
       style="stroke:#ffffff"
       x="0"
       y="0"
       width="100%"
       height="100%" />
    <use
       xlink:href="#twitter-button"
       id="use14859" />
    <use
       xlink:href="#twitter-button-annotation"
       id="use14867"
       style="stroke:#ffffff"
       x="0"
       y="0"
       width="100%"
       height="100%" />
    <use
       xlink:href="#youtube-button"
       id="use14928" />
    <use
       xlink:href="#youtube-button-annotation"
       id="use14937"
       style="stroke:#ffffff"
       x="0"
       y="0"
       width="100%"
       height="100%" />
  </g>
</svg>
