<?xml version="1.0" encoding="UTF-8" standalone="no"?>
<!-- Created with Inkscape (http://www.inkscape.org/) -->

<svg
   xmlns:dc="http://purl.org/dc/elements/1.1/"
   xmlns:cc="http://creativecommons.org/ns#"
   xmlns:rdf="http://www.w3.org/1999/02/22-rdf-syntax-ns#"
   xmlns:svg="http://www.w3.org/2000/svg"
   xmlns="http://www.w3.org/2000/svg"
   xmlns:xlink="http://www.w3.org/1999/xlink"
   xmlns:sodipodi="http://sodipodi.sourceforge.net/DTD/sodipodi-0.dtd"
   xmlns:inkscape="http://www.inkscape.org/namespaces/inkscape"
   width="500"
   height="100"
   viewBox="0 0 500.00005 100"
   version="1.1"
   id="svg858"
   sodipodi:docname="logo_and_categories.svg"
   inkscape:version="0.92.2 5c3e80d, 2017-08-06">
  <defs
     id="defs852">
    <symbol
       id="christopher-aue"
       viewBox="0 0 436 76">
      <title
         id="title4747">Christopher Aue</title>
      <desc
         id="desc4749">A grid of 11x3 squares with the letters C, H, R, I, S, T, O, P, H, E, R punched into the upper squares and the letters A, U, E punched into the lower squares</desc>
      <path
         inkscape:connector-curvature="0"
         d="m 400,0 v 36 h 36 V 0 Z m 15.82004,8.50785 c 2.80804,2e-4 4.97457,0.47758 6.4687,1.47659 1.49397,0.999 2.24995,2.60482 2.24995,4.71082 0,1.31391 -0.31106,2.34519 -0.91404,3.16419 -0.60321,0.81894 -1.46767,1.50077 -2.60153,1.9688 0.37796,0.46805 0.78146,0.94397 1.19524,1.54679 0.41394,0.60291 0.79023,1.24165 1.19524,1.8986 0.40516,0.65673 0.81728,1.32782 1.19524,2.039 0.37795,0.71086 0.73066,1.42519 1.05464,2.10921 h -4.71096 c -0.34167,-0.61198 -0.70359,-1.19796 -1.05464,-1.82801 -0.35112,-0.62997 -0.68545,-1.23409 -1.05464,-1.8282 -0.36888,-0.59399 -0.76528,-1.15639 -1.12493,-1.68741 -0.35982,-0.53095 -0.69438,-1.04496 -1.05464,-1.47674 h -2.10943 v 6.8204 h -4.21871 V 9.0001 c 0.91842,-0.17991 1.90201,-0.27954 2.88283,-0.3515 0.98086,-0.0726 1.82755,-0.13908 2.60156,-0.14211 z m -0.56255,3.586 c -0.24302,0.0212 -0.48741,0.0514 -0.70314,0.0695 v 5.0626 h 1.19524 c 1.58426,1.9e-4 2.69113,-0.166 3.37504,-0.56255 0.68379,-0.39534 1.05449,-1.08457 1.05464,-2.0388 -4e-5,-0.91797 -0.3617,-1.58179 -1.05464,-1.96878 -0.69301,-0.38702 -1.67324,-0.56255 -3.02351,-0.56255 -0.30576,0 -0.60064,-0.0212 -0.84359,0 z M 360,0 v 36 h 36 V 0 Z m 11.39033,8.64866 h 12.58594 v 3.51539 h -8.36716 v 3.65619 h 7.45308 v 3.4454 h -7.45308 v 4.5 h 8.99997 v 3.58579 H 371.39033 Z M 320,0 v 36 h 36 V 0 Z m 10.26533,8.64866 h 4.21882 v 7.1014 h 7.03121 v -7.1014 h 4.21874 v 18.70277 h -4.21874 v -7.94519 h -7.03121 v 7.94519 h -4.21882 z M 280,0 v 36 h 36 V 0 Z m 16.45292,8.50785 c 2.78997,2e-4 4.97454,0.49588 6.46873,1.47659 1.49428,0.98086 2.24996,2.54881 2.24996,4.78121 0,2.24999 -0.80822,3.92299 -2.32025,4.92179 -1.51204,0.999 -3.6607,1.47673 -6.46874,1.47658 h -1.33599 v 6.25781 h -4.21871 V 9.00004 c 0.91843,-0.17991 1.9273,-0.27954 2.95314,-0.3515 1.02591,-0.0726 1.89781,-0.13909 2.67186,-0.13909 z m -0.63285,3.586 c -0.29707,0.0197 -0.55755,0.0514 -0.77344,0.0695 v 5.4142 h 1.33599 c 1.45784,0 2.5666,-0.166 3.30463,-0.56255 0.73806,-0.39594 1.12494,-1.16999 1.12509,-2.24999 -4e-5,-0.52188 -0.0922,-0.92342 -0.2812,-1.26569 -0.18935,-0.34228 -0.49285,-0.63708 -0.84359,-0.84374 -0.35112,-0.20682 -0.76165,-0.34092 -1.26569,-0.4218 -0.50404,-0.0816 -1.0755,-0.13909 -1.68752,-0.13909 -0.30576,0 -0.61697,-0.0197 -0.91404,0 z M 240,0 v 36 h 36 V 0 Z m 17.99978,8.22644 c 1.27838,2e-4 2.45189,0.21876 3.58594,0.633 1.13416,0.41408 2.1775,1.00052 3.02347,1.82801 0.84586,0.82771 1.48278,1.87878 1.96872,3.09378 0.48589,1.21489 0.70299,2.61639 0.70314,4.2188 -4e-5,1.60179 -0.22602,3.0038 -0.70314,4.2188 -0.47683,1.21489 -1.14066,2.20479 -1.96872,3.02359 -0.82817,0.81834 -1.81002,1.48399 -2.95317,1.8982 -1.14308,0.41409 -2.34225,0.56255 -3.65624,0.56255 -1.2778,0 -2.45187,-0.14816 -3.58595,-0.56255 -1.13401,-0.41424 -2.17747,-1.07973 -3.0234,-1.8982 -0.84586,-0.8188 -1.48263,-1.80861 -1.96876,-3.02359 -0.48619,-1.21489 -0.70299,-2.61701 -0.70299,-4.2188 0,-1.60241 0.19881,-3.0038 0.70299,-4.2188 0.50404,-1.21489 1.18405,-2.26599 2.03906,-3.09378 0.85508,-0.82757 1.89842,-1.41385 3.02343,-1.82801 1.12509,-0.41424 2.27362,-0.63285 3.51562,-0.633 z m 0,3.65641 c -0.7916,2e-4 -1.49701,0.19608 -2.10937,0.49225 -0.61228,0.29691 -1.12403,0.66444 -1.54688,1.19523 -0.42301,0.53095 -0.75954,1.2217 -0.98449,1.9688 -0.22451,0.74729 -0.3515,1.5608 -0.3515,2.46101 0,0.91797 0.12699,1.72299 0.3515,2.461 0.22488,0.73806 0.56133,1.36743 0.98449,1.89839 0.42285,0.53095 0.9346,0.97769 1.54688,1.26569 0.61229,0.28815 1.31785,0.4218 2.10937,0.4218 0.77404,0 1.48838,-0.13455 2.10939,-0.4218 0.62105,-0.288 1.12388,-0.73459 1.54685,-1.26569 0.42285,-0.53094 0.75923,-1.16046 0.98449,-1.89839 0.22526,-0.73807 0.35149,-1.543 0.35149,-2.461 0,-0.91843 -0.12699,-1.78441 -0.35149,-2.5312 -0.22526,-0.74683 -0.56134,-1.36728 -0.98449,-1.89861 -0.42286,-0.53095 -0.92584,-0.90739 -1.54685,-1.19523 -0.62105,-0.2877 -1.33538,-0.4921 -2.10939,-0.49225 z M 200,0 v 36 h 36 V 0 Z m 10.26547,8.64866 h 15.4687 v 3.58578 h -5.625 v 15.11699 h -4.21871 V 12.23444 h -5.62499 z M 160,0 v 36 h 36 V 0 Z m 18.42173,8.22644 c 1.26025,2e-4 2.31617,0.15194 3.23439,0.4221 0.91812,0.27016 1.65614,0.52022 2.24998,0.84359 l -1.19524,3.30459 c -0.52188,-0.27016 -1.11904,-0.49617 -1.75781,-0.70299 -0.63889,-0.20681 -1.42005,-0.28135 -2.32033,-0.28135 -1.00807,0 -1.66855,0.14363 -2.10937,0.42195 -0.44084,0.27878 -0.70299,0.68939 -0.70299,1.26569 0,0.34227 0.11943,0.60986 0.2812,0.84374 0.16176,0.23403 0.33562,0.44372 0.63284,0.63269 0.29707,0.18989 0.66762,0.4097 1.05464,0.56255 0.38702,0.1539 0.79763,0.25973 1.26569,0.42194 0.97164,0.35982 1.81109,0.77375 2.53122,1.12509 0.72023,0.35105 1.35126,0.72719 1.82815,1.19524 0.47682,0.46806 0.82061,0.98721 1.05464,1.61741 0.23402,0.62997 0.35164,1.42035 0.35164,2.32019 0,1.74619 -0.60427,3.11499 -1.82812,4.07799 -1.22382,0.96288 -3.08882,1.40644 -5.5547,1.40644 -0.82832,0 -1.58394,-0.0423 -2.25,-0.13908 -0.6661,-0.0998 -1.24498,-0.20788 -1.75781,-0.35165 -0.51281,-0.14362 -0.96681,-0.25973 -1.33584,-0.42195 -0.36918,-0.16191 -0.66187,-0.34817 -0.91404,-0.49224 l 1.19524,-3.37502 c 0.55801,0.30599 1.22003,0.6008 2.03907,0.84375 0.81895,0.24294 1.83526,0.35179 3.02342,0.35179 0.59384,0 1.08957,-0.0423 1.47644,-0.14211 0.38702,-0.0983 0.68001,-0.25081 0.91404,-0.42164 0.23403,-0.16993 0.40199,-0.32867 0.49225,-0.56239 0.0907,-0.23449 0.14059,-0.4853 0.14059,-0.7736 -10e-6,-0.61198 -0.26759,-1.14217 -0.84389,-1.54699 -0.57615,-0.40456 -1.54964,-0.86793 -2.95313,-1.33584 -0.61258,-0.21649 -1.28655,-0.42421 -1.89844,-0.70314 -0.61198,-0.27847 -1.13144,-0.63163 -1.61717,-1.05464 -0.48589,-0.423 -0.88939,-0.94382 -1.19523,-1.547 -0.30599,-0.60322 -0.4218,-1.31558 -0.4218,-2.17979 0,-0.864 0.16827,-1.6976 0.49225,-2.3904 0.32368,-0.69287 0.74184,-1.27189 1.33583,-1.7578 0.59414,-0.4859 1.33372,-0.86385 2.17967,-1.12509 0.84601,-0.26124 1.82098,-0.35165 2.88281,-0.3518 z M 120,0 v 36 h 36 V 0 Z m 15.89051,8.64866 h 4.21874 v 18.70277 h -4.21874 z M 120,40 v 36 h 36 V 40 Z m 11.39052,8.64863 h 12.58591 v 3.5154 h -8.36718 v 3.65619 h 7.45313 v 3.44539 h -7.45313 v 4.49999 h 9 v 3.58579 H 131.39052 Z M 80,0 v 36 h 36 V 0 Z m 15.82023,8.50785 c 2.80809,2e-4 4.9746,0.47758 6.46875,1.47659 1.49413,0.999 2.24999,2.60482 2.25,4.71082 -10e-6,1.31391 -0.31083,2.34519 -0.91404,3.16419 -0.60321,0.81894 -1.46782,1.50077 -2.60155,1.9688 0.37795,0.46805 0.78145,0.94397 1.19523,1.54679 0.41394,0.60291 0.79023,1.24165 1.19524,1.8986 0.40502,0.65673 0.81729,1.32782 1.19524,2.039 0.37795,0.71086 0.73066,1.42519 1.05464,2.10921 h -4.71092 c -0.34182,-0.61198 -0.7036,-1.19796 -1.054641,-1.82801 -0.35105,-0.62997 -0.68546,-1.23409 -1.05464,-1.8282 -0.36919,-0.59399 -0.76528,-1.15639 -1.12509,-1.68741 -0.35981,-0.53095 -0.69438,-1.04496 -1.05464,-1.47674 h -2.109372 v 6.8204 H 90.33579 V 9.0001 C 91.254215,8.82019 92.237784,8.72056 93.218602,8.6486 94.199465,8.576 95.04617,8.50952 95.82016,8.50952 Z m -0.562392,3.586 c -0.243099,0.0197 -0.487257,0.0514 -0.703143,0.0695 v 5.0624 h 1.195235 c 1.58423,2e-4 2.69109,-0.166 3.37502,-0.56239 0.68379,-0.39564 1.05463,-1.08473 1.05463,-2.039 -1e-5,-0.91797 -0.36177,-1.58179 -1.05463,-1.9688 -0.69287,-0.38702 -1.67325,-0.56239 -3.02346,-0.56239 -0.30599,0 -0.600794,-0.0197 -0.843743,0 z M 80,40 v 36 h 36 V 40 Z m 10.335864,8.43761 h 4.218739 v 11.25 c 0,0.75561 0.110362,1.43759 0.281198,1.96859 0.170835,0.53095 0.405921,0.93234 0.702991,1.26569 0.297067,0.33336 0.631788,0.55907 1.054637,0.70315 0.423011,0.14362 0.902551,0.21104 1.40629,0.21104 1.026071,0 1.82206,-0.28406 2.460941,-0.91419 0.63889,-0.62997 1.28096,-1.75179 0.98449,-3.2342 V 48.4377 h 4.21873 v 11.6014 c -2e-5,1.09833 -0.18611,2.1056 -0.49225,3.0236 -0.30599,0.91782 -0.77616,1.7336 -1.40629,2.39058 -0.63012,0.65704 -1.41868,1.18678 -2.39061,1.5468 -0.97209,0.36011 -2.113781,0.49209 -3.445311,0.4924 -1.31391,-4e-4 -2.420848,-0.19397 -3.375012,-0.56255 -0.954104,-0.36918 -1.769621,-0.81955 -2.390627,-1.47659 -0.621052,-0.65703 -1.109367,-1.48187 -1.406287,-2.39058 -0.296919,-0.90875 -0.212863,-1.94561 -0.421795,-3.0236 z M 40,0 V 36 H 76 V 0 Z m 10.265585,8.64866 h 4.218739 v 7.1014 h 7.031251 v -7.1014 h 4.218739 v 18.70277 h -4.218739 v -7.94519 h -7.031251 v 7.94519 H 50.265585 Z M 40,40 V 76 H 76 V 40 Z m 15.960894,8.64863 h 4.078111 c 0.611981,1.29577 1.163792,2.57839 1.757813,3.93737 0.594141,1.35897 1.225171,2.77702 1.828127,4.28901 0.60291,1.51205 1.197959,3.14139 1.828127,4.8514 0.630123,1.71019 1.337046,3.60919 2.039055,5.62498 h -4.570295 c -0.198501,-0.64796 -0.390047,-1.35473 -0.632844,-2.0388 -0.242797,-0.68394 -0.469266,-1.35518 -0.702992,-2.03897 h -7.312494 c -0.234029,0.68379 -0.460347,1.35488 -0.703144,2.03897 -0.242797,0.68395 -0.434494,1.39087 -0.632844,2.0388 h -4.429681 c 0.701934,-2.01579 1.40931,-3.91479 2.039055,-5.62498 0.62982,-1.71001 1.22502,-3.33941 1.828127,-4.8514 0.603212,-1.51205 1.172863,-2.92999 1.757813,-4.28901 0.584919,-1.35896 1.197959,-2.64158 1.828127,-3.93737 z m 1.968741,4.21878 c -0.09071,0.27016 -0.242041,0.65658 -0.421795,1.12509 -0.179754,0.46791 -0.398816,1.00505 -0.632844,1.617 -0.234029,0.61199 -0.494362,1.23077 -0.773443,1.96881 -0.27908,0.73806 -0.555893,1.50999 -0.843741,2.32038 h 5.343738 c -0.287849,-0.81033 -0.573733,-1.58238 -0.843742,-2.32038 -0.27001,-0.73807 -0.530343,-1.3567 -0.773443,-1.96881 -0.243099,-0.61198 -0.452787,-1.14927 -0.632844,-1.617 -0.179905,-0.46851 -0.313549,-0.85478 -0.421795,-1.12509 z M 0,0 V 36 H 36 V 0 Z m 19.757797,8.22644 c 0.792038,2e-4 1.531752,0.0242 2.179684,0.13909 0.647962,0.11792 1.201285,0.26865 1.687499,0.4218 0.486198,0.15405 0.871559,0.33048 1.195238,0.49224 0.323829,0.16192 0.558614,0.2617 0.702992,0.35165 l -1.195238,3.4454 c -0.576151,-0.30599 -1.274154,-0.6277 -2.03907,-0.84374 -0.764977,-0.21619 -1.629823,-0.2812 -2.601555,-0.2812 -0.648265,0 -1.27748,0.0665 -1.898442,0.2812 -0.621052,0.21619 -1.140208,0.57766 -1.617184,1.05464 -0.477127,0.47728 -0.90754,1.07233 -1.195237,1.8282 -0.28785,0.75591 -0.421795,1.7326 -0.421795,2.8126 -1.5e-5,0.864 0.09222,1.64339 0.281197,2.3904 0.188825,0.74729 0.491187,1.35852 0.914041,1.8986 0.422852,0.54002 1.00369,1.02077 1.687482,1.33599 0.683793,0.31491 1.488529,0.42179 2.460942,0.42149 0.611981,1.9e-4 1.201588,0.002 1.687499,-0.0695 0.485896,-0.0726 0.887433,-0.18202 1.265688,-0.28119 0.378255,-0.0998 0.696492,-0.22541 0.98434,-0.3515 0.287697,-0.12548 0.539415,-0.244 0.773443,-0.3518 l 1.195238,3.37499 c -0.59384,0.35981 -1.451339,0.69618 -2.531256,0.98449 -1.079886,0.28815 -2.304393,0.42194 -3.726554,0.42194 -3.042126,0 -5.367926,-0.8392 -6.960952,-2.53139 -1.59301,-1.69218 -2.390612,-4.05818 -2.390612,-7.17179 0,-1.54838 0.217096,-2.93361 0.703144,-4.14859 0.486198,-1.21474 1.193121,-2.25641 2.039055,-3.0936 0.846009,-0.83694 1.853389,-1.46631 3.02344,-1.8984 1.169991,-0.43192 2.429073,-0.63284 3.796868,-0.63299 z"
         id="rect5251-8"
         style="stroke:none"
         sodipodi:nodetypes="cccccccscccccccccccccccccccccccccscccccccccccccccccccccccccccccccccccccccccccccsccccccccccccscccccscccccccccccccccscccsccccccccscccscccsccccccccccccccccccccccccccccscscccccccscsccccccscccccccccsccccccccccccccccccccccccccccccccccccccccccccccccccccccccccccccccccscccccccccscccsccccccccccccccccccccccccccccccccccccccccccccccccccccccccccccccccccccccccccccccsccccccccccccccscsccccc" />
    </symbol>
    <symbol
       id="slash-collateral"
       viewBox="0 0 342.058 90">
      <title
         id="title4759">/collateral</title>
      <desc
         id="desc4761">The text &quot;/collateral&quot; written by hand</desc>
      <path
         inkscape:connector-curvature="0"
         d="m 331.29948,4.6298238 c 0.168,16.7727002 0.0281,33.8037002 -0.0281,50.7708002 -0.0211,4.9146 4.98948,4.7334 7.96434,2.58 m -47.3488,-20.409 c 2.3904,-2.157 6.33417,-4.8579 10.38216,-4.7472 4.11882,0.12 9.7683,0.369 12.12903,2.865 5.5434,5.8308 5.27883,18.8544 1.2261,21.6243 -5.87022,4.0119 -24.25383,3.9129 -24.35451,-3.8805 -0.057,-4.3395 3.27888,-5.5713 7.30128,-5.7015 4.02267,-0.15 10.38045,-0.15 14.10279,-0.3 m -53.78028,12.2253 c 0.027,-9.3288 0.4809,-19.9212 0.225,-27.5772 3.62193,2.79 7.80627,3.6639 12.58176,3.7083 5.26026,0.06 8.14176,-2.022 9.43869,-2.919 m -56.13651,12.9261 c 6.71295,1.044 15.58983,2.067 18.80148,-1.878 1.3443,-1.653 -0.025,-5.811 -1.0293,-7.1364 -3.59499,-4.7454 -9.13164,-5.2479 -15.01227,-3.8229 -7.56135,1.833 -11.98782,15.72 -5.06595,23.9772 3.48585,4.158 16.73268,3.2805 21.93387,0.615 m -55.58991,-24.7551 c 7.7256,-0.21 15.29793,-0.06 21.70158,0.06 M 200.31078,3.2315238 c 0.114,20.6373002 -0.294,36.4230002 -0.3036,55.7439002 m -47.90961,-23.646 c 4.85646,-3.1206 14.35533,-2.931 20.04471,-2.337 2.1201,0.24 6.13143,3.1557 6.53019,5.346 1.0179,5.595 0.3459,8.7096 -0.6441,15.612 -0.3207,2.226 -1.7601,4.7658 -5.55807,5.3865 -4.19391,0.684 -7.93764,0.741 -13.39164,0.27 -5.64834,-0.489 -10.39479,-9.0993 -5.64495,-10.8735 4.01004,-1.5 17.13255,-1.554 19.92324,0.522 M 132.88104,3.0860238 c -0.084,16.7763002 -0.7113,35.8218002 -0.6918,51.2151002 0.006,4.9947 4.90227,6.2925 8.27058,3.5916 M 113.68527,2.8298238 c -0.297,14.9298002 -0.72,36.2559002 -0.7056,51.7422002 0.006,5.7882 4.86234,5.6721 8.1384,3.8181 m -35.271056,-25.362 c -6.1407,0.69 -11.64252,2.454 -13.09101,12.1761 -1.0149,6.8211 -0.168,11.9574 5.45289,13.4088 5.92305,1.53 15.49677,0.879 18.53181,-4.335 2.7504,-4.7271 4.193366,-13.8624 -0.8043,-18.615 -2.3931,-2.274 -6.62214,-3.0255 -10.08888,-2.637 z m -25.90485,3.4611 c -2.3172,-2.043 -5.55189,-3.0414 -8.60973,-3.3219 -1.2708,-0.12 -2.5842,-0.3 -3.86577,-0.21 -4.14609,0.306 -9.0045,2.427 -11.56743,5.7984 -2.0106,2.643 -2.3424,6.0606 -2.3424,9.2649 0,2.61 0.285,5.7285 1.9908,7.8402 2.4072,2.982 6.6303,3.4635 10.16169,3.6966 4.77519,0.315 8.86617,-0.24 12.76821,-3.0927 0.4134,-0.303 1.0374,-0.702 1.3191,-1.089 M 27.171724,2.9189238 c -2.3115,5.5323 -4.78194,11.0517002 -6.44388,16.8219002 -4.40091,15.2796 -8.47812,30.6381 -13.2358504,45.9936 -1.3893,4.4823 -2.7699,12.1899 -4.68546,16.4586"
         style="fill:none;stroke-width:5.58019924;stroke-linecap:round;stroke-linejoin:round"
         id="path13715" />
    </symbol>
    <symbol
       id="slash-design-annotation"
       viewBox="0 0 281.365 114.262">
      <title
         id="title4765">Software &amp; Interfaces</title>
      <desc
         id="desc4767">The text &quot;Software &amp; Interfaces&quot; with an arrow pointing upwards coming from it</desc>
      <path
         inkscape:connector-curvature="0"
         d="m 90.24997,107.40341 q -0.27344,0.82031 -0.88867,1.82291 -0.59245,1.00261 -1.64063,1.89128 -1.02539,0.88867 -2.57487,1.48112 -1.52669,0.59245 -3.66862,0.59245 -1.57226,0 -2.98502,-0.41016 -1.38998,-0.41016 -2.62044,-1.13932 -1.98243,1.16211 -4.19271,1.89127 -2.1875,0.72917 -4.58008,0.72917 -2.27865,0 -3.91927,-0.61523 -1.64063,-0.63802 -2.71159,-1.66342 -1.04818,-1.02539 -1.54948,-2.32421 -0.5013,-1.29883 -0.5013,-2.64323 0,-2.05078 0.79752,-3.60026 0.79753,-1.54948 2.09636,-2.71159 1.29883,-1.1849 2.96224,-2.073566 1.6862,-0.91146 3.44075,-1.6862 -0.18229,-1.07096 -0.27343,-2.11914 -0.0684,-1.04818 -0.0684,-2.07357 0,-2.07356 0.54687,-3.71419 0.54688,-1.64062 1.50391,-2.77995 0.97982,-1.13932 2.30143,-1.73177 1.3444,-0.59245 2.89388,-0.59245 1.02539,0 1.77734,0.36459 0.77474,0.34179 1.27605,0.91146 0.5013,0.56966 0.75195,1.27604 0.25065,0.68359 0.25065,1.36718 0,1.82292 -0.75195,3.2129 -0.75196,1.38997 -1.98243,2.48372 -1.20768,1.07096 -2.75716,1.91406 -1.54948,0.8431 -3.14453,1.57227 0.36459,1.95963 0.97982,3.850906 0.61523,1.89128 1.45833,3.57747 0.86589,1.6862 1.93685,3.12175 1.09375,1.41276 2.43815,2.41536 1.45834,-1.04817 2.66602,-2.30143 1.20768,-1.25325 2.07357,-2.5293 0.86588,-1.29882 1.32161,-2.50651 0.47852,-1.20768 0.47852,-2.16471 0,-0.70638 -0.15951,-1.184896 -0.1595,-0.47851 -0.43294,-0.77474 -0.27344,-0.29622 -0.63802,-0.43294 -0.36459,-0.13672 -0.77474,-0.13672 -0.3418,0 -0.70638,0.13672 -0.36459,0.13672 -0.66081,0.41016 -0.27344,0.25065 -0.45573,0.6608 -0.18229,0.387366 -0.18229,0.934246 0,0.43294 0.22786,0.95703 0.25066,0.5013 0.88868,0.77474 l -0.38737,0.75195 q -0.45573,-0.20507 -0.75196,-0.47851 -0.29622,-0.29623 -0.47851,-0.63802 -0.18229,-0.3418 -0.27344,-0.6836 -0.0684,-0.36458 -0.0684,-0.68359 0,-0.751946 0.29622,-1.298826 0.31902,-0.56966 0.77474,-0.93424 0.47852,-0.38737 1.0254,-0.56966 0.54687,-0.1823 1.02539,-0.1823 1.36718,0 2.1875,0.8431 0.84309,0.8431 0.84309,2.415366 0,1.0026 -0.52408,2.27864 -0.50131,1.27604 -1.43555,2.64323 -0.93425,1.36719 -2.25586,2.73438 -1.32161,1.36718 -2.91667,2.52929 1.16211,0.72917 2.43815,1.13933 1.29883,0.41015 2.77995,0.41015 1.45834,0 2.57487,-0.5013 1.13933,-0.5013 1.95964,-1.25325 0.82031,-0.75196 1.3444,-1.61784 0.52409,-0.88867 0.75195,-1.64063 z m -21.98893,5.53711 q 1.8457,0 3.55469,-0.47852 1.70898,-0.47852 3.25846,-1.3444 -1.43555,-1.04818 -2.59766,-2.48372 -1.16211,-1.45834 -2.07356,-3.16732 -0.88868,-1.70899 -1.5267,-3.60026 -0.61523,-1.91407 -0.97982,-3.850906 -1.54947,0.75195 -2.82552,1.595046 -1.25325,0.82031 -2.14192,1.8457 -0.88868,1.0026 -1.36719,2.25586 -0.47852,1.25326 -0.47852,2.84831 0,1.6862 0.63802,2.89388 0.66081,1.18489 1.6862,1.98242 1.02539,0.77474 2.30143,1.13932 1.27605,0.36459 2.55209,0.36459 z m 1.23047,-21.692706 q 0,1.16211 0.0684,2.36979 0.0911,1.18489 0.29622,2.39258 1.52669,-0.6836 2.96224,-1.43555 1.43555,-0.77474 2.55208,-1.70898 1.11654,-0.95704 1.77735,-2.11914 0.68359,-1.1849 0.68359,-2.66602 0,-0.61524 -0.20508,-1.20768 -0.18229,-0.59245 -0.59245,-1.07097 -0.38737,-0.47851 -1.0026,-0.75195 -0.59245,-0.29622 -1.41276,-0.29622 -1.09375,0 -2.05078,0.5013 -0.93425,0.5013 -1.61784,1.38997 -0.68359,0.86589 -1.07096,2.05078 -0.38737,1.1849 -0.38737,2.55209 z m 200.15358,22.931046 q -2.44,0 -3.68,-1.04 -1.24,-1.04 -1.44,-3.24 v -0.08 q 0,-0.8 0.84,-0.8 0.8,0 0.84,0.84 0.16,1.44 0.92,2.04 0.8,0.6 2.52,0.6 h 6.56 q 1.96,0 2.72,-0.76 0.76,-0.76 0.76,-2.72 0,-1.96 -0.76,-2.72 -0.76,-0.76 -2.72,-0.76 h -6.48 q -2.52,0 -3.72,-1.16 -1.2,-1.2 -1.2,-3.72 0,-2.559996 1.2,-3.719996 1.2,-1.2 3.72,-1.2 h 6.28 q 2.28,0 3.48,1 1.2,0.96 1.36,2.999996 v 0.16 q 0,0.72 -0.8,0.72 -0.76,0 -0.88,-0.84 -0.12,-1.319996 -0.84,-1.839996 -0.72,-0.52 -2.32,-0.52 h -6.28 q -1.84,0 -2.56,0.72 -0.68,0.68 -0.68,2.519996 0,1.8 0.68,2.52 0.72,0.68 2.56,0.68 h 6.48 q 2.68,0 3.92,1.24 1.24,1.24 1.24,3.92 0,2.68 -1.24,3.92 -1.24,1.24 -3.92,1.24 z m -26.31187,-8.56 v 1.64 q 0,2.92 1.2,4.12 1.2,1.16 4.12,1.16 h 3.28 q 2.72,0 3.92,-0.72 1.2,-0.76 1.36,-2.56 0.08,-0.84 0.88,-0.84 0.4,0 0.6,0.24 0.24,0.24 0.2,0.64 -0.2,2.56 -1.92,3.76 -1.68,1.16 -5.04,1.16 h -3.28 q -3.64,0 -5.32,-1.64 -1.68,-1.68 -1.68,-5.32 v -4.48 q 0,-3.679996 1.68,-5.359996 1.68,-1.68 5.32,-1.64 h 3.28 q 3.68,0 5.32,1.68 1.68,1.64 1.68,5.319996 v 2 q 0,0.84 -0.84,0.84 z m 0,-1.68 h 13.92 v -1.16 q 0,-2.96 -1.2,-4.119996 -1.16,-1.2 -4.12,-1.2 h -3.28 q -2.92,-0.04 -4.12,1.16 -1.2,1.199996 -1.2,4.159996 z m -16.71125,10.28 q -3.64,0 -5.32,-1.68 -1.68,-1.68 -1.68,-5.32 v -4.48 q 0,-3.679996 1.68,-5.319996 1.68,-1.68 5.32,-1.64 h 3.28 q 2.96,0 4.44,1 1.48,1 1.72,3.119996 v 0.08 q 0,0.8 -0.84,0.8 -0.72,0 -0.84,-0.8 -0.16,-1.359996 -1.2,-1.919996 -1.04,-0.6 -3.28,-0.6 h -3.28 q -2.96,-0.04 -4.16,1.16 -1.16,1.159996 -1.16,4.119996 v 4.48 q 0,2.92 1.2,4.12 1.2,1.2 4.12,1.2 h 3.28 q 2.24,0 3.28,-0.56 1.04,-0.6 1.2,-1.96 0.12,-0.8 0.84,-0.8 0.44,0 0.64,0.24 0.24,0.24 0.2,0.64 -0.24,2.12 -1.72,3.12 -1.48,1 -4.44,1 z m -20.4125,-18.439996 q 3.68,0 5.32,1.68 1.68,1.64 1.68,5.319996 v 10.6 q 0,0.84 -0.84,0.84 -0.84,0 -0.84,-0.84 v -2.36 q -0.92,1.56 -2.72,2.4 -1.76,0.8 -4.36,0.8 h -2.24 q -3.04,0 -4.44,-1.36 -1.36,-1.4 -1.36,-4.44 0,-3.04 1.4,-4.44 1.4,-1.4 4.4,-1.4 h 9.32 q -0.04,-2.8 -1.24,-3.959996 -1.2,-1.16 -4.08,-1.16 h -2.32 q -2.72,0 -3.96,0.64 -1.24,0.6 -1.48,2.119996 -0.12,0.8 -0.84,0.8 -0.44,0 -0.68,-0.24 -0.2,-0.24 -0.16,-0.64 0.16,-2.239996 1.92,-3.279996 1.76,-1.08 5.2,-1.08 z m 5.32,12.119996 v -3.64 h -9.32 q -2.32,0 -3.24,0.92 -0.88,0.92 -0.88,3.24 0,2.32 0.88,3.24 0.92,0.88 3.24,0.88 h 2.24 q 6.48,0 7.04,-4.4 z M 192.37634,95.778864 q 0.84,0 0.84,0.84 0,0.84 -0.84,0.84 h -5.24 v 15.919996 q 0,0.84 -0.84,0.84 -0.84,0 -0.84,-0.84 V 97.458864 h -1.76 q -0.84,0 -0.84,-0.84 0,-0.84 0.84,-0.84 h 1.76 v -2.28 q 0,-3.6 1.64,-5.24 1.64,-1.64 5.24,-1.64 0.88,0 0.88,0.84 0,0.84 -0.88,0.84 -2.88,0 -4.04,1.16 -1.16,1.16 -1.16,4.04 v 2.28 z m -11.935,0 q 0.84,0 0.84,0.84 0,0.84 -0.84,0.84 -3.6,0 -5.64,1.72 -2,1.719996 -2.2,4.999996 0,0.16 -0.04,0.24 v 8.96 q 0,0.84 -0.84,0.84 -0.84,0 -0.84,-0.84 V 96.618864 q 0,-0.84 0.84,-0.84 0.84,0 0.84,0.84 v 3.759996 q 1,-2.239996 3,-3.399996 2,-1.2 4.88,-1.2 z m -31.95187,9.839996 v 1.64 q 0,2.92 1.2,4.12 1.2,1.16 4.12,1.16 h 3.28 q 2.72,0 3.92,-0.72 1.2,-0.76 1.36,-2.56 0.08,-0.84 0.88,-0.84 0.4,0 0.6,0.24 0.24,0.24 0.2,0.64 -0.2,2.56 -1.92,3.76 -1.68,1.16 -5.04,1.16 h -3.28 q -3.64,0 -5.32,-1.64 -1.68,-1.68 -1.68,-5.32 v -4.48 q 0,-3.679996 1.68,-5.359996 1.68,-1.68 5.32,-1.64 h 3.28 q 3.68,0 5.32,1.68 1.68,1.64 1.68,5.319996 v 2 q 0,0.84 -0.84,0.84 z m 0,-1.68 h 13.92 v -1.16 q 0,-2.96 -1.2,-4.119996 -1.16,-1.2 -4.12,-1.2 h -3.28 q -2.92,-0.04 -4.12,1.16 -1.2,1.199996 -1.2,4.159996 z m -5.79313,8.6 q 0.88,0 0.88,0.84 0,0.84 -0.88,0.84 -3.6,0 -5.24,-1.64 -1.64,-1.64 -1.64,-5.2 v -9.919996 h -2.52 q -0.84,0 -0.84,-0.84 0,-0.84 0.84,-0.84 h 2.52 v -4.76 q 0,-0.84 0.84,-0.84 0.84,0 0.84,0.84 v 4.76 h 5.16 q 0.84,0 0.84,0.84 0,0.84 -0.84,0.84 h -5.16 v 9.919996 q 0,2.88 1.12,4.04 1.16,1.12 4.08,1.12 z m -21.31,-16.759996 q 3.68,0 5.32,1.68 1.68,1.64 1.68,5.319996 v 10.6 q 0,0.84 -0.84,0.84 -0.84,0 -0.84,-0.84 v -10.6 q 0,-2.96 -1.2,-4.119996 -1.16,-1.2 -4.12,-1.2 h -1.12 q -6.52,0 -7.04,4.359996 l -0.04,0.24 v 11.32 q 0,0.84 -0.84,0.84 -0.84,0 -0.84,-0.84 V 96.618864 q 0,-0.84 0.84,-0.84 0.84,0 0.84,0.84 v 2.32 q 1.84,-3.16 7.08,-3.16 z m -17.94625,18.439996 q -0.36,0 -0.6,-0.24 -0.24,-0.24 -0.24,-0.6 V 89.698864 q 0,-0.36 0.24,-0.6 0.24,-0.24 0.6,-0.24 0.36,0 0.6,0.24 0.24,0.24 0.24,0.6 v 23.679996 q 0,0.36 -0.24,0.6 -0.24,0.24 -0.6,0.24 z M 228.78424,78.049024 c 2.88,0 5.6,-0.96 7.68,-2.32 l -1.56,-2.88 c -1.76,1 -3.44,1.64 -5.52,1.64 -3.64,0 -6.24,-1.76 -6.76,-5.4 h 14.44 c 0.08,-0.52 0.2,-1.4 0.2,-2.32 0,-5.44 -3.24,-9.32 -9.08,-9.32 -5.28,0 -10.16,3.88 -10.16,10.28 0,6.52 4.76,10.32 10.76,10.32 z m -0.48,-17.04 c 2.8,0 4.56,1.6 4.88,4.8 h -10.44 c 0.6,-3.16 2.84,-4.8 5.56,-4.8 z m -31.50438,16.56 h 4.64 v -10.84 c 2,-3.8 4.64,-5.2 7.32,-5.2 1.48,0 2.28,0.2 3.56,0.6 l 0.96,-3.88 c -1.16,-0.56 -2.2,-0.8 -3.8,-0.8 -3.4,0 -6.36,1.76 -8.36,4.92 h -0.12 l -0.4,-4.44 h -3.8 z m -19.78437,0.48 c 2.64,0 5.28,-1.32 7.36,-2.92 h 0.12 l 0.36,2.44 h 3.76 v -11.64 c 0,-5.48 -3,-8.48 -8.44,-8.48 -3.36,0 -6.6,1.32 -8.96,2.72 l 1.68,3.08 c 2.04,-1.12 4.24,-2.08 6.44,-2.08 3.2,0 4.52,1.64 4.68,3.84 -9.68,0.68 -13.56,2.88 -13.56,7.28 0,3.44 2.72,5.76 6.56,5.76 z m 1.4,-3.6 c -1.96,0 -3.52,-0.76 -3.52,-2.52 0,-2.12 2.08,-3.56 9.12,-4.04 v 4.16 c -1.8,1.44 -3.64,2.4 -5.6,2.4 z m -30.82438,3.12 h 5.56 l 1.6,-7.84 c 0.32,-1.92 0.56,-3.76 0.8,-5.8 h 0.16 c 0.28,2.36 0.56,4.28 0.84,5.8 l 1.64,7.84 h 5.6 l 3.6,-19.64 h -4.28 l -1.68,10.2 c -0.28,1.92 -0.44,3.72 -0.72,5.64 h -0.16 c -0.28,-1.92 -0.68,-3.72 -1.12,-5.64 l -1.76,-8.28 h -3.8 l -1.8,8.28 c -0.44,1.88 -0.8,3.72 -1.04,5.64 h -0.12 c -0.24,-1.92 -0.48,-3.72 -0.76,-5.64 l -1.76,-10.2 h -4.52 z m -12.30437,0.48 c 2.56,0 4.52,-0.52 6.28,-1.12 l -0.88,-3.36 c -1.28,0.48 -2.64,0.8 -4.28,0.8 -3.36,0 -4.56,-1.48 -4.56,-4.72 v -8.08 h 8.96 v -3.64 h -8.96 v -6.16 h -3.8 l -0.6,6.16 -5.44,0.2 v 3.44 h 5.24 v 8.08 c 0,5.04 2.04,8.4 8.04,8.4 z m -30.50438,-0.48 h 4.56 v -16 h 7.48 v -3.64 h -7.48 v -1.16 c 0,-2.76 1.32,-4.28 4.32,-4.28 1.6,0 2.88,0.28 4.32,0.84 l 0.96,-3.4 c -1.76,-0.68 -3.72,-1.08 -5.84,-1.08 -5.76,0 -8.32,3.36 -8.32,8 v 1.08 l -5.44,0.2 v 3.44 h 5.44 z m -21.10437,0.48 c 5.16,0 9.88,-3.76 9.88,-10.28 0,-6.56 -4.72,-10.32 -9.88,-10.32 -5.16,0 -9.88,3.76 -9.88,10.32 0,6.52 4.72,10.28 9.88,10.28 z m 0,-3.76 c -3.2,0 -5.12,-2.6 -5.12,-6.52 0,-3.96 1.92,-6.56 5.12,-6.56 3.2,0 5.12,2.6 5.12,6.56 0,3.92 -1.92,6.52 -5.12,6.52 z m -23.90438,3.76 c 6.08,0 9.68,-3.52 9.68,-7.76 0,-3.8 -2.36,-5.76 -5.68,-7.08 l -3.44,-1.48 c -2.36,-0.92 -4.48,-1.68 -4.48,-3.68 0,-1.96 1.68,-3.08 4.16,-3.08 2.64,0 4.48,0.84 6.24,2.24 l 2.4,-2.96 c -2.16,-2.04 -5.2,-3.32 -8.4,-3.32 -5.32,0 -9.08,3.2 -9.08,7.36 0,3.84 2.84,5.88 5.6,6.96 l 3.56,1.56 c 2.6,1.08 4.4,1.72 4.4,4.04 0,1.84 -1.64,3.16 -4.68,3.16 -2.76,0 -5.36,-1.2 -7.32,-2.96 l -2.72,3.16 c 2.6,2.44 6.08,3.84 9.76,3.84 z"
         id="path2035"
         style="stroke:none" />
      <path
         sodipodi:nodetypes="cc"
         inkscape:connector-curvature="0"
         id="path991"
         d="m 40.13601,86.992494 c -37.86098,0 -33.83957,-42.2222 -34.01635,-83.58795"
         style="fill:none;stroke-width:2.5;stroke-linecap:round;stroke-linejoin:round" />
      <path
         sodipodi:nodetypes="cccc"
         inkscape:connector-curvature="0"
         d="M 0,16.414414 5.95649,-6e-6 12.05306,16.362904 C 8.48381,13.759884 3.61583,13.795774 0,16.414404 Z"
         style="stroke-width:1;stroke-linecap:square;stroke-linejoin:round"
         id="path2228" />
    </symbol>
    <symbol
       id="slash-collateral-annotation"
       viewBox="0 0 326.639 101.481">
      <title
         id="title4773">Visual Storytelling in movies &amp; games</title>
      <desc
         id="desc4775">The text &quot;Visual Storytelling in movies &amp; games&quot; with an arrow pointing upwards coming from it</desc>
      <path
         id="path11254"
         style="fill:none;stroke-width:3.75;stroke-linecap:round;stroke-linejoin:round"
         d="m 87.424687,53.956267 c -1.03586,-1.0216 -2.2811,-1.31109 -3.69038,-1.39805 -3.138676,-0.19366 -6.722034,2.71723 -3.271871,5.26783 2.480021,1.8334 5.658321,0.43415 8.111401,1.73584 0.68823,0.3652 0.77593,1.52063 0.46309,2.15591 -1.13754,2.30991 -9.337448,2.92884 -10.527711,0.76255 m 15.385062,-10.42607 c 0.2725,3.43638 -1.112311,11.53491 5.38053,10.40875 4.729782,-0.82035 3.903692,-8.02944 3.627732,-10.97043 0.24922,2.55395 0.596,7.69568 1.22034,10.63188 m 4.12425,-9.80879 c 0.97246,-1.29349 2.41123,-1.72599 3.93828,-2.04283 7.0416,-1.46102 10.87105,8.95427 2.658,10.93071 -1.02076,0.24564 -2.01448,0.37199 -3.02175,-0.03 -1.24537,-0.497 -4.28883,-2.97035 -2.58209,-4.41602 1.78888,-1.51525 4.83105,-1.62685 6.94546,-0.92466 0.81788,0.27162 2.18749,1.4521 3.04395,0.91116 m 4.23249,-17.45646 c 0.51291,5.86611 0.7653,11.7793 1.54138,17.61797 0.23027,1.73239 1.66219,3.96257 2.90453,1.91622 M 47.636687,40.839567 c 0.26455,0.71127 0.415017,1.18674 0.766351,1.85765 0.977385,1.86641 2.226233,3.58496 3.221218,5.44699 3.113579,5.82677 5.544812,12.24943 7.443634,18.57311 0.09723,0.32379 1.863664,6.69146 2.216226,6.50858 0.723201,-0.37513 0.770091,-4.56445 0.865085,-5.17047 1.029451,-6.56734 2.73856,-13.13353 5.397636,-19.24371 1.371833,-3.15227 3.149693,-6.03037 5.216404,-8.76655 0.998572,-1.32202 2.739029,-2.70384 3.475195,-4.19872 0.238079,-0.48345 -1.011666,0.38392 -1.480119,0.65029 m -1.401749,11.72431 0.02245,-0.99828 m -0.25068,6.13078 c -0.03326,3.41078 -0.181553,8.57873 0.53173,11.40163 M 182.54658,34.106107 c 0.39767,6.73792 1.04193,13.68326 1.62304,20.32533 m -4.25129,-10.26559 c 2.20638,-0.0311 4.60238,-0.80011 6.75114,-0.63591 m 11.73043,-0.5055 c -2.56872,-0.74371 -5.02523,0.21357 -6.30575,2.5896 -4.05637,7.52663 5.26668,10.47405 9.74126,5.3068 1.89454,-2.18784 1.62796,-8.16394 -2.14578,-8.21303 -0.44263,-0.006 -0.84753,0.33699 -1.28973,0.31663 -0.33495,-0.0154 -0.58091,-0.38822 -0.91488,-0.41811 -1.1317,-0.10128 -2.40061,0.71062 -3.22673,1.39183 m 13.55097,-2.18186 c 0.36756,1.98071 0.47649,4.00825 0.58138,6.0176 0.0444,0.84928 0.0935,1.69611 0.16766,2.54403 0.50201,5.73809 -0.34877,-3.63309 -0.36961,-4.22464 -0.0332,-0.94362 0.0174,-1.91752 0.0791,-2.86001 0.014,-0.2132 0.11726,-0.43466 0.0539,-0.63872 -0.0971,-0.31278 -0.63157,-0.53319 -0.51248,-0.83827 0.24577,-0.6296 2.58096,0.0148 3.01979,0.008 1.95891,-0.0327 3.71748,-0.80075 5.61443,-1.07994 m 5.16212,-0.52002 c 0.75794,0.99596 1.52306,1.97976 2.29087,2.96967 1.4266,1.83925 2.52321,3.88516 3.90639,5.74934 0.21225,0.28606 2.75779,3.13626 1.42597,1.86787 m 6.11998,-12.24212 c -2.68118,6.53904 -5.4529,13.03678 -8.22647,19.53648 -0.20992,0.49192 -1.71796,3.61123 -2.31883,4.86743 m 17.63835,-34.11578 c 0.66706,5.58732 1.63465,11.15501 1.97296,16.78344 0.0818,1.3608 0.0841,3.17947 0.18552,4.33886 m -4.31926,-11.21435 c 2.04989,-0.22249 4.11617,-0.29391 6.16469,-0.52334 0.164,-0.0187 0.91007,-0.12831 1.11154,-0.16129 0.17931,-0.0293 0.51789,-0.29175 0.53373,-0.11074 0.006,0.0664 -0.33986,0.15424 -0.37409,0.16082 m 5.6387,5.41847 c 1.72898,-0.17165 3.46829,-0.18325 5.19944,-0.35069 0.82943,-0.0806 1.66845,-0.17739 2.49003,-0.32206 0.86386,-0.15206 2.49948,-0.41544 3.11122,-1.19267 1.23205,-1.56537 -1.2245,-3.76982 -2.31444,-4.31311 -3.81165,-1.89996 -10.899,1.71126 -9.6178,6.97225 1.13045,4.6419 8.05612,4.59682 11.22668,3.44653 0.64418,-0.2337 2.37811,-0.82791 2.16961,-1.77027 m 3.2912,-19.61009 c 0.81319,6.16545 0.40305,12.61814 2.02433,18.67323 0.31402,1.17284 2.31055,2.99258 3.26876,1.19746 m 3.28589,-20.47141 c 0.24608,4.22884 0.54489,8.46049 0.91463,12.68666 0.18917,2.16221 0.28579,4.41585 1.18878,6.44416 0.62263,1.39855 2.30335,2.72918 3.34864,0.77092 m 4.57998,-11.09643 c 0.0677,0.7733 0.13531,1.5466 0.20297,2.31991 0.18604,2.12651 0.21614,4.29443 0.56024,6.40357 0.0384,0.23536 0.73094,2.93331 0.56216,2.43258 m -1.84621,-16.66565 c -0.13255,-0.19711 -0.16825,-0.44427 -0.25238,-0.66641 m 6.66186,4.60396 c 0.11262,1.87817 0.43231,3.7427 0.76388,5.59405 0.41807,2.33426 0.83687,4.72632 1.09289,6.84461 -0.22043,-1.78411 -0.33297,-3.17824 -0.35037,-3.37718 -0.13747,-1.57132 -1.26269,-6.74167 0.0982,-7.66211 2.1262,-1.43809 7.07279,-1.4185 8.93035,0.43014 2.06783,2.05787 2.59188,4.2581 2.75861,7.06117 0.0358,0.60089 0.15845,2.08194 0.0722,2.3939 M 172.9379,33.165507 c -0.24017,-3.99025 -4.47099,-6.02733 -7.9036,-6.92995 -7.22433,-1.89968 -17.41816,5.18631 -11.23195,12.70301 2.95161,3.58642 7.97417,5.30199 12.10554,7.04265 4.42316,1.86361 14.55515,4.43382 11.55916,11.44557 -3.73469,8.74065 -16.10049,8.02425 -22.89354,3.63609 -1.32197,-0.85397 -5.22592,-3.59525 -3.98122,-5.5759 m 170.58658,-22.55281 c -6.72025,-5.95062 -13.63592,4.5411 -7.03206,9.87075 0.97086,0.78354 2.15249,1.05626 3.37872,0.9206 4.30425,-0.47615 6.18543,-4.78847 6.33881,-8.65573 0.0213,-0.53493 0.17458,-2.30239 -0.38503,-2.68732 -0.4722,-0.32481 -0.55789,4.39177 -0.53598,4.72619 0.23545,3.59308 0.92524,7.14844 1.23897,10.73438 0.17753,2.02919 1.46202,14.21592 -0.47882,15.08985 -2.81472,1.2674 -8.3943,-3.89434 -10.98491,-5.03752"
         inkscape:connector-curvature="0" />
      <path
         id="path5611"
         style="fill:none;stroke-width:1.847;stroke-linecap:round;stroke-linejoin:round"
         d="m 75.756066,88.142017 c 0.121855,1.00338 0.130289,2.01231 0.218121,3.01624 0.154676,1.76795 0.477663,4.48044 0.571405,5.48499 0.09374,1.00456 0.269868,2.56151 0.186661,1.61045 m -0.980196,-15.38841 c -0.07689,0.28168 -0.213995,0.52011 -0.488474,0.40749 -0.265054,-0.10875 -0.361408,-0.49906 -0.127283,-0.69378 m 4.922316,5.04773 c 0.21022,2.23803 0.43258,4.59559 0.62215,6.18618 0.18956,1.59059 0.31744,3.26424 0.3855,4.39323 -0.12629,-2.31436 -0.51499,-5.38473 -0.0876,-7.38653 0.47985,-2.03948 2.58587,-3.7395 4.60123,-3.37835 3.25275,0.58288 3.67969,2.3663 4.26051,5.28127 0.18925,0.94978 0.39397,1.88759 0.47512,2.8152 0.0307,0.35053 0.19952,2.19897 0.15223,1.65844 M 212.31129,86.949877 c -4.2551,-2.15086 -8.14231,-5.05122 -12.0385,-7.87417 -9.06594,-6.56866 2.38377,-10.0143 4.71625,-8.86389 1.6462,0.81194 -0.37763,3.56349 -0.9065,4.28511 -1.24089,1.69313 -10.90604,11.52902 -8.88244,13.55321 2.50608,2.50683 15.60566,-1.84236 14.21428,-5.96519 m -77.09185,1.77988 c -2.25205,-1.74901 -5.1471,0.49438 -6.30905,2.53822 -2.61655,4.60243 4.84089,9.49167 8.54409,6.18566 1.69791,-1.5158 2.00993,-6.13935 0.55559,-7.84373 -0.79581,-0.93263 -1.75652,-0.74549 -2.79063,-0.88015 -1.27371,-0.16587 -1.91723,-0.43456 -3.15597,0.20115 m 30.29607,2.02121 c 1.54602,0.36411 3.12157,0.50105 4.69797,0.34286 1.9499,-0.19571 5.09701,-0.85015 4.8634,-3.52033 -0.0696,-0.79604 -0.44755,-1.43866 -1.12083,-1.82629 -3.58082,-2.06162 -10.9208,0.68292 -8.99887,5.94535 1.39328,3.8149 6.90616,3.7108 9.9309,3.13857 0.47723,-0.0903 3.06805,-0.94371 2.89181,-0.94736 m -32.11441,-6.28686 c 0.88757,1.35364 1.5817,2.82557 2.3463,4.25564 0.20638,0.38599 1.1754,2.18835 2.82713,4.94304 1.03103,-1.50774 1.71738,-3.62261 2.40954,-5.0084 0.69216,-1.38579 2.31596,-3.60274 1.94775,-5.10828 m 4.93136,-0.49557 c 0.0603,0.68907 0.12057,1.37815 0.18086,2.06723 0.16149,1.8459 0.32289,3.69064 0.48401,5.53232 0.029,0.33122 0.0772,2.76055 0.14579,2.18934 m -1.06305,-14.68431 c -0.72655,0.81264 0.35337,1.14392 0.68005,0.37538 0.1529,-0.35971 -0.17426,-1.18932 -0.55114,-0.75138 m -49.26182,8.77077 c 0.24711,1.88979 0.43612,3.75649 0.57418,5.51103 0.13804,1.75456 0.2851,2.65853 0.52848,5.18157 -0.095,-2.89871 -0.57184,-6.68119 0.7053,-9.26576 1.34587,-2.58097 5.40401,-2.11851 6.71311,0.17037 1.18247,2.06745 1.07295,5.9759 1.27657,8.30328 0.022,0.25083 -0.11019,-1.36417 -0.10901,-1.61585 0.004,-0.83734 0.0189,-1.66733 0.0722,-2.50331 0.18834,-2.95384 0.43007,-7.16458 4.26393,-6.78369 3.01037,0.29908 3.30357,5.31229 3.58485,7.72426 0.0696,0.59717 0.21183,1.89015 0.21817,2.4936 m 59.90383,-14.10586 c -0.86683,-0.75931 -1.90451,-1.29649 -3.06269,-1.41499 -1.71694,-0.17567 -6.38482,1.58664 -3.75541,3.70871 0.33197,0.26791 0.74007,0.54773 1.13428,0.71372 0.45674,0.19232 0.97319,0.33552 1.45635,0.44308 0.70735,0.15745 0.41022,0.0759 1.1203,0.15871 1.86369,0.2174 5.11914,0.45446 5.96335,2.55892 0.17666,0.44036 0.33257,0.78105 10e-4,1.19794 -1.47858,1.85954 -5.35626,2.08329 -7.45589,1.72198 -0.0877,-0.0152 -3.8224,-1.16313 -2.39466,-1.28804 m 124.11674,-17.55859 c -0.77303,-0.8284 -1.64623,-1.53082 -3.61587,-1.78396 -1.96964,-0.25313 -6.10746,1.68308 -3.8567,4.21058 2.25076,2.5275 9.37906,-0.0256 9.06029,3.58976 -0.31878,3.61534 -7.3666,3.51747 -9.60856,1.98426 m -60.03643,-3.4972 c -9.1769,-2.76967 -10.94779,9.83145 -3.9749,10.047 3.34513,0.10341 5.92729,-3.39957 6.12166,-6.2228 0.0648,-0.94168 -0.092,-1.8949 -0.31026,-2.80652 -0.0844,-0.35237 -0.26009,-1.32671 -0.41128,-1.0021 -0.27432,0.58903 -0.10288,1.97982 -0.0946,2.6175 0.0399,3.07488 0.22929,6.30487 0.81604,9.3274 0.52912,2.72567 2.79231,10.61367 1.00182,12.93039 -2.20718,2.855903 -11.70361,-2.61169 -10.9295,-6.56283 m 29.75765,-21.17897 c 0.0327,1.5625 0.2541,2.65014 0.44639,4.65879 0.19228,2.00866 0.38322,3.92044 0.6879,6.21952 0.0986,-2.27283 -0.0889,-4.10593 0.0573,-6.12066 0.11828,-1.18381 0.49607,-5.14724 3.8348,-5.14338 3.33873,0.004 4.13578,6.37342 4.77198,10.51664 -0.12435,-4.91685 -0.82544,-11.58296 3.67648,-11.23292 4.50192,0.35004 4.63386,7.28527 4.95737,10.49809 m 4.62346,-6.01909 c 2.89462,0.16949 5.48037,0.25328 7.89167,-0.92063 5.77714,-2.81253 -2.80824,-6.92676 -7.06468,-3.29528 -3.82297,3.26165 -2.04942,9.1115 3.28622,9.31364 2.60666,0.0988 5.07774,-0.53539 6.64429,-1.66375 m -49.18298,-3.95484 c 1.45692,-1.23178 3.39331,-1.61698 5.95526,-1.80763 2.56195,-0.19067 5.17642,1.68122 5.70644,4.46558 0.52705,2.99419 0.26142,5.36131 -3.46505,6.01988 -1.62249,0.28675 -5.70566,0.84485 -6.839,-0.46598 -0.23671,-0.27378 -0.40146,-0.87488 -0.49373,-1.21357 -0.59258,-2.17535 1.19617,-3.1661 3.07475,-3.61208 1.87857,-0.44599 3.89638,-0.48787 5.61609,0.88144"
         inkscape:connector-curvature="0" />
      <path
         sodipodi:nodetypes="cccccc"
         d="m 1.9494313,5.412037 c 1.8754999,-1.94411 10.2220197,-5.68324399 12.6725097,-4.09481 2.01678,2.88525 -0.65906,7.72869 -1.76007,10.65811 m 33.7489,62.32542 C 23.771364,78.523057 -0.51058903,57.228277 0.98977097,29.819457 1.369681,21.676357 3.7963012,14.999697 7.6076312,9.053147"
         style="fill:none;stroke-width:1.847;stroke-linecap:round;stroke-linejoin:round"
         id="path5740"
         inkscape:connector-curvature="0" />
    </symbol>
    <symbol
       id="slash-design"
       viewBox="0 0 283.123 98">
      <title
         id="title4753">/design</title>
      <desc
         id="desc4755">The text &quot;/design&quot; written with a monospaced font</desc>
      <path
         inkscape:connector-curvature="0"
         d="m 249.1398,67.57922 h 5.22815 l 4.33388,-21.60059 c 4.60905,-5.09058 9.21808,-8.11741 13.68954,-8.11741 3.43959,0 5.29697,1.85737 5.29697,5.15937 0,1.51342 -0.20639,2.95804 -0.61913,4.67784 l -3.98992,19.88079 h 5.29696 l 4.1275,-20.43113 c 0.34396,-1.85737 0.61913,-3.57717 0.61913,-5.50333 0,-5.0218 -2.68289,-8.32379 -8.59896,-8.32379 -5.98488,0 -11.00667,3.64595 -14.99659,7.63587 h -0.27516 l 0.82549,-6.81037 h -4.26508 z M 219.24228,82.507 c 8.39257,0 15.34053,-3.85233 17.1979,-13.20799 l 7.01676,-35.15255 h -4.19629 l -1.37584,4.1963 h -0.27517 c -1.85737,-3.02684 -5.50333,-5.02179 -10.24995,-5.02179 -9.97479,0 -18.16101,9.69961 -18.16101,21.46299 0,7.97983 4.54026,12.52008 11.62579,12.52008 4.26509,0 8.66775,-2.20133 11.90096,-5.36574 h 0.27517 l -1.51342,7.08553 c -1.44462,6.46643 -6.26004,9.1493 -12.17612,9.1493 -3.71475,0 -7.63588,-1.23825 -10.31875,-3.57717 l -2.4765,3.78354 c 3.02683,2.40771 7.22313,4.1275 12.72647,4.1275 z m 3.16441,-19.60563 c -4.88421,0 -7.77346,-2.88924 -7.77346,-8.94291 0,-8.66775 6.12245,-16.23483 13.34558,-16.23483 3.302,0 6.26005,1.51341 8.59896,5.02179 l -3.02683,14.23988 c -3.50838,3.78354 -7.49829,5.91607 -11.14425,5.91607 z m -34.36896,5.50334 c 3.64596,0 6.32883,-0.89429 9.14929,-2.20133 l -1.23825,-3.98992 c -2.40771,1.10067 -4.33387,1.78858 -6.39763,1.78858 -3.02684,0 -5.15937,-1.44462 -5.15937,-4.953 0,-0.68791 0.13755,-1.37583 0.27516,-2.20132 l 5.0218,-22.70126 h -17.47309 l -0.89429,4.26509 h 12.24492 l -3.98992,17.95462 c -0.34395,1.30704 -0.55034,2.54529 -0.55034,3.64596 0,5.50334 3.71475,8.39258 9.01172,8.39258 z m -0.34397,-41.3438 c 2.6141,0 4.81542,-2.06374 4.81542,-4.74661 0,-2.33892 -1.58219,-3.64596 -3.98991,-3.64596 -2.54528,0 -4.74662,2.13253 -4.74662,4.74663 0,2.3389 1.71979,3.64594 3.92111,3.64594 z m -46.20112,41.3438 c 7.84225,0 14.1023,-2.88924 14.1023,-10.11237 0,-5.43455 -4.33388,-7.63587 -10.59392,-9.76842 -5.36576,-1.85738 -8.255,-3.23321 -8.255,-6.32883 0,-2.95805 2.61408,-4.74663 6.94796,-4.74663 4.953,0 8.80533,2.20134 11.557,4.54026 l 2.95803,-3.23322 c -2.82045,-2.82045 -7.56708,-5.43453 -13.9647,-5.43453 -6.81037,0 -12.52008,3.09562 -12.52008,9.49324 0,4.60904 3.09563,7.4295 10.04358,9.76842 5.57213,1.85738 8.80533,3.16442 8.80533,6.39762 0,3.71475 -3.43957,5.29697 -8.11741,5.29697 -4.81542,0 -9.42446,-1.65101 -12.72647,-5.36576 l -3.02682,3.37079 c 3.23321,3.71475 9.0117,6.12246 14.7902,6.12246 z m -41.24813,0 c 5.84729,0 11.07546,-2.27012 14.44625,-4.953 l -1.99496,-3.57717 c -3.09562,2.4765 -7.01674,4.33387 -11.41942,4.33387 -6.05366,0 -10.04358,-3.78354 -10.04358,-10.52512 0,-0.55032 0,-1.03187 0.0688,-1.51341 h 25.59051 c 0.34395,-0.89429 0.89428,-3.64596 0.89428,-5.98488 0,-7.4295 -4.54024,-12.86403 -12.72645,-12.86403 -10.11238,0 -19.05529,8.59894 -19.05529,20.63749 0,9.35567 5.57212,14.44625 14.23987,14.44625 z m 4.54025,-30.88746 c 4.953,0 8.04862,3.23322 8.04862,8.46138 0,0.68791 -0.0688,1.37583 -0.20637,2.06374 H 92.1271 c 2.06374,-6.46641 7.56708,-10.52512 12.65766,-10.52512 z M 55.41922,68.40471 c 4.33388,0 8.80533,-2.33892 12.31371,-5.91608 h 0.27516 l -0.55033,5.09058 h 4.33387 l 9.906,-48.97966 h -5.29695 l -2.61409,13.07041 -1.10066,6.5352 h -0.20638 c -1.92617,-2.95803 -5.36574,-4.88419 -10.11237,-4.88419 -10.18117,0 -18.36738,10.31874 -18.36738,22.2885 0,8.32379 4.54026,12.79524 11.41942,12.79524 z m 1.65099,-4.40267 c -4.67783,0 -7.63587,-2.95804 -7.63587,-9.21808 0,-8.94291 5.98488,-17.06033 13.62075,-17.06033 3.16442,0 6.26004,1.44462 8.53017,4.953 l -3.02684,14.859 c -3.64596,4.19628 -7.84225,6.46641 -11.48821,6.46641 z M 0,78.58588 H 4.953 L 39.41762,18.73713 h -4.95299 z"
         id="path916"
         style="stroke:none" />
    </symbol>
  </defs>
  <sodipodi:namedview
     id="base"
     pagecolor="#ffffff"
     bordercolor="#666666"
     borderopacity="1.0"
     inkscape:pageopacity="0"
     inkscape:pageshadow="2"
     inkscape:zoom="1.0000001"
     inkscape:cx="482.74736"
     inkscape:cy="-215.52553"
     inkscape:document-units="px"
     inkscape:current-layer="layer1"
     showgrid="true"
     fit-margin-top="0"
     fit-margin-left="0"
     fit-margin-right="0"
     fit-margin-bottom="0"
     inkscape:window-width="1920"
     inkscape:window-height="1016"
     inkscape:window-x="0"
     inkscape:window-y="27"
     inkscape:window-maximized="1"
     units="px"
     viewbox-y="0.37"
     viewbox-height="3"
     inkscape:snap-others="false"
     inkscape:snap-nodes="false"
     inkscape:snap-bbox="true"
     inkscape:bbox-paths="false"
     inkscape:bbox-nodes="true"
     inkscape:snap-bbox-edge-midpoints="false"
     inkscape:snap-global="false">
    <inkscape:grid
       type="xygrid"
       id="grid10679"
       spacingx="50.000003"
       spacingy="50.000003"
       empspacing="2" />
  </sodipodi:namedview>
  <metadata
     id="metadata855">
    <rdf:RDF>
      <cc:Work
         rdf:about="">
        <dc:format>image/svg+xml</dc:format>
        <dc:type
           rdf:resource="http://purl.org/dc/dcmitype/StillImage" />
        <dc:title></dc:title>
      </cc:Work>
    </rdf:RDF>
  </metadata>
  <g
     inkscape:label="Layer 1"
     inkscape:groupmode="layer"
     id="layer1">
    <g
       id="g16131"
       transform="translate(50.971424,644.98983)">
      <g
         id="g16145">
        <text
           id="text1950"
           y="-36.693127"
           x="47.680004"
           style="font-style:normal;font-weight:normal;font-size:211.66665649px;line-height:125%;font-family:sans-serif;letter-spacing:0px;word-spacing:0px;fill:#000000;fill-opacity:1;stroke:none;stroke-width:5.29166651px;stroke-linecap:butt;stroke-linejoin:miter;stroke-opacity:1"
           xml:space="preserve"><tspan
             style="font-style:normal;font-variant:normal;font-weight:600;font-stretch:normal;font-size:40px;font-family:'Source Code Pro';-inkscape-font-specification:'Source Code Pro Semi-Bold';fill:#000000;fill-opacity:1;stroke-width:5.29166651px"
             y="-36.693127"
             x="47.680004"
             id="tspan1948"
             sodipodi:role="line">Software</tspan></text>
        <text
           id="text1954"
           y="-0.043286212"
           x="98.986481"
           style="font-style:normal;font-variant:normal;font-weight:normal;font-stretch:normal;font-size:40px;line-height:125%;font-family:Ubuntu;-inkscape-font-specification:Ubuntu;letter-spacing:0px;word-spacing:0px;fill:#000000;fill-opacity:1;stroke:none;stroke-width:1px;stroke-linecap:butt;stroke-linejoin:miter;stroke-opacity:1"
           xml:space="preserve"><tspan
             style="font-style:normal;font-variant:normal;font-weight:300;font-stretch:normal;font-family:Jura;-inkscape-font-specification:'Jura Light';fill:#000000;fill-opacity:1"
             y="-0.043286212"
             x="98.986481"
             id="tspan1952"
             sodipodi:role="line">Interfaces</tspan></text>
        <text
           id="text1958"
           y="0.27342522"
           x="56.307323"
           style="font-style:normal;font-variant:normal;font-weight:normal;font-stretch:normal;font-size:40px;line-height:125%;font-family:Rochester;-inkscape-font-specification:Rochester;letter-spacing:0px;word-spacing:0px;fill:#000000;fill-opacity:1;stroke:none;stroke-width:1px;stroke-linecap:butt;stroke-linejoin:miter;stroke-opacity:1"
           xml:space="preserve"><tspan
             style="font-style:normal;font-variant:normal;font-weight:normal;font-stretch:normal;font-size:46.66666794px;font-family:'Clicker Script';-inkscape-font-specification:'Clicker Script';fill:#000000;fill-opacity:1"
             y="0.27342522"
             x="56.307323"
             id="tspan1956"
             sodipodi:role="line">&amp;</tspan></text>
      </g>
      <path
         id="path1521"
         style="opacity:1;fill:none;fill-opacity:1;stroke:#000000;stroke-width:2.64583349;stroke-linecap:round;stroke-linejoin:round;stroke-miterlimit:4;stroke-dasharray:none;stroke-dashoffset:0;stroke-opacity:1"
         d="m 397.05452,-125.28646 c -1.206,2.4846 22.8334,4.5364 19.3282,4.5364 m -8.9976,-16.9082 c 0.1,8.2262 -2.0364,16.2758 -2.3328,24.4688 -0.06,1.62 0,3.2578 0,4.88 0,0.39 0,1.558 0,1.168 0,-0.782 0.16,-1.59 0.16,-2.4056 m -28.8192,-8.866 c -0.06,0.984 -0.12,1.97 -0.16,2.9554 -0.694,17.488599 1.502,-0.16 7.498,-4.124 4.1308,-2.7262 9.4976,5.971 9.4976,9.1414 0,1.404 -0.634,5.52 -0.666,5.7736 m -30.999,-11.6158 c -2.1506,-2.123 -5.3148,-3.642 -8.1646,-1.718 -8.3046,5.6056 1.112,15.1486 8.831,10.6536 6.6114,-3.8502 7.3428,-16.7366 -2.4994,-13.1278 m -28.1594,1.0306 c 3.7356,-0.4 9.4658,0.8 12.3302,-0.618 m -12.6562,12.4398 c 1.25,5.6738 0.606,-17.966 0.666,-18.97 0.12,-2.3158 0.24,-4.6212 0.16,-6.942 4.0794,1.41 12.0158,0.568 14.8294,-0.206 m -81.9788,49.143395 c -1.034,5.972 -2.3118,11.8822 -3.6656,17.8016 -0.08,0.324 -1.278,4.3304 -0.834,4.605 0.394,0.244 20.6614,-13.1038 20.6614,-13.334 0,-0.12 -1.072,0.306 -1.166,0.344 m 31.159,-41.858195 c -4.2376,1.572 -7.928,4.072 -11.3304,7.0106 -9.055,7.8204 -16.5098,18.348399 -23.6606,27.905395 -1.942,2.5966 -3.7148,5.4792 -5.1652,8.3852 -1.082,2.1672 -0.34,2.3766 -0.834,0.344"
         inkscape:connector-curvature="0" />
    </g>
    <g
       transform="translate(139.56461,49.648466)"
       id="g7000">
      <path
         inkscape:connector-curvature="0"
         id="path6991"
         d="M -349.45292,219.81304 H 1203.3236"
         style="opacity:1;fill:none;fill-opacity:1;stroke:#030303;stroke-width:1;stroke-linecap:round;stroke-linejoin:round;stroke-miterlimit:4;stroke-dasharray:none;stroke-dashoffset:0;stroke-opacity:1"
         sodipodi:nodetypes="cc" />
      <text
         id="text6995"
         y="214.78084"
         x="-348.74582"
         style="font-style:normal;font-weight:normal;font-size:16px;line-height:125%;font-family:sans-serif;letter-spacing:0px;word-spacing:0px;fill:#020202;fill-opacity:1;stroke:none;stroke-width:1px;stroke-linecap:butt;stroke-linejoin:miter;stroke-opacity:1"
         xml:space="preserve"><tspan
           style="font-style:normal;font-variant:normal;font-weight:300;font-stretch:normal;font-size:16px;font-family:Ubuntu;-inkscape-font-specification:'Ubuntu Light';fill:#020202;fill-opacity:1"
           y="214.78084"
           x="-348.74582"
           id="tspan6993"
           sodipodi:role="line">Baseline</tspan></text>
      <path
         sodipodi:nodetypes="cc"
         style="opacity:1;fill:none;fill-opacity:1;stroke:#030303;stroke-width:1;stroke-linecap:round;stroke-linejoin:round;stroke-miterlimit:4;stroke-dasharray:none;stroke-dashoffset:0;stroke-opacity:1"
         d="M -349.45292,183.7435 H 1203.3236"
         id="path21298"
         inkscape:connector-curvature="0" />
      <text
         xml:space="preserve"
         style="font-style:normal;font-weight:normal;font-size:16px;line-height:125%;font-family:sans-serif;letter-spacing:0px;word-spacing:0px;fill:#020202;fill-opacity:1;stroke:none;stroke-width:1px;stroke-linecap:butt;stroke-linejoin:miter;stroke-opacity:1"
         x="-348.74582"
         y="179.53084"
         id="text21302"><tspan
           sodipodi:role="line"
           id="tspan21300"
           x="-348.74582"
           y="179.53084"
           style="font-style:normal;font-variant:normal;font-weight:300;font-stretch:normal;font-size:16px;font-family:Ubuntu;-inkscape-font-specification:'Ubuntu Light';fill:#020202;fill-opacity:1">x-height</tspan></text>
      <path
         inkscape:connector-curvature="0"
         id="path4856"
         d="M -349.45292,150.79528 H 1203.3236"
         style="opacity:1;fill:none;fill-opacity:1;stroke:#030303;stroke-width:1;stroke-linecap:round;stroke-linejoin:round;stroke-miterlimit:4;stroke-dasharray:none;stroke-dashoffset:0;stroke-opacity:1"
         sodipodi:nodetypes="cc" />
      <text
         id="text4860"
         y="145.53084"
         x="-348.74582"
         style="font-style:normal;font-weight:normal;font-size:16px;line-height:125%;font-family:sans-serif;letter-spacing:0px;word-spacing:0px;fill:#020202;fill-opacity:1;stroke:none;stroke-width:1px;stroke-linecap:butt;stroke-linejoin:miter;stroke-opacity:1"
         xml:space="preserve"><tspan
           style="font-style:normal;font-variant:normal;font-weight:300;font-stretch:normal;font-size:16px;font-family:Ubuntu;-inkscape-font-specification:'Ubuntu Light';fill:#020202;fill-opacity:1"
           y="145.53084"
           x="-348.74582"
           id="tspan4858"
           sodipodi:role="line">top</tspan></text>
    </g>
    <use
       xlink:href="#christopher-aue"
       id="use5709"
       style="fill:#0000ff;stroke:#0000ff"
       x="0"
       y="0"
       width="100%"
       height="100%" />
    <use
       xlink:href="#slash-design"
       id="use5718"
       style="fill:#0000ff;stroke:#0000ff"
       x="0"
       y="0"
       width="100%"
       height="100%"
       transform="translate(0,200)" />
    <use
       xlink:href="#slash-collateral"
       id="use5731"
       style="fill:#0000ff;stroke:#0000ff"
       x="0"
       y="0"
       width="100%"
       height="100%"
       transform="translate(543,200)" />
    <use
       xlink:href="#slash-design-annotation"
       id="use5762"
       style="fill:#0000ff;stroke:#0000ff"
       x="0"
       y="0"
       width="100%"
       height="100%"
       transform="translate(143,303.00001)" />
    <use
       xlink:href="#slash-collateral-annotation"
       id="use5803"
       style="fill:#0000ff;stroke:#0000ff"
       x="0"
       y="0"
       width="100%"
       height="100%"
       transform="translate(663,303.00001)" />
  </g>
</svg>
