<?xml version="1.0" encoding="UTF-8" standalone="no"?>
<!-- Generator: Adobe Illustrator 16.0.0, SVG Export Plug-In . SVG Version: 6.00 Build 0)  -->

<svg
   xmlns:dc="http://purl.org/dc/elements/1.1/"
   xmlns:cc="http://creativecommons.org/ns#"
   xmlns:rdf="http://www.w3.org/1999/02/22-rdf-syntax-ns#"
   xmlns:svg="http://www.w3.org/2000/svg"
   xmlns="http://www.w3.org/2000/svg"
   xmlns:sodipodi="http://sodipodi.sourceforge.net/DTD/sodipodi-0.dtd"
   xmlns:inkscape="http://www.inkscape.org/namespaces/inkscape"
   version="1.1"
   id="Capa_1"
   x="0px"
   y="0px"
   width="2304"
   height="1280"
   viewBox="0 0 2304 1280"
   xml:space="preserve"
   sodipodi:docname="social_icons_inkscape.svg"
   inkscape:version="0.92.2 5c3e80d, 2017-08-06"><metadata
     id="metadata41"><rdf:RDF><cc:Work
         rdf:about=""><dc:format>image/svg+xml</dc:format><dc:type
           rdf:resource="http://purl.org/dc/dcmitype/StillImage" /><dc:title></dc:title></cc:Work></rdf:RDF></metadata><defs
     id="defs39" /><sodipodi:namedview
     pagecolor="#ffffff"
     bordercolor="#666666"
     borderopacity="1"
     objecttolerance="10"
     gridtolerance="10"
     guidetolerance="10"
     inkscape:pageopacity="0"
     inkscape:pageshadow="2"
     inkscape:window-width="1920"
     inkscape:window-height="1016"
     id="namedview37"
     showgrid="true"
     inkscape:zoom="0.35355339"
     inkscape:cx="1075.1446"
     inkscape:cy="583.8157"
     inkscape:window-x="0"
     inkscape:window-y="27"
     inkscape:window-maximized="1"
     inkscape:current-layer="Capa_1"
     fit-margin-top="0"
     fit-margin-left="0"
     fit-margin-right="0"
     fit-margin-bottom="0"><inkscape:grid
       type="xygrid"
       id="grid5359"
       spacingx="256"
       spacingy="256"
       empspacing="1"
       dotted="false"
       originx="0"
       originy="0" /></sodipodi:namedview><path
     inkscape:connector-curvature="0"
     style="fill:#55acee;fill-opacity:1;stroke-width:1"
     d="m 768,48.603903 c -9.42,4.177 -19.542,7 -30.16601,8.27 10.84501,-6.5 19.17201,-16.793 23.09301,-29.057 a 105.183,105.183 0 0 1 -33.35101,12.745 c -9.581,-10.207 -23.23,-16.586 -38.337,-16.586 -29.006,0 -52.523,23.516 -52.523,52.52 0,4.117 0.465,8.125 1.36,11.97 -43.65,-2.191 -82.35,-23.1 -108.255,-54.876 -4.52,7.757 -7.11,16.78 -7.11,26.404 0,18.222 9.273,34.297 23.365,43.715997 a 52.312,52.312 0 0 1 -23.79,-6.569997 c -0.003,0.22 -0.003,0.44 -0.003,0.661 0,25.446997 18.104,46.674997 42.13,51.499997 a 52.591998,52.591998 0 0 1 -23.71799,0.9 c 6.683,20.866 26.08,36.05 49.062,36.475 -17.975,14.086 -40.622,22.483 -65.228,22.483 -4.24,0 -8.42,-0.249 -12.529,-0.734 23.243,14.902 50.85,23.597 80.51,23.597 96.607,0 149.434,-80.031 149.434,-149.434997 0,-2.278 -0.05,-4.543 -0.152,-6.795 A 106.748,106.748 0 0 0 768,48.603903"
     id="twitter" /><path
     style="fill:#ffda44;stroke-width:9.18979073"
     d="m 23.9297,38.398303 c -9.3828,0 -11.0557,4.7688 -3.6855,10.5859 l 92.2109,73.041097 c 4.1813,3.3083 9.9425,4.7796 15.5391,4.5039 5.5874,0.2757 11.3498,-1.1864 15.5312,-4.5039 l 92.211,-73.041097 c 7.3886,-5.8171 5.7154,-10.5859 -3.6582,-10.5859 H 128.004 Z M 7.1309,65.419803 C 2.8921,65.105803 1e-4,68.560903 0,75.011603 V 200.535 c 0,9.3828 7.6818,17.0645 17.0645,17.0645 h 110.9297 110.9394 c 9.3827,0 17.0665,-7.6817 17.0664,-17.0645 V 75.011603 c 0,-9.3828 -6.121,-12.426 -13.6015,-6.7559 L 141.6329,144.7616 c -3.7679,2.8305 -8.7027,4.2089 -13.6192,4.1445 -4.9257,0.064 -9.8611,-1.3232 -13.6289,-4.1445 L 13.5997,68.255703 c -2.3377,-1.7719 -4.5421,-2.6932 -6.4688,-2.8359 z"
     id="mail"
     inkscape:connector-curvature="0" /><path
     style="opacity:1;fill:#161614;fill-opacity:1;stroke:none;stroke-width:1;stroke-linecap:round;stroke-linejoin:round;stroke-miterlimit:4;stroke-dasharray:none;stroke-dashoffset:0;stroke-opacity:1"
     d="m 1664.001,3.1587027 c -70.684,0 -128.0009,57.3070003 -128.0009,128.0009973 0,56.554 36.6759,104.535 87.5349,121.46 6.397,1.185 8.746,-2.777 8.746,-6.158 0,-3.052 -0.12,-13.135 -0.174,-23.83 -35.61,7.742 -43.124,-15.103 -43.124,-15.103 -5.823,-14.795 -14.213,-18.73 -14.213,-18.73 -11.613,-7.944 0.876,-7.78 0.876,-7.78 12.853,0.902 19.621,13.19 19.621,13.19 11.417,19.568 29.945,13.911 37.249,10.64 1.149,-8.272 4.466,-13.92 8.127,-17.116 -28.431,-3.236 -58.318,-14.212 -58.318,-63.258 0,-13.975 5,-25.393997 13.188,-34.357997 -1.329,-3.224 -5.71,-16.242 1.24,-33.874 0,0 10.749,-3.44 35.21,13.121 10.21,-2.836 21.16,-4.258 32.038,-4.307 10.878,0.049 21.837,1.47 32.066,4.307 24.431,-16.56 35.165,-13.12 35.165,-13.12 6.967,17.63 2.584,30.65 1.255,33.873 8.207,8.964 13.173,20.382997 13.173,34.357997 0,49.163 -29.944,59.988 -58.447,63.157 4.591,3.972 8.682,11.762 8.682,23.704 0,17.126 -0.148,30.91 -0.148,35.126 0,3.407 2.304,7.398 8.792,6.14 C 1755.37,235.6587 1792,187.6957 1792,131.1607 1792,60.465703 1734.691,3.1587027 1664.001,3.1587027 Z M 1583.941,185.4987 c -0.282,0.636 -1.283,0.827 -2.194,0.39 -0.929,-0.417 -1.45,-1.284 -1.15,-1.922 0.276,-0.655 1.279,-0.838 2.205,-0.399 0.93,0.418 1.46,1.293 1.139,1.931 z m 6.296,5.618 c -0.61,0.566 -1.804,0.303 -2.614,-0.591 -0.837,-0.892 -0.994,-2.086 -0.375,-2.66 0.63,-0.566 1.787,-0.301 2.626,0.591 0.838,0.903 1,2.088 0.363,2.66 z m 4.32,7.188 c -0.785,0.545 -2.067,0.034 -2.86,-1.104 -0.784,-1.138 -0.784,-2.503 0.017,-3.05 0.795,-0.547 2.058,-0.055 2.861,1.075 0.782,1.157 0.782,2.522 -0.019,3.08 z m 7.304,8.325 c -0.701,0.774 -2.196,0.566 -3.29,-0.49 -1.119,-1.032 -1.43,-2.496 -0.726,-3.27 0.71,-0.776 2.213,-0.558 3.315,0.49 1.11,1.03 1.45,2.505 0.701,3.27 z m 9.442,2.81 c -0.31,1.003 -1.75,1.459 -3.199,1.033 -1.448,-0.439 -2.395,-1.613 -2.103,-2.626 0.301,-1.01 1.747,-1.484 3.207,-1.028 1.446,0.436 2.396,1.602 2.095,2.622 z m 10.744,1.193 c 0.036,1.055 -1.193,1.93 -2.715,1.95 -1.53,0.034 -2.769,-0.82 -2.786,-1.86 0,-1.065 1.202,-1.932 2.733,-1.958 1.522,-0.03 2.768,0.818 2.768,1.868 z m 10.555,-0.405 c 0.182,1.03 -0.875,2.088 -2.387,2.37 -1.485,0.271 -2.861,-0.365 -3.05,-1.386 -0.184,-1.056 0.893,-2.114 2.376,-2.387 1.514,-0.263 2.868,0.356 3.061,1.403 z"
     id="github"
     inkscape:connector-curvature="0" /><path
     style="opacity:1;fill:#395185;fill-opacity:1;stroke:none;stroke-width:1;stroke-linecap:round;stroke-linejoin:round;stroke-miterlimit:4;stroke-dasharray:none;stroke-dashoffset:0;stroke-opacity:1"
     d="m 1038.1289,-0.00219727 c -7.805,0 -14.1289,6.32489997 -14.1289,14.12890027 V 241.8689 c 0,7.803 6.3239,14.1309 14.1289,14.1309 h 122.6094 v -99.1387 h -33.3613 v -38.6348 h 33.3613 V 89.734103 c 0,-33.066 20.1934,-51.0722 49.6914,-51.0722 14.128,0 26.2725,1.0524 29.8125,1.5234 v 34.5547 l -20.459,0.01 c -16.041,0 -19.1484,7.6226 -19.1484,18.8086 V 118.2266 h 38.2597 l -4.9824,38.6347 h -33.2773 V 256 h 65.2363 c 7.802,0 14.1289,-6.3279 14.1289,-14.1309 V 14.126703 c 0,-7.8040003 -6.3269,-14.12890027 -14.1289,-14.12890027 z"
     id="facebook"
     inkscape:connector-curvature="0" /><path
     style="fill:#ff0000;fill-opacity:1;fill-rule:nonzero;stroke:none;stroke-width:1.45453727"
     d="m 2176,37.818303 c 0,0 -80.0522,-5e-4 -100.0158,5.3842 -11.0152,2.9629 -19.6901,11.6925 -22.6341,22.779 -5.3483,20.093 -5.3501,62.017397 -5.3501,62.017397 0,0 0,41.9215 5.3501,62.0174 2.944,11.085 11.6189,19.8168 22.6341,22.7811 19.9636,5.3833 100.0158,5.3821 100.0158,5.3821 0,0 80.0537,0.001 100.0158,-5.3821 11.0167,-2.9643 19.6901,-11.6961 22.6341,-22.7811 5.3498,-20.0959 5.3501,-62.0174 5.3501,-62.0174 0,0 -3e-4,-41.924397 -5.3501,-62.017397 -2.944,-11.0865 -11.6174,-19.8161 -22.6341,-22.779 C 2256.0537,37.817803 2176,37.818303 2176,37.818303 Z m -26.1816,52.1162 66.9094,38.066497 -66.9094,38.0623 z"
     id="youtube"
     inkscape:connector-curvature="0" /><path
     inkscape:connector-curvature="0"
     style="fill:#ffffff;fill-opacity:1;stroke-width:1"
     d="m 767.997,560.6039 c -9.42,4.17701 -19.542,7 -30.166,8.27 10.845,-6.5 19.172,-16.793 23.093,-29.057 a 105.183,105.183 0 0 1 -33.351,12.745 c -9.581,-10.207 -23.23,-16.58599 -38.337,-16.58599 -29.006,0 -52.523,23.51599 -52.523,52.52 0,4.11699 0.465,8.12499 1.36,11.96999 -43.65,-2.191 -82.35,-23.1 -108.255,-54.876 -4.52,7.75701 -7.11,16.78 -7.11,26.40401 0,18.22199 9.273,34.29699 23.365,43.71599 a 52.312,52.312 0 0 1 -23.79,-6.56999 c 0,0.21999 0,0.43999 0,0.66099 0,25.447 18.104,46.675 42.13,51.49999 a 52.591998,52.591998 0 0 1 -23.718,0.90001 c 6.683,20.866 26.08,36.04999 49.062,36.47501 -17.975,14.086 -40.622,22.48299 -65.228,22.48299 -4.24,0 -8.42,-0.24899 -12.529,-0.73401 23.243,14.902 50.85,23.59701 80.51,23.59701 96.607,0 149.434,-80.03101 149.434,-149.435 0,-2.278 -0.05,-4.54299 -0.152,-6.795 A 106.748,106.748 0 0 0 768,560.6039"
     id="twitter-white" /><path
     style="fill:#ffffff;stroke-width:9.18979073"
     d="m 23.9297,550.39832 c -9.3828,0 -11.0557,4.7688 -3.6855,10.58593 l 92.2109,73.04103 c 4.1813,3.30833 9.9425,4.77959 15.5391,4.50389 5.5874,0.27569 11.3498,-1.18638 15.5312,-4.50389 l 92.211,-73.04103 c 7.3886,-5.81713 5.7154,-10.58593 -3.6582,-10.58593 H 128.004 Z M 7.1309,577.4198 C 2.8921,577.10583 1e-4,580.56094 0,587.0116 v 125.52344 c 0,9.38278 7.6818,17.06446 17.0645,17.06446 h 110.9297 110.9394 c 9.3827,0 17.0665,-7.68169 17.0664,-17.06446 V 587.0116 c 0,-9.38277 -6.121,-12.42597 -13.6015,-6.75586 L 141.6329,656.7616 c -3.7679,2.83045 -8.7027,4.20885 -13.6192,4.14453 -4.9257,0.0643 -9.8611,-1.32327 -13.6289,-4.14453 L 13.5997,580.25574 C 11.262,578.48383 9.0576,577.56252 7.1309,577.4198 Z"
     id="mail-white"
     inkscape:connector-curvature="0" /><path
     style="opacity:1;fill:#ffffff;fill-opacity:1;stroke:none;stroke-width:1;stroke-linecap:round;stroke-linejoin:round;stroke-miterlimit:4;stroke-dasharray:none;stroke-dashoffset:0;stroke-opacity:1"
     d="m 1664.0009,515.15874 c -70.684,0 -128.0009,57.307 -128.0009,128.00101 0,56.554 36.6759,104.53495 87.5349,121.45995 6.397,1.185 8.746,-2.7769 8.746,-6.1579 0,-3.052 -0.12,-13.135 -0.174,-23.83006 -35.61,7.742 -43.124,-15.103 -43.124,-15.103 -5.823,-14.795 -14.213,-18.73 -14.213,-18.73 -11.613,-7.94399 0.876,-7.78 0.876,-7.78 12.853,0.902 19.621,13.19 19.621,13.19 11.417,19.56801 29.945,13.911 37.249,10.64 1.149,-8.272 4.466,-13.92 8.127,-17.116 -28.431,-3.23599 -58.318,-14.21199 -58.318,-63.258 0,-13.97499 5,-25.394 13.188,-34.358 -1.329,-3.224 -5.71,-16.242 1.24,-33.874 0,0 10.749,-3.44 35.21,13.121 10.21,-2.836 21.16,-4.258 32.038,-4.307 10.878,0.049 21.837,1.47 32.066,4.307 24.431,-16.56 35.165,-13.12 35.165,-13.12 6.967,17.63 2.584,30.65 1.255,33.873 8.207,8.964 13.173,20.38301 13.173,34.358 0,49.163 -29.944,59.988 -58.447,63.157 4.591,3.97201 8.682,11.762 8.682,23.70401 0,17.126 -0.148,30.90995 -0.148,35.12605 0,3.407 2.304,7.398 8.792,6.1399 50.831,-16.943 87.461,-64.90596 87.461,-121.44096 0,-70.695 -57.309,-128.002 -127.999,-128.002 z m -80.06,182.34001 c -0.282,0.636 -1.283,0.827 -2.194,0.39 -0.929,-0.41701 -1.45,-1.284 -1.15,-1.922 0.276,-0.655 1.279,-0.838 2.205,-0.399 0.93,0.418 1.46,1.293 1.139,1.931 z m 6.296,5.618 c -0.61,0.566 -1.804,0.303 -2.614,-0.591 -0.837,-0.892 -0.994,-2.08601 -0.375,-2.66 0.63,-0.566 1.787,-0.301 2.626,0.591 0.838,0.903 1,2.088 0.363,2.66 z m 4.32,7.18799 c -0.785,0.545 -2.067,0.034 -2.86,-1.104 -0.784,-1.138 -0.784,-2.503 0.017,-3.05 0.795,-0.547 2.058,-0.055 2.861,1.075 0.782,1.157 0.782,2.522 -0.019,3.08 z m 7.304,8.325 c -0.701,0.774 -2.196,0.566 -3.29,-0.49 -1.119,-1.032 -1.43,-2.496 -0.726,-3.27 0.71,-0.776 2.213,-0.558 3.315,0.49 1.11,1.03 1.45,2.505 0.701,3.27 z m 9.442,2.81 c -0.31,1.003 -1.75,1.459 -3.199,1.033 -1.448,-0.439 -2.395,-1.613 -2.103,-2.626 0.301,-1.01 1.747,-1.484 3.207,-1.028 1.446,0.436 2.396,1.602 2.095,2.622 z m 10.744,1.19301 c 0.036,1.055 -1.193,1.93 -2.715,1.94999 -1.53,0.034 -2.769,-0.82 -2.786,-1.86 0,-1.065 1.202,-1.932 2.733,-1.958 1.522,-0.03 2.768,0.818 2.768,1.86801 z m 10.555,-0.40501 c 0.182,1.03001 -0.875,2.088 -2.387,2.37001 -1.485,0.27099 -2.861,-0.36501 -3.05,-1.386 -0.184,-1.05601 0.893,-2.114 2.376,-2.387 1.514,-0.263 2.868,0.356 3.061,1.40299 z"
     id="github-white"
     inkscape:connector-curvature="0" /><path
     style="opacity:1;fill:#ffffff;fill-opacity:1;stroke:none;stroke-width:1;stroke-linecap:round;stroke-linejoin:round;stroke-miterlimit:4;stroke-dasharray:none;stroke-dashoffset:0;stroke-opacity:1"
     d="m 1038.1289,511.99781 c -7.805,0 -14.1289,6.32491 -14.1289,14.12891 V 753.8689 c 0,7.803 6.3239,14.1309 14.1289,14.1309 h 122.6094 v -99.13871 h -33.3614 v -38.63475 h 33.3614 v -28.4922 c 0,-33.066 20.1934,-51.07227 49.6914,-51.07227 14.128,0 26.2725,1.05244 29.8125,1.52344 V 586.74 l -20.459,0.01 c -16.041,0 -19.1484,7.6226 -19.1484,18.8086 v 24.66798 h 38.2597 l -4.9824,38.63474 h -33.2773 V 768 h 65.2363 c 7.802,0 14.1289,-6.3279 14.1289,-14.1309 V 526.12672 c 0,-7.804 -6.3269,-14.12891 -14.1289,-14.12891 z"
     id="facebook-white"
     inkscape:connector-curvature="0" /><path
     style="fill:#ffffff;fill-opacity:1;fill-rule:nonzero;stroke:none;stroke-width:1.45453727"
     d="m 2176,549.8183 c 0,0 -80.0522,-5e-4 -100.0158,5.38419 -11.0152,2.9629 -19.6901,11.69251 -22.6341,22.779 -5.3483,20.09298 -5.3501,62.01741 -5.3501,62.01741 0,0 0,41.9215 5.3501,62.01741 2.944,11.08503 11.6189,19.81678 22.6341,22.78112 19.9636,5.38325 100.0158,5.38208 100.0158,5.38208 0,0 80.0537,10e-4 100.0158,-5.38208 11.0167,-2.96434 19.6901,-11.69609 22.6341,-22.78112 5.3498,-20.0959 5.3501,-62.01741 5.3501,-62.01741 0,0 -3e-4,-41.92443 -5.3501,-62.01741 -2.944,-11.08649 -11.6174,-19.8161 -22.6341,-22.779 C 2256.0537,549.8178 2176,549.8183 2176,549.8183 Z m -26.1816,52.11618 66.9094,38.06656 -66.9094,38.06228 z"
     id="youtube-white"
     inkscape:connector-curvature="0" /><path
     inkscape:connector-curvature="0"
     style="fill:#000000;fill-opacity:1;stroke-width:1"
     d="m 768,1072.6039 c -9.42,4.177 -19.542,7 -30.16601,8.27 10.84501,-6.5 19.17201,-16.793 23.09301,-29.057 a 105.183,105.183 0 0 1 -33.35101,12.745 c -9.581,-10.207 -23.23,-16.586 -38.337,-16.586 -29.006,0 -52.523,23.516 -52.523,52.52 0,4.117 0.465,8.125 1.36,11.97 -43.65,-2.191 -82.35,-23.1 -108.255,-54.876 -4.52,7.757 -7.11,16.78 -7.11,26.404 0,18.222 9.273,34.297 23.365,43.716 a 52.312,52.312 0 0 1 -23.79,-6.57 c -0.003,0.22 -0.003,0.44 -0.003,0.661 0,25.447 18.104,46.675 42.13,51.5 a 52.591998,52.591998 0 0 1 -23.71799,0.9 c 6.683,20.866 26.08,36.05 49.062,36.475 -17.975,14.086 -40.622,22.483 -65.228,22.483 -4.24,0 -8.42,-0.249 -12.529,-0.734 23.243,14.902 50.85,23.597 80.51,23.597 96.607,0 149.434,-80.031 149.434,-149.435 0,-2.278 -0.05,-4.543 -0.152,-6.795 A 106.748,106.748 0 0 0 768,1072.6039"
     id="twitter-black" /><path
     style="fill:#000000;stroke-width:9.18979073"
     d="m 23.9297,1062.3983 c -9.3828,0 -11.0557,4.7688 -3.6855,10.5859 l 92.2109,73.0411 c 4.1813,3.3083 9.9425,4.7796 15.5391,4.5039 5.5874,0.2757 11.3498,-1.1864 15.5312,-4.5039 l 92.211,-73.0411 c 7.3886,-5.8171 5.7154,-10.5859 -3.6582,-10.5859 H 128.004 Z M 7.1309,1089.4198 C 2.8921,1089.1058 1e-4,1092.5609 0,1099.0116 v 125.5234 c 0,9.3828 7.6818,17.0645 17.0645,17.0645 h 110.9297 110.9394 c 9.3827,0 17.0665,-7.6817 17.0664,-17.0645 v -125.5234 c 0,-9.3828 -6.121,-12.426 -13.6015,-6.7559 l -100.7656,76.5059 c -3.7679,2.8304 -8.7027,4.2088 -13.6192,4.1445 -4.9257,0.064 -9.8611,-1.3232 -13.6289,-4.1445 L 13.5997,1092.2557 c -2.3377,-1.7719 -4.5421,-2.6932 -6.4688,-2.8359 z"
     id="mail-black"
     inkscape:connector-curvature="0" /><path
     style="opacity:1;fill:#000000;fill-opacity:1;stroke:none;stroke-width:1;stroke-linecap:round;stroke-linejoin:round;stroke-miterlimit:4;stroke-dasharray:none;stroke-dashoffset:0;stroke-opacity:1"
     d="m 1664.001,1027.1587 c -70.684,0 -128.0009,57.307 -128.0009,128.001 0,56.554 36.6759,104.535 87.5349,121.46 6.397,1.185 8.746,-2.777 8.746,-6.158 0,-3.052 -0.12,-13.135 -0.174,-23.83 -35.61,7.742 -43.124,-15.103 -43.124,-15.103 -5.823,-14.795 -14.213,-18.73 -14.213,-18.73 -11.613,-7.944 0.876,-7.78 0.876,-7.78 12.853,0.902 19.621,13.19 19.621,13.19 11.417,19.568 29.945,13.911 37.249,10.64 1.149,-8.272 4.466,-13.92 8.127,-17.116 -28.431,-3.236 -58.318,-14.212 -58.318,-63.258 0,-13.975 5,-25.394 13.188,-34.358 -1.329,-3.224 -5.71,-16.242 1.24,-33.874 0,0 10.749,-3.44 35.21,13.121 10.21,-2.836 21.16,-4.258 32.038,-4.307 10.878,0.049 21.837,1.47 32.066,4.307 24.431,-16.56 35.165,-13.12 35.165,-13.12 6.967,17.63 2.584,30.65 1.255,33.873 8.207,8.964 13.173,20.383 13.173,34.358 0,49.163 -29.944,59.988 -58.447,63.157 4.591,3.972 8.682,11.762 8.682,23.704 0,17.126 -0.148,30.91 -0.148,35.126 0,3.407 2.304,7.398 8.792,6.14 50.831,-16.943 87.461,-64.906 87.461,-121.441 0,-70.695 -57.309,-128.002 -127.999,-128.002 z m -80.06,182.34 c -0.282,0.636 -1.283,0.827 -2.194,0.39 -0.929,-0.417 -1.45,-1.284 -1.15,-1.922 0.276,-0.655 1.279,-0.838 2.205,-0.399 0.93,0.418 1.46,1.293 1.139,1.931 z m 6.296,5.618 c -0.61,0.566 -1.804,0.303 -2.614,-0.591 -0.837,-0.892 -0.994,-2.086 -0.375,-2.66 0.63,-0.566 1.787,-0.301 2.626,0.591 0.838,0.903 1,2.088 0.363,2.66 z m 4.32,7.188 c -0.785,0.545 -2.067,0.034 -2.86,-1.104 -0.784,-1.138 -0.784,-2.503 0.017,-3.05 0.795,-0.547 2.058,-0.055 2.861,1.075 0.782,1.157 0.782,2.522 -0.019,3.08 z m 7.304,8.325 c -0.701,0.774 -2.196,0.566 -3.29,-0.49 -1.119,-1.032 -1.43,-2.496 -0.726,-3.27 0.71,-0.776 2.213,-0.558 3.315,0.49 1.11,1.03 1.45,2.505 0.701,3.27 z m 9.442,2.81 c -0.31,1.003 -1.75,1.459 -3.199,1.033 -1.448,-0.439 -2.395,-1.613 -2.103,-2.626 0.301,-1.01 1.747,-1.484 3.207,-1.028 1.446,0.436 2.396,1.602 2.095,2.622 z m 10.744,1.193 c 0.036,1.055 -1.193,1.93 -2.715,1.95 -1.53,0.034 -2.769,-0.82 -2.786,-1.86 0,-1.065 1.202,-1.932 2.733,-1.958 1.522,-0.03 2.768,0.818 2.768,1.868 z m 10.555,-0.405 c 0.182,1.03 -0.875,2.088 -2.387,2.37 -1.485,0.271 -2.861,-0.365 -3.05,-1.386 -0.184,-1.056 0.893,-2.114 2.376,-2.387 1.514,-0.263 2.868,0.356 3.061,1.403 z"
     id="github-black"
     inkscape:connector-curvature="0" /><path
     style="opacity:1;fill:#000000;fill-opacity:1;stroke:none;stroke-width:1;stroke-linecap:round;stroke-linejoin:round;stroke-miterlimit:4;stroke-dasharray:none;stroke-dashoffset:0;stroke-opacity:1"
     d="m 1038.1289,1023.9978 c -7.805,0 -14.1289,6.3249 -14.1289,14.1289 v 227.7422 c 0,7.803 6.3239,14.1309 14.1289,14.1309 h 122.6094 v -99.1387 h -33.3613 v -38.6348 h 33.3613 v -28.4922 c 0,-33.066 20.1934,-51.0722 49.6914,-51.0722 14.128,0 26.2725,1.0524 29.8125,1.5234 v 34.5547 l -20.459,0.01 c -16.041,0 -19.1484,7.6226 -19.1484,18.8086 v 24.668 h 38.2597 l -4.9824,38.6347 h -33.2773 V 1280 h 65.2363 c 7.802,0 14.1289,-6.3279 14.1289,-14.1309 v -227.7424 c 0,-7.804 -6.3269,-14.1289 -14.1289,-14.1289 z"
     id="facebook-black"
     inkscape:connector-curvature="0" /><path
     style="fill:#000000;fill-opacity:1;fill-rule:nonzero;stroke:none;stroke-width:1.45453727"
     d="m 2176,1061.8183 c 0,0 -80.0522,-5e-4 -100.0158,5.3842 -11.0152,2.9629 -19.6901,11.6925 -22.6341,22.779 -5.3483,20.093 -5.3501,62.0174 -5.3501,62.0174 0,0 0,41.9215 5.3501,62.0174 2.944,11.085 11.6189,19.8168 22.6341,22.7811 19.9636,5.3833 100.0158,5.3821 100.0158,5.3821 0,0 80.0537,10e-4 100.0158,-5.3821 11.0167,-2.9643 19.6901,-11.6961 22.6341,-22.7811 5.3498,-20.0959 5.3501,-62.0174 5.3501,-62.0174 0,0 -3e-4,-41.9244 -5.3501,-62.0174 -2.944,-11.0865 -11.6174,-19.8161 -22.6341,-22.779 C 2256.0537,1061.8178 2176,1061.8183 2176,1061.8183 Z m -26.1816,52.1162 66.9094,38.0665 -66.9094,38.0623 z"
     id="youtube-black"
     inkscape:connector-curvature="0" /></svg>