<?xml version="1.0" encoding="UTF-8" standalone="no"?>
<!-- Created with Inkscape (http://www.inkscape.org/) -->

<svg
   xmlns:dc="http://purl.org/dc/elements/1.1/"
   xmlns:cc="http://creativecommons.org/ns#"
   xmlns:rdf="http://www.w3.org/1999/02/22-rdf-syntax-ns#"
   xmlns:svg="http://www.w3.org/2000/svg"
   xmlns="http://www.w3.org/2000/svg"
   xmlns:xlink="http://www.w3.org/1999/xlink"
   xmlns:sodipodi="http://sodipodi.sourceforge.net/DTD/sodipodi-0.dtd"
   xmlns:inkscape="http://www.inkscape.org/namespaces/inkscape"
   width="256"
   height="256"
   viewBox="0 0 256 256"
   version="1.1"
   id="svg4817"
   inkscape:version="0.92.2 5c3e80d, 2017-08-06"
   sodipodi:docname="social_icons.svg">
  <defs
     id="defs39">
    <symbol
       id="mail-icon"
       viewBox="0 0 256 179.201">
      <title
         id="title4747">Email Icon</title>
      <desc
         id="desc4749">A mail envelope</desc>
      <path
         inkscape:connector-curvature="0"
         id="mail"
         d="M 23.9297,-2.5196851e-6 C 14.5469,-2.5196851e-6 12.874,4.7687774 20.2442,10.585887 l 92.2109,73.041107 c 4.1813,3.3083 9.9425,4.77959 15.5391,4.50391 5.5874,0.27553 11.3498,-1.18643 15.5312,-4.50391 l 92.211,-73.041107 C 243.125,4.7687774 241.4518,-2.5196851e-6 232.0782,-2.5196851e-6 H 128.004 Z M 7.1309,27.021504 C 2.8921,26.707494 1e-4,30.162594 0,36.613304 V 162.13671 c 0,9.38279 7.6818,17.06449 17.0645,17.06449 h 110.9297 110.9394 c 9.3827,0 17.0665,-7.6817 17.0664,-17.06449 V 36.613304 c 0,-9.38279 -6.121,-12.42599 -13.6015,-6.75591 L 141.6329,106.36332 c -3.7679,2.83049 -8.7027,4.20888 -13.6192,4.14448 -4.9257,0.0639 -9.8611,-1.32322 -13.6289,-4.14448 L 13.5997,29.857394 c -2.3377,-1.77192 -4.5421,-2.69321 -6.4688,-2.83589 z" />
    </symbol>
    <symbol
       id="twitter-icon"
       viewBox="0 0 256 208.046">
      <title
         id="title4753">Twitter Icon</title>
      <desc
         id="desc4755">A stylized bird with spread wings looking to the right</desc>
      <path
         id="twitter"
         d="m 256,24.627967 c -9.42,4.17702 -19.542,7.00003 -30.16601,8.27003 10.84501,-6.5 19.17201,-16.79301 23.09301,-29.0570096 A 105.183,105.183 0 0 1 215.57599,16.586007 c -9.581,-10.2070296 -23.23,-16.5860095196851 -38.337,-16.5860095196851 -29.006,0 -52.523,23.5159995196851 -52.523,52.5199765196851 0,4.117 0.465,8.125 1.36,11.97003 -43.65,-2.19103 -82.35,-23.100017 -108.255,-54.8760166 -4.52,7.7569896 -7.11,16.7800096 -7.11,26.4040096 0,18.222007 9.273,34.296977 23.365,43.715977 a 52.311999,52.311999 0 0 1 -23.79,-6.56999 c -0.003,0.21997 -0.003,0.44001 -0.003,0.661 0,25.44699 18.104,46.675016 42.13,51.499996 A 52.591998,52.591998 0 0 1 28.695,126.225 c 6.683,20.86598 26.08,36.05001 49.062,36.47498 -17.975,14.08603 -40.622,22.48301 -65.228,22.48301 -4.24,0 -8.42,-0.24907 -12.529,-0.73399 23.243,14.902 50.85,23.59699 80.51,23.59699 96.607,0 149.434,-80.031 149.434,-149.435006 0,-2.27799 -0.05,-4.54299 -0.15201,-6.794987 a 106.748,106.748 0 0 0 26.208,-27.18803"
         inkscape:connector-curvature="0" />
    </symbol>
    <symbol
       id="facebook-icon"
       viewBox="0 0 256 256">
      <title
         id="title23373">Facebook Icon</title>
      <desc
         id="desc23375">An f within a box with rounded corners</desc>
      <path
         d="M 14.128906,0 C 6.3239063,0 0,6.3249777 0,14.128906 V 241.86914 C 0,249.67205 6.3239063,256 14.128906,256 H 136.73828 v -99.13867 h -33.36133 v -38.63477 h 33.36133 V 89.736328 c 0,-6.6e-4 0,-0.0013 0,-0.002 0,-1.032652 0.0195,-2.051501 0.0586,-3.054687 2e-5,-6.59e-4 -3e-5,-0.0013 0,-0.002 0.0391,-1.00315 0.0983,-1.991338 0.17578,-2.964843 5e-5,-6.55e-4 -6e-5,-0.0013 0,-0.002 0.0775,-0.973471 0.17383,-1.931353 0.28906,-2.875 8e-5,-6.48e-4 -8e-5,-0.0013 0,-0.002 0.34591,-2.832116 0.86135,-5.529604 1.53516,-8.089843 1.6e-4,-6.12e-4 -1.7e-4,-0.0013 0,-0.002 0.22451,-0.852982 0.46697,-1.69123 0.72656,-2.513672 1.8e-4,-5.94e-4 -1.9e-4,-0.0014 0,-0.002 0.25961,-0.822416 0.53606,-1.628223 0.83008,-2.419921 2.1e-4,-5.72e-4 -2.2e-4,-0.0014 0,-0.002 0.58829,-1.583928 1.24671,-3.106519 1.96875,-4.566407 2.5e-4,-5.2e-4 -2.6e-4,-0.0014 0,-0.002 0.72209,-1.459856 1.5108,-2.857029 2.36132,-4.191406 3e-4,-4.58e-4 -2.9e-4,-0.0015 0,-0.002 0.42514,-0.666943 0.86604,-1.317801 1.32227,-1.953125 3e-4,-4.23e-4 -3e-4,-0.0015 0,-0.002 0.45626,-0.635316 0.92933,-1.253905 1.41602,-1.857422 3.1e-4,-3.87e-4 -3.2e-4,-0.0016 0,-0.002 0.48672,-0.603511 0.98937,-1.190189 1.50585,-1.761719 3.2e-4,-3.5e-4 -3.1e-4,-0.0016 0,-0.002 0.51652,-0.571526 1.04813,-1.124698 1.59375,-1.664063 4.91395,-4.857582 10.99466,-8.407883 18,-10.583984 5.44823,-1.692408 11.45552,-2.554688 17.90821,-2.554688 1.766,0 3.50032,0.01718 5.1914,0.04687 11.83759,0.207878 21.5236,1.064429 24.6211,1.476563 v 0.002 34.552734 0.002 l -20.45899,0.0098 c -2.00512,0 -3.80759,0.119333 -5.42773,0.349609 -0.81007,0.115139 -1.57585,0.258 -2.29688,0.427735 -1.08153,0.254601 -2.06431,0.569538 -2.95898,0.941406 -0.29822,0.123957 -0.58658,0.254134 -0.86523,0.390625 -0.55732,0.272981 -1.07594,0.570948 -1.5586,0.892578 -0.48266,0.321633 -0.92899,0.666856 -1.3418,1.035156 -0.2064,0.18415 -0.40586,0.374868 -0.5957,0.570313 -0.18947,0.195117 -0.37136,0.395437 -0.54492,0.601563 -3.1e-4,3.68e-4 3.1e-4,0.0016 0,0.002 -0.17351,0.206121 -0.33984,0.415932 -0.49805,0.632812 -3e-4,4.14e-4 3e-4,0.0015 0,0.002 -0.15816,0.21688 -0.30967,0.438626 -0.45312,0.666016 -2.9e-4,4.56e-4 2.9e-4,0.0015 0,0.002 -0.14342,0.227394 -0.28085,0.45961 -0.41016,0.697266 -2.7e-4,4.95e-4 2.7e-4,0.0015 0,0.002 -0.12927,0.237663 -0.25142,0.480838 -0.36719,0.728515 -2.4e-4,5.3e-4 2.5e-4,0.0014 0,0.002 -0.23171,0.495917 -0.43798,1.010351 -0.61914,1.544922 -1.9e-4,5.83e-4 2e-4,0.0014 0,0.002 -0.1811,0.534613 -0.33926,1.088865 -0.47461,1.660156 -1.4e-4,6.21e-4 1.5e-4,0.0013 0,0.002 -0.1353,0.571341 -0.24943,1.159582 -0.34375,1.765625 -1e-4,6.46e-4 1e-4,0.0013 0,0.002 -0.28304,1.819546 -0.39257,3.792014 -0.39257,5.888672 v 24.667976 h 38.25976 l -4.98242,38.63476 H 176.63477 V 256 h 65.23632 C 249.67309,256 256,249.67208 256,241.86914 V 14.128906 C 256,6.3249777 249.67309,0 241.87109,0 Z"
         id="path23377"
         inkscape:connector-curvature="0" />
    </symbol>
    <symbol
       id="facebook-icon-colored"
       viewBox="0 0 256 256">
      <title
         id="title4759">Facebook Icon</title>
      <desc
         id="desc4761">An f within a box with rounded corners</desc>
      <path
         inkscape:connector-curvature="0"
         id="path1559"
         d="M 14.1289,-2.5196851e-6 C 6.3239,-2.5196851e-6 0,6.3248474 0,14.128776 V 241.86902 c 0,7.80291 6.3239,14.13078 14.1289,14.13078 H 136.7383 V 156.86192 H 103.377 v -38.63444 h 33.3613 V 89.735506 c 0,-33.06573 20.1934,-51.07174 49.6914,-51.07174 14.128,0 26.2725,1.05238 29.8125,1.52338 v 34.55441 l -20.459,0.0113 c -16.041,0 -19.1484,7.62255 -19.1484,18.80844 V 118.2291 h 38.2597 l -4.9824,38.63437 h -33.2773 v 99.13648 h 65.2363 c 7.802,0 14.1289,-6.32784 14.1289,-14.13078 V 14.128776 C 256,6.3248474 249.6731,-2.5196851e-6 241.8711,-2.5196851e-6 Z"
         style="fill:#395185" />
      <path
         sodipodi:nodetypes="cccccsscccscccccc"
         style="fill:#ffffff"
         d="M 136.7383,255.9998 V 156.86109 H 103.377 v -38.63478 h 33.3613 V 89.734066 c 0,-33.06599 20.1934,-51.07219 49.6914,-51.07219 14.128,0 26.2725,1.05241 29.8125,1.52342 v 34.55471 l -20.459,0.0113 c -16.041,0 -19.1484,7.62258 -19.1484,18.80859 v 24.667994 h 38.2597 l -4.9824,38.63471 h -33.2773 v 99.13735 z"
         id="path1523"
         inkscape:connector-curvature="0" />
    </symbol>
    <symbol
       id="github-icon"
       viewBox="0 0 256 249.680">
      <title
         id="title4766">Github Icon</title>
      <desc
         id="desc4768">A silhouette of an octocat, a crossing of an octopus and a cat</desc>
      <path
         inkscape:connector-curvature="0"
         id="github"
         d="M 128.00096,-2.5196851e-6 C 57.31692,-2.5196851e-6 0,57.307047 0,128.00108 c 0,56.55402 36.67593,104.53505 87.53492,121.46004 6.39704,1.18499 8.74602,-2.77701 8.74602,-6.15799 0,-3.05201 -0.11981,-13.13503 -0.17386,-23.83003 -35.60999,7.74202 -43.124,-15.103 -43.124,-15.103 -5.823,-14.795 -14.21302,-18.73001 -14.21302,-18.73001 -11.61302,-7.944 0.87601,-7.78001 0.87601,-7.78001 12.85301,0.90202 19.62101,13.19002 19.62101,13.19002 11.41701,19.56802 29.94501,13.91101 37.24902,10.64001 1.14898,-8.27202 4.466,-13.92 8.127,-17.116 -28.43104,-3.236 -58.31803,-14.21201 -58.31803,-63.25803 0,-13.97503 5.00001,-25.394011 13.18802,-34.35803 -1.32904,-3.224013 -5.71004,-16.241993 1.23998,-33.874013 0,0 10.74898,-3.44002 35.21001,13.121 10.21001,-2.836 21.16002,-4.25801 32.03803,-4.30699 10.87798,0.0491 21.83698,1.47 32.06601,4.30699 24.43102,-16.56 35.16499,-13.11998 35.16499,-13.11998 6.96703,17.62998 2.58403,30.650001 1.25503,33.872993 8.20698,8.964019 13.17298,20.383 13.17298,34.35803 0,49.163 -29.94399,59.98802 -58.447,63.157 4.59099,3.97202 8.68199,11.762 8.68199,23.70403 0,17.12602 -0.14815,30.91 -0.14815,35.12602 0,3.40698 2.304,7.39801 8.79201,6.14 C 219.36999,232.50011 256,184.53711 256,128.00206 256,57.307047 198.69098,-2.5196851e-6 128.00093,-2.5196851e-6 Z M 47.94093,182.3401 c -0.28195,0.63599 -1.283,0.827 -2.19402,0.39001 -0.92901,-0.41703 -1.44998,-1.28402 -1.14999,-1.922 0.2759,-0.65503 1.27899,-0.838 2.20501,-0.399 0.92999,0.41797 1.45999,1.29297 1.139,1.93099 z m 6.29601,5.61801 c -0.61001,0.56598 -1.80401,0.30312 -2.61403,-0.59101 -0.83698,-0.892 -0.99398,-2.08599 -0.37493,-2.65999 0.63001,-0.56602 1.787,-0.30085 2.62601,0.591 0.838,0.90297 0.99999,2.088 0.36284,2.66 z m 4.32,7.18798 c -0.78501,0.54501 -2.06702,0.034 -2.86,-1.104 -0.78403,-1.13798 -0.78403,-2.50299 0.0189,-3.05 0.79499,-0.54698 2.05799,-0.0548 2.86099,1.07501 0.78202,1.15699 0.78202,2.522 -0.0189,3.08001 z m 7.30398,8.32501 c -0.70099,0.77401 -2.19598,0.56599 -3.29001,-0.49001 -1.11896,-1.032 -1.42998,-2.496 -0.72597,-3.26997 0.70999,-0.77602 2.21299,-0.55801 3.31499,0.48997 1.11001,1.03 1.45001,2.505 0.70099,3.27001 z m 9.44201,2.81001 c -0.30992,1.00301 -1.74999,1.45901 -3.19899,1.03298 -1.44801,-0.43899 -2.39501,-1.61299 -2.103,-2.62598 0.30085,-1.01 1.74701,-1.48399 3.207,-1.02799 1.44601,0.436 2.39599,1.60199 2.09499,2.62197 z m 10.74403,1.19301 c 0.0378,1.05497 -1.19301,1.92997 -2.71503,1.95 -1.52999,0.034 -2.76899,-0.82 -2.786,-1.86001 0,-1.065 1.202,-1.93199 2.73302,-1.95799 1.52197,-0.0302 2.76801,0.818 2.76801,1.868 z m 10.55497,-0.40502 c 0.18218,1.03 -0.875,2.088 -2.387,2.36999 -1.48497,0.27099 -2.86099,-0.3651 -3.05,-1.38599 -0.18406,-1.056 0.89303,-2.114 2.376,-2.387 1.514,-0.26305 2.86802,0.35603 3.061,1.403 z" />
    </symbol>
    <symbol
       id="youtube-icon"
       viewBox="0 0 256 180.361">
      <title
         id="title23391">YouTube Icon</title>
      <desc
         id="desc23393">A triangle pointing right within a flat bellied rectangle with round corners</desc>
      <path
         d="M 128,0 C 128,0 47.947975,7.570533e-5 27.984375,5.3847656 16.969175,8.3476856 8.2936094,17.077533 5.3496094,28.164062 0.00130937,48.257043 0,90.179687 0,90.179688 c 0,0 -4.90625e-4,41.921682 5.3496094,62.017582 2.944,11.08498 11.6195656,19.81693 22.6347656,22.78125 C 47.947975,180.36182 128,180.36133 128,180.36133 c 0,0 80.05352,2.6e-4 100.01562,-5.38281 11.01671,-2.96432 19.69077,-11.69627 22.63477,-22.78125 C 256.00019,132.10137 256,90.179687 256,90.179688 c 0,0 1.9e-4,-41.922646 -5.34961,-62.015626 C 247.70639,17.077532 239.03233,8.3476856 228.01562,5.3847656 208.05352,7.570533e-5 128,0 128,0 Z m -26.18164,52.115234 66.91016,38.06836 -66.91016,38.060546 z"
         id="path23395"
         inkscape:connector-curvature="0" />
    </symbol>
    <symbol
       id="youtube-icon-colored"
       viewBox="0 0 256 180.361">
      <title
         id="title4772">YouTube Icon</title>
      <desc
         id="desc4774">A triangle pointing right within a flat bellied rectangle with round corners</desc>
      <path
         inkscape:connector-curvature="0"
         id="youtube-box"
         d="m 128,-2.5196689e-6 c 0,0 -80.0522,-4.900000011e-4 -100.0158,5.3841999196689 C 16.969,8.3471174 8.2941,17.076697 5.3501,28.163227 0.0018,48.256207 0,90.180617 0,90.180617 c 0,0 0,41.921503 5.3501,62.017403 2.944,11.08498 11.6189,19.81678 22.6341,22.7811 19.9636,5.3833 100.0158,5.38209 100.0158,5.38209 0,0 80.0537,9.8e-4 100.0158,-5.38209 11.0167,-2.96432 19.6901,-11.69612 22.6341,-22.7811 C 255.9997,132.10212 256,90.180617 256,90.180617 c 0,0 -3e-4,-41.92441 -5.3501,-62.01739 C 247.7059,17.076697 239.0325,8.3471174 228.0158,5.3841974 208.0537,-4.9251967e-4 128,-2.5196689e-6 128,-2.5196689e-6 Z M 101.8184,52.116207 168.7278,90.182697 101.8184,128.245 Z"
         style="fill:#ff0000" />
      <path
         sodipodi:nodetypes="cccc"
         style="fill:#ffffff"
         d="M 101.8184,52.116207 168.7278,90.182697 101.8184,128.245 Z"
         id="youtube-triangle"
         inkscape:connector-curvature="0" />
    </symbol>
    <symbol
       id="patreon-icon"
       viewBox="0 0 256 245.503">
      <title
         id="title23405">Patreon Icon</title>
      <desc
         id="desc23407">A rectangle and a circle forming a P</desc>
      <path
         id="path23411"
         d="M 0,-2.5196851e-6 H 45.005083 V 245.50272 H 0 Z M 164.11109,0.00101748 c -50.8252,0 -92.175108,41.34431952 -92.175108,92.16645852 0,50.667934 41.349908,91.890444 92.175108,91.890444 C 214.77909,184.05792 256,142.83541 256,92.167476 256,41.345337 214.7791,0.00101748 164.11109,0.00101748"
         inkscape:connector-curvature="0" />
    </symbol>
    <symbol
       id="patreon-icon-colored"
       viewBox="0 0 256 245.503">
      <title
         id="title4779">Patreon Icon</title>
      <desc
         id="desc4781">A rectangle and a circle forming a P</desc>
      <path
         id="path1703"
         d="m 164.11109,0.00101748 c -50.8252,0 -92.175108,41.34431952 -92.175108,92.16645852 0,50.667934 41.349908,91.890444 92.175108,91.890444 C 214.77909,184.05792 256,142.83541 256,92.167476 256,41.345337 214.7791,0.00101748 164.11109,0.00101748"
         inkscape:connector-curvature="0"
         style="fill:#f96854" />
      <path
         style="fill:#052d49"
         d="M 0,-2.5196851e-6 H 45.005083 V 245.50272 H 0 Z"
         id="rect5034"
         inkscape:connector-curvature="0" />
    </symbol>
  </defs>
  <sodipodi:namedview
     id="base"
     pagecolor="#ffffff"
     bordercolor="#666666"
     borderopacity="1.0"
     inkscape:pageopacity="0.0"
     inkscape:pageshadow="2"
     inkscape:zoom="0.98994949"
     inkscape:cx="109.6117"
     inkscape:cy="133.08854"
     inkscape:document-units="px"
     inkscape:current-layer="layer1"
     showgrid="true"
     inkscape:window-width="1920"
     inkscape:window-height="1016"
     inkscape:window-x="0"
     inkscape:window-y="27"
     inkscape:window-maximized="1"
     units="px"
     inkscape:snap-bbox="true"
     inkscape:bbox-paths="false"
     inkscape:bbox-nodes="true"
     inkscape:snap-bbox-edge-midpoints="false"
     inkscape:snap-bbox-midpoints="false"
     inkscape:snap-nodes="false"
     inkscape:snap-others="false">
    <inkscape:grid
       type="xygrid"
       id="grid14320"
       spacingx="33.866667"
       spacingy="33.866667"
       empspacing="2" />
  </sodipodi:namedview>
  <metadata
     id="metadata4814">
    <rdf:RDF>
      <cc:Work
         rdf:about="">
        <dc:format>image/svg+xml</dc:format>
        <dc:type
           rdf:resource="http://purl.org/dc/dcmitype/StillImage" />
        <dc:title></dc:title>
      </cc:Work>
    </rdf:RDF>
  </metadata>
  <g
     inkscape:label="Layer 1"
     inkscape:groupmode="layer"
     id="layer1">
    <use
       xlink:href="#mail-icon"
       id="use4922" />
    <use
       xlink:href="#twitter-icon"
       id="use4937" />
    <use
       xlink:href="#facebook-icon"
       id="use4945" />
    <use
       xlink:href="#github-icon"
       id="use4952" />
    <use
       xlink:href="#youtube-icon"
       id="use4960" />
    <use
       xlink:href="#patreon-icon"
       id="use4968" />
    <use
       xlink:href="#facebook-icon-uni"
       id="use24029" />
    <use
       xlink:href="#youtube-icon-uni"
       id="use24637" />
    <use
       xlink:href="#patreon-icon-uni"
       id="use24748"
       x="0"
       y="0"
       width="100%"
       height="100%" />
  </g>
</svg>
