<svg aria-labelledby="GithubIcon-Title" role="img" version="1.1" viewBox="0 0 256 249.68" xmlns="http://www.w3.org/2000/svg"><title id="GithubIcon-Title">Github Icon</title><desc id="GithubIcon-Desc">A silhouette of an octocat, a crossing of an octopus and a cat</desc><path class="GithubIcon-Octocat" d="m128 0c-70.684 0-128 57.307-128 128 0 56.554 36.676 104.54 87.535 121.46 6.397 1.185 8.746-2.777 8.746-6.158 0-3.052-0.11981-13.135-0.17386-23.83-35.61 7.742-43.124-15.103-43.124-15.103-5.823-14.795-14.213-18.73-14.213-18.73-11.613-7.944 0.87601-7.78 0.87601-7.78 12.853 0.90202 19.621 13.19 19.621 13.19 11.417 19.568 29.945 13.911 37.249 10.64 1.149-8.272 4.466-13.92 8.127-17.116-28.431-3.236-58.318-14.212-58.318-63.258 0-13.975 5-25.394 13.188-34.358-1.329-3.224-5.71-16.242 1.24-33.874 0 0 10.749-3.44 35.21 13.121 10.21-2.836 21.16-4.258 32.038-4.307 10.878 0.0491 21.837 1.47 32.066 4.307 24.431-16.56 35.165-13.12 35.165-13.12 6.967 17.63 2.584 30.65 1.255 33.873 8.207 8.964 13.173 20.383 13.173 34.358 0 49.163-29.944 59.988-58.447 63.157 4.591 3.972 8.682 11.762 8.682 23.704 0 17.126-0.14815 30.91-0.14815 35.126 0 3.407 2.304 7.398 8.792 6.14 50.831-16.943 87.461-64.906 87.461-121.44 0-70.695-57.309-128-128-128zm-80.06 182.34c-0.28195 0.63599-1.283 0.827-2.194 0.39001-0.92901-0.41703-1.45-1.284-1.15-1.922 0.2759-0.65503 1.279-0.838 2.205-0.399 0.92999 0.41797 1.46 1.293 1.139 1.931zm6.296 5.618c-0.61001 0.56598-1.804 0.30312-2.614-0.59101-0.83698-0.892-0.99398-2.086-0.37493-2.66 0.63001-0.56602 1.787-0.30085 2.626 0.591 0.838 0.90297 0.99999 2.088 0.36284 2.66zm4.32 7.188c-0.78501 0.54501-2.067 0.034-2.86-1.104-0.78403-1.138-0.78403-2.503 0.0189-3.05 0.79499-0.54698 2.058-0.0548 2.861 1.075 0.78202 1.157 0.78202 2.522-0.0189 3.08zm7.304 8.325c-0.70099 0.77401-2.196 0.56599-3.29-0.49001-1.119-1.032-1.43-2.496-0.72597-3.27 0.70999-0.77602 2.213-0.55801 3.315 0.48997 1.11 1.03 1.45 2.505 0.70099 3.27zm9.442 2.81c-0.30992 1.003-1.75 1.459-3.199 1.033-1.448-0.43899-2.395-1.613-2.103-2.626 0.30085-1.01 1.747-1.484 3.207-1.028 1.446 0.436 2.396 1.602 2.095 2.622zm10.744 1.193c0.0378 1.055-1.193 1.93-2.715 1.95-1.53 0.034-2.769-0.82-2.786-1.86 0-1.065 1.202-1.932 2.733-1.958 1.522-0.0302 2.768 0.818 2.768 1.868zm10.555-0.40502c0.18218 1.03-0.875 2.088-2.387 2.37-1.485 0.27099-2.861-0.3651-3.05-1.386-0.18406-1.056 0.89303-2.114 2.376-2.387 1.514-0.26305 2.868 0.35603 3.061 1.403z"/></svg>
