<?xml version="1.0" encoding="UTF-8" standalone="no"?>
<!-- Created with Inkscape (http://www.inkscape.org/) -->

<svg
   xmlns:dc="http://purl.org/dc/elements/1.1/"
   xmlns:cc="http://creativecommons.org/ns#"
   xmlns:rdf="http://www.w3.org/1999/02/22-rdf-syntax-ns#"
   xmlns:svg="http://www.w3.org/2000/svg"
   xmlns="http://www.w3.org/2000/svg"
   xmlns:sodipodi="http://sodipodi.sourceforge.net/DTD/sodipodi-0.dtd"
   xmlns:inkscape="http://www.inkscape.org/namespaces/inkscape"
   width="326.63916"
   height="101.48056"
   viewBox="0 0 326.6392 101.48056"
   version="1.1"
   class="SlashCollateralAnnotation"
   sodipodi:docname="SlashCollateralAnnotation.svg"
   inkscape:version="0.92.2 5c3e80d, 2017-08-06"
   role="img"
   aria-labelledby="SlashCollateralAnnotation-title">
  <title
     id="SlashCollateralAnnotation-title">Visual Storytelling in movies &amp; games</title>
  <desc
     id="SlashCollateralAnnotation-desc">The text &quot;Visual Storytelling in movies &amp; games&quot; with an arrow pointing upwards</desc>
  <defs
     id="defs852" />
  <sodipodi:namedview
     id="base"
     pagecolor="#ffffff"
     bordercolor="#666666"
     borderopacity="1.0"
     inkscape:pageopacity="0"
     inkscape:pageshadow="2"
     inkscape:zoom="0.70710685"
     inkscape:cx="453.2199"
     inkscape:cy="-211.54694"
     inkscape:document-units="px"
     inkscape:current-layer="slash-collateral-annotation"
     showgrid="true"
     fit-margin-top="0"
     fit-margin-left="0"
     fit-margin-right="0"
     fit-margin-bottom="0"
     inkscape:window-width="1920"
     inkscape:window-height="1016"
     inkscape:window-x="0"
     inkscape:window-y="27"
     inkscape:window-maximized="1"
     units="px"
     viewbox-y="0.37"
     viewbox-height="3"
     inkscape:snap-others="false"
     inkscape:snap-nodes="false"
     inkscape:snap-bbox="true"
     inkscape:bbox-paths="false"
     inkscape:bbox-nodes="true"
     inkscape:snap-bbox-edge-midpoints="false"
     inkscape:snap-global="false">
    <inkscape:grid
       type="xygrid"
       id="grid10679"
       spacingx="50.000003"
       spacingy="50.000003"
       empspacing="2"
       originx="6.2267573e-09"
       originy="1.4805516" />
  </sodipodi:namedview>
  <metadata
     id="metadata855">
    <rdf:RDF>
      <cc:Work
         rdf:about="">
        <dc:format>image/svg+xml</dc:format>
        <dc:type
           rdf:resource="http://purl.org/dc/dcmitype/StillImage" />
        <dc:title>Visual Storytelling in movies &amp; games</dc:title>
      </cc:Work>
    </rdf:RDF>
  </metadata>
  <path
     class="SlashCollateralAnnotation-VisualStorytelling"
     style="fill:none;stroke-width:3.75;stroke-linecap:round;stroke-linejoin:round"
     d="m 87.424687,53.956273 c -1.03586,-1.0216 -2.2811,-1.31109 -3.69038,-1.39805 -3.138676,-0.19366 -6.722034,2.71723 -3.271871,5.26783 2.480021,1.8334 5.658321,0.43415 8.111401,1.73584 0.68823,0.3652 0.77593,1.52063 0.46309,2.15591 -1.13754,2.30991 -9.337448,2.92884 -10.527711,0.76255 m 15.385062,-10.42607 c 0.2725,3.43638 -1.112311,11.53491 5.38053,10.40875 4.729782,-0.82035 3.903692,-8.02944 3.627732,-10.97043 0.24922,2.55395 0.596,7.69568 1.22034,10.63188 m 4.12425,-9.80879 c 0.97246,-1.29349 2.41123,-1.72599 3.93828,-2.04283 7.0416,-1.46102 10.87105,8.95427 2.658,10.93071 -1.02076,0.24564 -2.01448,0.37199 -3.02175,-0.03 -1.24537,-0.497 -4.28883,-2.97035 -2.58209,-4.41602 1.78888,-1.51525 4.83105,-1.62685 6.94546,-0.92466 0.81788,0.27162 2.18749,1.4521 3.04395,0.91116 m 4.23249,-17.45646 c 0.51291,5.86611 0.7653,11.7793 1.54138,17.61797 0.23027,1.73239 1.66219,3.96257 2.90453,1.91622 M 47.636687,40.839573 c 0.26455,0.71127 0.415017,1.18674 0.766351,1.85765 0.977385,1.86641 2.226233,3.58496 3.221218,5.44699 3.113579,5.82677 5.544812,12.24943 7.443634,18.57311 0.09723,0.32379 1.863664,6.69146 2.216226,6.50858 0.723201,-0.37513 0.770091,-4.56445 0.865085,-5.17047 1.029451,-6.56734 2.73856,-13.13353 5.397636,-19.24371 1.371833,-3.15227 3.149693,-6.03037 5.216404,-8.76655 0.998572,-1.32202 2.739029,-2.70384 3.475195,-4.19872 0.238079,-0.48345 -1.011666,0.38392 -1.480119,0.65029 m -1.401749,11.72431 0.02245,-0.99828 m -0.25068,6.13078 c -0.03326,3.41078 -0.181553,8.57873 0.53173,11.40163 M 182.54658,34.106113 c 0.39767,6.73792 1.04193,13.68326 1.62304,20.32533 m -4.25129,-10.26559 c 2.20638,-0.0311 4.60238,-0.80011 6.75114,-0.63591 m 11.73043,-0.5055 c -2.56872,-0.74371 -5.02523,0.21357 -6.30575,2.5896 -4.05637,7.52663 5.26668,10.47405 9.74126,5.3068 1.89454,-2.18784 1.62796,-8.16394 -2.14578,-8.21303 -0.44263,-0.006 -0.84753,0.33699 -1.28973,0.31663 -0.33495,-0.0154 -0.58091,-0.38822 -0.91488,-0.41811 -1.1317,-0.10128 -2.40061,0.71062 -3.22673,1.39183 m 13.55097,-2.18186 c 0.36756,1.98071 0.47649,4.00825 0.58138,6.0176 0.0444,0.84928 0.0935,1.69611 0.16766,2.54403 0.50201,5.73809 -0.34877,-3.63309 -0.36961,-4.22464 -0.0332,-0.94362 0.0174,-1.91752 0.0791,-2.86001 0.014,-0.2132 0.11726,-0.43466 0.0539,-0.63872 -0.0971,-0.31278 -0.63157,-0.53319 -0.51248,-0.83827 0.24577,-0.6296 2.58096,0.0148 3.01979,0.008 1.95891,-0.0327 3.71748,-0.80075 5.61443,-1.07994 m 5.16212,-0.52002 c 0.75794,0.99596 1.52306,1.97976 2.29087,2.96967 1.4266,1.83925 2.52321,3.88516 3.90639,5.74934 0.21225,0.28606 2.75779,3.13626 1.42597,1.86787 m 6.11998,-12.24212 c -2.68118,6.53904 -5.4529,13.03678 -8.22647,19.53648 -0.20992,0.49192 -1.71796,3.61123 -2.31883,4.86743 m 17.63835,-34.11578 c 0.66706,5.58732 1.63465,11.15501 1.97296,16.78344 0.0818,1.3608 0.0841,3.17947 0.18552,4.33886 m -4.31926,-11.21435 c 2.04989,-0.22249 4.11617,-0.29391 6.16469,-0.52334 0.164,-0.0187 0.91007,-0.12831 1.11154,-0.16129 0.17931,-0.0293 0.51789,-0.29175 0.53373,-0.11074 0.006,0.0664 -0.33986,0.15424 -0.37409,0.16082 m 5.6387,5.41847 c 1.72898,-0.17165 3.46829,-0.18325 5.19944,-0.35069 0.82943,-0.0806 1.66845,-0.17739 2.49003,-0.32206 0.86386,-0.15206 2.49948,-0.41544 3.11122,-1.19267 1.23205,-1.56537 -1.2245,-3.76982 -2.31444,-4.31311 -3.81165,-1.89996 -10.899,1.71126 -9.6178,6.97225 1.13045,4.6419 8.05612,4.59682 11.22668,3.44653 0.64418,-0.2337 2.37811,-0.82791 2.16961,-1.77027 m 3.2912,-19.61009 c 0.81319,6.16545 0.40305,12.61814 2.02433,18.67323 0.31402,1.17284 2.31055,2.99258 3.26876,1.19746 m 3.28589,-20.47141 c 0.24608,4.22884 0.54489,8.46049 0.91463,12.68666 0.18917,2.16221 0.28579,4.41585 1.18878,6.44416 0.62263,1.39855 2.30335,2.72918 3.34864,0.77092 m 4.57998,-11.09643 c 0.0677,0.7733 0.13531,1.5466 0.20297,2.31991 0.18604,2.12651 0.21614,4.29443 0.56024,6.40357 0.0384,0.23536 0.73094,2.93331 0.56216,2.43258 m -1.84621,-16.66565 c -0.13255,-0.19711 -0.16825,-0.44427 -0.25238,-0.66641 m 6.66186,4.60396 c 0.11262,1.87817 0.43231,3.7427 0.76388,5.59405 0.41807,2.33426 0.83687,4.72632 1.09289,6.84461 -0.22043,-1.78411 -0.33297,-3.17824 -0.35037,-3.37718 -0.13747,-1.57132 -1.26269,-6.74167 0.0982,-7.66211 2.1262,-1.43809 7.07279,-1.4185 8.93035,0.43014 2.06783,2.05787 2.59188,4.2581 2.75861,7.06117 0.0358,0.60089 0.15845,2.08194 0.0722,2.3939 M 172.9379,33.165513 c -0.24017,-3.99025 -4.47099,-6.02733 -7.9036,-6.92995 -7.22433,-1.89968 -17.41816,5.18631 -11.23195,12.70301 2.95161,3.58642 7.97417,5.30199 12.10554,7.04265 4.42316,1.86361 14.55515,4.43382 11.55916,11.44557 -3.73469,8.74065 -16.10049,8.02425 -22.89354,3.63609 -1.32197,-0.85397 -5.22592,-3.59525 -3.98122,-5.5759 m 170.58658,-22.55281 c -6.72025,-5.95062 -13.63592,4.5411 -7.03206,9.87075 0.97086,0.78354 2.15249,1.05626 3.37872,0.9206 4.30425,-0.47615 6.18543,-4.78847 6.33881,-8.65573 0.0213,-0.53493 0.17458,-2.30239 -0.38503,-2.68732 -0.4722,-0.32481 -0.55789,4.39177 -0.53598,4.72619 0.23545,3.59308 0.92524,7.14844 1.23897,10.73438 0.17753,2.02919 1.46202,14.21592 -0.47882,15.08985 -2.81472,1.2674 -8.3943,-3.89434 -10.98491,-5.03752"
     inkscape:connector-curvature="0" />
  <path
     class="SlashCollateralAnnotation-InMoviesAndGames"
     style="fill:none;stroke-width:1.847;stroke-linecap:round;stroke-linejoin:round"
     d="m 75.756066,88.142023 c 0.121855,1.00338 0.130289,2.01231 0.218121,3.01624 0.154676,1.76795 0.477663,4.48044 0.571405,5.48499 0.09374,1.00456 0.269868,2.56151 0.186661,1.61045 m -0.980196,-15.38841 c -0.07689,0.28168 -0.213995,0.52011 -0.488474,0.40749 -0.265054,-0.10875 -0.361408,-0.49906 -0.127283,-0.69378 m 4.922316,5.04773 c 0.21022,2.23803 0.43258,4.59559 0.62215,6.18618 0.18956,1.59059 0.31744,3.26424 0.3855,4.39323 -0.12629,-2.31436 -0.51499,-5.38473 -0.0876,-7.38653 0.47985,-2.03948 2.58587,-3.7395 4.60123,-3.37835 3.25275,0.58288 3.67969,2.3663 4.26051,5.28127 0.18925,0.94978 0.39397,1.88759 0.47512,2.8152 0.0307,0.35053 0.19952,2.19897 0.15223,1.65844 M 212.31129,86.949883 c -4.2551,-2.15086 -8.14231,-5.05122 -12.0385,-7.87417 -9.06594,-6.56866 2.38377,-10.0143 4.71625,-8.86389 1.6462,0.81194 -0.37763,3.56349 -0.9065,4.28511 -1.24089,1.69313 -10.90604,11.52902 -8.88244,13.55321 2.50608,2.50683 15.60566,-1.84236 14.21428,-5.96519 m -77.09185,1.77988 c -2.25205,-1.74901 -5.1471,0.49438 -6.30905,2.53822 -2.61655,4.60243 4.84089,9.49167 8.54409,6.18566 1.69791,-1.5158 2.00993,-6.13935 0.55559,-7.84373 -0.79581,-0.93263 -1.75652,-0.74549 -2.79063,-0.88015 -1.27371,-0.16587 -1.91723,-0.43456 -3.15597,0.20115 m 30.29607,2.02121 c 1.54602,0.36411 3.12157,0.50105 4.69797,0.34286 1.9499,-0.19571 5.09701,-0.85015 4.8634,-3.52033 -0.0696,-0.79604 -0.44755,-1.43866 -1.12083,-1.82629 -3.58082,-2.06162 -10.9208,0.68292 -8.99887,5.94535 1.39328,3.8149 6.90616,3.7108 9.9309,3.13857 0.47723,-0.0903 3.06805,-0.94371 2.89181,-0.94736 m -32.11441,-6.28686 c 0.88757,1.35364 1.5817,2.82557 2.3463,4.25564 0.20638,0.38599 1.1754,2.18835 2.82713,4.94304 1.03103,-1.50774 1.71738,-3.62261 2.40954,-5.0084 0.69216,-1.38579 2.31596,-3.60274 1.94775,-5.10828 m 4.93136,-0.49557 c 0.0603,0.68907 0.12057,1.37815 0.18086,2.06723 0.16149,1.8459 0.32289,3.69064 0.48401,5.53232 0.029,0.33122 0.0772,2.76055 0.14579,2.18934 m -1.06305,-14.68431 c -0.72655,0.81264 0.35337,1.14392 0.68005,0.37538 0.1529,-0.35971 -0.17426,-1.18932 -0.55114,-0.75138 m -49.26182,8.77077 c 0.24711,1.88979 0.43612,3.75649 0.57418,5.51103 0.13804,1.75456 0.2851,2.65853 0.52848,5.18157 -0.095,-2.89871 -0.57184,-6.68119 0.7053,-9.26576 1.34587,-2.58097 5.40401,-2.11851 6.71311,0.17037 1.18247,2.06745 1.07295,5.9759 1.27657,8.30328 0.022,0.25083 -0.11019,-1.36417 -0.10901,-1.61585 0.004,-0.83734 0.0189,-1.66733 0.0722,-2.50331 0.18834,-2.95384 0.43007,-7.16458 4.26393,-6.78369 3.01037,0.29908 3.30357,5.31229 3.58485,7.72426 0.0696,0.59717 0.21183,1.89015 0.21817,2.4936 m 59.90383,-14.10586 c -0.86683,-0.75931 -1.90451,-1.29649 -3.06269,-1.41499 -1.71694,-0.17567 -6.38482,1.58664 -3.75541,3.70871 0.33197,0.26791 0.74007,0.54773 1.13428,0.71372 0.45674,0.19232 0.97319,0.33552 1.45635,0.44308 0.70735,0.15745 0.41022,0.0759 1.1203,0.15871 1.86369,0.2174 5.11914,0.45446 5.96335,2.55892 0.17666,0.44036 0.33257,0.78105 10e-4,1.19794 -1.47858,1.85954 -5.35626,2.08329 -7.45589,1.72198 -0.0877,-0.0152 -3.8224,-1.16313 -2.39466,-1.28804 m 124.11674,-17.55859 c -0.77303,-0.8284 -1.64623,-1.53082 -3.61587,-1.78396 -1.96964,-0.25313 -6.10746,1.68308 -3.8567,4.21058 2.25076,2.5275 9.37906,-0.0256 9.06029,3.58976 -0.31878,3.61534 -7.3666,3.51747 -9.60856,1.98426 m -60.03643,-3.4972 c -9.1769,-2.76967 -10.94779,9.83145 -3.9749,10.047 3.34513,0.10341 5.92729,-3.39957 6.12166,-6.2228 0.0648,-0.94168 -0.092,-1.8949 -0.31026,-2.80652 -0.0844,-0.35237 -0.26009,-1.32671 -0.41128,-1.0021 -0.27432,0.58903 -0.10288,1.97982 -0.0946,2.6175 0.0399,3.07488 0.22929,6.30487 0.81604,9.3274 0.52912,2.72567 2.79231,10.61367 1.00182,12.93039 -2.20718,2.855907 -11.70361,-2.61169 -10.9295,-6.56283 m 29.75765,-21.17897 c 0.0327,1.5625 0.2541,2.65014 0.44639,4.65879 0.19228,2.00866 0.38322,3.92044 0.6879,6.21952 0.0986,-2.27283 -0.0889,-4.10593 0.0573,-6.12066 0.11828,-1.18381 0.49607,-5.14724 3.8348,-5.14338 3.33873,0.004 4.13578,6.37342 4.77198,10.51664 -0.12435,-4.91685 -0.82544,-11.58296 3.67648,-11.23292 4.50192,0.35004 4.63386,7.28527 4.95737,10.49809 m 4.62346,-6.01909 c 2.89462,0.16949 5.48037,0.25328 7.89167,-0.92063 5.77714,-2.81253 -2.80824,-6.92676 -7.06468,-3.29528 -3.82297,3.26165 -2.04942,9.1115 3.28622,9.31364 2.60666,0.0988 5.07774,-0.53539 6.64429,-1.66375 m -49.18298,-3.95484 c 1.45692,-1.23178 3.39331,-1.61698 5.95526,-1.80763 2.56195,-0.19067 5.17642,1.68122 5.70644,4.46558 0.52705,2.99419 0.26142,5.36131 -3.46505,6.01988 -1.62249,0.28675 -5.70566,0.84485 -6.839,-0.46598 -0.23671,-0.27378 -0.40146,-0.87488 -0.49373,-1.21357 -0.59258,-2.17535 1.19617,-3.1661 3.07475,-3.61208 1.87857,-0.44599 3.89638,-0.48787 5.61609,0.88144"
     inkscape:connector-curvature="0" />
  <path
     sodipodi:nodetypes="cccccc"
     d="m 1.9494313,5.412043 c 1.8754999,-1.94411 10.2220197,-5.68324399 12.6725097,-4.09481 2.01678,2.88525 -0.65906,7.72869 -1.76007,10.65811 m 33.7489,62.32542 C 23.771364,78.523063 -0.51058903,57.228283 0.98977097,29.819463 1.369681,21.676363 3.7963012,14.999703 7.6076312,9.053153"
     style="fill:none;stroke-width:1.847;stroke-linecap:round;stroke-linejoin:round"
     class="SlashCollateralAnnotation-Arrow"
     inkscape:connector-curvature="0" />
</svg>
