<svg id="twitter-button" aria-labelledby="twitter-button-button-desc" role="img" version="1.1" viewBox="0 0 240 50.001" xmlns="http://www.w3.org/2000/svg"><title id="twitter-button-button-title">Follow on Twitter</title><desc id="twitter-button-button-desc">A button with the Twitter icon next to "Follow on Twitter"</desc><rect width="240" height="50.001" style="fill:#55acee;stroke-width:0"/><path d="m45 17.247c-0.91992 0.40792-1.9084 0.68359-2.9459 0.80763 1.0591-0.63477 1.8723-1.64 2.2552-2.8376a10.272 10.272 0 0 1-3.2569 1.2446c-0.93565-0.99678-2.2686-1.6197-3.7439-1.6197-2.8326 0-5.1292 2.2965-5.1292 5.1289 0 0.40206 0.04539 0.79346 0.13282 1.169-4.2627-0.21396-8.042-2.2559-10.572-5.359-0.44141 0.75751-0.69435 1.6387-0.69435 2.5785 0 1.7795 0.90558 3.3493 2.2818 4.2692a5.1086 5.1086 0 0 1-2.3233-0.64161v0.0645c0 2.4851 1.768 4.5581 4.1143 5.0293a5.136 5.136 0 0 1-2.3162 0.0879c0.65265 2.0377 2.5469 3.5205 4.7912 3.562-1.7554 1.3756-3.967 2.1956-6.37 2.1956-0.41406 0-0.82227-0.0242-1.2235-0.0717 2.2698 1.4553 4.9658 2.3044 7.8624 2.3044 9.4343 0 14.593-7.8156 14.593-14.593 0-0.22247-0.0049-0.44367-0.01474-0.66359a10.425 10.425 0 0 0 2.5594-2.6551" style="fill:#fff;stroke-width:0"/><path d="m219.44 21.619q0.56512 0 0.93881 0.082l-0.20961 2.6068q-0.33726-0.0911-0.82033-0.0911-1.3308 0-2.0782 0.6836-0.7383 0.6836-0.7383 1.9141v5.1863h-2.78v-10.19h2.1055l0.41016 1.7136h0.13671q0.47397-0.85678 1.2761-1.3763 0.8112-0.52865 1.7591-0.52865zm-12.514 1.9779q-0.88413 0-1.3854 0.56512-0.50131 0.55599-0.57423 1.586h3.9011q-0.0181-1.03-0.53776-1.586-0.51954-0.56512-1.4037-0.56512zm0.39193 8.5861q-2.461 0-3.8464-1.3581t-1.3854-3.8464q0-2.5612 1.2761-3.9558 1.2852-1.4037 3.5456-1.4037 2.1602 0 3.3633 1.2305 1.2032 1.2305 1.2032 3.3998v1.349h-6.5717q0.0456 1.1849 0.70183 1.8503 0.65626 0.66536 1.8412 0.66536 0.92058 0 1.7409-0.19139 0.82033-0.1914 1.7136-0.61069v2.1511q-0.72918 0.36458-1.5586 0.53778-0.82943 0.18229-2.0235 0.18229zm-8.4129-2.2149q0.72919 0 1.75-0.31903v2.069q-1.0391 0.46484-2.5521 0.46484-1.668 0-2.4336-0.83855-0.75652-0.84767-0.75652-2.5339v-4.9128h-1.3308v-1.1758l1.5313-0.92969 0.80209-2.1511h1.7774v2.1693h2.8529v2.0873h-2.8529v4.9128q0 0.59244 0.32814 0.87501 0.33725 0.28256 0.88412 0.28256zm-8.0938 0q0.72918 0 1.75-0.31903v2.069q-1.0391 0.46484-2.5521 0.46484-1.668 0-2.4336-0.83855-0.75652-0.84767-0.75652-2.5339v-4.9128h-1.3307v-1.1758l1.5313-0.92969 0.80209-2.1511h1.7774v2.1693h2.8529v2.0873h-2.8529v4.9128q0 0.59244 0.32814 0.87501 0.33725 0.28256 0.88412 0.28256zm-10.099-10.792q0-1.3581 1.513-1.3581 1.513 0 1.513 1.3581 0 0.64715-0.38282 1.0117-0.37369 0.35547-1.1302 0.35547-1.513 0-1.513-1.3672zm2.8985 12.824h-2.78v-10.19h2.78zm-10.373 0-0.78388-3.5638-1.0573-4.5027h-0.0638l-1.8594 8.0665h-2.9896l-2.8985-10.19h2.7709l1.1758 4.5118q0.28256 1.2123 0.57423 3.3451h0.0547q0.0367-0.69272 0.31903-2.1966l0.14585-0.77475 1.2578-4.8855h3.0625l1.194 4.8855q0.0367 0.2005 0.10938 0.59245 0.082 0.39194 0.15496 0.83856 0.0729 0.4375 0.1276 0.8659 0.0638 0.41927 0.0729 0.67449h0.0547q0.082-0.65626 0.29167-1.7956 0.20962-1.1484 0.30078-1.5495l1.2214-4.5118h2.7253l-2.935 10.19zm-13.845 0h-2.8256v-10.974h-3.6185v-2.3516h10.063v2.3516h-3.6185zm-13.089 0h-2.78v-5.9519q0-1.1029-0.39193-1.6498-0.39194-0.556-1.2487-0.556-1.1667 0-1.6862 0.78386-0.51954 0.77475-0.51954 2.5795v4.7943h-2.78v-10.19h2.1237l0.37369 1.3034h0.15496q0.46484-0.73829 1.2761-1.112 0.82032-0.38281 1.8594-0.38281 1.7774 0 2.698 0.96616 0.92058 0.95704 0.92058 2.7709zm-18.749-5.1134q0 1.513 0.4922 2.2878 0.5013 0.77475 1.6224 0.77475 1.112 0 1.5951-0.76564 0.49219-0.77475 0.49219-2.2969 0-1.513-0.49219-2.2696t-1.6133-0.75652q-1.112 0-1.6042 0.75652-0.4922 0.7474-0.4922 2.2696zm7.0457 0q0 2.4883-1.3125 3.892-1.3125 1.4037-3.655 1.4037-1.4675 0-2.5886-0.63803-1.1211-0.64714-1.7227-1.8503t-0.60157-2.8073q0-2.4974 1.3034-3.8829 1.3034-1.3854 3.6641-1.3854 1.4675 0 2.5886 0.63803 1.1211 0.63802 1.7227 1.832t0.60157 2.7982zm-21.702 5.1134-0.78387-3.5638-1.0573-4.5027h-0.0638l-1.8594 8.0665h-2.9896l-2.8985-10.19h2.7709l1.1758 4.5118q0.28256 1.2123 0.57423 3.3451h0.0547q0.0367-0.69272 0.31903-2.1966l0.14586-0.77475 1.2578-4.8855h3.0625l1.194 4.8855q0.0367 0.2005 0.10938 0.59245 0.082 0.39194 0.15493 0.83856 0.0729 0.4375 0.1276 0.8659 0.0638 0.41927 0.0729 0.67449h0.0547q0.082-0.65626 0.29167-1.7956 0.20965-1.1484 0.30078-1.5495l1.2214-4.5118h2.7253l-2.935 10.19zm-17.719-5.1134q0 1.513 0.49219 2.2878 0.50132 0.77475 1.6224 0.77475 1.112 0 1.5951-0.76564 0.4922-0.77475 0.4922-2.2969 0-1.513-0.4922-2.2696-0.49219-0.75652-1.6133-0.75652-1.112 0-1.6042 0.75652-0.49219 0.7474-0.49219 2.2696zm7.0457 0q0 2.4883-1.3125 3.892-1.3125 1.4037-3.655 1.4037-1.4675 0-2.5886-0.63803-1.1211-0.64714-1.7227-1.8503-0.60157-1.2031-0.60157-2.8073 0-2.4974 1.3034-3.8829 1.3034-1.3854 3.6641-1.3854 1.4675 0 2.5886 0.63803 1.1211 0.63802 1.7227 1.832 0.60157 1.194 0.60157 2.7982zm-12.168 5.1134h-2.78v-14.182h2.78zm-5.6876 0h-2.78v-14.182h2.78zm-12.123-5.1134q0 1.513 0.49219 2.2878 0.50131 0.77475 1.6224 0.77475 1.112 0 1.5951-0.76564 0.49219-0.77475 0.49219-2.2969 0-1.513-0.49219-2.2696-0.4922-0.75652-1.6133-0.75652-1.112 0-1.6042 0.75652-0.49219 0.7474-0.49219 2.2696zm7.0457 0q0 2.4883-1.3125 3.892-1.3125 1.4037-3.655 1.4037-1.4675 0-2.5886-0.63803-1.1211-0.64714-1.7227-1.8503-0.60157-1.2031-0.60157-2.8073 0-2.4974 1.3034-3.8829 1.3034-1.3854 3.6641-1.3854 1.4675 0 2.5886 0.63803 1.1211 0.63802 1.7227 1.832 0.60158 1.194 0.60158 2.7982zm-16.507 5.1134h-2.78v-13.326h7.6381v2.3151h-4.8581v3.4362h4.5209v2.306h-4.5209z" style="fill:#fff;stroke-width:0"/></svg>
