<svg class="Tile Tile-R" aria-labelledby="TileR-title" role="img" version="1.1" viewBox="0 0 36 36" xmlns="http://www.w3.org/2000/svg"><title id="TileR-title">R</title><desc id="TileR-desc">A square with the letter R punched into it</desc><path d="m0 0v36h36v-36zm15.82 8.5078c2.8081 2e-4 4.9746 0.47758 6.4688 1.4766 1.4941 0.999 2.25 2.6048 2.25 4.7108-1e-5 1.3139-0.31083 2.3452-0.91404 3.1642-0.60321 0.81894-1.4678 1.5008-2.6016 1.9688 0.37795 0.46805 0.78145 0.94397 1.1952 1.5468 0.41394 0.60291 0.79023 1.2416 1.1952 1.8986 0.40502 0.65673 0.81729 1.3278 1.1952 2.039 0.37795 0.71086 0.73066 1.4252 1.0546 2.1092h-4.7109c-0.34182-0.61198-0.7036-1.198-1.0546-1.828-0.35105-0.62997-0.68546-1.2341-1.0546-1.8282-0.36919-0.59399-0.76528-1.1564-1.1251-1.6874-0.35981-0.53095-0.69438-1.045-1.0546-1.4767h-2.1094v6.8204h-4.2186v-18.422c0.91842-0.17991 1.902-0.27954 2.8828-0.3515 0.98086-0.0726 1.8276-0.13908 2.6016-0.13908zm-0.56239 3.586c-0.2431 0.0197-0.48726 0.0514-0.70314 0.0695v5.0624h1.1952c1.5842 2e-4 2.6911-0.166 3.375-0.56239 0.68379-0.39564 1.0546-1.0847 1.0546-2.039-1e-5 -0.91797-0.36177-1.5818-1.0546-1.9688-0.69287-0.38702-1.6732-0.56239-3.0235-0.56239-0.30599 0-0.60079-0.0197-0.84374 0z" stroke-width="0"/></svg>
