<svg class="Tile Tile-A" aria-labelledby="TileA-title" role="img" version="1.1" viewBox="0 0 36 36" xmlns="http://www.w3.org/2000/svg"><title id="TileA-title">A</title><desc id="TileA-desc">A square with the letter A punched into it</desc><path d="m0 0v36h36v-36zm15.961 8.6486h4.0781c0.61198 1.2958 1.1638 2.5784 1.7578 3.9374 0.59414 1.359 1.2252 2.777 1.8281 4.289 0.60291 1.512 1.198 3.1414 1.8281 4.8514 0.63012 1.7102 1.337 3.6092 2.0391 5.625h-4.5703c-0.1985-0.64796-0.39005-1.3547-0.63284-2.0388-0.2428-0.68394-0.46927-1.3552-0.70299-2.039h-7.3125c-0.23403 0.68379-0.46035 1.3549-0.70314 2.039-0.2428 0.68395-0.43449 1.3909-0.63284 2.0388h-4.4297c0.70193-2.0158 1.4093-3.9148 2.0391-5.625 0.62982-1.71 1.225-3.3394 1.8281-4.8514 0.60321-1.512 1.1729-2.93 1.7578-4.289 0.58492-1.359 1.198-2.6416 1.8281-3.9374zm1.9687 4.2188c-0.09071 0.27016-0.24204 0.65658-0.4218 1.1251-0.17975 0.46791-0.39882 1.005-0.63284 1.617-0.23403 0.61199-0.49436 1.2308-0.77344 1.9688-0.27908 0.73806-0.55589 1.51-0.84374 2.3204h5.3437c-0.28785-0.81033-0.57373-1.5824-0.84374-2.3204-0.27001-0.73807-0.53034-1.3567-0.77344-1.9688-0.2431-0.61198-0.45279-1.1493-0.63284-1.617-0.1799-0.46851-0.31355-0.85478-0.4218-1.1251z" stroke-width="0"/></svg>
