<svg version="1.1" viewBox="0 0 99.721 64.775" xmlns="http://www.w3.org/2000/svg">
  <g id="twitter-button-annotation" aria-labelledby="twitter-button-annotation-title">
    <title id="twitter-button-annotation-title">for in between</title>
    <path d="m84.04 47.511c6.1631 0.8315 13.205 7.3398 14.929 16.504" fill="none" stroke-linecap="round" stroke-width="1.5"/>
    <path d="m67.906 41.055c-0.4415 2.3341-0.53576 4.4211-0.97508 6.7375 0.51723-3.3729 1.435-6.6486 4.5914-6.2488 3.52 0.4455 2.4282 4.7496 2.1844 7.1932m-16.177-5.3938c1.4494 0.368 3.9956 1.0501 5.3244-0.011 1.2652-1.0105-0.052-2.6163-1.1297-2.9619-1.2484-0.4004-2.8455 0.035-3.8517 0.8955-1.342 1.148-1.2804 3.5716-0.14909 4.5752 1.345 1.1932 3.8677 1.4478 5.4371 0.9811m-15.882-4.9221c1.5428 0.2179 3.7641 0.9207 5.184-0.1373 0.51174-0.3813 0.43086-1.3637 0.0456-1.8108-1.9121-2.2188-6.0846-0.8489-6.0988 2.3026-0.0153 3.3921 5.1586 4.0789 6.854 3.1802m-21.345-9.0313c0.62566 2.6404 1.2143 4.7771 1.9717 7.1971 1.2541-1.2141 2.4112-2.3087 3.3761-3.4308 0.51717 1.4131 1.2413 2.9101 1.8044 4.0945 1.561-2.1772 2.8621-4.2911 4.3481-6.3639m-21.173-3.4321c1.9146 0.2158 4.5888 0.5432 6.1119 0.8594m-1.968-9.1933c-0.62155 5.5048-1.5008 11.468-2.0316 16.237m-11.442-4.6978c1.3079 0.1782 4.6137 0.5323 5.7581-0.2876 0.68022-0.4873-0.12105-1.7034-0.48582-2.0381-1.4377-1.3191-3.6022-1.3053-5.1107-0.095-1.6369 1.3134-1.4386 3.9 0.16325 5.1287 1.3046 1.0007 3.8127 1.1128 5.3154 0.5388m-15.804-17.776c-0.52328 3.6936-0.99594 8.0302-1.3951 11.163l-0.37802 2.9402c-0.64709 5.0329 0.21821-2.072 0.86836-3.3253 1.117-2.1534 5.699-0.556 6.2714 1.404 0.90739 3.1069-1.055 4.6088-4.7303 4.2376-0.63148-0.064-1.663-0.1617-2.5604-0.3514m58.826-24.566c-0.34918 2.3645-0.77609 4.9767-0.9846 6.8564 0.5177-3.6141 1.7076-6.6156 4.1644-6.402 3.542 0.3081 2.407 4.6962 2.1433 7.1655m-7.9701-12.757c-0.11144 0.1752-0.22283 0.3503-0.33423 0.5254-0.0176 0.022-0.0354 0.045-0.053 0.067m-0.62445 4.1079c-0.4064 2.394-0.65168 4.5056-0.94571 6.7651m-16.829-8.9827c-0.39873 2.4026-0.71503 4.807-0.95328 6.8059 0.41696-2.3435 0.96351-4.4984 1.3757-6.6395 0.40538 0.2912 1.558 0.7002 2.22 0.7971 0.67945 0.1 1.9237 0.092 2.665-0.068m-11.664-1.5025c-1.6112-0.5325-3.6072-0.5712-4.966 0.9791-2.8449 3.2459 3.4217 6.8674 5.7663 5.0723 3.2349-2.4767 0.57023-8.8464-3.3967-5.4982m-12.083-2.8169c2.5149 0.3375 4.518 0.5859 7.1295 0.9237m3.6036-7.2104c-3.3197-3.4267-5.7928-2.275-6.4 0.9104-1.223 6.4156-1.897 15.905-2.326 19.737" fill="none" stroke-linecap="round" stroke-linejoin="round" stroke-width="1.5"/>
  </g>
</svg>
