<svg role="img" version="1.1" viewBox="0 0 220 50" xmlns="http://www.w3.org/2000/svg">
  <g id="youtube-button" aria-labelledby="youtube-button-desc">
    <title id="youtube-button-title">Watch all Videos</title>
    <desc id="youtube-button-desc">A button with the YouTube Icon next to "Watch all Videos"</desc>
    <path d="m0 0h220v50h-220z" fill="#f00"/>
    <path d="m32.956 16.194s-7.8161-9.8e-4 -9.7658 0.52453c-1.0757 0.28935-1.9231 1.1432-2.2106 2.2259-0.52237 1.9622-0.52266 6.0559-0.52266 6.0559s9e-5 4.0934 0.52266 6.0559c0.2875 1.0825 1.1349 1.9364 2.2106 2.2259 1.9496 0.52572 9.7658 0.52453 9.7658 0.52453s7.8183 9.7e-4 9.7677-0.52453c1.0759-0.28949 1.9232-1.1434 2.2107-2.2259 0.52237-1.9625 0.52257-6.0559 0.52257-6.0559s-2e-4 -4.0937-0.52257-6.0559c-0.2875-1.0827-1.1348-1.9366-2.2107-2.2259-1.9494-0.52586-9.7677-0.52453-9.7677-0.52453zm-2.5559 5.0889 6.5347 3.7175-6.5347 3.7175z" fill="#fff"/>
    <path d="m196.73 29.181q0-0.48307-0.48307-0.75651-0.47396-0.28255-1.5312-0.5013-3.5182-0.73828-3.5182-2.9896 0-1.3125 1.0846-2.1875 1.0938-0.88412 2.8529-0.88412 1.8776 0 2.9987 0.88412 1.1302 0.88411 1.1302 2.2969h-2.6341q0-0.5651-0.36458-0.92969-0.36458-0.37369-1.1393-0.37369-0.66537 0-1.03 0.30078t-0.36458 0.76562q0 0.4375 0.41015 0.71094 0.41927 0.26432 1.4036 0.46484 0.98437 0.19141 1.6588 0.4375 2.0872 0.76563 2.0872 2.6524 0 1.349-1.1576 2.1875-1.1576 0.82942-2.9896 0.82942-1.2396 0-2.2057-0.4375-0.95703-0.44661-1.5039-1.2122-0.54687-0.77473-0.54687-1.668h2.4974q0.0365 0.70182 0.51953 1.0755 0.48308 0.37369 1.2943 0.37369 0.75651 0 1.1393-0.28255 0.39192-0.29166 0.39192-0.75651zm-16.324-2.2969q0-1.4674 0.5651-2.6159 0.56511-1.1484 1.6224-1.7773 1.0664-0.62891 2.47-0.62891 1.9961 0 3.2539 1.2214 1.2669 1.2214 1.4128 3.3177l0.0182 0.67448q0 2.2695-1.2669 3.6458-1.2669 1.3672-3.3997 1.3672t-3.4088-1.3672q-1.2669-1.3672-1.2669-3.7188zm2.6341 0.1914q0 1.4036 0.52865 2.151 0.52864 0.73828 1.513 0.73828 0.95703 0 1.4948-0.72917 0.53776-0.73828 0.53776-2.3516 0-1.3763-0.53776-2.1328-0.53776-0.75651-1.513-0.75651-0.96615 0-1.4948 0.75651-0.52865 0.7474-0.52865 2.3242zm-7.7838 5.013q-2.1693 0-3.5364-1.3307-1.3581-1.3307-1.3581-3.5456v-0.25521q0-1.4857 0.57422-2.6523 0.57422-1.1758 1.6224-1.8047 1.0573-0.63802 2.4062-0.63802 2.0234 0 3.181 1.276 1.1667 1.276 1.1667 3.6185v1.0755h-6.2799q0.1276 0.96615 0.76562 1.5495 0.64714 0.58334 1.6315 0.58334 1.5221 0 2.3789-1.1029l1.2943 1.4492q-0.59245 0.83854-1.6042 1.3125-1.0117 0.46484-2.2422 0.46484zm-0.30078-8.0938q-0.78385 0-1.276 0.52865-0.48307 0.52865-0.61979 1.513h3.6641v-0.20963q-0.0182-0.875-0.47396-1.349-0.45573-0.48308-1.2943-0.48308zm-15.185 2.9076q0-2.306 1.03-3.6732 1.0391-1.3672 2.8346-1.3672 1.4401 0 2.3789 1.0755v-5.0312h2.6432v14h-2.3789l-0.12761-1.0482q-0.98437 1.2305-2.5338 1.2305-1.7409 0-2.7982-1.3672-1.0482-1.3763-1.0482-3.819zm2.6341 0.1914q0 1.3854 0.48307 2.1237t1.4036 0.73828q1.2214 0 1.7226-1.03v-3.8919q-0.49218-1.03-1.7044-1.03-1.905 0-1.905 3.0898zm-4.4024 4.8125h-2.6432v-9.862h2.6432zm-2.7982-12.414q0-0.59245 0.39192-0.97526 0.40104-0.38281 1.0846-0.38281 0.67448 0 1.0755 0.38281t0.40104 0.97526q0 0.60156-0.41016 0.98438-0.40104 0.38281-1.0664 0.38281-0.66537 0-1.0755-0.38281-0.40104-0.38282-0.40104-0.98438zm-7.1185 9.1237 3.0078-9.9805h3.0443l-4.6211 13.271h-2.8529l-4.6029-13.271h3.0352zm-11.922 3.2904h-2.6432v-14h2.6432zm-4.9583 0h-2.6432v-14h2.6432zm-7.0911 0q-0.18229-0.35547-0.26433-0.88411-0.95703 1.0664-2.4883 1.0664-1.4492 0-2.4062-0.83854-0.94791-0.83854-0.94791-2.1146 0-1.5677 1.1576-2.4062 1.1667-0.83854 3.3633-0.84766h1.2122v-0.5651q0-0.68359-0.35547-1.0938-0.34635-0.41016-1.1029-0.41016-0.66537 0-1.0482 0.31901-0.3737 0.31901-0.3737 0.875h-2.6341q0-0.85677 0.52864-1.5859 0.52865-0.72917 1.4948-1.1393 0.96615-0.41927 2.1693-0.41927 1.8229 0 2.8893 0.92058 1.0755 0.91145 1.0755 2.5703v4.2747q9e-3 1.4036 0.39193 2.1237v0.15495zm-2.1784-1.832q0.58334 0 1.0755-0.25521 0.49219-0.26432 0.72917-0.70182v-1.6953h-0.98438q-1.9779 0-2.1055 1.3672l-9e-3 0.15494q0 0.49219 0.34636 0.8112 0.34635 0.31901 0.94791 0.31901zm-16.096-6.9544q1.0482-1.2578 2.6341-1.2578 3.2083 0 3.2539 3.7279v6.3164h-2.6341v-6.2435q0-0.84765-0.36459-1.2487-0.36458-0.41016-1.2122-0.41016-1.1576 0-1.6771 0.89323v7.0091h-2.6341v-14h2.6341zm-8.2031 6.8451q0.72917 0 1.1849-0.40105 0.45573-0.40104 0.47396-1.0664h2.47q-9e-3 1.0026-0.54687 1.8411-0.53776 0.82943-1.4766 1.2943-0.92968 0.45572-2.0599 0.45572-2.1146 0-3.3359-1.3398-1.2214-1.349-1.2214-3.7188v-0.17318q0-2.2786 1.2122-3.6367 1.2122-1.3581 3.3268-1.3581 1.8503 0 2.9622 1.0573 1.1211 1.0482 1.1393 2.7982h-2.47q-0.0182-0.76562-0.47396-1.2396-0.45573-0.48308-1.2031-0.48308-0.92058 0-1.3945 0.67448-0.46484 0.66537-0.46484 2.1693v0.27344q0 1.5221 0.46484 2.1875 0.46485 0.66537 1.4128 0.66537zm-7.2552-10.345v2.4245h1.6862v1.9323h-1.6862v4.9219q0 0.54688 0.20964 0.78385 0.20964 0.23698 0.80208 0.23698 0.4375 0 0.77474-0.0638v1.9961q-0.77474 0.23697-1.595 0.23697-2.7708 0-2.8255-2.7982v-5.3138h-1.4401v-1.9323h1.4401v-2.4245zm-7.4648 12.286q-0.18229-0.35547-0.26432-0.88411-0.95703 1.0664-2.4883 1.0664-1.4492 0-2.4062-0.83854-0.94792-0.83854-0.94792-2.1146 0-1.5677 1.1576-2.4062 1.1667-0.83854 3.3633-0.84766h1.2122v-0.5651q0-0.68359-0.35547-1.0938-0.34635-0.41016-1.1029-0.41016-0.66536 0-1.0482 0.31901-0.37369 0.31901-0.37369 0.875h-2.6341q0-0.85677 0.52865-1.5859 0.52864-0.72917 1.4948-1.1393 0.96614-0.41927 2.1693-0.41927 1.8229 0 2.8893 0.92058 1.0755 0.91145 1.0755 2.5703v4.2747q9e-3 1.4036 0.39193 2.1237v0.15495zm-2.1784-1.832q0.58333 0 1.0755-0.25521 0.49218-0.26432 0.72916-0.70182v-1.6953h-0.98437q-1.9779 0-2.1055 1.3672l-9e-3 0.15494q0 0.49219 0.34635 0.8112t0.94792 0.31901zm-9.069-1.9961 1.7864-9.4427h2.7253l-2.944 13.271h-2.7526l-2.1602-8.8776-2.1602 8.8776h-2.7526l-2.944-13.271h2.7253l1.7956 9.4245 2.1875-9.4245h2.3151z" fill="#fff"/>
  </g>
</svg>
