<svg id="youtube-button-annotation" aria-labelledby="youtube-button-annotation-title" version="1.1" viewBox="0 0 179.81 59.505" xmlns="http://www.w3.org/2000/svg">
  <title id="youtube-button-annotation-title">a new video every two weeks</title>
  <path d="m37.47 24.56c-12.404 2.4583-34.45-4.5064-36.719-23.799" fill="none" stroke-linecap="round" stroke-linejoin="round" stroke-width="1.5005"/>
  <path d="m178.3 35.744c-0.887-0.61348-1.8053-0.88836-2.805-0.78715-1.541 0.15604-3.9364 0.86147-2.0912 2.6746 1.7436 1.7133 5.787-0.13127 5.6525 2.7884-0.08 1.8213-5.3927 1.7091-6.6307 0.59579m-5.8546-2.0805c0.9951 1.3876 1.7136 2.2916 2.7015 3.5022m-7.6356-15.942c0.2276 4.5877 0.8222 8.2956 0.7573 12.742 0 0.31262 0.187 2.4352 0.3678 3.6401 1.254-1.2062 2.6332-3.1827 3.3154-4.0586 0.8763-1.1254 1.4109-1.8072 2.5275-3.3224m-16.297 4.8094c1.9051 0.0847 4.8342 0.29836 6.1798-1.2846 0.6092-0.71634-0.2674-1.3374-0.7943-1.7081-1.7465-1.229-4.339-0.79735-5.6366 0.87052-1.3498 1.735-1.0433 4.8238 1.415 5.1831 2.0798 0.30395 4.0785-0.12685 5.706-1.1157m-18.53-1.2374c1.7016 0.35039 5.2741 0.5023 6.4509-1.2066 1.0624-1.5431-1.0887-2.5981-3.3039-2.2734-2.51 0.36784-4.1239 1.6462-3.6397 3.9738 0.7958 3.8251 5.744 3.2568 7.9658 1.2486m-22.144-3.9503c0.4712 1.1507 0.8836 2.3548 1.3527 3.2184 0.6898 1.2699 1.312 2.1923 1.9482 3.3681 0.965-1.6038 1.4942-2.6248 2.3763-4.0496 0.9845 1.2562 1.7085 2.7585 2.541 3.7158 0.6937-1.2492 1.3961-2.4011 1.861-3.4508 0.6973-1.5747 1.1841-3.1382 1.3872-3.7552m-31.118 3.1158c-1.9903-1.5891-4.8787 0.34322-4.7917 2.7408 0.1282 3.5328 4.3627 4.3151 6.9022 2.7585 0.9276-0.56862 1.5046-1.416 1.6215-2.4974 0.3001-2.7746-4.4909-4.8013-6.2308-2.565m-16.312 0.40214c0.6844 1.3324 1.064 2.3769 1.6652 3.5099 0.3836 0.7229 1.1443 2.3329 1.5154 3.0366 0.9297-1.3781 1.8879-2.5786 2.4569-3.5296 0.9582 1.0118 1.9839 2.4934 2.6637 3.1348 0.4698-1.0134 1.0989-2.3998 1.4777-3.3929 0.5269-1.3813 0.9621-2.5206 1.3938-3.6529m-19.343 1.4239c1.6768-0.0702 4.0285-0.28646 5.5357-0.38464m-3.0709-9.5862c0.107 1.0402 0.031 2.0868 0.053 3.1297 0.07 3.339 0.4033 6.6698 0.5183 10.006 0.047 1.3546 0.1494 2.6238 0.1566 4.0631m-16.482-6.1846c-0.4588 1.2963-1.0142 2.4553-1.5723 3.7148-1.8453 4.1638-3.793 8.3195-5.2643 11.65m-1.6152-14.727c1.8515 2.303 3.4008 4.3958 4.8878 6.4548m-14.161-5.7217c0.16561 2.2875 0.21788 4.5146 0.54971 6.8586-0.16679-2.1722-0.0855-4.4532-0.30912-6.5676-0.0558-0.11287-0.32494-0.19693-0.24119-0.29099 0.15374-0.17251 1.081 0.0682 1.2911 0.12008 1.7316 0.42764 3.1887 0.077 4.7231-0.47387m-16.377 5.042c1.7871 0.0897 4.0192 0.0443 5.3738-1.2668 1.7084-1.6534-1.6886-3.7686-4.1219-2.3802-1.9034 1.0861-3.5253 3.2252-2.1902 5.2687 0.32231 0.49333 0.74337 0.83322 1.3299 1.0327 2.107 0.71664 4.6535-0.41458 6.6421-1.0347m-18.624-4.5368c1.3187 2.6334 2.5505 4.248 4.1971 6.4056 1.4442-2.296 2.5596-4.7424 3.5162-6.9672m-16.079 4.9701c1.8095 0.0222 4.1758-0.0786 5.573-1.5225 0.61504-0.63566-0.18449-1.5797-0.6817-1.9566-1.4336-1.0866-3.7138-0.4966-5.0308 0.44165-1.902 1.3552-2.6483 4.8942 0.18707 5.6939 1.8394 0.51877 4.3979-0.26157 6.1169-0.95462" fill="none" stroke-linecap="round" stroke-linejoin="round" stroke-width="1.5"/>
  <path d="m46.83 21.024c1.3997-1.1189 2.9501-1.4393 4.4531-1.4078 3.4877 0.0731 5.2048 7.1297-0.67754 6.8903-1.0244-0.042-2.3997-0.10442-2.8936-1.0955-1.4597-2.9302 4.7534-3.5758 6.1158-1.2402m89.909-11.137c-1.9078-0.64436-4.0131 0.34426-4.9671 2.0837-0.3149 0.57411-0.2909 1.1219-0.1164 1.737 0.9006 3.1801 5.7917 3.1324 7.8768 1.2006 3.1238-2.8942-0.6113-6.7338-4.6965-5.3817m-12.164 4.2971c1.396 0.0295 4.0132-0.10588 4.82-1.5566 0.3757-0.67537-0.5246-1.517-1.0411-1.7513-1.887-0.85599-3.5088-0.32638-4.7129 0.91642-1.7899 1.8476-0.4395 4.64 1.9404 5.319 1.6018 0.457 3.9462 0.057 5.4182-0.68688m-12.878-4.8958c-1.5252-0.53316-3.2237-0.32727-4.4987 0.7193-2.2729 1.8659-0.8928 6.1164 2.1579 5.9348 0.6287-0.0374 1.1843-0.38144 1.6909-0.72257 2.7658-1.8621 1.5705-6.4312 1.4783-9.2506-0.07-2.1586-0.3165-4.3696-0.4839-6.59 0.1621 1.8252 0.3251 4.0126 0.4323 5.4997 0.1818 2.6436 0.5314 5.3496 0.6535 8.0018 0.034 0.76563 0.3971 1.9911 0.5964 2.7274m-11.358-10.403c-0.7016 0.85038-0.4263 0.38817 0 0zm0.06 4.4397c0.1636 2.13 0.3727 4.9838 0.5313 6.9175m-10.72-6.3431c1.5717 2.5445 2.8137 4.6415 4.0984 6.8253 1.0179-2.3207 2.0314-4.7961 2.9872-7.171m-47.089 3.3512c0.071 1.0493 0.2494 2.0856 0.3349 3.1338 0.1158 1.3774 0.3064 2.7614 0.3441 4.0762-0.051-1.0263-0.068-2.0385-0.073-2.975-0.011-1.9785 0.5082-3.5207 2.5448-3.9095 0.5574-0.10637 1.2278-0.22547 1.7785-0.0463 1.478 0.48098 1.9605 2.313 2.128 3.6925 0.1144 0.94099 0.294 1.9573 0.3132 2.6787m11.514-7.8538c0.3178 1.019 0.6943 1.9462 1.187 2.8363 0.7885 1.4246 1.4967 2.6384 2.3619 3.8886 0.6259-0.84292 1.7702-3.3833 2.0148-3.8893 0.5598 0.71084 2.0842 4.5794 2.6047 3.3851 0.6907-1.585 1.3298-3.2759 1.7773-4.9467 0.083-0.3075 0.4815-1.3262 0.7644-2.1268m-18.187 5.2621c1.6131 0.0955 4.0142 0.13142 5.1205-1.3088 1.127-1.4671-1.9681-2.7763-3.0207-2.6955-0.8557 0.0657-1.7309 0.56662-2.3504 1.1477-1.6265 1.5256-1.1189 4.5548 0.9769 5.3929 1.3886 0.55536 3.9295 0.44408 5.3032-0.1493" fill="none" stroke-linecap="round" stroke-linejoin="round" stroke-width="1.5"/>
</svg>
